# Blender v2.79 (sub 0) OBJ File: ''
# www.blender.org
mtllib bodyjoints.mtl
o l_triceps
v 1.460224 2.311227 0.278375
v 1.460236 2.311227 0.083677
v 2.239027 2.311228 0.083723
v 2.239015 2.311228 0.278420
v 1.460224 2.505925 0.278375
v 2.239015 2.505925 0.278420
v 2.239026 2.505925 0.083723
v 1.460236 2.505925 0.083677
vt -0.000000 0.750000
vt -0.000000 0.500000
vt 0.796875 0.500000
vt 0.796875 0.750000
vt -0.000000 0.000000
vt 0.796875 0.000000
vt 0.796875 0.250000
vt 0.000000 0.250000
vt 0.796980 0.201621
vt 0.796980 0.406208
vt 1.003928 0.406208
vt 1.003928 0.201621
vt 1.002532 -0.001750
vt 1.002532 0.202120
vt 0.797584 0.202120
vt 0.797584 -0.001750
vt -0.000000 1.000000
vt 0.796875 1.000000
vn 0.0000 -1.0000 0.0000
vn 0.0000 1.0000 0.0000
vn -1.0000 0.0000 -0.0001
vn 0.0001 0.0000 -1.0000
vn 1.0000 0.0000 0.0001
vn -0.0001 -0.0000 1.0000
usemtl Material.001_l_triceps.jpg
s off
f 1/1/1 2/2/1 3/3/1 4/4/1
f 5/5/2 6/6/2 7/7/2 8/8/2
f 1/9/3 5/10/3 8/11/3 2/12/3
f 2/2/4 8/8/4 7/7/4 3/3/4
f 3/13/5 7/14/5 6/15/5 4/16/5
f 5/17/6 1/1/6 4/4/6 6/18/6
o l_hand
v 2.414248 2.194409 0.492593
v 2.414248 2.194409 0.064259
v 2.842583 2.194409 0.064258
v 2.842583 2.194409 0.492593
v 2.414248 2.622743 0.492592
v 2.842583 2.622743 0.492593
v 2.842583 2.622743 0.064258
v 2.414248 2.622743 0.064258
vt 0.000000 0.750000
vt 0.000000 0.500000
vt 0.796875 0.500000
vt 0.796875 0.750000
vt 0.000000 0.000000
vt 0.796875 0.000000
vt 0.796875 0.250000
vt 0.000000 0.250000
vt 0.796875 0.214844
vt 0.796875 0.000000
vt 1.000000 0.000000
vt 1.000000 0.214844
vt 1.000000 0.000000
vt 0.796875 0.000000
vt 0.796875 0.214844
vt 1.000000 0.214844
vt 0.000000 1.000000
vt 0.796875 1.000000
vn 0.0000 -1.0000 0.0000
vn 0.0000 1.0000 0.0000
vn -1.0000 0.0000 0.0000
vn -0.0000 -0.0000 -1.0000
vn 1.0000 -0.0000 0.0000
vn -0.0000 0.0000 1.0000
usemtl Material.001_l_hand.jpg
s off
f 9/19/7 10/20/7 11/21/7 12/22/7
f 13/23/8 14/24/8 15/25/8 16/26/8
f 9/27/9 13/28/9 16/29/9 10/30/9
f 10/20/10 16/26/10 15/25/10 11/21/10
f 11/31/11 15/32/11 14/33/11 12/34/11
f 13/35/12 9/19/12 12/22/12 14/36/12
o l_biceps
v 0.681447 2.213878 0.375756
v 0.681431 2.213878 -0.013639
v 1.460221 2.213879 -0.013672
v 1.460238 2.213879 0.375723
v 0.681447 2.603273 0.375756
v 1.460238 2.603274 0.375723
v 1.460221 2.603274 -0.013672
v 0.681431 2.603273 -0.013639
vt -0.000159 0.750000
vt -0.000159 0.500000
vt 0.797034 0.500000
vt 0.797034 0.750000
vt -0.000159 0.000000
vt 0.797034 0.000000
vt 0.797034 0.250000
vt -0.000159 0.250000
vt 0.797187 0.203142
vt 0.999555 0.203142
vt 0.999555 0.406320
vt 0.797187 0.406320
vt 0.797862 -0.000234
vt 1.000206 -0.000234
vt 1.000206 0.203251
vt 0.797862 0.203251
vt -0.000159 1.000000
vt 0.797034 1.000000
vn 0.0000 -1.0000 -0.0000
vn -0.0000 1.0000 0.0000
vn -1.0000 0.0000 0.0000
vn -0.0000 0.0000 -1.0000
vn 1.0000 -0.0000 -0.0000
vn 0.0000 -0.0000 1.0000
usemtl Material.001_l_biceps.jpg
s off
f 17/37/13 18/38/13 19/39/13 20/40/13
f 21/41/14 22/42/14 23/43/14 24/44/14
f 17/45/15 21/46/15 24/47/15 18/48/15
f 18/38/16 24/44/16 23/43/16 19/39/16
f 19/49/17 23/50/17 22/51/17 20/52/17
f 21/53/18 17/37/18 20/40/18 22/54/18
