# Blender v2.79 (sub 0) OBJ File: ''
# www.blender.org
mtllib box.mtl
o Cube.001
v -1.000000 -0.399171 -1.000000
v -1.000000 -0.399171 1.000000
v 1.000000 -0.399171 1.000000
v 1.000000 -0.399171 -1.000000
v -1.022279 -0.749865 -1.094436
v 1.081482 -0.749865 -1.094436
v 1.081482 -0.749865 1.029140
v -1.022280 -0.749865 1.029139
v 1.000001 1.000000 -0.999999
v -1.000000 1.000000 -1.000000
v 1.000000 1.000000 1.000000
v -1.000000 1.000000 1.000000
v -1.022279 1.019187 -1.094437
v 1.081483 1.019187 -1.094436
v 1.081482 1.019187 1.029140
v -1.022279 1.019187 1.029140
v -1.066449 0.545714 1.366049
v 1.117619 0.545714 1.366049
v -1.298549 0.563421 -1.129744
v -1.298550 0.563421 1.063881
v 1.251335 0.539720 0.995110
v 1.251336 0.539720 -1.128466
v 1.101253 0.564828 -1.370596
v -1.002509 0.564828 -1.370597
vt 0.747479 0.476612
vt 0.679297 0.455005
vt 0.692287 0.384154
vt 0.763129 0.404634
vt 0.469389 0.048618
vt 0.469390 0.497747
vt 0.009879 0.497747
vt 0.009878 0.048619
vt 0.908898 0.252387
vt 0.883544 0.611089
vt 0.543665 0.250271
vt 0.555088 0.582826
vt 0.974139 0.217239
vt 0.974139 0.624296
vt 0.500613 0.624296
vt 0.500613 0.217239
vt 0.469357 0.032853
vt 0.469668 0.496964
vt 0.009993 0.496964
vt 0.010304 0.032854
vt 0.495815 0.624728
vt 0.496142 0.219449
vt 0.977995 0.219449
vt 0.978322 0.624728
vt 0.464254 0.043118
vt 0.464254 0.503382
vt 0.014765 0.503382
vt 0.014765 0.043119
vt 0.550197 0.586823
vt 0.537555 0.237192
vt 0.898931 0.617706
vt 0.927503 0.237191
vt 0.479710 0.798068
vt 0.043227 0.798069
vt 0.034062 0.677502
vt 0.487208 0.677502
vt 0.950818 0.893913
vt 0.510223 0.893913
vt 0.519151 0.765832
vt 0.957401 0.765832
vt 0.951245 0.894186
vt 0.510650 0.894186
vt 0.517572 0.765929
vt 0.958167 0.765929
vt 0.479046 0.980101
vt 0.042562 0.980101
vt 0.038713 0.870458
vt 0.475197 0.870458
vn 0.0000 1.0000 0.0000
vn 0.0000 -1.0000 -0.0000
vn -0.0000 -0.0000 1.0000
vn -1.0000 0.0000 -0.0000
vn 0.0000 0.0000 -1.0000
vn 1.0000 0.0000 0.0000
vn 0.0000 0.8352 -0.5499
vn 0.6526 0.7577 0.0000
vn -0.2292 0.9734 0.0000
vn -0.0000 0.9800 0.1991
vn 0.0000 0.5798 0.8148
vn -0.8552 0.5184 -0.0000
vn 0.9426 0.3339 0.0000
vn 0.0000 0.5194 -0.8545
usemtl Material.001
s off
f 1/1/1 2/2/1 3/3/1 4/4/1
f 5/5/2 6/6/2 7/7/2 8/8/2
f 1/1/3 4/4/3 9/9/3 10/10/3
f 4/4/4 3/3/4 11/11/4 9/9/4
f 3/3/5 2/2/5 12/12/5 11/11/5
f 10/10/6 12/12/6 2/2/6 1/1/6
f 5/13/5 13/14/5 14/15/5 6/16/5
f 6/17/6 14/18/6 15/19/6 7/20/6
f 7/21/3 15/22/3 16/23/3 8/24/3
f 13/25/4 5/26/4 8/27/4 16/28/4
f 11/11/7 12/12/7 16/29/7 15/30/7
f 12/12/8 10/10/8 13/31/8 16/29/8
f 9/9/9 11/11/9 15/30/9 14/32/9
f 10/10/10 9/9/10 14/32/10 13/31/10
f 15/33/11 16/34/11 17/35/11 18/36/11
f 16/37/12 13/38/12 19/39/12 20/40/12
f 14/41/13 15/42/13 21/43/13 22/44/13
f 13/45/14 14/46/14 23/47/14 24/48/14
