# Blender v2.74 (sub 0) OBJ File: ''
# www.blender.org
mtllib benthalo.mtl
o Torus
v 0.000000 0.106851 0.131078
v 0.000000 0.106851 0.251078
v 0.002853 0.104778 0.131078
v 0.002853 0.104778 0.251078
v 0.001763 0.101424 0.131078
v 0.001763 0.101424 0.251078
v -0.001763 0.101424 0.131078
v -0.001763 0.101424 0.251078
v -0.002853 0.104778 0.131078
v -0.002853 0.104778 0.251078
v 0.116477 -0.000000 0.271856
v 0.112453 -0.000000 0.277395
v 0.105941 -0.000000 0.275279
v 0.105941 -0.000000 0.268433
v 0.112453 -0.000000 0.266317
v 0.058238 0.100872 0.264622
v 0.056226 0.097387 0.270160
v 0.052971 0.091748 0.268045
v 0.052971 0.091748 0.261198
v 0.056226 0.097387 0.259083
v -0.058238 0.100872 0.239285
v -0.056226 0.097387 0.244824
v -0.052971 0.091748 0.242708
v -0.052971 0.091748 0.235862
v -0.056226 0.097387 0.233746
v -0.116477 -0.000000 0.264622
v -0.112453 -0.000000 0.270160
v -0.105941 -0.000000 0.268045
v -0.105941 -0.000000 0.261198
v -0.112453 -0.000000 0.259083
v -0.058238 -0.100872 0.250582
v -0.056226 -0.097387 0.256121
v -0.052971 -0.091748 0.254005
v -0.052971 -0.091748 0.247159
v -0.056226 -0.097387 0.245043
v 0.058238 -0.100872 0.264622
v 0.056226 -0.097387 0.270160
v 0.052971 -0.091748 0.268045
v 0.052971 -0.091748 0.261198
v 0.056226 -0.097387 0.259083
v -0.086830 0.050131 0.255016
v 0.000000 -0.110233 0.257447
v -0.092167 -0.053212 0.251395
v 0.000000 0.110233 0.251275
v 0.086830 -0.050131 0.272812
v -0.092167 0.053212 0.245222
v 0.095465 0.055117 0.269071
v -0.000000 -0.100263 0.261188
v -0.095465 0.055117 0.251275
v 0.086830 -0.050131 0.265331
v -0.086830 -0.050131 0.261188
v -0.095465 -0.055117 0.257447
v -0.000000 -0.100263 0.253707
v -0.092167 0.053212 0.257328
v 0.086830 0.050131 0.272812
v 0.092167 -0.053212 0.263019
v 0.092167 0.053212 0.263019
v 0.092167 -0.053212 0.275124
v 0.000000 0.106425 0.245222
v -0.086830 0.050131 0.247534
v 0.086830 0.050131 0.265331
v 0.000000 -0.106425 0.263500
v -0.092167 -0.053212 0.263500
v 0.000000 0.106425 0.257328
v 0.000000 -0.106425 0.251395
v 0.092167 0.053212 0.275124
v 0.000000 0.100263 0.255016
v 0.095465 -0.055117 0.269071
v 0.000000 0.100263 0.247534
v -0.086830 -0.050131 0.253707
vt 0.093417 0.056506
vt 0.093418 0.947400
vt 0.067235 0.947400
vt 0.067232 0.056506
vt 0.041052 0.947400
vt 0.041047 0.056506
vt 0.171972 0.056506
vt 0.171966 0.947400
vt 0.145783 0.947400
vt 0.145787 0.056506
vt 0.208751 0.538164
vt 0.207475 0.541270
vt 0.201946 0.541563
vt 0.199805 0.538638
vt 0.204011 0.536537
vt 0.119602 0.056506
vt 0.119601 0.947400
vt 0.222892 0.536537
vt 0.228121 0.538142
vt 0.228121 0.543730
vt 0.222892 0.545578
vt 0.219660 0.541132
vt 0.708766 0.180183
vt 0.706830 0.100655
vt 0.725197 0.100208
vt 0.727134 0.179736
vt 0.742817 0.099779
vt 0.744754 0.179307
vt 0.761619 0.099321
vt 0.763555 0.178849
vt 0.672778 0.181060
vt 0.670842 0.101532
vt 0.688462 0.101103
vt 0.690399 0.180630
vt 0.728286 0.981704
vt 0.726312 0.900630
vt 0.744679 0.900182
vt 0.746654 0.981257
vt 0.762300 0.899753
vt 0.764274 0.980828
vt 0.781101 0.899295
vt 0.783075 0.980370
vt 0.692298 0.982581
vt 0.690324 0.901506
vt 0.707944 0.901077
vt 0.709919 0.982151
vt 0.724337 0.819555
vt 0.722353 0.738057
vt 0.740720 0.737609
vt 0.742705 0.819108
vt 0.758340 0.737180
vt 0.760325 0.818679
vt 0.777142 0.736722
vt 0.779126 0.818221
vt 0.688349 0.820431
vt 0.686365 0.738933
vt 0.703985 0.738504
vt 0.705970 0.820002
vt 0.720406 0.658131
vt 0.718461 0.578260
vt 0.736829 0.577812
vt 0.738774 0.657684
vt 0.754449 0.577383
vt 0.756394 0.657255
vt 0.773250 0.576925
vt 0.775195 0.656797
vt 0.684418 0.659007
vt 0.682473 0.579136
vt 0.700093 0.578707
vt 0.702038 0.658578
vt 0.716516 0.498388
vt 0.714569 0.418462
vt 0.732937 0.418015
vt 0.734883 0.497941
vt 0.750557 0.417586
vt 0.752504 0.497512
vt 0.769358 0.417128
vt 0.771305 0.497054
vt 0.680528 0.499265
vt 0.678581 0.419339
vt 0.696202 0.418910
vt 0.698148 0.498836
vt 0.712633 0.338935
vt 0.710699 0.259559
vt 0.729067 0.259112
vt 0.731000 0.338487
vt 0.746687 0.258682
vt 0.748620 0.338058
vt 0.765489 0.258225
vt 0.767422 0.337600
vt 0.676645 0.339811
vt 0.674712 0.260435
vt 0.692332 0.260006
vt 0.694265 0.339382
vt 0.686477 0.019604
vt 0.704845 0.019157
vt 0.668857 0.020034
vt 0.740833 0.018281
vt 0.759634 0.017823
vt 0.723212 0.018710
vn 0.000000 0.803200 -0.595700
vn 0.000000 0.803200 0.595700
vn 0.763900 0.248200 0.595700
vn 0.763900 0.248200 -0.595700
vn 0.472100 -0.649800 0.595700
vn 0.472100 -0.649800 -0.595700
vn -0.472100 -0.649800 0.595700
vn -0.472100 -0.649800 -0.595700
vn -0.763900 0.248200 0.595700
vn -0.763900 0.248200 -0.595700
vn 0.865700 0.500600 0.005700
vn 0.493500 0.869200 0.028200
vn 0.101800 0.413300 0.904800
vn 0.287600 0.229900 0.929700
vn -0.479200 -0.583700 0.655500
vn -0.709000 -0.360600 0.606000
vn -0.284300 -0.720000 -0.633000
vn -0.670100 -0.435000 -0.601400
vn 0.333100 0.328600 -0.883800
vn 0.350300 0.137800 -0.926400
vn 0.001800 1.000000 -0.004400
vn -0.498500 0.863400 -0.077600
vn -0.243800 0.422300 0.873000
vn -0.191200 0.372300 0.908200
vn 0.394700 -0.683600 0.613900
vn -0.143200 -0.795200 0.589200
vn 0.367300 -0.636200 -0.678400
vn 0.144600 -0.792400 -0.592600
vn -0.185100 0.320600 -0.929000
vn 0.190000 0.366000 -0.911000
vn -0.866900 0.498400 -0.004400
vn -0.997800 0.005700 0.066400
vn -0.379100 0.039300 0.924500
vn -0.226800 0.351800 0.908200
vn 0.736800 0.043900 0.674600
vn 0.760200 -0.273600 0.589200
vn 0.783900 -0.036400 -0.619800
vn 0.613900 -0.521500 -0.592600
vn -0.479400 -0.043900 -0.876500
vn -0.412000 0.018400 -0.911000
vn -0.866100 -0.499800 -0.001000
vn -0.499500 -0.865100 -0.044900
vn -0.231700 -0.401400 0.886100
vn -0.266100 -0.277500 0.923100
vn 0.387200 0.670600 0.632700
vn 0.729600 0.327800 0.600100
vn 0.371300 0.643000 -0.669800
vn 0.648100 0.467800 -0.600900
vn -0.198000 -0.343000 -0.918200
vn -0.372000 -0.091000 -0.923700
vn 0.000200 -1.000000 -0.001000
vn 0.498700 -0.866700 0.008800
vn 0.143000 -0.406400 0.902400
vn -0.107300 -0.369200 0.923100
vn -0.445100 0.612100 0.653600
vn -0.080900 0.795800 0.600100
vn -0.312400 0.696000 -0.646400
vn 0.081100 0.795200 -0.600900
vn 0.288100 -0.338000 -0.896000
vn 0.107200 -0.367700 -0.923700
vn 0.865700 -0.500600 0.005700
vn 0.999800 0.000000 0.018300
vn 0.416400 0.000000 0.909200
vn 0.287600 -0.229900 0.929700
vn -0.750400 0.000000 0.660900
vn -0.709000 0.360600 0.606000
vn -0.763400 0.000000 -0.645900
vn -0.670100 0.435000 -0.601400
vn 0.443700 0.000000 -0.896100
vn 0.350300 -0.137800 -0.926400
usemtl Material.001
s 1
f 1/1/1 2/2/2 4/3/3 3/4/4
f 3/4/4 4/3/3 6/5/5 5/6/6
f 5/7/6 6/8/5 8/9/7 7/10/8
f 4/11/3 2/12/2 10/13/9 8/14/7 6/15/5
f 9/16/10 10/17/9 2/2/2 1/1/1
f 7/10/8 8/9/7 10/17/9 9/16/10
f 1/18/1 3/19/4 5/20/6 7/21/8 9/22/10
f 47/23/11 16/24/12 17/25/13 66/26/14
f 66/26/14 17/25/13 18/27/15 55/28/16
f 55/28/16 18/27/15 19/29/17 61/30/18
f 61/31/18 19/32/17 20/33/19 57/34/20
f 47/23/11 57/34/20 20/33/19 16/24/12
f 44/35/21 21/36/22 22/37/23 64/38/24
f 64/38/24 22/37/23 23/39/25 67/40/26
f 67/40/26 23/39/25 24/41/27 69/42/28
f 69/43/28 24/44/27 25/45/29 59/46/30
f 59/46/30 25/45/29 21/36/22 44/35/21
f 49/47/31 26/48/32 27/49/33 54/50/34
f 54/50/34 27/49/33 28/51/35 41/52/36
f 41/52/36 28/51/35 29/53/37 60/54/38
f 60/55/38 29/56/37 30/57/39 46/58/40
f 46/58/40 30/57/39 26/48/32 49/47/31
f 52/59/41 31/60/42 32/61/43 63/62/44
f 63/62/44 32/61/43 33/63/45 51/64/46
f 51/64/46 33/63/45 34/65/47 70/66/48
f 70/67/48 34/68/47 35/69/49 43/70/50
f 43/70/50 35/69/49 31/60/42 52/59/41
f 42/71/51 36/72/52 37/73/53 62/74/54
f 62/74/54 37/73/53 38/75/55 48/76/56
f 48/76/56 38/75/55 39/77/57 53/78/58
f 53/79/58 39/80/57 40/81/59 65/82/60
f 65/82/60 40/81/59 36/72/52 42/71/51
f 68/83/61 11/84/62 12/85/63 58/86/64
f 58/86/64 12/85/63 13/87/65 45/88/66
f 45/88/66 13/87/65 14/89/67 50/90/68
f 50/91/68 14/92/67 15/93/69 56/94/70
f 56/94/70 15/93/69 11/84/62 68/83/61
f 40/81/59 56/94/70 68/83/61 36/72/52
f 39/80/57 50/91/68 56/94/70 40/81/59
f 38/75/55 45/88/66 50/90/68 39/77/57
f 37/73/53 58/86/64 45/88/66 38/75/55
f 36/72/52 68/83/61 58/86/64 37/73/53
f 35/69/49 65/82/60 42/71/51 31/60/42
f 34/68/47 53/79/58 65/82/60 35/69/49
f 33/63/45 48/76/56 53/78/58 34/65/47
f 32/61/43 62/74/54 48/76/56 33/63/45
f 31/60/42 42/71/51 62/74/54 32/61/43
f 30/57/39 43/70/50 52/59/41 26/48/32
f 29/56/37 70/67/48 43/70/50 30/57/39
f 28/51/35 51/64/46 70/66/48 29/53/37
f 27/49/33 63/62/44 51/64/46 28/51/35
f 26/48/32 52/59/41 63/62/44 27/49/33
f 25/45/29 46/58/40 49/47/31 21/36/22
f 24/44/27 60/55/38 46/58/40 25/45/29
f 23/39/25 41/52/36 60/54/38 24/41/27
f 22/37/23 54/50/34 41/52/36 23/39/25
f 21/36/22 49/47/31 54/50/34 22/37/23
f 20/33/19 59/95/30 44/96/21 16/24/12
f 19/32/17 69/97/28 59/95/30 20/33/19
f 18/27/15 67/98/26 69/99/28 19/29/17
f 17/25/13 64/100/24 67/98/26 18/27/15
f 16/24/12 44/96/21 64/100/24 17/25/13
f 11/84/62 15/93/69 57/34/20 47/23/11
f 14/92/67 61/31/18 57/34/20 15/93/69
f 13/87/65 55/28/16 61/30/18 14/89/67
f 12/85/63 66/26/14 55/28/16 13/87/65
f 11/84/62 47/23/11 66/26/14 12/85/63
