# Blender v2.75 (sub 0) OBJ File: 'Full Tori.blend'
# www.blender.org
o head
v 0.000002 -0.000327 -1.069066
v 0.378228 0.156341 -0.987634
v 0.409391 -0.000326 -0.987634
v 0.698873 0.289157 -0.755734
v 0.756456 -0.000326 -0.755733
v 0.913121 0.377903 -0.408669
v 0.988357 -0.000325 -0.408668
v 0.988356 0.409067 0.000719
v 1.069789 -0.000324 0.000720
v 0.913122 0.377905 0.410108
v 0.988357 -0.000323 0.410109
v 0.698874 0.289161 0.757174
v 0.756456 -0.000322 0.757174
v 0.378228 0.156346 0.989075
v 0.409391 -0.000322 0.989075
v 0.000002 -0.000321 1.070507
v 0.289485 0.289161 0.989074
v 0.534895 0.534571 0.757173
v 0.698874 0.698549 0.410108
v 0.756456 0.756130 0.000718
v 0.698873 0.698547 -0.408670
v 0.534895 0.534567 -0.755735
v 0.289484 0.289156 -0.987635
v 0.156669 0.377901 -0.987635
v 0.289484 0.698546 -0.755735
v 0.378228 0.912796 -0.408671
v 0.409392 0.988030 0.000718
v 0.378228 0.912798 0.410107
v 0.289485 0.698550 0.757173
v 0.156669 0.377906 0.989074
v 0.000002 0.409069 0.989074
v 0.000002 0.756132 0.757173
v 0.000002 0.988031 0.410107
v 0.000001 1.069462 0.000718
v 0.000001 0.988029 -0.408671
v 0.000001 0.756128 -0.755735
v 0.000001 0.409064 -0.987635
v -0.156666 0.377901 -0.987635
v -0.289481 0.698547 -0.755735
v -0.378225 0.912796 -0.408670
v -0.409388 0.988030 0.000718
v -0.378225 0.912798 0.410107
v -0.289481 0.698551 0.757173
v -0.156665 0.377906 0.989074
v -0.289481 0.289161 0.989075
v -0.534892 0.534572 0.757173
v -0.698870 0.698550 0.410108
v -0.756452 0.756129 0.000719
v -0.698870 0.698548 -0.408670
v -0.534892 0.534569 -0.755734
v -0.289480 0.289156 -0.987634
v -0.378225 0.156340 -0.987634
v -0.698870 0.289156 -0.755734
v -0.913118 0.377902 -0.408669
v -0.988353 0.409066 0.000720
v -0.913118 0.377904 0.410109
v -0.698870 0.289160 0.757174
v -0.378224 0.156345 0.989075
v -0.409387 -0.000320 0.989075
v -0.756452 -0.000321 0.757175
v -0.988353 -0.000322 0.410110
v -1.069785 -0.000323 0.000721
v -0.988353 -0.000324 -0.408668
v -0.756452 -0.000325 -0.755733
v -0.409388 -0.000325 -0.987634
v -0.378225 -0.156992 -0.987633
v -0.698870 -0.289807 -0.755732
v -0.913118 -0.378552 -0.408667
v -0.988353 -0.409713 0.000722
v -0.913118 -0.378550 0.410111
v -0.698870 -0.289804 0.757175
v -0.378224 -0.156987 0.989076
v -0.289481 -0.289803 0.989076
v -0.534891 -0.535214 0.757176
v -0.698870 -0.699193 0.410112
v -0.756452 -0.756777 0.000723
v -0.698870 -0.699196 -0.408666
v -0.534892 -0.535218 -0.755732
v -0.289481 -0.289808 -0.987633
v -0.156666 -0.378553 -0.987633
v -0.289481 -0.699196 -0.755731
v -0.378224 -0.913445 -0.408666
v -0.409387 -0.988677 0.000723
v -0.378224 -0.913443 0.410112
v -0.289481 -0.699193 0.757176
v -0.156665 -0.378548 0.989076
v 0.000002 -0.409711 0.989076
v 0.000002 -0.756774 0.757176
v 0.000002 -0.988676 0.410112
v 0.000002 -1.070109 0.000723
v 0.000002 -0.988678 -0.408666
v 0.000002 -0.756778 -0.755731
v 0.000002 -0.409716 -0.987633
v 0.156669 -0.378553 -0.987633
v 0.289483 -0.699196 -0.755731
v 0.378228 -0.913444 -0.408666
v 0.409391 -0.988677 0.000723
v 0.378229 -0.913442 0.410112
v 0.289484 -0.699192 0.757176
v 0.156669 -0.378548 0.989076
v 0.289485 -0.289803 0.989076
v 0.534896 -0.535214 0.757176
v 0.698874 -0.699195 0.410111
v 0.756455 -0.756776 0.000722
v 0.698874 -0.699197 -0.408667
v 0.534895 -0.535217 -0.755732
v 0.289483 -0.289808 -0.987633
v 0.378228 -0.156992 -0.987633
v 0.698874 -0.289807 -0.755732
v 0.913122 -0.378551 -0.408668
v 0.988355 -0.409713 0.000721
v 0.913122 -0.378549 0.410110
v 0.698874 -0.289803 0.757175
v 0.378228 -0.156987 0.989075
v 0.000001 0.267121 -1.390002
v 0.208026 0.353286 -1.345214
v 0.225166 0.267121 -1.345214
v 0.384380 0.426336 -1.217669
v 0.416051 0.267121 -1.217669
v 0.502217 0.475146 -1.026785
v 0.543597 0.267122 -1.026784
v 0.543597 0.492287 -0.801621
v 0.588384 0.267121 -0.801620
v 0.502218 0.475148 -0.576456
v 0.543597 0.267121 -0.576456
v 0.384381 0.651502 -0.576457
v 0.416051 0.683172 -0.801621
v 0.384380 0.651501 -1.026785
v 0.294193 0.561313 -1.217670
v 0.159216 0.426336 -1.345214
v 0.086168 0.475145 -1.345214
v 0.159216 0.651500 -1.217670
v 0.208026 0.769338 -1.026785
v 0.225166 0.810716 -0.801621
v 0.208026 0.769339 -0.576457
v 0.000001 0.810716 -0.576457
v 0.000001 0.855505 -0.801621
v 0.000001 0.810715 -1.026785
v 0.000001 0.683170 -1.217670
v 0.000001 0.492285 -1.345214
v -0.086165 0.475145 -1.345214
v -0.159214 0.651500 -1.217670
v -0.208023 0.769337 -1.026785
v -0.225163 0.810716 -0.801621
v -0.208023 0.769339 -0.576457
v -0.384378 0.651501 -0.576457
v -0.416048 0.683171 -0.801621
v -0.384378 0.651500 -1.026785
v -0.294190 0.561312 -1.217670
v -0.159213 0.426336 -1.345214
v -0.208023 0.353287 -1.345214
v -0.384378 0.426336 -1.217669
v -0.502215 0.475146 -1.026785
v -0.543594 0.492286 -0.801620
v -0.502215 0.475147 -0.576456
v -0.543594 0.267123 -0.576456
v -0.588381 0.267122 -0.801620
v -0.543594 0.267121 -1.026784
v -0.416048 0.267121 -1.217669
v -0.225163 0.267121 -1.345214
v -0.208023 0.180954 -1.345214
v -0.384378 0.107905 -1.217668
v -0.502214 0.059097 -1.026784
v -0.543594 0.041958 -0.801619
v -0.416048 -0.148927 -0.801619
v -0.384377 -0.117259 -1.026783
v -0.294190 -0.027070 -1.217668
v -0.159213 0.107904 -1.345213
v -0.086165 0.059096 -1.345213
v -0.159213 -0.117259 -1.217668
v -0.208023 -0.235094 -1.026783
v -0.225162 -0.276473 -0.801618
v 0.000002 -0.321260 -0.801618
v 0.000002 -0.276474 -1.026783
v 0.000002 -0.148928 -1.217668
v 0.000002 0.041957 -1.345213
v 0.086168 0.059096 -1.345213
v 0.159216 -0.117259 -1.217668
v 0.208026 -0.235094 -1.026783
v 0.225166 -0.276473 -0.801619
v 0.416051 -0.148927 -0.801619
v 0.384381 -0.117259 -1.026783
v 0.294193 -0.027070 -1.217668
v 0.159216 0.107905 -1.345213
v 0.208026 0.180954 -1.345214
v 0.384381 0.107905 -1.217669
v 0.502218 0.059096 -1.026784
v 0.543596 0.041957 -0.801619
vt 0.750000 0.250000
vt 0.812500 0.250000
vt 0.812500 0.125000
vt 0.750000 0.125000
vt 0.750000 0.375000
vt 0.812500 0.375000
vt 0.750000 0.500000
vt 0.812500 0.500000
vt 0.750000 0.625000
vt 0.812500 0.625000
vt 0.875000 0.625000
vt 0.875000 0.500000
vt 0.875000 0.375000
vt 0.875000 0.250000
vt 0.875000 0.125000
vt 1.360404 0.000000
vt 0.937500 0.125000
vt 0.937500 0.250000
vt 0.937500 0.375000
vt 0.937500 0.500000
vt 0.937500 0.625000
vt 1.000000 0.625000
vt 1.000000 0.500000
vt 1.000000 0.375000
vt 1.000000 0.250000
vt 1.000000 0.125000
vt 1.062500 0.125000
vt 0.000000 0.125000
vt 0.000000 0.250000
vt 0.062500 0.250000
vt 0.062500 0.125000
vt 0.000000 0.375000
vt 0.062500 0.375000
vt 1.062500 0.500000
vt 1.062500 0.375000
vt 0.000000 0.625000
vt 0.062500 0.625000
vt 0.062500 0.500000
vt 0.000000 0.500000
vt 0.125000 0.625000
vt 0.125000 0.500000
vt 0.125000 0.375000
vt 0.125000 0.250000
vt 0.125000 0.125000
vt 0.360404 0.000000
vt 0.187500 0.125000
vt 0.187500 0.250000
vt 0.187500 0.375000
vt 0.187500 0.500000
vt 0.187500 0.625000
vt 0.250000 0.625000
vt 0.250000 0.500000
vt 0.250000 0.375000
vt 0.250000 0.250000
vt 0.250000 0.125000
vt 0.312500 0.125000
vt 0.312500 0.250000
vt 0.312500 0.375000
vt 0.312500 0.500000
vt 0.375000 0.500000
vt 0.375000 0.375000
vt 0.375000 0.250000
vt 0.375000 0.125000
vt 0.437500 0.125000
vt 0.437500 0.250000
vt 0.437500 0.375000
vt 0.437500 0.500000
vt 0.500000 0.500000
vt 0.500000 0.375000
vt 0.500000 0.250000
vt 0.500000 0.125000
vt 0.562500 0.125000
vt 0.562500 0.250000
vt 0.562500 0.375000
vt 0.562500 0.500000
vt 0.625000 0.500000
vt 0.625000 0.375000
vt 0.625000 0.250000
vt 0.625000 0.125000
vt 0.687500 0.125000
vt 0.687500 0.250000
vt 0.687500 0.375000
vt 0.687500 0.500000
vt 0.750000 0.750000
vt 0.812500 0.750000
vt 0.750000 0.875000
vt 0.812500 0.875000
vt 0.639815 1.000000
vt 0.875000 0.875000
vt 0.875000 0.750000
vt 1.372428 0.000000
vt 0.937500 0.750000
vt 0.937500 0.875000
vt 1.000000 0.875000
vt 1.000000 0.750000
vt 1.062500 0.250000
vt 1.062500 0.625000
vt 1.062500 0.750000
vt 1.062500 0.875000
vt 0.062500 0.875000
vt 0.125000 0.875000
vt 0.062500 0.750000
vt 0.125000 0.750000
vt 0.372428 0.000000
vt 0.187500 0.750000
vt 0.187500 0.875000
vt 0.250000 0.875000
vt 0.250000 0.750000
vt 0.312500 0.625000
vt 0.312500 0.750000
vt 0.312500 0.875000
vt 0.375000 0.875000
vt 0.375000 0.750000
vt 0.375000 0.625000
vt 0.437500 0.625000
vt 0.437500 0.750000
vt 0.437500 0.875000
vt 0.500000 0.875000
vt 0.500000 0.750000
vt 0.500000 0.625000
vt 0.562500 0.625000
vt 0.562500 0.750000
vt 0.562500 0.875000
vt 0.625000 0.875000
vt 0.625000 0.750000
vt 0.625000 0.625000
vt 0.687500 0.625000
vt 0.687500 0.750000
vt 0.687500 0.875000
vn -0.718800 0.000000 0.695200
vn -0.664100 -0.275100 0.695200
vn -0.372400 -0.154200 0.915200
vn -0.403100 0.000000 0.915200
vn -0.927300 0.000000 0.374300
vn -0.856700 -0.354800 0.374300
vn -0.995600 -0.066000 0.066000
vn -0.923900 -0.382700 0.000000
vn -0.962600 -0.191500 -0.191500
vn -0.906100 -0.375300 -0.195100
vn -0.693500 -0.693500 -0.195100
vn -0.707100 -0.707100 0.000000
vn -0.655700 -0.655700 0.374300
vn -0.508300 -0.508300 0.695200
vn -0.285000 -0.285000 0.915200
vn 0.000000 0.000000 1.000000
vn -0.154200 -0.372400 0.915200
vn -0.275100 -0.664100 0.695200
vn -0.354800 -0.856700 0.374300
vn -0.382700 -0.923900 0.000000
vn -0.375300 -0.906100 -0.195100
vn 0.000000 -0.980800 -0.195100
vn 0.000000 -1.000000 0.000000
vn 0.000000 -0.927300 0.374300
vn 0.000000 -0.718800 0.695200
vn 0.000000 -0.403100 0.915200
vn 0.154200 -0.372400 0.915200
vn 0.275100 -0.664100 0.695200
vn 0.354800 -0.856700 0.374300
vn 0.382700 -0.923900 0.000000
vn 0.375300 -0.906100 -0.195100
vn 0.693500 -0.693500 -0.195100
vn 0.707100 -0.707100 0.000000
vn 0.655700 -0.655700 0.374300
vn 0.508300 -0.508300 0.695200
vn 0.285000 -0.285000 0.915200
vn 0.372400 -0.154200 0.915200
vn 0.664100 -0.275100 0.695200
vn 0.856700 -0.354800 0.374300
vn 0.923900 -0.382700 0.000000
vn 0.906100 -0.375300 -0.195100
vn 0.962600 -0.191500 -0.191500
vn 0.995600 -0.066000 0.066000
vn 0.927300 0.000000 0.374300
vn 0.718800 0.000000 0.695200
vn 0.403100 0.000000 0.915200
vn 0.372400 0.154200 0.915200
vn 0.664100 0.275100 0.695200
vn 0.856700 0.354800 0.374300
vn 0.906100 0.375300 0.195100
vn 0.693500 0.693500 0.195100
vn 0.655700 0.655700 0.374300
vn 0.508300 0.508300 0.695200
vn 0.285000 0.285000 0.915100
vn 0.154200 0.372400 0.915100
vn 0.275100 0.664100 0.695200
vn 0.354800 0.856700 0.374300
vn 0.375300 0.906100 0.195100
vn 0.000000 0.980800 0.195100
vn 0.000000 0.927300 0.374300
vn 0.000000 0.718800 0.695200
vn 0.000000 0.403100 0.915100
vn -0.154200 0.372400 0.915100
vn -0.275100 0.664100 0.695200
vn -0.354800 0.856700 0.374300
vn -0.375300 0.906100 0.195100
vn -0.693500 0.693500 0.195100
vn -0.655700 0.655700 0.374300
vn -0.508300 0.508300 0.695200
vn -0.285000 0.285000 0.915100
vn -0.372400 0.154200 0.915200
vn -0.664100 0.275100 0.695200
vn -0.856700 0.354800 0.374300
vn -0.906100 0.375300 0.195100
vn -1.000000 0.000000 0.000000
vn -0.927300 0.000000 -0.374300
vn -0.856700 -0.354800 -0.374300
vn -0.718800 0.000000 -0.695200
vn -0.664100 -0.275100 -0.695200
vn -0.403100 0.000000 -0.915200
vn -0.372400 -0.154200 -0.915200
vn 0.000000 0.000000 -1.000000
vn -0.285000 -0.285000 -0.915100
vn -0.508300 -0.508300 -0.695200
vn -0.655700 -0.655700 -0.374300
vn -0.354800 -0.856700 -0.374300
vn -0.275100 -0.664100 -0.695200
vn -0.154200 -0.372400 -0.915100
vn 0.000000 -0.403100 -0.915100
vn 0.000000 -0.718800 -0.695200
vn 0.000000 -0.927300 -0.374300
vn 0.354800 -0.856700 -0.374300
vn 0.275100 -0.664100 -0.695200
vn 0.154200 -0.372400 -0.915200
vn 0.285000 -0.285000 -0.915200
vn 0.508300 -0.508300 -0.695200
vn 0.655700 -0.655700 -0.374300
vn 0.856700 -0.354800 -0.374300
vn 0.664100 -0.275100 -0.695200
vn 0.372400 -0.154200 -0.915200
vn 0.403100 0.000000 -0.915200
vn 0.718800 0.000000 -0.695200
vn 0.927300 0.000000 -0.374300
vn 1.000000 0.000000 0.000000
vn 0.923900 0.382700 0.000000
vn 0.856700 0.354800 -0.374300
vn 0.664100 0.275100 -0.695200
vn 0.372400 0.154200 -0.915200
vn 0.285000 0.285000 -0.915200
vn 0.508300 0.508300 -0.695200
vn 0.655700 0.655700 -0.374300
vn 0.707100 0.707100 0.000000
vn 0.382700 0.923900 0.000000
vn 0.354800 0.856700 -0.374300
vn 0.275100 0.664100 -0.695200
vn 0.154200 0.372400 -0.915200
vn 0.000000 0.403100 -0.915200
vn 0.000000 0.718800 -0.695200
vn 0.000000 0.927300 -0.374300
vn 0.000000 1.000000 0.000000
vn -0.382700 0.923900 0.000000
vn -0.354800 0.856700 -0.374300
vn -0.275100 0.664100 -0.695200
vn -0.154200 0.372400 -0.915200
vn -0.285000 0.285000 -0.915200
vn -0.508300 0.508300 -0.695200
vn -0.655700 0.655700 -0.374300
vn -0.707100 0.707100 0.000000
vn -0.285000 0.285000 0.915200
vn -0.923900 0.382700 0.000000
vn -0.856700 0.354800 -0.374300
vn -0.664100 0.275100 -0.695200
vn -0.372400 0.154200 -0.915200
s 1
f 119/1/1 118/2/2 116/3/3 117/4/4
f 121/5/5 120/6/6 118/2/2 119/1/1
f 121/5/5 123/7/7 122/8/8 120/6/6
f 125/9/9 124/10/10 122/8/8 123/7/7
f 122/8/8 124/10/10 126/11/11 127/12/12
f 120/6/6 122/8/8 127/12/12 128/13/13
f 118/2/2 120/6/6 128/13/13 129/14/14
f 116/3/3 118/2/2 129/14/14 130/15/15
f 115/16/16 116/3/3 130/15/15
f 130/15/15 131/17/17 115/16/16
f 129/14/14 132/18/18 131/17/17 130/15/15
f 128/13/13 133/19/19 132/18/18 129/14/14
f 128/13/13 127/12/12 134/20/20 133/19/19
f 126/11/11 135/21/21 134/20/20 127/12/12
f 134/20/20 135/21/21 136/22/22 137/23/23
f 133/19/19 134/20/20 137/23/23 138/24/24
f 132/18/18 133/19/19 138/24/24 139/25/25
f 131/17/17 132/18/18 139/25/25 140/26/26
f 115/16/16 131/17/17 140/26/26
f 140/26/26 141/27/27 115/16/16
f 140/28/26 139/29/25 142/30/28 141/31/27
f 139/29/25 138/32/24 143/33/29 142/30/28
f 137/23/23 144/34/30 143/35/29 138/24/24
f 136/36/22 145/37/31 144/38/30 137/39/23
f 144/38/30 145/37/31 146/40/32 147/41/33
f 143/33/29 144/38/30 147/41/33 148/42/34
f 142/30/28 143/33/29 148/42/34 149/43/35
f 141/31/27 142/30/28 149/43/35 150/44/36
f 115/45/16 141/31/27 150/44/36
f 150/44/36 151/46/37 115/45/16
f 149/43/35 152/47/38 151/46/37 150/44/36
f 149/43/35 148/42/34 153/48/39 152/47/38
f 147/41/33 154/49/40 153/48/39 148/42/34
f 147/41/33 146/40/32 155/50/41 154/49/40
f 154/49/40 155/50/41 156/51/42 157/52/43
f 153/48/39 154/49/40 157/52/43 158/53/44
f 152/47/38 153/48/39 158/53/44 159/54/45
f 151/46/37 152/47/38 159/54/45 160/55/46
f 115/45/16 151/46/37 160/55/46
f 160/55/46 161/56/47 115/45/16
f 159/54/45 162/57/48 161/56/47 160/55/46
f 158/53/44 163/58/49 162/57/48 159/54/45
f 158/53/44 157/52/43 164/59/50 163/58/49
f 163/58/49 164/59/50 165/60/51 166/61/52
f 162/57/48 163/58/49 166/61/52 167/62/53
f 161/56/47 162/57/48 167/62/53 168/63/54
f 115/45/16 161/56/47 168/63/54
f 168/63/54 169/64/55 115/45/16
f 167/62/53 170/65/56 169/64/55 168/63/54
f 166/61/52 171/66/57 170/65/56 167/62/53
f 165/60/51 172/67/58 171/66/57 166/61/52
f 171/66/57 172/67/58 173/68/59 174/69/60
f 170/65/56 171/66/57 174/69/60 175/70/61
f 169/64/55 170/65/56 175/70/61 176/71/62
f 115/45/16 169/64/55 176/71/62
f 176/71/62 177/72/63 115/45/16
f 176/71/62 175/70/61 178/73/64 177/72/63
f 175/70/61 174/69/60 179/74/65 178/73/64
f 174/69/60 173/68/59 180/75/66 179/74/65
f 179/74/65 180/75/66 181/76/67 182/77/68
f 178/73/64 179/74/65 182/77/68 183/78/69
f 177/72/63 178/73/64 183/78/69 184/79/70
f 115/45/16 177/72/63 184/79/70
f 115/45/16 184/79/70 185/80/71
f 184/79/70 183/78/69 186/81/72 185/80/71
f 182/77/68 187/82/73 186/81/72 183/78/69
f 182/77/68 181/76/67 188/83/74 187/82/73
f 187/82/73 188/83/74 123/7/7 121/5/5
f 186/81/72 187/82/73 121/5/5 119/1/1
f 185/80/71 186/81/72 119/1/1 117/4/4
f 115/45/16 185/80/71 117/4/4
f 117/4/4 116/3/3 115/45/16
f 5/1/1 4/2/2 2/3/3 3/4/4
f 7/5/5 6/6/6 4/2/2 5/1/1
f 7/5/5 9/7/75 8/8/8 6/6/6
f 11/9/76 10/10/77 8/8/8 9/7/75
f 13/84/78 12/85/79 10/10/77 11/9/76
f 13/84/78 15/86/80 14/87/81 12/85/79
f 15/86/80 16/88/82 14/87/81
f 14/87/81 16/88/82 17/89/83
f 12/85/79 14/87/81 17/89/83 18/90/84
f 10/10/77 12/85/79 18/90/84 19/11/85
f 8/8/8 10/10/77 19/11/85 20/12/12
f 6/6/6 8/8/8 20/12/12 21/13/13
f 4/2/2 6/6/6 21/13/13 22/14/14
f 2/3/3 4/2/2 22/14/14 23/15/15
f 1/91/16 2/3/3 23/15/15
f 23/15/15 24/17/17 1/91/16
f 22/14/14 25/18/18 24/17/17 23/15/15
f 21/13/13 26/19/19 25/18/18 22/14/14
f 21/13/13 20/12/12 27/20/20 26/19/19
f 19/11/85 28/21/86 27/20/20 20/12/12
f 18/90/84 29/92/87 28/21/86 19/11/85
f 17/89/83 30/93/88 29/92/87 18/90/84
f 16/88/82 30/93/88 17/89/83
f 30/93/88 16/88/82 31/94/89
f 29/92/87 30/93/88 31/94/89 32/95/90
f 28/21/86 29/92/87 32/95/90 33/22/91
f 27/20/20 28/21/86 33/22/91 34/23/23
f 26/19/19 27/20/20 34/23/23 35/24/24
f 25/18/18 26/19/19 35/24/24 36/25/25
f 24/17/17 25/18/18 36/25/25 37/26/26
f 1/91/16 24/17/17 37/26/26
f 37/26/26 38/27/27 1/91/16
f 37/26/26 36/25/25 39/96/28 38/27/27
f 36/29/25 35/32/24 40/33/29 39/30/28
f 34/23/23 41/34/30 40/35/29 35/24/24
f 33/22/91 42/97/92 41/38/30 34/39/23
f 33/22/91 32/95/90 43/98/93 42/97/92
f 32/95/90 31/94/89 44/99/94 43/98/93
f 31/94/89 16/88/82 44/99/94
f 44/100/94 16/88/82 45/101/95
f 43/102/93 44/100/94 45/101/95 46/103/96
f 42/37/92 43/102/93 46/103/96 47/40/97
f 41/38/30 42/37/92 47/40/97 48/41/33
f 40/33/29 41/38/30 48/41/33 49/42/34
f 39/30/28 40/33/29 49/42/34 50/43/35
f 38/31/27 39/30/28 50/43/35 51/44/36
f 1/104/16 38/31/27 51/44/36
f 51/44/36 52/46/37 1/104/16
f 50/43/35 53/47/38 52/46/37 51/44/36
f 50/43/35 49/42/34 54/48/39 53/47/38
f 48/41/33 55/49/40 54/48/39 49/42/34
f 48/41/33 47/40/97 56/50/98 55/49/40
f 47/40/97 46/103/96 57/105/99 56/50/98
f 46/103/96 45/101/95 58/106/100 57/105/99
f 45/101/95 16/88/82 58/106/100
f 58/106/100 16/88/82 59/107/101
f 57/105/99 58/106/100 59/107/101 60/108/102
f 56/50/98 57/105/99 60/108/102 61/51/103
f 55/49/40 56/50/98 61/51/103 62/52/104
f 54/48/39 55/49/40 62/52/104 63/53/44
f 53/47/38 54/48/39 63/53/44 64/54/45
f 52/46/37 53/47/38 64/54/45 65/55/46
f 1/104/16 52/46/37 65/55/46
f 65/55/46 66/56/47 1/104/16
f 64/54/45 67/57/48 66/56/47 65/55/46
f 63/53/44 68/58/49 67/57/48 64/54/45
f 63/53/44 62/52/104 69/59/105 68/58/49
f 61/51/103 70/109/106 69/59/105 62/52/104
f 61/51/103 60/108/102 71/110/107 70/109/106
f 59/107/101 72/111/108 71/110/107 60/108/102
f 16/88/82 72/111/108 59/107/101
f 72/111/108 16/88/82 73/112/109
f 71/110/107 72/111/108 73/112/109 74/113/110
f 70/109/106 71/110/107 74/113/110 75/114/111
f 69/59/105 70/109/106 75/114/111 76/60/112
f 68/58/49 69/59/105 76/60/112 77/61/52
f 67/57/48 68/58/49 77/61/52 78/62/53
f 66/56/47 67/57/48 78/62/53 79/63/54
f 1/104/16 66/56/47 79/63/54
f 79/63/54 80/64/55 1/104/16
f 78/62/53 81/65/56 80/64/55 79/63/54
f 77/61/52 82/66/57 81/65/56 78/62/53
f 76/60/112 83/67/113 82/66/57 77/61/52
f 76/60/112 75/114/111 84/115/114 83/67/113
f 75/114/111 74/113/110 85/116/115 84/115/114
f 74/113/110 73/112/109 86/117/116 85/116/115
f 73/112/109 16/88/82 86/117/116
f 86/117/116 16/88/82 87/118/117
f 85/116/115 86/117/116 87/118/117 88/119/118
f 84/115/114 85/116/115 88/119/118 89/120/119
f 83/67/113 84/115/114 89/120/119 90/68/120
f 82/66/57 83/67/113 90/68/120 91/69/60
f 81/65/56 82/66/57 91/69/60 92/70/61
f 80/64/55 81/65/56 92/70/61 93/71/62
f 1/104/16 80/64/55 93/71/62
f 93/71/62 94/72/63 1/104/16
f 93/71/62 92/70/61 95/73/64 94/72/63
f 92/70/61 91/69/60 96/74/65 95/73/64
f 91/69/60 90/68/120 97/75/121 96/74/65
f 89/120/119 98/121/122 97/75/121 90/68/120
f 89/120/119 88/119/118 99/122/123 98/121/122
f 88/119/118 87/118/117 100/123/124 99/122/123
f 16/88/82 100/123/124 87/118/117
f 100/123/124 16/88/82 101/124/125
f 99/122/123 100/123/124 101/124/125 102/125/126
f 98/121/122 99/122/123 102/125/126 103/126/127
f 97/75/121 98/121/122 103/126/127 104/76/128
f 96/74/65 97/75/121 104/76/128 105/77/68
f 95/73/64 96/74/65 105/77/68 106/78/69
f 94/72/63 95/73/64 106/78/69 107/79/129
f 1/104/16 94/72/63 107/79/129
f 1/104/16 107/79/129 108/80/71
f 107/79/129 106/78/69 109/81/72 108/80/71
f 105/77/68 110/82/73 109/81/72 106/78/69
f 105/77/68 104/76/128 111/83/130 110/82/73
f 103/126/127 112/127/131 111/83/130 104/76/128
f 103/126/127 102/125/126 113/128/132 112/127/131
f 101/124/125 114/129/133 113/128/132 102/125/126
f 16/88/82 114/129/133 101/124/125
f 114/129/133 16/88/82 15/86/80
f 113/128/132 114/129/133 15/86/80 13/84/78
f 112/127/131 113/128/132 13/84/78 11/9/76
f 111/83/130 112/127/131 11/9/76 9/7/75
f 110/82/73 111/83/130 9/7/75 7/5/5
f 109/81/72 110/82/73 7/5/5 5/1/1
f 108/80/71 109/81/72 5/1/1 3/4/4
f 1/104/16 108/80/71 3/4/4
f 3/4/4 2/3/3 1/104/16
