# Blender v2.75 (sub 0) OBJ File: 'Full Tori.blend'
# www.blender.org
o r_leg_r_leg.001
v 0.016245 0.366422 -0.657307
v -0.324150 0.507419 -0.641776
v -0.352196 0.366422 -0.641776
v -0.612725 0.626949 -0.597546
v -0.664545 0.366422 -0.597546
v -0.805542 0.706818 -0.531350
v -0.873252 0.366422 -0.531350
v -0.873252 0.734863 -0.453267
v -0.946538 0.366422 -0.453267
v -0.805542 0.706818 -0.375185
v -0.873252 0.366422 -0.375185
v -0.612725 0.562482 -0.281664
v -0.664545 0.301956 -0.281665
v -0.465146 0.783347 -0.281664
v -0.612725 0.995390 -0.375185
v -0.664545 1.047213 -0.453267
v -0.612725 0.995390 -0.531350
v -0.465146 0.847814 -0.597546
v -0.244281 0.626949 -0.641776
v -0.124751 0.706818 -0.641776
v -0.244281 0.995390 -0.597546
v -0.324150 1.188209 -0.531350
v -0.352195 1.255919 -0.453267
v -0.324150 1.188209 -0.375185
v -0.244281 0.930923 -0.281664
v 0.016246 0.982746 -0.281664
v 0.016246 1.255919 -0.375185
v 0.016246 1.329206 -0.453267
v 0.016246 1.255919 -0.531350
v 0.016246 1.047213 -0.597546
v 0.016246 0.734863 -0.641776
v 0.157242 0.706818 -0.641776
v 0.276772 0.995390 -0.597546
v 0.356641 1.188209 -0.531350
v 0.384687 1.255919 -0.453267
v 0.356641 1.188209 -0.375185
v 0.276772 0.930923 -0.281664
v 0.497637 0.783347 -0.281664
v 0.645213 0.995390 -0.375185
v 0.697036 1.047213 -0.453267
v 0.645213 0.995392 -0.531350
v 0.497637 0.847814 -0.597546
v 0.276772 0.626949 -0.641776
v 0.356640 0.507419 -0.641776
v 0.645213 0.626949 -0.597546
v 0.838032 0.706817 -0.531350
v 0.905740 0.734863 -0.453267
v 0.838032 0.706817 -0.375185
v 0.645213 0.562482 -0.281664
v 0.697036 0.301955 -0.281665
v 0.905742 0.366422 -0.375185
v 0.979029 0.366422 -0.453267
v 0.905742 0.366422 -0.531350
v 0.697036 0.366422 -0.597546
v 0.384686 0.366422 -0.641776
v 0.356640 0.225426 -0.641776
v 0.645213 0.105896 -0.597546
v 0.838032 0.026027 -0.531350
v 0.905740 -0.002019 -0.453267
v 0.838032 0.026027 -0.375185
v 0.645213 0.041429 -0.281665
v 0.497637 -0.179436 -0.281665
v 0.645213 -0.262545 -0.375185
v 0.697036 -0.314368 -0.453267
v 0.645213 -0.262545 -0.531350
v 0.497637 -0.114969 -0.597546
v 0.276772 0.105896 -0.641776
v 0.157242 0.026027 -0.641776
v 0.276772 -0.262545 -0.597546
v 0.356640 -0.455365 -0.531350
v 0.384686 -0.523072 -0.453267
v 0.356640 -0.455365 -0.375185
v 0.276772 -0.327012 -0.281665
v 0.016245 -0.378835 -0.281665
v 0.016245 -0.523075 -0.375185
v 0.016245 -0.596361 -0.453267
v 0.016245 -0.523075 -0.531350
v 0.016245 -0.314368 -0.597546
v 0.016245 -0.002019 -0.641776
v -0.124751 0.026027 -0.641776
v -0.244281 -0.262545 -0.597546
v -0.324150 -0.455365 -0.531350
v -0.352196 -0.523072 -0.453267
v -0.324150 -0.455365 -0.375185
v -0.244281 -0.327012 -0.281665
v -0.465146 -0.179436 -0.281665
v -0.612722 -0.262545 -0.375185
v -0.664545 -0.314368 -0.453267
v -0.612722 -0.262545 -0.531350
v -0.465147 -0.114969 -0.597546
v -0.244281 0.105896 -0.641776
v -0.324150 0.225426 -0.641776
v -0.612722 0.105896 -0.597546
v -0.805542 0.026027 -0.531350
v -0.873252 -0.002019 -0.453267
v -0.805542 0.026027 -0.375185
v -0.612722 0.041429 -0.281665
v 0.820817 -0.801829 -0.267790
v 0.820819 -0.801951 0.288683
v 1.154081 0.002622 0.288691
v 1.154079 0.002743 -0.267782
v 0.820813 0.807193 0.288699
v 0.820815 0.807312 -0.267774
v 0.016240 1.140455 0.288702
v 0.016241 1.140576 -0.267771
v -0.788329 0.807186 0.288699
v -0.788328 0.807309 -0.267774
v -1.121588 0.002618 0.288692
v -1.121592 0.002739 -0.267781
v -0.788323 -0.801953 0.288683
v -0.788325 -0.801832 -0.267789
v 0.016250 -1.135215 0.288680
v 0.016248 -1.135094 -0.267793
v 1.067471 0.002602 0.380971
v 0.820818 0.002584 0.459202
v 0.451677 0.002572 0.511474
v 0.016246 0.002568 0.529830
v 0.324145 -0.305324 0.511471
v 0.585164 -0.566334 0.459197
v 0.759576 -0.740725 0.380964
v 0.016247 -0.432859 0.511470
v 0.016247 -0.801989 0.459194
v 0.016247 -1.048622 0.380961
v -0.291649 -0.305325 0.511471
v -0.552671 -0.566336 0.459197
v -0.727080 -0.740728 0.380964
v -0.419183 0.002571 0.511474
v -0.788324 0.002581 0.459202
v -1.034977 0.002598 0.380971
v -0.291651 0.310467 0.511477
v -0.552673 0.571499 0.459208
v -0.727083 0.745925 0.380978
v 0.016245 0.438002 0.511478
v 0.016244 0.807153 0.459210
v 0.016243 1.053822 0.380981
v 0.324143 0.310468 0.511477
v 0.585162 0.571501 0.459208
v 0.759571 0.745928 0.380978
v 0.016243 0.002794 -0.508920
v 0.451674 0.002790 -0.490564
v 0.820815 0.002780 -0.438292
v 1.067468 0.002763 -0.360061
v 0.759569 0.746089 -0.360054
v 0.585160 0.571697 -0.438286
v 0.324138 0.310686 -0.490561
v 0.016241 1.053984 -0.360051
v 0.016241 0.807348 -0.438284
v 0.016242 0.438220 -0.490560
v -0.727085 0.746086 -0.360054
v -0.552676 0.571695 -0.438286
v -0.291654 0.310685 -0.490561
v -1.034979 0.002759 -0.360061
v -0.788327 0.002777 -0.438292
v -0.419185 0.002789 -0.490564
v -0.727082 -0.740566 -0.360069
v -0.552674 -0.566140 -0.438297
v -0.291652 -0.305107 -0.490567
v 0.016245 -1.048461 -0.360072
v 0.016245 -0.801794 -0.438299
v 0.016243 -0.432641 -0.490569
v 0.759574 -0.740564 -0.360069
v 0.585162 -0.566138 -0.438297
v 0.324139 -0.305105 -0.490567
vt 0.117964 0.497621
vt 0.174699 0.497621
vt 0.174699 0.622621
vt 0.117964 0.622621
vt 0.775077 0.497621
vt 0.229681 0.497621
vt 0.229681 0.372621
vt 0.775077 0.372621
vt 0.775077 1.247621
vt 0.229681 1.247620
vt 0.229681 1.122620
vt 0.775077 1.122621
vt 0.229681 0.997621
vt 0.775077 0.997621
vt 0.229681 0.872621
vt 0.775077 0.872621
vt 0.229681 0.747621
vt 0.775077 0.747621
vt 0.229681 0.622621
vt 0.775077 0.622621
vt 0.002379 0.828154
vt 0.060357 0.497621
vt 0.060357 0.622621
vt 0.117964 0.747621
vt 0.060357 0.747621
vt 0.060357 0.872621
vt 0.174699 0.747621
vt 0.060357 0.997621
vt 0.174699 0.872621
vt 0.117964 0.872621
vt 0.060357 1.122621
vt 0.174699 0.997621
vt 0.117964 0.997621
vt 0.117964 1.122621
vt 0.174699 1.122621
vt 0.174699 1.247621
vt 0.117964 1.247621
vt 0.060357 1.247621
vt 0.060357 0.372621
vt 0.174699 0.247621
vt 0.174699 0.372621
vt 0.117964 0.372621
vt 0.830060 0.372621
vt 0.830060 0.497621
vt 0.886794 0.247621
vt 0.886794 0.372621
vt 0.830060 0.247621
vt 1.002379 1.196634
vt 0.944402 0.497621
vt 0.944401 0.372621
vt 0.886794 0.497621
vt 0.944402 1.122621
vt 0.944402 1.247621
vt 0.886794 1.247621
vt 0.886794 1.122621
vt 0.944402 0.247621
vt 0.775077 0.247621
vt 0.944402 0.997621
vt 0.830060 1.122621
vt 0.830060 1.247621
vt 0.830060 0.997621
vt 0.830060 0.872621
vt 0.886794 0.997621
vt 0.830060 0.747621
vt 0.944402 0.872621
vt 0.886794 0.872621
vt 0.830060 0.622621
vt 0.944402 0.747621
vt 0.886794 0.747621
vt 0.886794 0.622621
vt 0.944402 0.622621
vt 0.750000 0.250000
vt 0.750000 0.125000
vt 0.812500 0.125000
vt 0.812500 0.250000
vt 0.750000 0.375000
vt 0.812500 0.375000
vt 0.812500 0.500000
vt 0.750000 0.500000
vt 0.750000 0.625000
vt 0.812500 0.625000
vt 0.750000 0.750000
vt 0.812500 0.750000
vt 0.875000 0.625000
vt 0.875000 0.750000
vt 0.875000 0.500000
vt 0.875000 0.375000
vt 0.875000 0.250000
vt 0.875000 0.125000
vt 1.360404 0.000000
vt 0.937500 0.125000
vt 0.937500 0.250000
vt 0.937500 0.375000
vt 0.937500 0.500000
vt 0.937500 0.625000
vt 0.937500 0.750000
vt 1.000000 0.625000
vt 1.000000 0.750000
vt 1.000000 0.500000
vt 1.000000 0.375000
vt 1.000000 0.250000
vt 1.000000 0.125000
vt 1.062500 0.125000
vt 0.000000 0.125000
vt 0.062500 0.125000
vt 0.062500 0.250000
vt 0.000000 0.250000
vt 0.062500 0.375000
vt 0.000000 0.375000
vt 1.062500 0.375000
vt 1.062500 0.500000
vt 0.000000 0.625000
vt 0.000000 0.500000
vt 0.062500 0.500000
vt 0.062500 0.625000
vt 1.062500 0.625000
vt 1.062500 0.750000
vt 0.125000 0.625000
vt 0.125000 0.750000
vt 0.062500 0.750000
vt 0.125000 0.500000
vt 0.125000 0.375000
vt 0.125000 0.250000
vt 0.125000 0.125000
vt 0.360404 0.000000
vt 0.187500 0.125000
vt 0.187500 0.250000
vt 0.187500 0.375000
vt 0.187500 0.500000
vt 0.187500 0.625000
vt 0.187500 0.750000
vt 0.250000 0.625000
vt 0.250000 0.750000
vt 0.250000 0.500000
vt 0.250000 0.375000
vt 0.250000 0.250000
vt 0.250000 0.125000
vt 0.312500 0.125000
vt 0.312500 0.250000
vt 0.312500 0.375000
vt 0.312500 0.500000
vt 0.312500 0.625000
vt 0.312500 0.750000
vt 0.375000 0.625000
vt 0.375000 0.750000
vt 0.375000 0.500000
vt 0.375000 0.375000
vt 0.375000 0.250000
vt 0.375000 0.125000
vt 0.437500 0.125000
vt 0.437500 0.250000
vt 0.437500 0.375000
vt 0.437500 0.500000
vt 0.437500 0.625000
vt 0.437500 0.750000
vt 0.500000 0.625000
vt 0.500000 0.750000
vt 0.500000 0.500000
vt 0.500000 0.375000
vt 0.500000 0.250000
vt 0.500000 0.125000
vt 0.562500 0.125000
vt 0.562500 0.250000
vt 0.562500 0.375000
vt 0.562500 0.500000
vt 0.562500 0.625000
vt 0.562500 0.750000
vt 0.625000 0.625000
vt 0.625000 0.750000
vt 0.625000 0.500000
vt 0.625000 0.375000
vt 0.625000 0.250000
vt 0.625000 0.125000
vt 0.687500 0.125000
vt 0.687500 0.250000
vt 0.687500 0.375000
vt 0.687500 0.500000
vt 0.687500 0.625000
vt 0.687500 0.750000
vn -0.241600 0.000000 -0.970400
vn -0.574800 0.000000 -0.818200
vn -0.406500 0.406500 -0.818200
vn -0.170800 0.170800 -0.970400
vn -0.940200 0.000000 0.340400
vn -0.940200 0.000000 -0.340400
vn -0.664800 -0.664800 -0.340500
vn -0.664900 -0.664900 0.340300
vn 0.000000 -0.940300 0.340300
vn 0.000000 -0.940200 -0.340600
vn 0.664800 -0.664800 -0.340600
vn 0.664900 -0.664900 0.340300
vn 0.940200 0.000000 -0.340400
vn 0.940200 0.000000 0.340400
vn 0.664900 0.664900 -0.340300
vn 0.664800 0.664800 0.340500
vn 0.000000 0.940300 -0.340300
vn 0.000000 0.940200 0.340600
vn -0.664900 0.664900 -0.340300
vn -0.664800 0.664800 0.340600
vn 0.000000 0.000000 -1.000000
vn -0.103400 0.000000 -0.994600
vn -0.073100 0.073200 -0.994600
vn 0.000000 0.241600 -0.970400
vn 0.000000 0.103500 -0.994600
vn 0.073100 0.073200 -0.994600
vn 0.000000 0.574900 -0.818200
vn 0.103400 0.000000 -0.994600
vn 0.406500 0.406500 -0.818200
vn 0.170800 0.170800 -0.970400
vn 0.073100 -0.073100 -0.994600
vn 0.574800 0.000000 -0.818200
vn 0.241600 0.000000 -0.970400
vn 0.170800 -0.170800 -0.970400
vn 0.406400 -0.406400 -0.818300
vn 0.000000 -0.574800 -0.818300
vn 0.000000 -0.241600 -0.970400
vn 0.000000 -0.103400 -0.994600
vn -0.073100 -0.073100 -0.994600
vn -0.406400 -0.406400 -0.818300
vn -0.170800 -0.170800 -0.970400
vn -0.406500 -0.406500 0.818200
vn -0.574800 0.000000 0.818200
vn 0.000000 -0.241600 0.970400
vn -0.170800 -0.170800 0.970400
vn 0.000000 -0.574900 0.818200
vn 0.000000 0.000000 1.000000
vn -0.103400 0.000000 0.994600
vn -0.073100 -0.073200 0.994600
vn -0.241600 0.000000 0.970400
vn 0.073100 -0.073200 0.994600
vn 0.000000 -0.103500 0.994600
vn 0.170800 -0.170800 0.970400
vn 0.103400 0.000000 0.994600
vn 0.406500 -0.406500 0.818200
vn 0.574800 0.000000 0.818200
vn 0.406400 0.406400 0.818300
vn 0.241600 0.000000 0.970400
vn 0.000000 0.574800 0.818300
vn 0.073100 0.073100 0.994600
vn 0.170800 0.170800 0.970400
vn -0.406400 0.406400 0.818300
vn 0.000000 0.103400 0.994600
vn 0.000000 0.241600 0.970400
vn -0.170800 0.170800 0.970400
vn -0.073100 0.073100 0.994600
vn 0.231800 0.000000 0.972700
vn 0.097400 0.000000 0.995200
vn 0.089900 -0.037200 0.995200
vn 0.214200 -0.088700 0.972700
vn 0.554700 0.000000 0.832000
vn 0.512500 -0.212300 0.832000
vn 0.923900 -0.382700 0.000000
vn 1.000000 0.000000 0.000000
vn 0.595000 -0.005500 -0.803700
vn 0.535100 -0.226200 -0.813900
vn 0.413200 0.016900 -0.910500
vn 0.351200 -0.131400 -0.927000
vn 0.401700 -0.405700 -0.820900
vn 0.251100 -0.238900 -0.938000
vn 0.707100 -0.707100 0.000000
vn 0.392300 -0.392300 0.832000
vn 0.163900 -0.163900 0.972700
vn 0.068800 -0.068800 0.995200
vn 0.037200 -0.089900 0.995200
vn 0.088700 -0.214200 0.972700
vn 0.212300 -0.512500 0.832000
vn 0.382700 -0.923900 0.000000
vn 0.214900 -0.522600 -0.825000
vn 0.130000 -0.302800 -0.944100
vn 0.000000 -0.563100 -0.826400
vn 0.000000 -0.323900 -0.946100
vn 0.000000 -1.000000 0.000000
vn 0.000000 -0.554700 0.832000
vn 0.000000 -0.231800 0.972700
vn 0.000000 -0.097400 0.995200
vn -0.037200 -0.089900 0.995200
vn -0.088700 -0.214200 0.972700
vn -0.212300 -0.512500 0.832000
vn -0.382700 -0.923900 0.000000
vn -0.214900 -0.522600 -0.825000
vn -0.130000 -0.302800 -0.944100
vn -0.401700 -0.405700 -0.820900
vn -0.251100 -0.238900 -0.938000
vn -0.707100 -0.707100 0.000000
vn -0.392300 -0.392300 0.832000
vn -0.163900 -0.163900 0.972700
vn -0.068800 -0.068800 0.995200
vn -0.089900 -0.037200 0.995200
vn -0.214200 -0.088700 0.972700
vn -0.512500 -0.212300 0.832000
vn -0.923900 -0.382700 0.000000
vn -0.535100 -0.226200 -0.813900
vn -0.351200 -0.131400 -0.927000
vn -0.595000 -0.005500 -0.803700
vn -0.413200 0.016900 -0.910500
vn -1.000000 0.000000 0.000000
vn -0.554700 0.000000 0.832000
vn -0.231800 0.000000 0.972700
vn -0.097400 0.000000 0.995200
vn -0.089900 0.037200 0.995200
vn -0.214200 0.088700 0.972700
vn -0.512500 0.212300 0.832000
vn -0.923900 0.382700 0.000000
vn -0.567900 0.228500 -0.790700
vn -0.415700 0.192800 -0.888800
vn -0.449600 0.441400 -0.776500
vn -0.341800 0.366700 -0.865300
vn -0.707100 0.707100 0.000000
vn -0.392300 0.392300 0.832000
vn -0.163900 0.163900 0.972700
vn -0.068800 0.068800 0.995200
vn -0.037200 0.089900 0.995200
vn -0.088700 0.214200 0.972700
vn -0.212300 0.512500 0.832000
vn -0.382700 0.923900 0.000000
vn -0.249900 0.593900 -0.764700
vn -0.193700 0.496100 -0.846300
vn 0.000000 0.650000 -0.759900
vn 0.000000 0.544000 -0.839000
vn 0.000000 1.000000 0.000000
vn 0.000000 0.554700 0.832000
vn 0.000000 0.231800 0.972700
vn 0.000000 0.097400 0.995200
vn 0.037200 0.089900 0.995200
vn 0.088700 0.214200 0.972700
vn 0.212300 0.512500 0.832000
vn 0.382700 0.923900 0.000000
vn 0.249900 0.593900 -0.764700
vn 0.193700 0.496100 -0.846300
vn 0.449600 0.441400 -0.776500
vn 0.341800 0.366700 -0.865300
vn 0.707100 0.707100 0.000000
vn 0.392300 0.392300 0.832000
vn 0.163900 0.163900 0.972700
vn 0.068800 0.068800 0.995200
vn 0.089900 0.037200 0.995200
vn 0.214200 0.088700 0.972700
vn 0.512500 0.212300 0.832000
vn 0.923900 0.382700 0.000000
vn 0.567900 0.228500 -0.790700
vn 0.415700 0.192800 -0.888800
s 1
f 115/1/1 114/2/2 120/3/3 119/4/4
f 101/5/5 100/6/6 102/7/7 103/8/8
f 105/9/9 103/8/8 102/7/7 104/10/10
f 105/9/9 104/10/10 106/11/11 107/12/12
f 107/12/12 106/11/11 108/13/13 109/14/14
f 109/14/14 108/13/13 110/15/15 111/16/16
f 111/16/16 110/15/15 112/17/17 113/18/18
f 99/19/19 98/20/20 113/18/18 112/17/17
f 114/2/2 100/6/6 99/19/19 120/3/3
f 117/21/21 116/22/22 118/23/23
f 118/23/23 119/4/4 122/24/24 121/25/25
f 116/22/22 115/1/1 119/4/4 118/23/23
f 117/21/21 121/25/25 124/26/26
f 120/3/3 99/19/19 112/17/17 123/27/27
f 117/21/21 118/23/23 121/25/25
f 119/4/4 120/3/3 123/27/27 122/24/24
f 117/21/21 124/26/26 127/28/28
f 123/27/27 112/17/17 110/15/15 126/29/29
f 122/24/24 123/27/27 126/29/29 125/30/30
f 121/25/25 122/24/24 125/30/30 124/26/26
f 117/21/21 127/28/28 130/31/31
f 126/29/29 110/15/15 108/13/13 129/32/32
f 125/30/30 126/29/29 129/32/32 128/33/33
f 124/26/26 125/30/30 128/33/33 127/28/28
f 131/34/34 132/35/35 135/36/36 134/37/37
f 129/32/32 108/13/13 106/11/11 132/35/35
f 128/33/33 129/32/32 132/35/35 131/34/34
f 127/28/28 128/33/33 131/34/34 130/31/31
f 117/21/21 133/38/38 136/39/39
f 117/21/21 130/31/31 133/38/38
f 132/35/35 106/11/11 104/10/10 135/36/36
f 130/31/31 131/34/34 134/37/37 133/38/38
f 117/21/21 136/39/39 116/22/22
f 135/40/36 104/10/10 102/7/7 138/41/40
f 134/37/37 135/36/36 138/41/40 137/42/41
f 133/38/38 134/37/37 137/42/41 136/39/39
f 143/43/42 142/44/43 101/5/5 103/8/8
f 138/41/40 102/7/7 100/6/6 114/2/2
f 137/42/41 138/41/40 114/2/2 115/1/1
f 136/39/39 137/42/41 115/1/1 116/22/22
f 147/45/44 144/46/45 143/43/42 146/47/46
f 139/48/47 140/49/48 145/50/49
f 145/50/49 140/49/48 141/51/50 144/46/45
f 144/46/45 141/51/50 142/44/43 143/43/42
f 151/52/51 148/53/52 147/54/44 150/55/53
f 139/48/47 145/50/49 148/56/52
f 146/47/46 143/43/42 103/8/8 105/57/9
f 148/56/52 145/50/49 144/46/45 147/45/44
f 139/48/47 151/52/51 154/58/54
f 149/59/55 146/60/46 105/9/9 107/12/12
f 139/48/47 148/53/52 151/52/51
f 150/55/53 147/54/44 146/60/46 149/59/55
f 152/61/56 149/59/55 107/12/12 109/14/14
f 155/62/57 152/61/56 109/14/14 111/16/16
f 154/58/54 151/52/51 150/55/53 153/63/58
f 153/63/58 150/55/53 149/59/55 152/61/56
f 158/64/59 155/62/57 111/16/16 113/18/18
f 139/48/47 154/58/54 157/65/60
f 157/65/60 154/58/54 153/63/58 156/66/61
f 156/66/61 153/63/58 152/61/56 155/62/57
f 161/67/62 158/64/59 113/18/18 98/20/20
f 139/48/47 157/65/60 160/68/63
f 160/68/63 157/65/60 156/66/61 159/69/64
f 159/69/64 156/66/61 155/62/57 158/64/59
f 141/51/50 162/70/65 161/67/62 142/44/43
f 139/48/47 160/68/63 163/71/66
f 163/71/66 160/68/63 159/69/64 162/70/65
f 162/70/65 159/69/64 158/64/59 161/67/62
f 139/48/47 163/71/66 140/49/48
f 142/44/43 161/67/62 98/20/20 101/5/5
f 140/49/48 163/71/66 162/70/65 141/51/50
f 98/20/20 99/19/19 100/6/6 101/5/5
f 5/72/67 3/73/68 2/74/69 4/75/70
f 7/76/71 5/72/67 4/75/70 6/77/72
f 7/76/71 6/77/72 8/78/73 9/79/74
f 11/80/75 9/79/74 8/78/73 10/81/76
f 13/82/77 11/80/75 10/81/76 12/83/78
f 10/81/76 15/84/79 14/85/80 12/83/78
f 8/78/73 16/86/81 15/84/79 10/81/76
f 6/77/72 17/87/82 16/86/81 8/78/73
f 4/75/70 18/88/83 17/87/82 6/77/72
f 2/74/69 19/89/84 18/88/83 4/75/70
f 1/90/47 19/89/84 2/74/69
f 19/89/84 1/90/47 20/91/85
f 18/88/83 19/89/84 20/91/85 21/92/86
f 17/87/82 18/88/83 21/92/86 22/93/87
f 17/87/82 22/93/87 23/94/88 16/86/81
f 15/84/79 16/86/81 23/94/88 24/95/89
f 14/85/80 15/84/79 24/95/89 25/96/90
f 24/95/89 27/97/91 26/98/92 25/96/90
f 23/94/88 28/99/93 27/97/91 24/95/89
f 22/93/87 29/100/94 28/99/93 23/94/88
f 21/92/86 30/101/95 29/100/94 22/93/87
f 20/91/85 31/102/96 30/101/95 21/92/86
f 1/90/47 31/102/96 20/91/85
f 31/102/96 1/90/47 32/103/97
f 31/104/96 32/105/97 33/106/98 30/107/95
f 30/107/95 33/106/98 34/108/99 29/109/94
f 28/99/93 29/100/94 34/110/99 35/111/100
f 27/112/91 28/113/93 35/114/100 36/115/101
f 27/97/91 36/116/101 37/117/102 26/98/92
f 36/115/101 39/118/103 38/119/104 37/120/102
f 35/114/100 40/121/105 39/118/103 36/115/101
f 34/108/99 41/122/106 40/121/105 35/114/100
f 33/106/98 42/123/107 41/122/106 34/108/99
f 32/105/97 43/124/108 42/123/107 33/106/98
f 1/125/47 43/124/108 32/105/97
f 43/124/108 1/125/47 44/126/109
f 42/123/107 43/124/108 44/126/109 45/127/110
f 42/123/107 45/127/110 46/128/111 41/122/106
f 40/121/105 41/122/106 46/128/111 47/129/112
f 40/121/105 47/129/112 48/130/113 39/118/103
f 39/118/103 48/130/113 49/131/114 38/119/104
f 48/130/113 51/132/115 50/133/116 49/131/114
f 47/129/112 52/134/117 51/132/115 48/130/113
f 46/128/111 53/135/118 52/134/117 47/129/112
f 45/127/110 54/136/119 53/135/118 46/128/111
f 44/126/109 55/137/120 54/136/119 45/127/110
f 1/125/47 55/137/120 44/126/109
f 55/137/120 1/125/47 56/138/121
f 54/136/119 55/137/120 56/138/121 57/139/122
f 53/135/118 54/136/119 57/139/122 58/140/123
f 53/135/118 58/140/123 59/141/124 52/134/117
f 51/132/115 52/134/117 59/141/124 60/142/125
f 51/132/115 60/142/125 61/143/126 50/133/116
f 60/142/125 63/144/127 62/145/128 61/143/126
f 59/141/124 64/146/129 63/144/127 60/142/125
f 58/140/123 65/147/130 64/146/129 59/141/124
f 57/139/122 66/148/131 65/147/130 58/140/123
f 56/138/121 67/149/132 66/148/131 57/139/122
f 1/125/47 67/149/132 56/138/121
f 67/149/132 1/125/47 68/150/133
f 66/148/131 67/149/132 68/150/133 69/151/134
f 65/147/130 66/148/131 69/151/134 70/152/135
f 64/146/129 65/147/130 70/152/135 71/153/136
f 64/146/129 71/153/136 72/154/137 63/144/127
f 63/144/127 72/154/137 73/155/138 62/145/128
f 72/154/137 75/156/139 74/157/140 73/155/138
f 71/153/136 76/158/141 75/156/139 72/154/137
f 70/152/135 77/159/142 76/158/141 71/153/136
f 69/151/134 78/160/143 77/159/142 70/152/135
f 68/150/133 79/161/144 78/160/143 69/151/134
f 1/125/47 79/161/144 68/150/133
f 79/161/144 1/125/47 80/162/145
f 79/161/144 80/162/145 81/163/146 78/160/143
f 78/160/143 81/163/146 82/164/147 77/159/142
f 77/159/142 82/164/147 83/165/148 76/158/141
f 75/156/139 76/158/141 83/165/148 84/166/149
f 75/156/139 84/166/149 85/167/150 74/157/140
f 84/166/149 87/168/151 86/169/152 85/167/150
f 83/165/148 88/170/153 87/168/151 84/166/149
f 82/164/147 89/171/154 88/170/153 83/165/148
f 81/163/146 90/172/155 89/171/154 82/164/147
f 80/162/145 91/173/156 90/172/155 81/163/146
f 1/125/47 91/173/156 80/162/145
f 1/125/47 92/174/157 91/173/156
f 91/173/156 92/174/157 93/175/158 90/172/155
f 89/171/154 90/172/155 93/175/158 94/176/159
f 89/171/154 94/176/159 95/177/160 88/170/153
f 87/168/151 88/170/153 95/177/160 96/178/161
f 87/168/151 96/178/161 97/179/162 86/169/152
f 96/178/161 11/80/75 13/82/77 97/179/162
f 95/177/160 9/79/74 11/80/75 96/178/161
f 94/176/159 7/76/71 9/79/74 95/177/160
f 93/175/158 5/72/67 7/76/71 94/176/159
f 92/174/157 3/73/68 5/72/67 93/175/158
f 1/125/47 3/73/68 92/174/157
f 3/73/68 1/125/47 2/74/69
