# Blender v2.75 (sub 0) OBJ File: 'Full Tori.blend'
# www.blender.org
o breast
v -0.546763 -0.516528 -0.548966
v -0.546763 0.548653 -0.548966
v 0.546763 0.548653 -0.548966
v 0.546762 -0.516527 -0.548966
v -0.546762 -0.516522 0.538555
v 0.546764 -0.516525 0.538554
v 0.546764 0.548656 0.538554
v -0.546761 0.548659 0.538554
v 0.000000 0.016059 -1.157763
v 0.348415 0.293656 -1.108013
v 0.377121 0.016060 -1.108013
v 0.643786 0.528992 -0.966336
v 0.696829 0.016061 -0.966336
v 0.841148 0.686239 -0.754302
v 0.910452 0.016062 -0.754301
v 0.910452 0.741459 -0.504191
v 0.985466 0.016063 -0.504190
v 0.841149 0.686242 -0.254078
v 0.910452 0.016062 -0.254078
v 0.643787 0.528996 -0.042044
v 0.696830 0.016066 -0.042044
v 0.348416 0.293663 0.099633
v 0.377123 0.016066 0.099633
v 0.000001 0.016066 0.149383
v 0.266666 0.528997 0.099633
v 0.492733 0.963842 -0.042045
v 0.643786 1.254394 -0.254079
v 0.696829 1.356421 -0.504191
v 0.643786 1.254391 -0.754302
v 0.492733 0.963838 -0.966336
v 0.266666 0.528991 -1.108013
v 0.144318 0.686237 -1.108013
v 0.266666 1.254390 -0.966337
v 0.348415 1.634016 -0.754302
v 0.377122 1.767326 -0.504191
v 0.348416 1.634019 -0.254079
v 0.266666 1.254395 -0.042045
v 0.144318 0.686244 0.099633
v 0.000001 0.741461 0.099633
v 0.000001 1.356424 -0.042045
v 0.000000 1.767328 -0.254079
v 0.000000 1.911617 -0.504191
v 0.000000 1.767325 -0.754302
v 0.000000 1.356419 -0.966337
v 0.000000 0.741455 -1.108013
v -0.144318 0.686237 -1.108013
v -0.266665 1.254390 -0.966336
v -0.348415 1.634016 -0.754302
v -0.377120 1.767326 -0.504191
v -0.348415 1.634019 -0.254079
v -0.266665 1.254395 -0.042045
v -0.144317 0.686244 0.099633
v -0.266665 0.528997 0.099633
v -0.492732 0.963842 -0.042044
v -0.643786 1.254393 -0.254078
v -0.696829 1.356421 -0.504191
v -0.643786 1.254391 -0.754302
v -0.492733 0.963837 -0.966336
v -0.266665 0.528991 -1.108013
v -0.348414 0.293656 -1.108013
v -0.643786 0.528991 -0.966336
v -0.841148 0.686239 -0.754301
v -0.910451 0.741458 -0.504190
v -0.841148 0.686242 -0.254078
v -0.643785 0.528996 -0.042044
v -0.348415 0.293662 0.099633
v -0.377121 0.016066 0.099633
v -0.696829 0.016065 -0.042044
v -0.910451 0.016064 -0.254077
v -0.985465 0.016063 -0.504190
v -0.910451 0.016061 -0.754301
v -0.696829 0.016060 -0.966336
v -0.377120 0.016060 -1.108012
v -0.348415 -0.261540 -1.108012
v -0.643786 -0.496874 -0.966335
v -0.841148 -0.654119 -0.754300
v -0.910451 -0.709336 -0.504189
v -0.841148 -0.654117 -0.254077
v -0.643785 -0.496869 -0.042043
v -0.348415 -0.261533 0.099633
v -0.266665 -0.496868 0.099633
v -0.492732 -0.931712 -0.042043
v -0.643785 -1.222268 -0.254077
v -0.696829 -1.324296 -0.504189
v -0.643786 -1.222271 -0.754300
v -0.492733 -0.931717 -0.966335
v -0.266665 -0.496874 -1.108012
v -0.144317 -0.654121 -1.108012
v -0.266665 -1.222272 -0.966335
v -0.348415 -1.601896 -0.754300
v -0.377122 -1.735201 -0.504189
v -0.348415 -1.601894 -0.254077
v -0.266665 -1.222267 -0.042043
v -0.144317 -0.654115 0.099633
v 0.000001 -0.709332 0.099633
v 0.000001 -1.324296 -0.042043
v 0.000001 -1.735199 -0.254077
v 0.000001 -1.879491 -0.504189
v 0.000000 -1.735202 -0.754300
v 0.000000 -1.324301 -0.966335
v 0.000000 -0.709339 -1.108012
v 0.144318 -0.654121 -1.108012
v 0.266666 -1.222272 -0.966335
v 0.348416 -1.601896 -0.754300
v 0.377121 -1.735200 -0.504189
v 0.348416 -1.601893 -0.254077
v 0.266666 -1.222267 -0.042043
v 0.144318 -0.654115 0.099633
v 0.266666 -0.496868 0.099633
v 0.492734 -0.931712 -0.042043
v 0.643787 -1.222268 -0.254077
v 0.696830 -1.324298 -0.504189
v 0.643786 -1.222271 -0.754300
v 0.492733 -0.931716 -0.966335
v 0.266666 -0.496874 -1.108012
v 0.348414 -0.261539 -1.108012
v 0.643786 -0.496873 -0.966336
v 0.841148 -0.654119 -0.754301
v 0.910452 -0.709335 -0.504190
v 0.841149 -0.654116 -0.254077
v 0.643787 -0.496868 -0.042044
v 0.348416 -0.261533 0.099633
vt -0.000159 0.000000
vt -0.000159 0.250000
vt 0.797034 0.250000
vt 0.797034 0.000000
vt 0.796513 0.202494
vt 0.797409 0.405314
vt 1.000144 0.405314
vt 0.999760 0.202494
vt -0.000159 0.500000
vt 0.797034 0.500000
vt 0.796300 0.002043
vt 0.796300 0.202814
vt 0.998644 0.202814
vt 0.998644 0.002043
vt -0.000159 1.000000
vt 0.797034 1.000000
vt 0.797034 0.750000
vt -0.000159 0.750000
vt 0.750000 0.125000
vt 0.812500 0.125000
vt 0.354121 -0.000000
vt 0.750000 0.250000
vt 0.812500 0.250000
vt 0.750000 0.375000
vt 0.812500 0.375000
vt 0.750000 0.500000
vt 0.812500 0.500000
vt 0.750000 0.625000
vt 0.812500 0.625000
vt 0.750000 0.750000
vt 0.812500 0.750000
vt 0.750000 0.875000
vt 0.812500 0.875000
vt 0.642718 1.000000
vt 0.875000 0.875000
vt 0.875000 0.750000
vt 0.875000 0.625000
vt 0.875000 0.500000
vt 0.875000 0.375000
vt 0.875000 0.250000
vt 0.875000 0.125000
vt 1.354121 0.000000
vt 0.937500 0.125000
vt 0.937500 0.250000
vt 0.937500 0.375000
vt 0.937500 0.500000
vt 0.937500 0.625000
vt 0.937500 0.750000
vt 0.937500 0.875000
vt 1.000000 0.875000
vt 1.000000 0.750000
vt 1.000000 0.625000
vt 1.000000 0.500000
vt 1.000000 0.375000
vt 1.000000 0.250000
vt 1.000000 0.125000
vt 1.062500 0.125000
vt 0.000000 0.125000
vt 0.000000 0.250000
vt 0.062500 0.250000
vt 0.062500 0.125000
vt 0.000000 0.375000
vt 0.062500 0.375000
vt 1.062500 0.500000
vt 1.062500 0.375000
vt 0.000000 0.625000
vt 0.062500 0.625000
vt 0.062500 0.500000
vt 0.000000 0.500000
vt 1.062500 0.750000
vt 1.062500 0.625000
vt 1.062500 0.875000
vt 0.062500 0.875000
vt 0.125000 0.875000
vt 0.062500 0.750000
vt 0.125000 0.750000
vt 0.125000 0.625000
vt 0.125000 0.500000
vt 0.125000 0.375000
vt 0.125000 0.250000
vt 0.125000 0.125000
vt 0.187500 0.125000
vt 0.187500 0.250000
vt 0.187500 0.375000
vt 0.187500 0.500000
vt 0.187500 0.625000
vt 0.187500 0.750000
vt 0.187500 0.875000
vt 0.250000 0.875000
vt 0.250000 0.750000
vt 0.250000 0.625000
vt 0.250000 0.500000
vt 0.250000 0.375000
vt 0.250000 0.250000
vt 0.250000 0.125000
vt 0.312500 0.125000
vt 0.312500 0.250000
vt 0.312500 0.375000
vt 0.312500 0.500000
vt 0.312500 0.625000
vt 0.312500 0.750000
vt 0.312500 0.875000
vt 0.375000 0.875000
vt 0.375000 0.750000
vt 0.375000 0.625000
vt 0.375000 0.500000
vt 0.375000 0.375000
vt 0.375000 0.250000
vt 0.375000 0.125000
vt 0.437500 0.125000
vt 0.437500 0.250000
vt 0.437500 0.375000
vt 0.437500 0.500000
vt 0.437500 0.625000
vt 0.437500 0.750000
vt 0.437500 0.875000
vt 0.500000 0.875000
vt 0.500000 0.750000
vt 0.500000 0.625000
vt 0.500000 0.500000
vt 0.500000 0.375000
vt 0.500000 0.250000
vt 0.500000 0.125000
vt 0.562500 0.125000
vt 0.562500 0.250000
vt 0.562500 0.375000
vt 0.562500 0.500000
vt 0.562500 0.625000
vt 0.562500 0.750000
vt 0.562500 0.875000
vt 0.625000 0.875000
vt 0.625000 0.750000
vt 0.625000 0.625000
vt 0.625000 0.500000
vt 0.625000 0.375000
vt 0.625000 0.250000
vt 0.625000 0.125000
vt 0.687500 0.125000
vt 0.687500 0.250000
vt 0.687500 0.375000
vt 0.687500 0.500000
vt 0.687500 0.625000
vt 0.687500 0.750000
vt 0.687500 0.875000
vn -0.000000 -0.000000 -1.000000
vn 1.000000 -0.000000 -0.000000
vn -0.000000 -1.000000 0.000000
vn -1.000000 0.000000 0.000000
vn 0.000000 1.000000 -0.000000
vn -0.279300 0.000000 0.960200
vn -0.263000 -0.052700 0.963300
vn 0.000000 0.000000 1.000000
vn -0.572100 0.000000 0.820100
vn -0.540700 -0.115100 0.833300
vn -0.861700 0.000000 0.507300
vn -0.828800 -0.186400 0.527600
vn -0.973800 -0.227100 0.000000
vn -0.861700 0.000000 -0.507300
vn -0.828800 -0.186400 -0.527600
vn -0.572100 0.000000 -0.820100
vn -0.540700 -0.115100 -0.833300
vn -0.279300 0.000000 -0.960200
vn -0.263000 -0.052700 -0.963300
vn -0.212000 -0.103200 -0.971800
vn -0.442100 -0.226200 -0.867900
vn -0.713200 -0.387700 -0.583900
vn -0.867300 -0.497700 0.000000
vn -0.713200 -0.387700 0.583900
vn -0.442100 -0.226200 0.867900
vn -0.212000 -0.103200 0.971800
vn -0.123500 -0.145300 0.981600
vn -0.262700 -0.323300 0.909100
vn -0.455200 -0.602000 0.655900
vn -0.570300 -0.821400 0.000000
vn -0.455200 -0.602000 -0.655900
vn -0.262700 -0.323300 -0.909100
vn -0.123500 -0.145300 -0.981600
vn 0.000000 -0.164700 -0.986300
vn 0.000000 -0.369200 -0.929300
vn 0.000000 -0.721400 -0.692500
vn 0.000000 -0.721400 0.692500
vn 0.000000 -0.369200 0.929300
vn 0.000000 -0.164700 0.986300
vn 0.123500 -0.145300 0.981600
vn 0.262700 -0.323300 0.909100
vn 0.455200 -0.602000 0.655900
vn 0.570300 -0.821400 0.000000
vn 0.455200 -0.602000 -0.655900
vn 0.262700 -0.323300 -0.909100
vn 0.123500 -0.145300 -0.981600
vn 0.212000 -0.103200 -0.971800
vn 0.442100 -0.226200 -0.867900
vn 0.713200 -0.387700 -0.583900
vn 0.867300 -0.497700 0.000000
vn 0.713200 -0.387700 0.583900
vn 0.442100 -0.226200 0.867900
vn 0.212000 -0.103200 0.971800
vn 0.263000 -0.052700 0.963300
vn 0.540700 -0.115100 0.833300
vn 0.828800 -0.186400 0.527600
vn 0.973800 -0.227100 0.000000
vn 0.828800 -0.186400 -0.527600
vn 0.540700 -0.115100 -0.833300
vn 0.263000 -0.052700 -0.963300
vn 0.279300 0.000000 -0.960200
vn 0.572100 0.000000 -0.820100
vn 0.861700 0.000000 -0.507300
vn 0.861700 0.000000 0.507300
vn 0.572100 0.000000 0.820100
vn 0.279300 0.000000 0.960200
vn 0.263000 0.052700 0.963300
vn 0.540700 0.115100 0.833300
vn 0.828800 0.186400 0.527600
vn 0.973800 0.227100 0.000000
vn 0.828800 0.186400 -0.527600
vn 0.540700 0.115100 -0.833300
vn 0.263000 0.052700 -0.963300
vn 0.212000 0.103200 -0.971800
vn 0.442100 0.226200 -0.867900
vn 0.713200 0.387700 -0.583900
vn 0.867300 0.497700 0.000000
vn 0.713200 0.387700 0.583900
vn 0.442100 0.226200 0.867900
vn 0.212000 0.103200 0.971800
vn 0.123500 0.145300 0.981600
vn 0.262700 0.323300 0.909100
vn 0.455200 0.602000 0.655900
vn 0.570300 0.821400 0.000000
vn 0.455200 0.602000 -0.655900
vn 0.262700 0.323300 -0.909100
vn 0.123500 0.145300 -0.981600
vn 0.000000 0.164700 -0.986300
vn 0.000000 0.369200 -0.929300
vn 0.000000 0.721400 -0.692500
vn 0.000000 0.721400 0.692500
vn 0.000000 0.369200 0.929300
vn 0.000000 0.164700 0.986300
vn -0.123500 0.145300 0.981600
vn -0.262700 0.323300 0.909100
vn -0.455200 0.602000 0.655900
vn -0.570300 0.821400 0.000000
vn -0.455200 0.602000 -0.655900
vn -0.262700 0.323300 -0.909100
vn -0.123500 0.145300 -0.981600
vn -0.212000 0.103200 -0.971800
vn -0.442100 0.226200 -0.867900
vn -0.713200 0.387700 -0.583900
vn -0.867300 0.497700 0.000000
vn -0.713200 0.387700 0.583900
vn -0.442100 0.226200 0.867900
vn -0.212000 0.103200 0.971800
vn -0.263000 0.052700 0.963300
vn -0.540700 0.115100 0.833300
vn -0.828800 0.186400 0.527600
vn -0.973800 0.227100 0.000000
vn -0.828800 0.186400 -0.527600
vn -0.540700 0.115100 -0.833300
vn -0.263000 0.052700 -0.963300
s off
f 5/1/1 8/2/1 7/3/1 6/4/1
f 1/5/2 2/6/2 8/7/2 5/8/2
f 2/9/3 3/10/3 7/3/3 8/2/3
f 3/11/4 4/12/4 6/13/4 7/14/4
f 5/15/5 6/16/5 4/17/5 1/18/5
s 1
f 11/19/6 10/20/7 9/21/8
f 13/22/9 12/23/10 10/20/7 11/19/6
f 15/24/11 14/25/12 12/23/10 13/22/9
f 15/24/11 17/26/4 16/27/13 14/25/12
f 19/28/14 18/29/15 16/27/13 17/26/4
f 21/30/16 20/31/17 18/29/15 19/28/14
f 21/30/16 23/32/18 22/33/19 20/31/17
f 23/32/18 24/34/1 22/33/19
f 22/33/19 24/34/1 25/35/20
f 20/31/17 22/33/19 25/35/20 26/36/21
f 18/29/15 20/31/17 26/36/21 27/37/22
f 16/27/13 18/29/15 27/37/22 28/38/23
f 14/25/12 16/27/13 28/38/23 29/39/24
f 12/23/10 14/25/12 29/39/24 30/40/25
f 10/20/7 12/23/10 30/40/25 31/41/26
f 9/42/8 10/20/7 31/41/26
f 31/41/26 32/43/27 9/42/8
f 30/40/25 33/44/28 32/43/27 31/41/26
f 29/39/24 34/45/29 33/44/28 30/40/25
f 29/39/24 28/38/23 35/46/30 34/45/29
f 27/37/22 36/47/31 35/46/30 28/38/23
f 26/36/21 37/48/32 36/47/31 27/37/22
f 25/35/20 38/49/33 37/48/32 26/36/21
f 24/34/1 38/49/33 25/35/20
f 38/49/33 24/34/1 39/50/34
f 37/48/32 38/49/33 39/50/34 40/51/35
f 36/47/31 37/48/32 40/51/35 41/52/36
f 35/46/30 36/47/31 41/52/36 42/53/3
f 34/45/29 35/46/30 42/53/3 43/54/37
f 33/44/28 34/45/29 43/54/37 44/55/38
f 32/43/27 33/44/28 44/55/38 45/56/39
f 9/42/8 32/43/27 45/56/39
f 45/56/39 46/57/40 9/42/8
f 45/58/39 44/59/38 47/60/41 46/61/40
f 44/59/38 43/62/37 48/63/42 47/60/41
f 42/53/3 49/64/43 48/65/42 43/54/37
f 41/66/36 50/67/44 49/68/43 42/69/3
f 41/52/36 40/51/35 51/70/45 50/71/44
f 40/51/35 39/50/34 52/72/46 51/70/45
f 39/50/34 24/34/1 52/72/46
f 52/73/46 24/34/1 53/74/47
f 51/75/45 52/73/46 53/74/47 54/76/48
f 50/67/44 51/75/45 54/76/48 55/77/49
f 49/68/43 50/67/44 55/77/49 56/78/50
f 48/63/42 49/68/43 56/78/50 57/79/51
f 47/60/41 48/63/42 57/79/51 58/80/52
f 46/61/40 47/60/41 58/80/52 59/81/53
f 9/21/8 46/61/40 59/81/53
f 59/81/53 60/82/54 9/21/8
f 58/80/52 61/83/55 60/82/54 59/81/53
f 58/80/52 57/79/51 62/84/56 61/83/55
f 56/78/50 63/85/57 62/84/56 57/79/51
f 56/78/50 55/77/49 64/86/58 63/85/57
f 55/77/49 54/76/48 65/87/59 64/86/58
f 54/76/48 53/74/47 66/88/60 65/87/59
f 53/74/47 24/34/1 66/88/60
f 66/88/60 24/34/1 67/89/61
f 65/87/59 66/88/60 67/89/61 68/90/62
f 64/86/58 65/87/59 68/90/62 69/91/63
f 63/85/57 64/86/58 69/91/63 70/92/2
f 62/84/56 63/85/57 70/92/2 71/93/64
f 61/83/55 62/84/56 71/93/64 72/94/65
f 60/82/54 61/83/55 72/94/65 73/95/66
f 9/21/8 60/82/54 73/95/66
f 73/95/66 74/96/67 9/21/8
f 72/94/65 75/97/68 74/96/67 73/95/66
f 71/93/64 76/98/69 75/97/68 72/94/65
f 71/93/64 70/92/2 77/99/70 76/98/69
f 69/91/63 78/100/71 77/99/70 70/92/2
f 69/91/63 68/90/62 79/101/72 78/100/71
f 67/89/61 80/102/73 79/101/72 68/90/62
f 24/34/1 80/102/73 67/89/61
f 80/102/73 24/34/1 81/103/74
f 79/101/72 80/102/73 81/103/74 82/104/75
f 78/100/71 79/101/72 82/104/75 83/105/76
f 77/99/70 78/100/71 83/105/76 84/106/77
f 76/98/69 77/99/70 84/106/77 85/107/78
f 75/97/68 76/98/69 85/107/78 86/108/79
f 74/96/67 75/97/68 86/108/79 87/109/80
f 9/21/8 74/96/67 87/109/80
f 87/109/80 88/110/81 9/21/8
f 86/108/79 89/111/82 88/110/81 87/109/80
f 85/107/78 90/112/83 89/111/82 86/108/79
f 84/106/77 91/113/84 90/112/83 85/107/78
f 84/106/77 83/105/76 92/114/85 91/113/84
f 83/105/76 82/104/75 93/115/86 92/114/85
f 82/104/75 81/103/74 94/116/87 93/115/86
f 81/103/74 24/34/1 94/116/87
f 94/116/87 24/34/1 95/117/88
f 93/115/86 94/116/87 95/117/88 96/118/89
f 92/114/85 93/115/86 96/118/89 97/119/90
f 91/113/84 92/114/85 97/119/90 98/120/5
f 90/112/83 91/113/84 98/120/5 99/121/91
f 89/111/82 90/112/83 99/121/91 100/122/92
f 88/110/81 89/111/82 100/122/92 101/123/93
f 9/21/8 88/110/81 101/123/93
f 101/123/93 102/124/94 9/21/8
f 101/123/93 100/122/92 103/125/95 102/124/94
f 100/122/92 99/121/91 104/126/96 103/125/95
f 99/121/91 98/120/5 105/127/97 104/126/96
f 97/119/90 106/128/98 105/127/97 98/120/5
f 97/119/90 96/118/89 107/129/99 106/128/98
f 96/118/89 95/117/88 108/130/100 107/129/99
f 24/34/1 108/130/100 95/117/88
f 108/130/100 24/34/1 109/131/101
f 107/129/99 108/130/100 109/131/101 110/132/102
f 106/128/98 107/129/99 110/132/102 111/133/103
f 105/127/97 106/128/98 111/133/103 112/134/104
f 104/126/96 105/127/97 112/134/104 113/135/105
f 103/125/95 104/126/96 113/135/105 114/136/106
f 102/124/94 103/125/95 114/136/106 115/137/107
f 9/21/8 102/124/94 115/137/107
f 9/21/8 115/137/107 116/138/108
f 115/137/107 114/136/106 117/139/109 116/138/108
f 113/135/105 118/140/110 117/139/109 114/136/106
f 113/135/105 112/134/104 119/141/111 118/140/110
f 111/133/103 120/142/112 119/141/111 112/134/104
f 111/133/103 110/132/102 121/143/113 120/142/112
f 109/131/101 122/144/114 121/143/113 110/132/102
f 24/34/1 122/144/114 109/131/101
f 122/144/114 24/34/1 23/32/18
f 121/143/113 122/144/114 23/32/18 21/30/16
f 120/142/112 121/143/113 21/30/16 19/28/14
f 119/141/111 120/142/112 19/28/14 17/26/4
f 118/140/110 119/141/111 17/26/4 15/24/11
f 117/139/109 118/140/110 15/24/11 13/22/9
f 116/138/108 117/139/109 13/22/9 11/19/6
f 9/21/8 116/138/108 11/19/6
