# Blender v2.75 (sub 0) OBJ File: 'Full Tori.blend'
# www.blender.org
o r_wrist
v 0.541200 0.533097 -0.531594
v 0.541200 -0.533699 -0.531594
v -0.525596 -0.533699 -0.531594
v -0.525596 0.533096 -0.531594
v 0.541200 0.533095 0.535202
v -0.525596 0.533096 0.535202
v -0.525596 -0.533699 0.535202
v 0.541200 -0.533701 0.535202
v 0.687600 0.242152 -0.531594
v 0.876185 0.320267 -0.490992
v 0.891722 0.242152 -0.490992
v 1.036059 0.386488 -0.375365
v 1.064769 0.242152 -0.375365
v 1.142884 0.430737 -0.202318
v 1.180396 0.242152 -0.202318
v 1.180395 0.446275 0.001804
v 1.220998 0.242152 0.001804
v 1.142883 0.430737 0.205927
v 1.180396 0.242152 0.205927
v 1.036059 0.386488 0.378973
v 1.064769 0.242152 0.378973
v 0.876185 0.320267 0.494600
v 0.891722 0.242152 0.494600
v 0.687600 0.242152 0.535202
v 0.831937 0.386488 0.494600
v 0.954298 0.508851 0.378973
v 1.036059 0.590611 0.205927
v 1.064769 0.619321 0.001804
v 1.036059 0.590611 -0.202318
v 0.954298 0.508851 -0.375365
v 0.831937 0.386488 -0.490992
v 0.765714 0.430737 -0.490992
v 0.831937 0.590611 -0.375365
v 0.876185 0.697436 -0.202318
v 0.891722 0.734947 0.001804
v 0.876185 0.697436 0.205927
v 0.831937 0.590611 0.378973
v 0.765714 0.430737 0.494600
v 0.687600 0.446275 0.494600
v 0.687600 0.619321 0.378973
v 0.687600 0.734947 0.205927
v 0.687600 0.775550 0.001804
v 0.687600 0.734947 -0.202318
v 0.687600 0.619321 -0.375365
v 0.687600 0.446275 -0.490992
v 0.609485 0.430737 -0.490992
v 0.543263 0.590611 -0.375365
v 0.499015 0.697436 -0.202318
v 0.483477 0.734947 0.001804
v 0.499015 0.697436 0.205927
v 0.543263 0.590611 0.378973
v 0.609485 0.430737 0.494600
v 0.543263 0.386488 0.494600
v 0.420900 0.508851 0.378973
v 0.339141 0.590611 0.205927
v 0.310430 0.619321 0.001804
v 0.339142 0.590611 -0.202318
v 0.420901 0.508851 -0.375365
v 0.543263 0.386488 -0.490992
v 0.499015 0.320267 -0.490992
v 0.339142 0.386488 -0.375365
v 0.339142 0.386488 0.378973
v 0.499015 0.320267 0.494600
v 0.483477 0.242152 0.494600
v 0.310430 0.242152 0.378973
v 0.310430 0.242152 -0.375365
v 0.483477 0.242152 -0.490992
v 0.499015 0.164038 -0.490992
v 0.339142 0.097815 -0.375365
v 0.339142 0.097815 0.378973
v 0.499015 0.164038 0.494600
v 0.543263 0.097815 0.494600
v 0.420901 -0.024547 0.378973
v 0.339142 -0.106307 0.205927
v 0.310430 -0.135017 0.001804
v 0.339142 -0.106307 -0.202318
v 0.420901 -0.024547 -0.375365
v 0.543263 0.097816 -0.490992
v 0.609485 0.053568 -0.490992
v 0.543263 -0.106307 -0.375365
v 0.499015 -0.213131 -0.202318
v 0.483477 -0.250644 0.001804
v 0.499015 -0.213131 0.205927
v 0.543263 -0.106307 0.378973
v 0.609485 0.053568 0.494600
v 0.687600 0.038030 0.494600
v 0.687600 -0.135017 0.378973
v 0.687600 -0.250643 0.205927
v 0.687600 -0.291245 0.001804
v 0.687600 -0.250643 -0.202318
v 0.687600 -0.135017 -0.375365
v 0.687600 0.038030 -0.490992
v 0.765714 0.053568 -0.490992
v 0.831937 -0.106307 -0.375365
v 0.876185 -0.213131 -0.202318
v 0.891722 -0.250643 0.001804
v 0.876185 -0.213131 0.205927
v 0.831937 -0.106307 0.378973
v 0.765714 0.053568 0.494600
v 0.831937 0.097815 0.494600
v 0.954298 -0.024546 0.378973
v 1.036058 -0.106307 0.205927
v 1.064769 -0.135017 0.001804
v 1.036058 -0.106307 -0.202318
v 0.954298 -0.024546 -0.375365
v 0.831937 0.097815 -0.490992
v 0.876185 0.164038 -0.490992
v 1.036058 0.097815 -0.375365
v 1.142884 0.053568 -0.202318
v 1.180396 0.038030 0.001804
v 1.142884 0.053567 0.205927
v 1.036058 0.097815 0.378973
v 0.876185 0.164038 0.494600
v 0.257383 0.468248 0.205927
v 0.228672 0.496958 0.001804
v 0.257384 0.468248 -0.202318
vt 0.750000 0.250000
vt 0.812500 0.250000
vt 0.812500 0.125000
vt 0.750000 0.125000
vt 0.750000 0.375000
vt 0.812500 0.375000
vt 0.750000 0.500000
vt 0.812500 0.500000
vt 0.750000 0.625000
vt 0.812500 0.625000
vt 0.750000 0.750000
vt 0.812500 0.750000
vt 0.750000 0.875000
vt 0.812500 0.875000
vt 0.639633 1.000000
vt 0.875000 0.875000
vt 0.875000 0.750000
vt 0.875000 0.625000
vt 0.875000 0.500000
vt 0.875000 0.375000
vt 0.875000 0.250000
vt 0.875000 0.125000
vt 1.360404 0.000000
vt 0.937500 0.125000
vt 0.937500 0.250000
vt 0.937500 0.375000
vt 0.937500 0.500000
vt 0.937500 0.625000
vt 0.937500 0.750000
vt 0.937500 0.875000
vt 1.000000 0.875000
vt 1.000000 0.750000
vt 1.000000 0.625000
vt 1.000000 0.500000
vt 1.000000 0.375000
vt 1.000000 0.250000
vt 1.000000 0.125000
vt 1.062500 0.125000
vt 0.000000 0.125000
vt 0.000000 0.250000
vt 0.062500 0.250000
vt 0.062500 0.125000
vt 0.000000 0.375000
vt 0.062500 0.375000
vt 1.062500 0.500000
vt 1.062500 0.375000
vt 0.000000 0.625000
vt 0.062500 0.625000
vt 0.062500 0.500000
vt 0.000000 0.500000
vt 1.062500 0.750000
vt 1.062500 0.625000
vt 1.062500 0.875000
vt 0.062500 0.875000
vt 0.125000 0.875000
vt 0.062500 0.750000
vt 0.125000 0.750000
vt 0.125000 0.625000
vt 0.125000 0.500000
vt 0.125000 0.375000
vt 0.125000 0.250000
vt 0.125000 0.125000
vt 0.360404 0.000000
vt 0.187500 0.125000
vt 0.187500 0.250000
vt 0.187500 0.875000
vt 0.187500 0.750000
vt 0.250000 0.875000
vt 0.250000 0.750000
vt 0.250000 0.250000
vt 0.250000 0.125000
vt 0.312500 0.125000
vt 0.312500 0.250000
vt 0.312500 0.875000
vt 0.312500 0.750000
vt 0.375000 0.875000
vt 0.375000 0.750000
vt 0.375000 0.250000
vt 0.375000 0.125000
vt 0.437500 0.125000
vt 0.437500 0.250000
vt 0.375000 0.375000
vt 0.437500 0.375000
vt 0.375000 0.500000
vt 0.437500 0.500000
vt 0.375000 0.625000
vt 0.437500 0.625000
vt 0.437500 0.750000
vt 0.437500 0.875000
vt 0.500000 0.875000
vt 0.500000 0.750000
vt 0.500000 0.625000
vt 0.500000 0.500000
vt 0.500000 0.375000
vt 0.500000 0.250000
vt 0.500000 0.125000
vt 0.562500 0.125000
vt 0.562500 0.250000
vt 0.562500 0.375000
vt 0.562500 0.500000
vt 0.562500 0.625000
vt 0.562500 0.750000
vt 0.562500 0.875000
vt 0.625000 0.875000
vt 0.625000 0.750000
vt 0.625000 0.625000
vt 0.625000 0.500000
vt 0.625000 0.375000
vt 0.625000 0.250000
vt 0.625000 0.125000
vt 0.687500 0.125000
vt 0.687500 0.250000
vt 0.687500 0.375000
vt 0.687500 0.500000
vt 0.687500 0.625000
vt 0.687500 0.750000
vt 0.687500 0.875000
vt 0.000000 0.000000
vt 0.796875 0.500000
vt 0.000000 0.750000
vt 0.796875 0.750000
vt 0.796875 0.250000
vt 0.796875 0.000000
vt 1.000000 0.000000
vt 0.796875 0.214844
vt 1.000000 0.214844
vt 0.000000 1.000000
vt 0.796875 1.000000
vt 0.796875 0.417969
vt 1.000000 0.417969
vn -0.718800 0.000000 0.695200
vn -0.664100 -0.275100 0.695200
vn -0.372400 -0.154200 0.915200
vn -0.403100 0.000000 0.915200
vn -0.927300 0.000000 0.374300
vn -0.856700 -0.354800 0.374300
vn -1.000000 0.000000 0.000000
vn -0.923900 -0.382700 0.000000
vn -0.927300 0.000000 -0.374300
vn -0.856700 -0.354800 -0.374300
vn -0.718800 0.000000 -0.695200
vn -0.664100 -0.275100 -0.695200
vn -0.403100 0.000000 -0.915200
vn -0.372400 -0.154200 -0.915200
vn 0.000000 0.000000 -1.000000
vn -0.285000 -0.285000 -0.915200
vn -0.508300 -0.508300 -0.695200
vn -0.655700 -0.655700 -0.374300
vn -0.707100 -0.707100 0.000000
vn -0.655700 -0.655700 0.374300
vn -0.508300 -0.508300 0.695200
vn -0.285000 -0.285000 0.915200
vn 0.000000 0.000000 1.000000
vn -0.154200 -0.372400 0.915200
vn -0.275100 -0.664100 0.695200
vn -0.354800 -0.856700 0.374300
vn -0.382700 -0.923900 0.000000
vn -0.354800 -0.856700 -0.374300
vn -0.275100 -0.664100 -0.695200
vn -0.154200 -0.372400 -0.915200
vn 0.000000 -0.403100 -0.915200
vn 0.000000 -0.718800 -0.695200
vn 0.000000 -0.927300 -0.374300
vn 0.000000 -1.000000 0.000000
vn 0.000000 -0.927300 0.374300
vn 0.000000 -0.718800 0.695200
vn 0.000000 -0.403100 0.915200
vn 0.154200 -0.372400 0.915200
vn 0.275100 -0.664100 0.695200
vn 0.354800 -0.856700 0.374300
vn 0.382700 -0.923900 0.000000
vn 0.354800 -0.856700 -0.374300
vn 0.275100 -0.664100 -0.695200
vn 0.154200 -0.372400 -0.915200
vn 0.285000 -0.285000 -0.915200
vn 0.508300 -0.508300 -0.695200
vn 0.655700 -0.655700 -0.374300
vn 0.707100 -0.707100 0.000000
vn 0.655700 -0.655700 0.374300
vn 0.508300 -0.508300 0.695200
vn 0.285000 -0.285000 0.915200
vn 0.372400 -0.154200 0.915100
vn 0.587600 -0.305200 0.749300
vn 0.372400 -0.154200 -0.915100
vn 0.587600 -0.305200 -0.749300
vn 0.403100 0.000000 -0.915200
vn 0.555600 0.000000 -0.831400
vn 0.555600 0.000000 0.831400
vn 0.403100 0.000000 0.915200
vn 0.372400 0.154200 0.915200
vn 0.513300 0.212600 0.831400
vn 0.372400 0.154200 -0.915200
vn 0.513300 0.212600 -0.831400
vn 0.285000 0.285000 -0.915200
vn 0.428800 0.517200 -0.740700
vn 0.428800 0.517200 0.740700
vn 0.285000 0.285000 0.915200
vn 0.154200 0.372400 0.915200
vn 0.275100 0.664100 0.695200
vn 0.516500 0.773100 0.368100
vn 0.354800 0.856700 0.374300
vn 0.555600 0.831400 0.000000
vn 0.382700 0.923900 0.000000
vn 0.516500 0.773100 -0.368100
vn 0.354800 0.856700 -0.374300
vn 0.275100 0.664100 -0.695200
vn 0.154200 0.372400 -0.915200
vn 0.000000 0.403100 -0.915200
vn 0.000000 0.718800 -0.695200
vn 0.000000 0.927300 -0.374300
vn 0.000000 1.000000 0.000000
vn 0.000000 0.927300 0.374300
vn 0.000000 0.718800 0.695200
vn 0.000000 0.403100 0.915200
vn -0.154200 0.372400 0.915200
vn -0.275100 0.664100 0.695200
vn -0.354800 0.856700 0.374300
vn -0.382700 0.923900 0.000000
vn -0.354800 0.856700 -0.374300
vn -0.275100 0.664100 -0.695200
vn -0.154200 0.372400 -0.915200
vn -0.285000 0.285000 -0.915100
vn -0.508300 0.508300 -0.695200
vn -0.655700 0.655700 -0.374300
vn -0.707100 0.707100 0.000000
vn -0.655700 0.655700 0.374300
vn -0.508300 0.508300 0.695200
vn -0.285000 0.285000 0.915100
vn -0.372400 0.154200 0.915200
vn -0.664100 0.275100 0.695200
vn -0.856700 0.354800 0.374300
vn -0.923900 0.382700 0.000000
vn -0.856700 0.354800 -0.374300
vn -0.664100 0.275100 -0.695200
vn -0.372400 0.154200 -0.915200
vn 0.767300 -0.512700 -0.385100
vn 0.831400 -0.555600 0.000000
vn 0.767300 -0.512700 0.385100
vn 1.000000 0.000000 0.000000
s 1
f 13/1/1 12/2/2 10/3/3 11/4/4
f 15/5/5 14/6/6 12/2/2 13/1/1
f 15/5/5 17/7/7 16/8/8 14/6/6
f 19/9/9 18/10/10 16/8/8 17/7/7
f 21/11/11 20/12/12 18/10/10 19/9/9
f 21/11/11 23/13/13 22/14/14 20/12/12
f 23/13/13 24/15/15 22/14/14
f 22/14/14 24/15/15 25/16/16
f 20/12/12 22/14/14 25/16/16 26/17/17
f 18/10/10 20/12/12 26/17/17 27/18/18
f 16/8/8 18/10/10 27/18/18 28/19/19
f 14/6/6 16/8/8 28/19/19 29/20/20
f 12/2/2 14/6/6 29/20/20 30/21/21
f 10/3/3 12/2/2 30/21/21 31/22/22
f 9/23/23 10/3/3 31/22/22
f 31/22/22 32/24/24 9/23/23
f 30/21/21 33/25/25 32/24/24 31/22/22
f 29/20/20 34/26/26 33/25/25 30/21/21
f 29/20/20 28/19/19 35/27/27 34/26/26
f 27/18/18 36/28/28 35/27/27 28/19/19
f 26/17/17 37/29/29 36/28/28 27/18/18
f 25/16/16 38/30/30 37/29/29 26/17/17
f 24/15/15 38/30/30 25/16/16
f 38/30/30 24/15/15 39/31/31
f 37/29/29 38/30/30 39/31/31 40/32/32
f 36/28/28 37/29/29 40/32/32 41/33/33
f 35/27/27 36/28/28 41/33/33 42/34/34
f 34/26/26 35/27/27 42/34/34 43/35/35
f 33/25/25 34/26/26 43/35/35 44/36/36
f 32/24/24 33/25/25 44/36/36 45/37/37
f 9/23/23 32/24/24 45/37/37
f 45/37/37 46/38/38 9/23/23
f 45/39/37 44/40/36 47/41/39 46/42/38
f 44/40/36 43/43/35 48/44/40 47/41/39
f 42/34/34 49/45/41 48/46/40 43/35/35
f 41/47/33 50/48/42 49/49/41 42/50/34
f 41/33/33 40/32/32 51/51/43 50/52/42
f 40/32/32 39/31/31 52/53/44 51/51/43
f 39/31/31 24/15/15 52/53/44
f 52/54/44 24/15/15 53/55/45
f 51/56/43 52/54/44 53/55/45 54/57/46
f 50/48/42 51/56/43 54/57/46 55/58/47
f 49/49/41 50/48/42 55/58/47 56/59/48
f 48/44/40 49/49/41 56/59/48 57/60/49
f 47/41/39 48/44/40 57/60/49 58/61/50
f 46/42/38 47/41/39 58/61/50 59/62/51
f 9/63/23 46/42/38 59/62/51
f 59/62/51 60/64/52 9/63/23
f 58/61/50 61/65/53 60/64/52 59/62/51
f 54/57/46 53/55/45 63/66/54 62/67/55
f 53/55/45 24/15/15 63/66/54
f 63/66/54 24/15/15 64/68/56
f 62/67/55 63/66/54 64/68/56 65/69/57
f 60/64/52 61/65/53 66/70/58 67/71/59
f 9/63/23 60/64/52 67/71/59
f 67/71/59 68/72/60 9/63/23
f 66/70/58 69/73/61 68/72/60 67/71/59
f 64/68/56 71/74/62 70/75/63 65/69/57
f 24/15/15 71/74/62 64/68/56
f 71/74/62 24/15/15 72/76/64
f 70/75/63 71/74/62 72/76/64 73/77/65
f 68/72/60 69/73/61 77/78/66 78/79/67
f 9/63/23 68/72/60 78/79/67
f 78/79/67 79/80/68 9/63/23
f 77/78/66 80/81/69 79/80/68 78/79/67
f 76/82/70 81/83/71 80/81/69 77/78/66
f 75/84/72 82/85/73 81/83/71 76/82/70
f 75/84/72 74/86/74 83/87/75 82/85/73
f 74/86/74 73/77/65 84/88/76 83/87/75
f 73/77/65 72/76/64 85/89/77 84/88/76
f 72/76/64 24/15/15 85/89/77
f 85/89/77 24/15/15 86/90/78
f 84/88/76 85/89/77 86/90/78 87/91/79
f 83/87/75 84/88/76 87/91/79 88/92/80
f 82/85/73 83/87/75 88/92/80 89/93/81
f 81/83/71 82/85/73 89/93/81 90/94/82
f 80/81/69 81/83/71 90/94/82 91/95/83
f 79/80/68 80/81/69 91/95/83 92/96/84
f 9/63/23 79/80/68 92/96/84
f 92/96/84 93/97/85 9/63/23
f 92/96/84 91/95/83 94/98/86 93/97/85
f 91/95/83 90/94/82 95/99/87 94/98/86
f 90/94/82 89/93/81 96/100/88 95/99/87
f 88/92/80 97/101/89 96/100/88 89/93/81
f 88/92/80 87/91/79 98/102/90 97/101/89
f 87/91/79 86/90/78 99/103/91 98/102/90
f 24/15/15 99/103/91 86/90/78
f 99/103/91 24/15/15 100/104/92
f 98/102/90 99/103/91 100/104/92 101/105/93
f 97/101/89 98/102/90 101/105/93 102/106/94
f 96/100/88 97/101/89 102/106/94 103/107/95
f 95/99/87 96/100/88 103/107/95 104/108/96
f 94/98/86 95/99/87 104/108/96 105/109/97
f 93/97/85 94/98/86 105/109/97 106/110/98
f 9/63/23 93/97/85 106/110/98
f 9/63/23 106/110/98 107/111/99
f 106/110/98 105/109/97 108/112/100 107/111/99
f 104/108/96 109/113/101 108/112/100 105/109/97
f 104/108/96 103/107/95 110/114/102 109/113/101
f 102/106/94 111/115/103 110/114/102 103/107/95
f 102/106/94 101/105/93 112/116/104 111/115/103
f 100/104/92 113/117/105 112/116/104 101/105/93
f 24/15/15 113/117/105 100/104/92
f 113/117/105 24/15/15 23/13/13
f 112/116/104 113/117/105 23/13/13 21/11/11
f 111/115/103 112/116/104 21/11/11 19/9/9
f 110/114/102 111/115/103 19/9/9 17/7/7
f 109/113/101 110/114/102 17/7/7 15/5/5
f 108/112/100 109/113/101 15/5/5 13/1/1
f 107/111/99 108/112/100 13/1/1 11/4/4
f 9/63/23 107/111/99 11/4/4
f 11/4/4 10/3/3 9/63/23
f 114/118/106 55/57/47 54/67/46 62/118/55
f 56/58/48 55/118/47 114/118/106 115/118/107
f 57/59/49 56/118/48 115/118/107 116/118/108
f 58/60/50 57/118/49 116/118/108 61/118/53
s off
f 1/119/23 4/50/23 3/120/23 2/121/23
f 5/122/15 8/123/15 7/118/15 6/40/15
f 1/124/7 2/123/7 8/125/7 5/126/7
f 2/121/81 3/120/81 7/127/81 8/128/81
f 3/129/109 4/125/109 6/126/109 7/130/109
f 5/122/34 6/40/34 4/50/34 1/119/34
