# Blender v2.75 (sub 0) OBJ File: 'Full Tori.blend'
# www.blender.org
o r_glute
v -0.994579 0.930920 -1.237294
v -1.632016 1.194955 -1.100050
v -1.684536 0.930920 -1.100050
v -2.172409 1.418793 -0.709224
v -2.269452 0.930920 -0.709224
v -2.533490 1.568354 -0.124304
v -2.660282 0.930920 -0.124304
v -2.660281 1.620874 0.565649
v -2.797521 0.930920 0.565649
v -2.533490 1.568354 1.255607
v -2.660282 0.930920 1.255607
v -2.172409 1.418793 1.840523
v -2.269452 0.930920 1.840523
v -1.632019 1.194955 2.231352
v -1.684536 0.930920 2.231352
v -0.994582 0.930920 2.368593
v -1.482455 1.418793 2.231352
v -1.896053 1.832392 1.840523
v -2.172409 2.108747 1.255607
v -2.269455 2.205791 0.565649
v -2.172409 2.108747 -0.124304
v -1.896053 1.832392 -0.709224
v -1.482452 1.418793 -1.100050
v -1.258617 1.568354 -1.100050
v -1.482455 2.108747 -0.709224
v -1.632019 2.469829 -0.124304
v -1.684536 2.596621 0.565649
v -1.632019 2.469829 1.255607
v -1.482455 2.108747 1.840523
v -1.258616 1.568357 2.231352
v -0.994582 1.620874 2.231352
v -0.994582 2.205791 1.840523
v -0.994582 2.596620 1.255607
v -0.994582 2.733863 0.565649
v -0.994582 2.596620 -0.124304
v -0.994582 2.205791 -0.709224
v -0.994582 1.620874 -1.100050
v -0.730548 1.568354 -1.100050
v -0.506709 2.108747 -0.709224
v -0.357146 2.469828 -0.124304
v -0.304625 2.596620 0.565649
v -0.357145 2.469828 1.255607
v -0.506709 2.108747 1.840523
v -0.730548 1.568357 2.231352
v -0.506709 1.418793 2.231352
v -0.093111 1.832391 1.840523
v 0.183248 2.108747 1.255607
v 0.280291 2.205793 0.565649
v 0.183248 2.108747 -0.124304
v -0.093111 1.832391 -0.709224
v -0.506710 1.418793 -1.100050
v -0.357146 1.194955 -1.100050
v 0.183247 1.418793 -0.709224
v 0.544325 1.568357 -0.124305
v 0.671121 1.620877 0.565649
v 0.544326 1.568357 1.255607
v 0.183248 1.418793 1.840523
v -0.357146 1.194955 2.231352
v -0.304625 0.930920 2.231352
v 0.280291 0.930920 1.840523
v 0.671120 0.930920 1.255607
v 0.808360 0.930920 0.565649
v 0.671120 0.930920 -0.124305
v 0.280291 0.930920 -0.709224
v -0.304625 0.930920 -1.100050
v -0.357146 0.666886 -1.100050
v 0.183247 0.443047 -0.709224
v 0.544325 0.293483 -0.124305
v 0.671120 0.240963 0.565649
v 0.544325 0.293483 1.255607
v 0.183248 0.443047 1.840523
v -0.357146 0.666886 2.231352
v -0.506709 0.443047 2.231352
v -0.093111 0.029449 1.840523
v 0.183247 -0.246910 1.255607
v 0.280291 -0.343954 0.565649
v 0.183247 -0.246910 -0.124304
v -0.093112 0.029449 -0.709224
v -0.506710 0.443047 -1.100050
v -0.730548 0.293483 -1.100050
v -0.506710 -0.246910 -0.709224
v -0.357146 -0.607988 -0.124304
v -0.304626 -0.734783 0.565649
v -0.357146 -0.607988 1.255607
v -0.506709 -0.246910 1.840523
v -0.730545 0.293483 2.231352
v -0.994582 0.240963 2.231352
v -0.994582 -0.343953 1.840523
v -0.994582 -0.734783 1.255607
v -0.994583 -0.872022 0.565649
v -0.994583 -0.734783 -0.124304
v -0.994583 -0.343953 -0.709224
v -0.994582 0.240963 -1.100050
v -1.258617 0.293483 -1.100050
v -1.482452 -0.246910 -0.709224
v -1.632016 -0.607988 -0.124304
v -1.684536 -0.734783 0.565649
v -1.632016 -0.607988 1.255607
v -1.482452 -0.246910 1.840523
v -1.258617 0.293483 2.231352
v -1.482455 0.443047 2.231352
v -1.896050 0.029449 1.840523
v -2.172409 -0.246910 1.255607
v -2.269452 -0.343953 0.565649
v -2.172409 -0.246910 -0.124304
v -1.896050 0.029449 -0.709224
v -1.482452 0.443047 -1.100050
v -1.632016 0.666886 -1.100050
v -2.172409 0.443047 -0.709224
v -2.533487 0.293484 -0.124304
v -2.660282 0.240963 0.565649
v -2.533486 0.293484 1.255607
v -2.172409 0.443047 1.840523
v -1.632019 0.666886 2.231352
vt 0.750000 0.250000
vt 0.750000 0.125000
vt 0.812500 0.125000
vt 0.812500 0.250000
vt 0.750000 0.375000
vt 0.812500 0.375000
vt 0.812500 0.500000
vt 0.750000 0.500000
vt 0.750000 0.625000
vt 0.812500 0.625000
vt 0.750000 0.750000
vt 0.812500 0.750000
vt 0.812500 0.875000
vt 0.750000 0.875000
vt 0.643078 1.000000
vt 0.875000 0.875000
vt 0.875000 0.750000
vt 0.875000 0.625000
vt 0.875000 0.500000
vt 0.875000 0.375000
vt 0.875000 0.250000
vt 0.875000 0.125000
vt 1.368556 0.000000
vt 0.937500 0.125000
vt 0.937500 0.250000
vt 0.937500 0.375000
vt 0.937500 0.500000
vt 0.937500 0.625000
vt 0.937500 0.750000
vt 0.937500 0.875000
vt 1.000000 0.875000
vt 1.000000 0.750000
vt 1.000000 0.625000
vt 1.000000 0.500000
vt 1.000000 0.375000
vt 1.000000 0.250000
vt 1.000000 0.125000
vt 1.062500 0.125000
vt 1.062500 0.250000
vt 0.000000 0.250000
vt 0.062500 0.250000
vt 0.062500 0.375000
vt 0.000000 0.375000
vt 1.062500 0.375000
vt 1.062500 0.500000
vt 0.000000 0.500000
vt 0.062500 0.500000
vt 1.062500 0.625000
vt 1.062500 0.750000
vt 1.062500 0.875000
vt 0.062500 0.875000
vt 0.125000 0.875000
vt 0.062500 0.750000
vt 0.125000 0.750000
vt 0.062500 0.625000
vt 0.125000 0.625000
vt 0.125000 0.500000
vt 0.125000 0.375000
vt 0.125000 0.250000
vt 0.062500 0.125000
vt 0.125000 0.125000
vt 0.368556 0.000000
vt 0.187500 0.125000
vt 0.187500 0.250000
vt 0.187500 0.375000
vt 0.187500 0.500000
vt 0.187500 0.625000
vt 0.187500 0.750000
vt 0.187500 0.875000
vt 0.250000 0.875000
vt 0.250000 0.750000
vt 0.250000 0.625000
vt 0.250000 0.500000
vt 0.250000 0.375000
vt 0.250000 0.250000
vt 0.250000 0.125000
vt 0.312500 0.125000
vt 0.312500 0.250000
vt 0.312500 0.375000
vt 0.312500 0.500000
vt 0.312500 0.625000
vt 0.312500 0.750000
vt 0.312500 0.875000
vt 0.375000 0.875000
vt 0.375000 0.750000
vt 0.375000 0.625000
vt 0.375000 0.500000
vt 0.375000 0.375000
vt 0.375000 0.250000
vt 0.375000 0.125000
vt 0.437500 0.125000
vt 0.437500 0.250000
vt 0.437500 0.375000
vt 0.437500 0.500000
vt 0.437500 0.625000
vt 0.437500 0.750000
vt 0.437500 0.875000
vt 0.500000 0.875000
vt 0.500000 0.750000
vt 0.500000 0.625000
vt 0.500000 0.500000
vt 0.500000 0.375000
vt 0.500000 0.250000
vt 0.500000 0.125000
vt 0.562500 0.125000
vt 0.562500 0.250000
vt 0.562500 0.375000
vt 0.562500 0.500000
vt 0.562500 0.625000
vt 0.562500 0.750000
vt 0.562500 0.875000
vt 0.625000 0.875000
vt 0.625000 0.750000
vt 0.625000 0.625000
vt 0.625000 0.500000
vt 0.625000 0.375000
vt 0.625000 0.250000
vt 0.625000 0.125000
vt 0.687500 0.125000
vt 0.687500 0.250000
vt 0.687500 0.375000
vt 0.687500 0.500000
vt 0.687500 0.625000
vt 0.687500 0.750000
vt 0.687500 0.875000
vn 0.718800 0.000000 0.695200
vn 0.403100 0.000000 0.915200
vn 0.372400 -0.154200 0.915200
vn 0.664100 -0.275100 0.695200
vn 0.927300 0.000000 0.374300
vn 0.856700 -0.354800 0.374300
vn 0.923900 -0.382700 0.000000
vn 1.000000 0.000000 0.000000
vn 0.927300 0.000000 -0.374300
vn 0.856700 -0.354800 -0.374300
vn 0.718800 0.000000 -0.695200
vn 0.664100 -0.275100 -0.695200
vn 0.372400 -0.154200 -0.915200
vn 0.403100 0.000000 -0.915200
vn 0.000000 0.000000 -1.000000
vn 0.285000 -0.285000 -0.915200
vn 0.508300 -0.508300 -0.695200
vn 0.655700 -0.655700 -0.374300
vn 0.707100 -0.707100 0.000000
vn 0.655700 -0.655700 0.374300
vn 0.508300 -0.508300 0.695200
vn 0.285000 -0.285000 0.915200
vn 0.000000 0.000000 1.000000
vn 0.154200 -0.372400 0.915200
vn 0.275100 -0.664100 0.695200
vn 0.354800 -0.856700 0.374300
vn 0.382700 -0.923900 0.000000
vn 0.354800 -0.856700 -0.374300
vn 0.275100 -0.664100 -0.695200
vn 0.154200 -0.372400 -0.915200
vn 0.000000 -0.403100 -0.915200
vn 0.000000 -0.718800 -0.695200
vn 0.000000 -0.927300 -0.374300
vn 0.000000 -1.000000 0.000000
vn 0.000000 -0.927300 0.374300
vn 0.000000 -0.718800 0.695200
vn 0.000000 -0.403100 0.915200
vn -0.154200 -0.372400 0.915200
vn -0.275100 -0.664100 0.695200
vn -0.354800 -0.856700 0.374300
vn -0.382700 -0.923900 0.000000
vn -0.354800 -0.856700 -0.374300
vn -0.275100 -0.664100 -0.695200
vn -0.154200 -0.372400 -0.915200
vn -0.285000 -0.285000 -0.915200
vn -0.508300 -0.508300 -0.695200
vn -0.655700 -0.655700 -0.374300
vn -0.707100 -0.707100 0.000000
vn -0.655700 -0.655700 0.374300
vn -0.508300 -0.508300 0.695200
vn -0.285000 -0.285000 0.915200
vn -0.372400 -0.154200 0.915200
vn -0.664100 -0.275100 0.695200
vn -0.856700 -0.354800 0.374300
vn -0.923900 -0.382700 0.000000
vn -0.856700 -0.354800 -0.374300
vn -0.664100 -0.275100 -0.695200
vn -0.372400 -0.154200 -0.915200
vn -0.403100 0.000000 -0.915200
vn -0.718800 0.000000 -0.695200
vn -0.927300 0.000000 -0.374300
vn -1.000000 0.000000 0.000000
vn -0.927300 0.000000 0.374300
vn -0.718800 0.000000 0.695200
vn -0.403100 0.000000 0.915200
vn -0.372400 0.154200 0.915200
vn -0.664100 0.275100 0.695200
vn -0.856700 0.354800 0.374300
vn -0.923900 0.382700 0.000000
vn -0.856700 0.354800 -0.374300
vn -0.664100 0.275100 -0.695200
vn -0.372400 0.154200 -0.915200
vn -0.285000 0.285000 -0.915200
vn -0.508300 0.508300 -0.695200
vn -0.655700 0.655700 -0.374300
vn -0.707100 0.707100 0.000000
vn -0.655700 0.655700 0.374300
vn -0.508300 0.508300 0.695200
vn -0.285000 0.285000 0.915200
vn -0.154200 0.372400 0.915200
vn -0.275100 0.664100 0.695200
vn -0.354800 0.856700 0.374300
vn -0.382700 0.923900 0.000000
vn -0.354800 0.856700 -0.374300
vn -0.275100 0.664100 -0.695200
vn -0.154200 0.372400 -0.915200
vn 0.000000 0.403100 -0.915200
vn 0.000000 0.718800 -0.695200
vn 0.000000 0.927300 -0.374300
vn 0.000000 1.000000 0.000000
vn 0.000000 0.927300 0.374300
vn 0.000000 0.718800 0.695200
vn 0.000000 0.403100 0.915200
vn 0.154200 0.372400 0.915200
vn 0.275100 0.664100 0.695200
vn 0.354800 0.856700 0.374300
vn 0.382700 0.923900 0.000000
vn 0.354800 0.856700 -0.374300
vn 0.275100 0.664100 -0.695200
vn 0.154200 0.372400 -0.915200
vn 0.285000 0.285000 -0.915200
vn 0.508300 0.508300 -0.695200
vn 0.655700 0.655700 -0.374300
vn 0.707100 0.707100 0.000000
vn 0.655700 0.655700 0.374300
vn 0.508300 0.508300 0.695200
vn 0.285000 0.285000 0.915200
vn 0.372400 0.154200 0.915200
vn 0.664100 0.275100 0.695200
vn 0.856700 0.354800 0.374300
vn 0.923900 0.382700 0.000000
vn 0.856700 0.354800 -0.374300
vn 0.664100 0.275100 -0.695200
vn 0.372400 0.154200 -0.915200
s 1
f 5/1/1 3/2/2 2/3/3 4/4/4
f 7/5/5 5/1/1 4/4/4 6/6/6
f 7/5/5 6/6/6 8/7/7 9/8/8
f 11/9/9 9/8/8 8/7/7 10/10/10
f 13/11/11 11/9/9 10/10/10 12/12/12
f 13/11/11 12/12/12 14/13/13 15/14/14
f 15/14/14 14/13/13 16/15/15
f 14/13/13 17/16/16 16/15/15
f 12/12/12 18/17/17 17/16/16 14/13/13
f 10/10/10 19/18/18 18/17/17 12/12/12
f 8/7/7 20/19/19 19/18/18 10/10/10
f 6/6/6 21/20/20 20/19/19 8/7/7
f 4/4/4 22/21/21 21/20/20 6/6/6
f 2/3/3 23/22/22 22/21/21 4/4/4
f 1/23/23 23/22/22 2/3/3
f 23/22/22 1/23/23 24/24/24
f 22/21/21 23/22/22 24/24/24 25/25/25
f 21/20/20 22/21/21 25/25/25 26/26/26
f 21/20/20 26/26/26 27/27/27 20/19/19
f 19/18/18 20/19/19 27/27/27 28/28/28
f 18/17/17 19/18/18 28/28/28 29/29/29
f 17/16/16 18/17/17 29/29/29 30/30/30
f 16/15/15 17/16/16 30/30/30
f 30/30/30 31/31/31 16/15/15
f 29/29/29 32/32/32 31/31/31 30/30/30
f 28/28/28 33/33/33 32/32/32 29/29/29
f 27/27/27 34/34/34 33/33/33 28/28/28
f 26/26/26 35/35/35 34/34/34 27/27/27
f 25/25/25 36/36/36 35/35/35 26/26/26
f 24/24/24 37/37/37 36/36/36 25/25/25
f 1/23/23 37/37/37 24/24/24
f 37/37/37 1/23/23 38/38/38
f 37/37/37 38/38/38 39/39/39 36/36/36
f 36/40/36 39/41/39 40/42/40 35/43/35
f 34/34/34 35/35/35 40/44/40 41/45/41
f 33/33/33 34/46/34 41/47/41 42/48/42
f 33/33/33 42/48/42 43/49/43 32/32/32
f 32/32/32 43/49/43 44/50/44 31/31/31
f 31/31/31 44/50/44 16/15/15
f 44/51/44 45/52/45 16/15/15
f 43/53/43 46/54/46 45/52/45 44/51/44
f 42/55/42 47/56/47 46/54/46 43/53/43
f 41/47/41 48/57/48 47/56/47 42/55/42
f 40/42/40 49/58/49 48/57/48 41/47/41
f 39/41/39 50/59/50 49/58/49 40/42/40
f 38/60/38 51/61/51 50/59/50 39/41/39
f 1/62/23 51/61/51 38/60/38
f 51/61/51 1/62/23 52/63/52
f 50/59/50 51/61/51 52/63/52 53/64/53
f 50/59/50 53/64/53 54/65/54 49/58/49
f 48/57/48 49/58/49 54/65/54 55/66/55
f 48/57/48 55/66/55 56/67/56 47/56/47
f 47/56/47 56/67/56 57/68/57 46/54/46
f 46/54/46 57/68/57 58/69/58 45/52/45
f 45/52/45 58/69/58 16/15/15
f 58/69/58 59/70/59 16/15/15
f 57/68/57 60/71/60 59/70/59 58/69/58
f 56/67/56 61/72/61 60/71/60 57/68/57
f 55/66/55 62/73/62 61/72/61 56/67/56
f 54/65/54 63/74/63 62/73/62 55/66/55
f 53/64/53 64/75/64 63/74/63 54/65/54
f 52/63/52 65/76/65 64/75/64 53/64/53
f 1/62/23 65/76/65 52/63/52
f 65/76/65 1/62/23 66/77/66
f 64/75/64 65/76/65 66/77/66 67/78/67
f 63/74/63 64/75/64 67/78/67 68/79/68
f 63/74/63 68/79/68 69/80/69 62/73/62
f 61/72/61 62/73/62 69/80/69 70/81/70
f 61/72/61 70/81/70 71/82/71 60/71/60
f 59/70/59 60/71/60 71/82/71 72/83/72
f 16/15/15 59/70/59 72/83/72
f 72/83/72 73/84/73 16/15/15
f 71/82/71 74/85/74 73/84/73 72/83/72
f 70/81/70 75/86/75 74/85/74 71/82/71
f 69/80/69 76/87/76 75/86/75 70/81/70
f 68/79/68 77/88/77 76/87/76 69/80/69
f 67/78/67 78/89/78 77/88/77 68/79/68
f 66/77/66 79/90/79 78/89/78 67/78/67
f 1/62/23 79/90/79 66/77/66
f 79/90/79 1/62/23 80/91/80
f 78/89/78 79/90/79 80/91/80 81/92/81
f 77/88/77 78/89/78 81/92/81 82/93/82
f 76/87/76 77/88/77 82/93/82 83/94/83
f 76/87/76 83/94/83 84/95/84 75/86/75
f 75/86/75 84/95/84 85/96/85 74/85/74
f 74/85/74 85/96/85 86/97/86 73/84/73
f 73/84/73 86/97/86 16/15/15
f 86/97/86 87/98/87 16/15/15
f 85/96/85 88/99/88 87/98/87 86/97/86
f 84/95/84 89/100/89 88/99/88 85/96/85
f 83/94/83 90/101/90 89/100/89 84/95/84
f 82/93/82 91/102/91 90/101/90 83/94/83
f 81/92/81 92/103/92 91/102/91 82/93/82
f 80/91/80 93/104/93 92/103/92 81/92/81
f 1/62/23 93/104/93 80/91/80
f 93/104/93 1/62/23 94/105/94
f 93/104/93 94/105/94 95/106/95 92/103/92
f 92/103/92 95/106/95 96/107/96 91/102/91
f 91/102/91 96/107/96 97/108/97 90/101/90
f 89/100/89 90/101/90 97/108/97 98/109/98
f 89/100/89 98/109/98 99/110/99 88/99/88
f 88/99/88 99/110/99 100/111/100 87/98/87
f 16/15/15 87/98/87 100/111/100
f 100/111/100 101/112/101 16/15/15
f 99/110/99 102/113/102 101/112/101 100/111/100
f 98/109/98 103/114/103 102/113/102 99/110/99
f 97/108/97 104/115/104 103/114/103 98/109/98
f 96/107/96 105/116/105 104/115/104 97/108/97
f 95/106/95 106/117/106 105/116/105 96/107/96
f 94/105/94 107/118/107 106/117/106 95/106/95
f 1/62/23 107/118/107 94/105/94
f 1/62/23 108/119/108 107/118/107
f 107/118/107 108/119/108 109/120/109 106/117/106
f 105/116/105 106/117/106 109/120/109 110/121/110
f 105/116/105 110/121/110 111/122/111 104/115/104
f 103/114/103 104/115/104 111/122/111 112/123/112
f 103/114/103 112/123/112 113/124/113 102/113/102
f 101/112/101 102/113/102 113/124/113 114/125/114
f 16/15/15 101/112/101 114/125/114
f 114/125/114 15/14/14 16/15/15
f 113/124/113 13/11/11 15/14/14 114/125/114
f 112/123/112 11/9/9 13/11/11 113/124/113
f 111/122/111 9/8/8 11/9/9 112/123/112
f 110/121/110 7/5/5 9/8/8 111/122/111
f 109/120/109 5/1/1 7/5/5 110/121/110
f 108/119/108 3/2/2 5/1/1 109/120/109
f 1/62/23 3/2/2 108/119/108
f 3/2/2 1/62/23 2/3/3
