# Blender v2.75 (sub 0) OBJ File: 'Full Tori.blend'
# www.blender.org
o r_pecs
v -0.513983 -0.391448 -0.755816
v -0.861689 -0.204668 -0.680954
v -0.890336 -0.391454 -0.680954
v -1.156461 -0.046322 -0.467767
v -1.209393 -0.391460 -0.467767
v -1.353421 0.059479 -0.148711
v -1.422580 -0.391463 -0.148711
v -1.422585 0.096632 0.227641
v -1.497439 -0.391465 0.227641
v -1.353421 0.059479 0.603994
v -1.422580 -0.391463 0.603994
v -1.156461 -0.046324 0.923051
v -1.209393 -0.391460 0.923051
v -0.861690 -0.204668 1.136238
v -0.890336 -0.391454 1.136238
v -0.513983 -0.391448 1.211099
v -0.780108 -0.046315 1.136238
v -1.005718 0.246273 0.923051
v -1.156467 0.441774 0.603994
v -1.209402 0.510425 0.227641
v -1.156467 0.441774 -0.148711
v -1.005718 0.246273 -0.467767
v -0.780108 -0.046317 -0.680954
v -0.658012 0.059491 -0.680954
v -0.780113 0.441780 -0.467767
v -0.861699 0.697217 -0.148711
v -0.890348 0.786915 0.227643
v -0.861699 0.697217 0.603994
v -0.780113 0.441780 0.923051
v -0.658012 0.059491 1.136238
v -0.513988 0.096648 1.136238
v -0.513992 0.510437 0.923051
v -0.513996 0.786922 0.603994
v -0.513997 0.884011 0.227643
v -0.513996 0.786922 -0.148711
v -0.513992 0.510437 -0.467767
v -0.513988 0.096648 -0.680954
v -0.369964 0.059496 -0.680954
v -0.247871 0.441790 -0.467767
v -0.166290 0.697231 -0.148711
v -0.137643 0.786928 0.227643
v -0.166290 0.697231 0.603994
v -0.247871 0.441790 0.923051
v -0.369964 0.059496 1.136238
v -0.247866 -0.046306 1.136238
v -0.022261 0.246290 0.923051
v 0.128483 0.441796 0.603994
v 0.181417 0.510449 0.227641
v 0.128483 0.441796 -0.148711
v -0.022261 0.246290 -0.467767
v -0.247866 -0.046306 -0.680954
v -0.166281 -0.204656 -0.680954
v 0.128488 -0.046299 -0.467767
v 0.325445 0.059510 -0.148710
v 0.394608 0.096664 0.227641
v 0.325445 0.059510 0.603994
v 0.128488 -0.046299 0.923051
v -0.166281 -0.204656 1.136238
v -0.137631 -0.391441 1.136238
v 0.181426 -0.391435 0.923051
v 0.394613 -0.391432 0.603994
v 0.469474 -0.391430 0.227641
v 0.394613 -0.391432 -0.148710
v 0.181426 -0.391436 -0.467767
v -0.137631 -0.391441 -0.680954
v -0.166277 -0.578227 -0.680954
v 0.128495 -0.736574 -0.467767
v 0.325454 -0.842376 -0.148710
v 0.394618 -0.879529 0.227641
v 0.325454 -0.842376 0.603994
v 0.128495 -0.736573 0.923051
v -0.166277 -0.578229 1.136238
v -0.247859 -0.736580 1.136238
v -0.022248 -1.029168 0.923051
v 0.128500 -1.224671 0.603994
v 0.181435 -1.293320 0.227641
v 0.128500 -1.224671 -0.148710
v -0.022248 -1.029168 -0.467767
v -0.247859 -0.736580 -0.680954
v -0.369954 -0.842389 -0.680954
v -0.247854 -1.224676 -0.467767
v -0.166268 -1.480114 -0.148710
v -0.137619 -1.569811 0.227641
v -0.166268 -1.480114 0.603994
v -0.247854 -1.224678 0.923051
v -0.369955 -0.842388 1.136238
v -0.513978 -0.879545 1.136238
v -0.513973 -1.293332 0.923051
v -0.513970 -1.569817 0.603994
v -0.513969 -1.666906 0.227641
v -0.513970 -1.569817 -0.148710
v -0.513973 -1.293332 -0.467767
v -0.513978 -0.879545 -0.680954
v -0.658003 -0.842394 -0.680954
v -0.780096 -1.224687 -0.467767
v -0.861676 -1.480127 -0.148710
v -0.890324 -1.569824 0.227641
v -0.861676 -1.480126 0.603994
v -0.780096 -1.224687 0.923051
v -0.658003 -0.842393 1.136238
v -0.780101 -0.736589 1.136238
v -1.005704 -1.029185 0.923051
v -1.156449 -1.224694 0.603994
v -1.209382 -1.293344 0.227641
v -1.156449 -1.224694 -0.148711
v -1.005704 -1.029186 -0.467767
v -0.780101 -0.736589 -0.680954
v -0.861686 -0.578242 -0.680954
v -1.156454 -0.736596 -0.467767
v -1.353411 -0.842406 -0.148711
v -1.422573 -0.879561 0.227641
v -1.353411 -0.842405 0.603994
v -1.156455 -0.736596 0.923051
v -0.861686 -0.578241 1.136238
v 0.560138 -0.584246 -0.555751
v 0.560127 0.551187 -0.555752
v -0.552043 0.551167 -0.555752
v -0.552031 -0.584266 -0.555752
v 0.560138 -0.584244 0.556418
v -0.552031 -0.584266 0.556418
v -0.552044 0.551167 0.556418
v 0.560125 0.551187 0.556418
vt -0.000159 0.750000
vt -0.000159 0.500000
vt 0.797034 0.500000
vt 0.797034 0.750000
vt -0.000159 0.000000
vt 0.797034 0.000000
vt 0.797034 0.250000
vt -0.000159 0.250000
vt 0.797035 0.203200
vt 1.000894 0.203200
vt 1.000894 0.406400
vt 0.797035 0.406400
vt -0.000159 1.000000
vt 0.797034 1.000000
vt 0.750000 0.250000
vt 0.750000 0.125000
vt 0.812500 0.125000
vt 0.812500 0.250000
vt 0.750000 0.375000
vt 0.812500 0.375000
vt 0.812500 0.500000
vt 0.750000 0.500000
vt 0.750000 0.625000
vt 0.812500 0.625000
vt 0.750000 0.750000
vt 0.812500 0.750000
vt 0.812500 0.875000
vt 0.750000 0.875000
vt 0.642718 1.000000
vt 0.875000 0.875000
vt 0.875000 0.750000
vt 0.875000 0.625000
vt 0.875000 0.500000
vt 0.875000 0.375000
vt 0.875000 0.250000
vt 0.875000 0.125000
vt 1.354121 0.000000
vt 0.937500 0.125000
vt 0.937500 0.250000
vt 0.937500 0.375000
vt 0.937500 0.500000
vt 0.937500 0.625000
vt 0.937500 0.750000
vt 0.937500 0.875000
vt 1.000000 0.875000
vt 1.000000 0.750000
vt 1.000000 0.625000
vt 1.000000 0.500000
vt 1.000000 0.375000
vt 1.000000 0.250000
vt 1.000000 0.125000
vt 1.062500 0.125000
vt 0.000000 0.125000
vt 0.062500 0.125000
vt 0.062500 0.250000
vt 0.000000 0.250000
vt 0.062500 0.375000
vt 0.000000 0.375000
vt 1.062500 0.375000
vt 1.062500 0.500000
vt 0.000000 0.625000
vt 0.000000 0.500000
vt 0.062500 0.500000
vt 0.062500 0.625000
vt 1.062500 0.625000
vt 1.062500 0.750000
vt 1.062500 0.875000
vt 0.062500 0.875000
vt 0.125000 0.875000
vt 0.062500 0.750000
vt 0.125000 0.750000
vt 0.125000 0.625000
vt 0.125000 0.500000
vt 0.125000 0.375000
vt 0.125000 0.250000
vt 0.125000 0.125000
vt 0.354121 0.000000
vt 0.187500 0.125000
vt 0.187500 0.250000
vt 0.187500 0.375000
vt 0.187500 0.500000
vt 0.187500 0.625000
vt 0.187500 0.750000
vt 0.187500 0.875000
vt 0.250000 0.875000
vt 0.250000 0.750000
vt 0.250000 0.625000
vt 0.250000 0.500000
vt 0.250000 0.375000
vt 0.250000 0.250000
vt 0.250000 0.125000
vt 0.312500 0.125000
vt 0.312500 0.250000
vt 0.312500 0.375000
vt 0.312500 0.500000
vt 0.312500 0.625000
vt 0.312500 0.750000
vt 0.312500 0.875000
vt 0.375000 0.875000
vt 0.375000 0.750000
vt 0.375000 0.625000
vt 0.375000 0.500000
vt 0.375000 0.375000
vt 0.375000 0.250000
vt 0.375000 0.125000
vt 0.437500 0.125000
vt 0.437500 0.250000
vt 0.437500 0.375000
vt 0.437500 0.500000
vt 0.437500 0.625000
vt 0.437500 0.750000
vt 0.437500 0.875000
vt 0.500000 0.875000
vt 0.500000 0.750000
vt 0.500000 0.625000
vt 0.500000 0.500000
vt 0.500000 0.375000
vt 0.500000 0.250000
vt 0.500000 0.125000
vt 0.562500 0.125000
vt 0.562500 0.250000
vt 0.562500 0.375000
vt 0.562500 0.500000
vt 0.562500 0.625000
vt 0.562500 0.750000
vt 0.562500 0.875000
vt 0.625000 0.875000
vt 0.625000 0.750000
vt 0.625000 0.625000
vt 0.625000 0.500000
vt 0.625000 0.375000
vt 0.625000 0.250000
vt 0.625000 0.125000
vt 0.687500 0.125000
vt 0.687500 0.250000
vt 0.687500 0.375000
vt 0.687500 0.500000
vt 0.687500 0.625000
vt 0.687500 0.750000
vt 0.687500 0.875000
vn -0.000000 0.000000 1.000000
vn -0.000000 0.000000 -1.000000
vn -1.000000 -0.000000 -0.000000
vn 0.000000 -1.000000 0.000000
vn -0.000000 1.000000 -0.000000
vn 0.716300 0.000000 0.697800
vn 0.398600 0.000000 0.917100
vn 0.372500 -0.116800 0.920600
vn 0.672700 -0.216700 0.707400
vn 0.926500 0.000000 0.376200
vn 0.877100 -0.286800 0.385300
vn 0.950000 -0.312200 0.000000
vn 1.000000 0.000000 0.000000
vn 0.926500 0.000000 -0.376200
vn 0.877100 -0.286800 -0.385300
vn 0.716300 0.000000 -0.697800
vn 0.672700 -0.216700 -0.707400
vn 0.372500 -0.116800 -0.920600
vn 0.398600 0.000000 -0.917100
vn 0.294100 -0.222500 -0.929500
vn 0.537700 -0.418000 -0.732200
vn 0.715400 -0.566000 -0.409700
vn 0.782200 -0.623000 0.000000
vn 0.715400 -0.566000 0.409700
vn 0.537700 -0.418000 0.732200
vn 0.294100 -0.222500 0.929500
vn 0.165100 -0.301400 0.939100
vn 0.306000 -0.574100 0.759400
vn 0.416100 -0.797100 0.437600
vn 0.459500 -0.888100 0.000000
vn 0.416100 -0.797100 -0.437600
vn 0.306000 -0.574100 -0.759400
vn 0.165100 -0.301400 -0.939100
vn 0.000000 -0.331800 -0.943300
vn 0.000000 -0.636100 -0.771600
vn 0.000000 -0.892900 -0.450300
vn 0.000000 -0.892900 0.450300
vn 0.000000 -0.636100 0.771600
vn 0.000000 -0.331800 0.943300
vn -0.165100 -0.301400 0.939100
vn -0.305900 -0.574100 0.759400
vn -0.416100 -0.797100 0.437600
vn -0.459500 -0.888200 0.000000
vn -0.416100 -0.797100 -0.437600
vn -0.305900 -0.574100 -0.759400
vn -0.165100 -0.301400 -0.939100
vn -0.294100 -0.222500 -0.929500
vn -0.537700 -0.418000 -0.732200
vn -0.715400 -0.566000 -0.409700
vn -0.782200 -0.623000 0.000000
vn -0.715400 -0.566000 0.409700
vn -0.537700 -0.418000 0.732200
vn -0.294100 -0.222500 0.929500
vn -0.372500 -0.116800 0.920600
vn -0.672700 -0.216700 0.707400
vn -0.877000 -0.286800 0.385300
vn -0.950000 -0.312300 0.000000
vn -0.877000 -0.286800 -0.385300
vn -0.672700 -0.216700 -0.707400
vn -0.372500 -0.116800 -0.920600
vn -0.398600 0.000000 -0.917100
vn -0.716300 0.000000 -0.697800
vn -0.926500 0.000000 -0.376200
vn -0.926500 0.000000 0.376200
vn -0.716300 0.000000 0.697800
vn -0.398600 0.000000 0.917100
vn -0.372500 0.116800 0.920600
vn -0.672700 0.216700 0.707400
vn -0.877100 0.286800 0.385300
vn -0.950000 0.312200 0.000000
vn -0.877100 0.286800 -0.385300
vn -0.672700 0.216700 -0.707400
vn -0.372500 0.116800 -0.920600
vn -0.294100 0.222500 -0.929500
vn -0.537700 0.418000 -0.732200
vn -0.715400 0.566000 -0.409700
vn -0.782200 0.623000 0.000000
vn -0.715400 0.566000 0.409700
vn -0.537700 0.418000 0.732200
vn -0.294100 0.222500 0.929500
vn -0.165100 0.301400 0.939100
vn -0.306000 0.574100 0.759400
vn -0.416100 0.797100 0.437600
vn -0.459500 0.888100 0.000000
vn -0.416100 0.797100 -0.437600
vn -0.306000 0.574100 -0.759400
vn -0.165100 0.301400 -0.939100
vn 0.000000 0.331800 -0.943300
vn 0.000000 0.636100 -0.771600
vn 0.000000 0.892900 -0.450300
vn 0.000000 0.892900 0.450300
vn 0.000000 0.636100 0.771600
vn 0.000000 0.331800 0.943300
vn 0.165100 0.301400 0.939100
vn 0.305900 0.574100 0.759400
vn 0.416100 0.797100 0.437600
vn 0.459500 0.888200 0.000000
vn 0.416100 0.797100 -0.437600
vn 0.305900 0.574100 -0.759400
vn 0.165100 0.301400 -0.939100
vn 0.294100 0.222500 -0.929500
vn 0.537700 0.418000 -0.732200
vn 0.715400 0.566000 -0.409700
vn 0.782200 0.623000 0.000000
vn 0.715400 0.566000 0.409700
vn 0.537700 0.418000 0.732200
vn 0.294100 0.222500 0.929500
vn 0.372500 0.116800 0.920600
vn 0.672700 0.216700 0.707400
vn 0.877000 0.286800 0.385300
vn 0.950000 0.312300 0.000000
vn 0.877000 0.286800 -0.385300
vn 0.672700 0.216700 -0.707400
vn 0.372500 0.116800 -0.920600
s off
f 115/1/1 116/2/1 117/3/1 118/4/1
f 119/5/2 120/6/2 121/7/2 122/8/2
f 115/9/3 119/10/3 122/11/3 116/12/3
f 116/2/4 122/8/4 121/7/4 117/3/4
f 119/13/5 115/1/5 118/4/5 120/14/5
s 1
f 5/15/6 3/16/7 2/17/8 4/18/9
f 7/19/10 5/15/6 4/18/9 6/20/11
f 7/19/10 6/20/11 8/21/12 9/22/13
f 11/23/14 9/22/13 8/21/12 10/24/15
f 13/25/16 11/23/14 10/24/15 12/26/17
f 13/25/16 12/26/17 14/27/18 15/28/19
f 15/28/19 14/27/18 16/29/2
f 14/27/18 17/30/20 16/29/2
f 12/26/17 18/31/21 17/30/20 14/27/18
f 10/24/15 19/32/22 18/31/21 12/26/17
f 8/21/12 20/33/23 19/32/22 10/24/15
f 6/20/11 21/34/24 20/33/23 8/21/12
f 4/18/9 22/35/25 21/34/24 6/20/11
f 2/17/8 23/36/26 22/35/25 4/18/9
f 1/37/1 23/36/26 2/17/8
f 23/36/26 1/37/1 24/38/27
f 22/35/25 23/36/26 24/38/27 25/39/28
f 21/34/24 22/35/25 25/39/28 26/40/29
f 21/34/24 26/40/29 27/41/30 20/33/23
f 19/32/22 20/33/23 27/41/30 28/42/31
f 18/31/21 19/32/22 28/42/31 29/43/32
f 17/30/20 18/31/21 29/43/32 30/44/33
f 16/29/2 17/30/20 30/44/33
f 30/44/33 31/45/34 16/29/2
f 29/43/32 32/46/35 31/45/34 30/44/33
f 28/42/31 33/47/36 32/46/35 29/43/32
f 27/41/30 34/48/4 33/47/36 28/42/31
f 26/40/29 35/49/37 34/48/4 27/41/30
f 25/39/28 36/50/38 35/49/37 26/40/29
f 24/38/27 37/51/39 36/50/38 25/39/28
f 1/37/1 37/51/39 24/38/27
f 37/51/39 1/37/1 38/52/40
f 37/53/39 38/54/40 39/55/41 36/56/38
f 36/56/38 39/55/41 40/57/42 35/58/37
f 34/48/4 35/49/37 40/59/42 41/60/43
f 33/61/36 34/62/4 41/63/43 42/64/44
f 33/47/36 42/65/44 43/66/45 32/46/35
f 32/46/35 43/66/45 44/67/46 31/45/34
f 31/45/34 44/67/46 16/29/2
f 44/68/46 45/69/47 16/29/2
f 43/70/45 46/71/48 45/69/47 44/68/46
f 42/64/44 47/72/49 46/71/48 43/70/45
f 41/63/43 48/73/50 47/72/49 42/64/44
f 40/57/42 49/74/51 48/73/50 41/63/43
f 39/55/41 50/75/52 49/74/51 40/57/42
f 38/54/40 51/76/53 50/75/52 39/55/41
f 1/77/1 51/76/53 38/54/40
f 51/76/53 1/77/1 52/78/54
f 50/75/52 51/76/53 52/78/54 53/79/55
f 50/75/52 53/79/55 54/80/56 49/74/51
f 48/73/50 49/74/51 54/80/56 55/81/57
f 48/73/50 55/81/57 56/82/58 47/72/49
f 47/72/49 56/82/58 57/83/59 46/71/48
f 46/71/48 57/83/59 58/84/60 45/69/47
f 45/69/47 58/84/60 16/29/2
f 58/84/60 59/85/61 16/29/2
f 57/83/59 60/86/62 59/85/61 58/84/60
f 56/82/58 61/87/63 60/86/62 57/83/59
f 55/81/57 62/88/3 61/87/63 56/82/58
f 54/80/56 63/89/64 62/88/3 55/81/57
f 53/79/55 64/90/65 63/89/64 54/80/56
f 52/78/54 65/91/66 64/90/65 53/79/55
f 1/77/1 65/91/66 52/78/54
f 65/91/66 1/77/1 66/92/67
f 64/90/65 65/91/66 66/92/67 67/93/68
f 63/89/64 64/90/65 67/93/68 68/94/69
f 63/89/64 68/94/69 69/95/70 62/88/3
f 61/87/63 62/88/3 69/95/70 70/96/71
f 61/87/63 70/96/71 71/97/72 60/86/62
f 59/85/61 60/86/62 71/97/72 72/98/73
f 16/29/2 59/85/61 72/98/73
f 72/98/73 73/99/74 16/29/2
f 71/97/72 74/100/75 73/99/74 72/98/73
f 70/96/71 75/101/76 74/100/75 71/97/72
f 69/95/70 76/102/77 75/101/76 70/96/71
f 68/94/69 77/103/78 76/102/77 69/95/70
f 67/93/68 78/104/79 77/103/78 68/94/69
f 66/92/67 79/105/80 78/104/79 67/93/68
f 1/77/1 79/105/80 66/92/67
f 79/105/80 1/77/1 80/106/81
f 78/104/79 79/105/80 80/106/81 81/107/82
f 77/103/78 78/104/79 81/107/82 82/108/83
f 76/102/77 77/103/78 82/108/83 83/109/84
f 76/102/77 83/109/84 84/110/85 75/101/76
f 75/101/76 84/110/85 85/111/86 74/100/75
f 74/100/75 85/111/86 86/112/87 73/99/74
f 73/99/74 86/112/87 16/29/2
f 86/112/87 87/113/88 16/29/2
f 85/111/86 88/114/89 87/113/88 86/112/87
f 84/110/85 89/115/90 88/114/89 85/111/86
f 83/109/84 90/116/5 89/115/90 84/110/85
f 82/108/83 91/117/91 90/116/5 83/109/84
f 81/107/82 92/118/92 91/117/91 82/108/83
f 80/106/81 93/119/93 92/118/92 81/107/82
f 1/77/1 93/119/93 80/106/81
f 93/119/93 1/77/1 94/120/94
f 93/119/93 94/120/94 95/121/95 92/118/92
f 92/118/92 95/121/95 96/122/96 91/117/91
f 91/117/91 96/122/96 97/123/97 90/116/5
f 89/115/90 90/116/5 97/123/97 98/124/98
f 89/115/90 98/124/98 99/125/99 88/114/89
f 88/114/89 99/125/99 100/126/100 87/113/88
f 16/29/2 87/113/88 100/126/100
f 100/126/100 101/127/101 16/29/2
f 99/125/99 102/128/102 101/127/101 100/126/100
f 98/124/98 103/129/103 102/128/102 99/125/99
f 97/123/97 104/130/104 103/129/103 98/124/98
f 96/122/96 105/131/105 104/130/104 97/123/97
f 95/121/95 106/132/106 105/131/105 96/122/96
f 94/120/94 107/133/107 106/132/106 95/121/95
f 1/77/1 107/133/107 94/120/94
f 1/77/1 108/134/108 107/133/107
f 107/133/107 108/134/108 109/135/109 106/132/106
f 105/131/105 106/132/106 109/135/109 110/136/110
f 105/131/105 110/136/110 111/137/111 104/130/104
f 103/129/103 104/130/104 111/137/111 112/138/112
f 103/129/103 112/138/112 113/139/113 102/128/102
f 101/127/101 102/128/102 113/139/113 114/140/114
f 16/29/2 101/127/101 114/140/114
f 114/140/114 15/28/19 16/29/2
f 113/139/113 13/25/16 15/28/19 114/140/114
f 112/138/112 11/23/14 13/25/16 113/139/113
f 111/137/111 9/22/13 11/23/14 112/138/112
f 110/136/110 7/19/10 9/22/13 111/137/111
f 109/135/109 5/15/6 7/19/10 110/136/110
f 108/134/108 3/16/7 5/15/6 109/135/109
f 1/77/1 3/16/7 108/134/108
f 3/16/7 1/77/1 2/17/8
