# Blender v2.75 (sub 0) OBJ File: 'Full Tori.blend'
# www.blender.org
o r_elbow
v 1.128460 0.267158 -0.822133
v 1.431039 0.392497 -0.756986
v 1.455972 0.267164 -0.756986
v 1.687554 0.498755 -0.571467
v 1.733623 0.267169 -0.571467
v 1.858951 0.569754 -0.293816
v 1.919144 0.267173 -0.293816
v 1.919138 0.594684 0.033696
v 1.984290 0.267174 0.033696
v 1.858951 0.569754 0.361208
v 1.919145 0.267173 0.361208
v 1.687554 0.498755 0.638859
v 1.733624 0.267169 0.638859
v 1.431039 0.392497 0.824380
v 1.455973 0.267164 0.824380
v 1.128461 0.267158 0.889525
v 1.360044 0.498748 0.824380
v 1.556367 0.695081 0.638859
v 1.687548 0.826266 0.361208
v 1.733612 0.872333 0.033696
v 1.687548 0.826266 -0.293816
v 1.556367 0.695081 -0.571467
v 1.360042 0.498748 -0.756986
v 1.253789 0.569742 -0.756986
v 1.360037 0.826259 -0.571467
v 1.431028 0.997660 -0.293816
v 1.455958 1.057847 0.033696
v 1.431028 0.997660 0.361208
v 1.360037 0.826259 0.638859
v 1.253789 0.569742 0.824380
v 1.128454 0.594670 0.824380
v 1.128449 0.872321 0.638859
v 1.128445 1.057841 0.361208
v 1.128444 1.122988 0.033696
v 1.128445 1.057841 -0.293816
v 1.128448 0.872321 -0.571467
v 1.128454 0.594669 -0.756986
v 1.003121 0.569737 -0.756986
v 0.896865 0.826250 -0.571467
v 0.825866 0.997649 -0.293816
v 0.800934 1.057835 0.033696
v 0.825866 0.997649 0.361208
v 0.896865 0.826250 0.638859
v 1.003121 0.569737 0.824380
v 0.896871 0.498740 0.824380
v 0.700539 0.695065 0.638859
v 0.569353 0.826246 0.361209
v 0.523287 0.872310 0.033696
v 0.569352 0.826246 -0.293816
v 0.700539 0.695065 -0.571467
v 0.896871 0.498740 -0.756986
v 0.825877 0.392485 -0.756986
v 0.569358 0.498733 -0.571467
v 0.397959 0.569726 -0.293816
v 0.337771 0.594655 0.033696
v 0.397960 0.569726 0.361209
v 0.569359 0.498733 0.638859
v 0.825878 0.392485 0.824380
v 0.800949 0.267152 0.824380
v 0.523299 0.267146 0.638859
v 0.337777 0.267143 0.361209
v 0.272632 0.267142 0.033696
v 0.337777 0.267143 -0.293816
v 0.523298 0.267146 -0.571467
v 0.800949 0.267152 -0.756986
v 0.825882 0.141819 -0.756986
v 0.569367 0.035561 -0.571467
v 0.397971 -0.035438 -0.293816
v 0.337783 -0.060369 0.033696
v 0.397971 -0.035438 0.361209
v 0.569368 0.035561 0.638859
v 0.825882 0.141819 0.824380
v 0.896879 0.035568 0.824380
v 0.700555 -0.160765 0.638859
v 0.569374 -0.291951 0.361209
v 0.523310 -0.338017 0.033696
v 0.569374 -0.291951 -0.293816
v 0.700554 -0.160765 -0.571467
v 0.896880 0.035568 -0.756986
v 1.003132 -0.035426 -0.756986
v 0.896884 -0.291945 -0.571467
v 0.825894 -0.463344 -0.293816
v 0.800964 -0.523533 0.033696
v 0.825894 -0.463344 0.361208
v 0.896885 -0.291945 0.638859
v 1.003133 -0.035426 0.824380
v 1.128467 -0.060354 0.824380
v 1.128472 -0.338005 0.638859
v 1.128475 -0.523526 0.361208
v 1.128476 -0.588672 0.033696
v 1.128475 -0.523526 -0.293816
v 1.128471 -0.338005 -0.571467
v 1.128466 -0.060354 -0.756986
v 1.253800 -0.035421 -0.756986
v 1.360057 -0.291936 -0.571467
v 1.431055 -0.463333 -0.293816
v 1.455987 -0.523520 0.033696
v 1.431056 -0.463333 0.361208
v 1.360057 -0.291936 0.638859
v 1.253801 -0.035421 0.824380
v 1.360051 0.035576 0.824380
v 1.556383 -0.160749 0.638859
v 1.687569 -0.291930 0.361208
v 1.733635 -0.337994 0.033696
v 1.687569 -0.291930 -0.293816
v 1.556383 -0.160749 -0.571467
v 1.360050 0.035576 -0.756986
v 1.431044 0.141831 -0.756986
v 1.687563 0.035583 -0.571467
v 1.858962 -0.035410 -0.293816
v 1.919151 -0.060339 0.033696
v 1.858962 -0.035410 0.361208
v 1.687563 0.035583 0.638859
v 1.431044 0.141831 0.824380
v 1.128455 0.534605 -0.233750
v 1.128465 -0.000289 -0.233750
v -1.011110 -0.000329 -0.233750
v -1.011120 0.534564 -0.233750
v 1.128455 0.534605 0.301143
v -1.011119 0.534564 0.301143
v -1.011110 -0.000329 0.301143
v 1.128465 -0.000289 0.301143
vt 0.750000 0.250000
vt 0.812500 0.250000
vt 0.812500 0.125000
vt 0.750000 0.125000
vt 0.750000 0.375000
vt 0.812500 0.375000
vt 0.750000 0.500000
vt 0.812500 0.500000
vt 0.750000 0.625000
vt 0.812500 0.625000
vt 0.750000 0.750000
vt 0.812500 0.750000
vt 0.750000 0.875000
vt 0.812500 0.875000
vt 0.643078 1.000000
vt 0.875000 0.875000
vt 0.875000 0.750000
vt 0.875000 0.625000
vt 0.875000 0.500000
vt 0.875000 0.375000
vt 0.875000 0.250000
vt 0.875000 0.125000
vt 1.368556 0.000000
vt 0.937500 0.125000
vt 0.937500 0.250000
vt 0.937500 0.375000
vt 0.937500 0.500000
vt 0.937500 0.625000
vt 0.937500 0.750000
vt 0.937500 0.875000
vt 1.000000 0.875000
vt 1.000000 0.750000
vt 1.000000 0.625000
vt 1.000000 0.500000
vt 1.000000 0.375000
vt 1.000000 0.250000
vt 1.000000 0.125000
vt 1.062500 0.125000
vt 1.062500 0.250000
vt 0.000000 0.250000
vt 0.000000 0.375000
vt 0.062500 0.375000
vt 0.062500 0.250000
vt 1.062500 0.500000
vt 1.062500 0.375000
vt 1.062500 0.625000
vt 0.062500 0.500000
vt 0.000000 0.500000
vt 1.062500 0.750000
vt 1.062500 0.875000
vt 0.062500 0.875000
vt 0.125000 0.875000
vt 0.062500 0.750000
vt 0.125000 0.750000
vt 0.062500 0.625000
vt 0.125000 0.625000
vt 0.125000 0.500000
vt 0.125000 0.375000
vt 0.125000 0.250000
vt 0.062500 0.125000
vt 0.125000 0.125000
vt 0.368556 0.000000
vt 0.187500 0.125000
vt 0.187500 0.250000
vt 0.187500 0.375000
vt 0.187500 0.500000
vt 0.187500 0.625000
vt 0.187500 0.750000
vt 0.187500 0.875000
vt 0.250000 0.875000
vt 0.250000 0.750000
vt 0.250000 0.625000
vt 0.250000 0.500000
vt 0.250000 0.375000
vt 0.250000 0.250000
vt 0.250000 0.125000
vt 0.312500 0.125000
vt 0.312500 0.250000
vt 0.312500 0.375000
vt 0.312500 0.500000
vt 0.312500 0.625000
vt 0.312500 0.750000
vt 0.312500 0.875000
vt 0.375000 0.875000
vt 0.375000 0.750000
vt 0.375000 0.625000
vt 0.375000 0.500000
vt 0.375000 0.375000
vt 0.375000 0.250000
vt 0.375000 0.125000
vt 0.437500 0.125000
vt 0.437500 0.250000
vt 0.437500 0.375000
vt 0.437500 0.500000
vt 0.437500 0.625000
vt 0.437500 0.750000
vt 0.437500 0.875000
vt 0.500000 0.875000
vt 0.500000 0.750000
vt 0.500000 0.625000
vt 0.500000 0.500000
vt 0.500000 0.375000
vt 0.500000 0.250000
vt 0.500000 0.125000
vt 0.562500 0.125000
vt 0.562500 0.250000
vt 0.562500 0.375000
vt 0.562500 0.500000
vt 0.562500 0.625000
vt 0.562500 0.750000
vt 0.562500 0.875000
vt 0.625000 0.875000
vt 0.625000 0.750000
vt 0.625000 0.625000
vt 0.625000 0.500000
vt 0.625000 0.375000
vt 0.625000 0.250000
vt 0.625000 0.125000
vt 0.687500 0.125000
vt 0.687500 0.250000
vt 0.687500 0.375000
vt 0.687500 0.500000
vt 0.687500 0.625000
vt 0.687500 0.750000
vt 0.687500 0.875000
vt 0.796875 0.750000
vt 0.000000 0.750000
vt 0.796875 0.500000
vt 0.796875 0.250000
vt 0.796875 0.000000
vt 0.000000 0.000000
vt 0.000000 1.000000
vt 0.796875 1.000000
vt 0.796197 0.202842
vt 1.000027 0.202842
vt 1.000027 0.407784
vt 0.796197 0.407784
vn -0.718800 0.000000 0.695200
vn -0.664100 -0.275100 0.695200
vn -0.372400 -0.154200 0.915200
vn -0.403100 0.000000 0.915200
vn -0.927300 0.000000 0.374300
vn -0.856700 -0.354900 0.374300
vn -1.000000 0.000000 0.000000
vn -0.923900 -0.382700 0.000000
vn -0.927300 0.000000 -0.374300
vn -0.856700 -0.354900 -0.374300
vn -0.718800 0.000000 -0.695200
vn -0.664100 -0.275100 -0.695200
vn -0.403100 0.000000 -0.915200
vn -0.372400 -0.154200 -0.915200
vn 0.000000 0.000000 -1.000000
vn -0.285000 -0.285000 -0.915200
vn -0.508300 -0.508300 -0.695200
vn -0.655700 -0.655700 -0.374300
vn -0.707100 -0.707100 0.000000
vn -0.655700 -0.655700 0.374300
vn -0.508300 -0.508300 0.695200
vn -0.285000 -0.285000 0.915200
vn 0.000000 0.000000 1.000000
vn -0.154200 -0.372400 0.915200
vn -0.275100 -0.664100 0.695200
vn -0.354800 -0.856700 0.374300
vn -0.382600 -0.923900 0.000000
vn -0.354800 -0.856700 -0.374300
vn -0.275100 -0.664100 -0.695200
vn -0.154200 -0.372400 -0.915200
vn 0.000000 -0.403100 -0.915200
vn 0.000000 -0.718800 -0.695200
vn 0.000000 -0.927300 -0.374300
vn 0.000000 -1.000000 0.000000
vn 0.000000 -0.927300 0.374300
vn 0.000000 -0.718800 0.695200
vn 0.000000 -0.403100 0.915200
vn 0.154200 -0.372400 0.915200
vn 0.275100 -0.664100 0.695200
vn 0.354900 -0.856700 0.374300
vn 0.382700 -0.923900 0.000000
vn 0.354900 -0.856700 -0.374300
vn 0.275100 -0.664100 -0.695200
vn 0.154200 -0.372400 -0.915200
vn 0.285000 -0.285000 -0.915200
vn 0.508300 -0.508300 -0.695200
vn 0.655700 -0.655700 -0.374300
vn 0.707100 -0.707100 0.000000
vn 0.655700 -0.655700 0.374300
vn 0.508300 -0.508300 0.695200
vn 0.285000 -0.285000 0.915200
vn 0.372400 -0.154200 0.915200
vn 0.664100 -0.275100 0.695200
vn 0.856700 -0.354800 0.374300
vn 0.923900 -0.382600 0.000000
vn 0.856700 -0.354800 -0.374300
vn 0.664100 -0.275100 -0.695200
vn 0.372400 -0.154200 -0.915200
vn 0.403100 0.000000 -0.915200
vn 0.718800 0.000000 -0.695200
vn 0.927300 0.000000 -0.374300
vn 1.000000 0.000000 0.000000
vn 0.927300 0.000000 0.374300
vn 0.718800 0.000000 0.695200
vn 0.403100 0.000000 0.915200
vn 0.372400 0.154200 0.915200
vn 0.664100 0.275100 0.695200
vn 0.856700 0.354900 0.374300
vn 0.923900 0.382700 0.000000
vn 0.856700 0.354900 -0.374300
vn 0.664100 0.275100 -0.695200
vn 0.372400 0.154200 -0.915200
vn 0.285000 0.285000 -0.915200
vn 0.508300 0.508300 -0.695200
vn 0.655700 0.655700 -0.374300
vn 0.707100 0.707100 0.000000
vn 0.655700 0.655700 0.374300
vn 0.508300 0.508300 0.695200
vn 0.285000 0.285000 0.915200
vn 0.154200 0.372400 0.915200
vn 0.275100 0.664100 0.695200
vn 0.354800 0.856700 0.374300
vn 0.382600 0.923900 0.000000
vn 0.354800 0.856700 -0.374300
vn 0.275100 0.664100 -0.695200
vn 0.154200 0.372400 -0.915200
vn 0.000000 0.403100 -0.915200
vn 0.000000 0.718800 -0.695200
vn 0.000000 0.927300 -0.374300
vn 0.000000 1.000000 0.000000
vn 0.000000 0.927300 0.374300
vn 0.000000 0.718800 0.695200
vn 0.000000 0.403100 0.915200
vn -0.154200 0.372400 0.915200
vn -0.275100 0.664100 0.695200
vn -0.354900 0.856700 0.374300
vn -0.382700 0.923900 0.000000
vn -0.354900 0.856700 -0.374300
vn -0.275100 0.664100 -0.695200
vn -0.154200 0.372400 -0.915200
vn -0.285000 0.285000 -0.915200
vn -0.508300 0.508300 -0.695200
vn -0.655700 0.655700 -0.374300
vn -0.707100 0.707100 0.000000
vn -0.655700 0.655700 0.374300
vn -0.508300 0.508300 0.695200
vn -0.285000 0.285000 0.915200
vn -0.372400 0.154200 0.915200
vn -0.664100 0.275100 0.695200
vn -0.856700 0.354800 0.374300
vn -0.923900 0.382600 0.000000
vn -0.856700 0.354800 -0.374300
vn -0.664100 0.275100 -0.695200
vn -0.372400 0.154200 -0.915200
s 1
f 5/1/1 4/2/2 2/3/3 3/4/4
f 7/5/5 6/6/6 4/2/2 5/1/1
f 7/5/5 9/7/7 8/8/8 6/6/6
f 11/9/9 10/10/10 8/8/8 9/7/7
f 13/11/11 12/12/12 10/10/10 11/9/9
f 13/11/11 15/13/13 14/14/14 12/12/12
f 15/13/13 16/15/15 14/14/14
f 14/14/14 16/15/15 17/16/16
f 12/12/12 14/14/14 17/16/16 18/17/17
f 10/10/10 12/12/12 18/17/17 19/18/18
f 8/8/8 10/10/10 19/18/18 20/19/19
f 6/6/6 8/8/8 20/19/19 21/20/20
f 4/2/2 6/6/6 21/20/20 22/21/21
f 2/3/3 4/2/2 22/21/21 23/22/22
f 1/23/23 2/3/3 23/22/22
f 23/22/22 24/24/24 1/23/23
f 22/21/21 25/25/25 24/24/24 23/22/22
f 21/20/20 26/26/26 25/25/25 22/21/21
f 21/20/20 20/19/19 27/27/27 26/26/26
f 19/18/18 28/28/28 27/27/27 20/19/19
f 18/17/17 29/29/29 28/28/28 19/18/18
f 17/16/16 30/30/30 29/29/29 18/17/17
f 16/15/15 30/30/30 17/16/16
f 30/30/30 16/15/15 31/31/31
f 29/29/29 30/30/30 31/31/31 32/32/32
f 28/28/28 29/29/29 32/32/32 33/33/33
f 27/27/27 28/28/28 33/33/33 34/34/34
f 26/26/26 27/27/27 34/34/34 35/35/35
f 25/25/25 26/26/26 35/35/35 36/36/36
f 24/24/24 25/25/25 36/36/36 37/37/37
f 1/23/23 24/24/24 37/37/37
f 37/37/37 38/38/38 1/23/23
f 37/37/37 36/36/36 39/39/39 38/38/38
f 36/40/36 35/41/35 40/42/40 39/43/39
f 34/34/34 41/44/41 40/45/40 35/35/35
f 33/33/33 42/46/42 41/47/41 34/48/34
f 33/33/33 32/32/32 43/49/43 42/46/42
f 32/32/32 31/31/31 44/50/44 43/49/43
f 31/31/31 16/15/15 44/50/44
f 44/51/44 16/15/15 45/52/45
f 43/53/43 44/51/44 45/52/45 46/54/46
f 42/55/42 43/53/43 46/54/46 47/56/47
f 41/47/41 42/55/42 47/56/47 48/57/48
f 40/42/40 41/47/41 48/57/48 49/58/49
f 39/43/39 40/42/40 49/58/49 50/59/50
f 38/60/38 39/43/39 50/59/50 51/61/51
f 1/62/23 38/60/38 51/61/51
f 51/61/51 52/63/52 1/62/23
f 50/59/50 53/64/53 52/63/52 51/61/51
f 50/59/50 49/58/49 54/65/54 53/64/53
f 48/57/48 55/66/55 54/65/54 49/58/49
f 48/57/48 47/56/47 56/67/56 55/66/55
f 47/56/47 46/54/46 57/68/57 56/67/56
f 46/54/46 45/52/45 58/69/58 57/68/57
f 45/52/45 16/15/15 58/69/58
f 58/69/58 16/15/15 59/70/59
f 57/68/57 58/69/58 59/70/59 60/71/60
f 56/67/56 57/68/57 60/71/60 61/72/61
f 55/66/55 56/67/56 61/72/61 62/73/62
f 54/65/54 55/66/55 62/73/62 63/74/63
f 53/64/53 54/65/54 63/74/63 64/75/64
f 52/63/52 53/64/53 64/75/64 65/76/65
f 1/62/23 52/63/52 65/76/65
f 65/76/65 66/77/66 1/62/23
f 64/75/64 67/78/67 66/77/66 65/76/65
f 63/74/63 68/79/68 67/78/67 64/75/64
f 63/74/63 62/73/62 69/80/69 68/79/68
f 61/72/61 70/81/70 69/80/69 62/73/62
f 61/72/61 60/71/60 71/82/71 70/81/70
f 59/70/59 72/83/72 71/82/71 60/71/60
f 16/15/15 72/83/72 59/70/59
f 72/83/72 16/15/15 73/84/73
f 71/82/71 72/83/72 73/84/73 74/85/74
f 70/81/70 71/82/71 74/85/74 75/86/75
f 69/80/69 70/81/70 75/86/75 76/87/76
f 68/79/68 69/80/69 76/87/76 77/88/77
f 67/78/67 68/79/68 77/88/77 78/89/78
f 66/77/66 67/78/67 78/89/78 79/90/79
f 1/62/23 66/77/66 79/90/79
f 79/90/79 80/91/80 1/62/23
f 78/89/78 81/92/81 80/91/80 79/90/79
f 77/88/77 82/93/82 81/92/81 78/89/78
f 76/87/76 83/94/83 82/93/82 77/88/77
f 76/87/76 75/86/75 84/95/84 83/94/83
f 75/86/75 74/85/74 85/96/85 84/95/84
f 74/85/74 73/84/73 86/97/86 85/96/85
f 73/84/73 16/15/15 86/97/86
f 86/97/86 16/15/15 87/98/87
f 85/96/85 86/97/86 87/98/87 88/99/88
f 84/95/84 85/96/85 88/99/88 89/100/89
f 83/94/83 84/95/84 89/100/89 90/101/90
f 82/93/82 83/94/83 90/101/90 91/102/91
f 81/92/81 82/93/82 91/102/91 92/103/92
f 80/91/80 81/92/81 92/103/92 93/104/93
f 1/62/23 80/91/80 93/104/93
f 93/104/93 94/105/94 1/62/23
f 93/104/93 92/103/92 95/106/95 94/105/94
f 92/103/92 91/102/91 96/107/96 95/106/95
f 91/102/91 90/101/90 97/108/97 96/107/96
f 89/100/89 98/109/98 97/108/97 90/101/90
f 89/100/89 88/99/88 99/110/99 98/109/98
f 88/99/88 87/98/87 100/111/100 99/110/99
f 16/15/15 100/111/100 87/98/87
f 100/111/100 16/15/15 101/112/101
f 99/110/99 100/111/100 101/112/101 102/113/102
f 98/109/98 99/110/99 102/113/102 103/114/103
f 97/108/97 98/109/98 103/114/103 104/115/104
f 96/107/96 97/108/97 104/115/104 105/116/105
f 95/106/95 96/107/96 105/116/105 106/117/106
f 94/105/94 95/106/95 106/117/106 107/118/107
f 1/62/23 94/105/94 107/118/107
f 1/62/23 107/118/107 108/119/108
f 107/118/107 106/117/106 109/120/109 108/119/108
f 105/116/105 110/121/110 109/120/109 106/117/106
f 105/116/105 104/115/104 111/122/111 110/121/110
f 103/114/103 112/123/112 111/122/111 104/115/104
f 103/114/103 102/113/102 113/124/113 112/123/112
f 101/112/101 114/125/114 113/124/113 102/113/102
f 16/15/15 114/125/114 101/112/101
f 114/125/114 16/15/15 15/13/13
f 113/124/113 114/125/114 15/13/13 13/11/11
f 112/123/112 113/124/113 13/11/11 11/9/9
f 111/122/111 112/123/112 11/9/9 9/7/7
f 110/121/110 111/122/111 9/7/7 7/5/5
f 109/120/109 110/121/110 7/5/5 5/1/1
f 108/119/108 109/120/109 5/1/1 3/4/4
f 1/62/23 108/119/108 3/4/4
f 3/4/4 2/3/3 1/62/23
s off
f 115/126/23 118/127/23 117/48/23 116/128/23
f 119/129/15 122/130/15 121/131/15 120/40/15
f 116/126/90 117/127/90 121/132/90 122/133/90
f 117/134/62 118/135/62 120/136/62 121/137/62
f 119/128/34 120/48/34 118/40/34 115/129/34
