# This file uses centimeters as units for non-parametric coordinates.

mtllib Cyborg left thigh.mtl
g default
v -0.062915 -0.063589 -0.307487
v -0.058325 0.070312 -0.245561
v 0.062915 -0.063589 -0.307487
v 0.058325 0.070312 -0.245561
v 0.084710 -0.069938 0.353058
v 0.078529 0.090183 0.261869
v -0.084710 -0.069938 0.353058
v -0.078529 0.090183 0.261869
v 0.080339 -0.103080 -0.023033
v -0.080339 -0.103080 -0.023033
v -0.074477 0.085181 -0.009013
v 0.074477 0.085181 -0.009013
v 0.075242 -0.090323 -0.168491
v -0.075242 -0.090323 -0.168491
v -0.069752 0.074746 -0.122771
v 0.069752 0.074746 -0.122771
v -0.084710 -0.093618 0.172464
v 0.084710 -0.093618 0.172464
v 0.078529 0.091921 0.140717
v -0.078529 0.091921 0.140717
v 0.000000 -0.113349 0.362799
v 0.000000 -0.135187 0.181936
v 0.000000 -0.131751 -0.015447
v 0.000000 -0.120433 -0.164261
v 0.000000 -0.080651 -0.324949
v 0.000000 0.108439 -0.248542
v 0.000000 0.109664 -0.127932
v 0.000000 0.121147 -0.016822
v 0.000000 0.124818 0.130117
v 0.000000 0.116027 0.249724
v 0.130923 -0.009538 0.320294
v 0.000000 -0.041198 0.324924
v -0.130923 -0.009538 0.320294
v -0.130923 -0.025522 0.160712
v -0.124169 -0.035017 -0.018150
v -0.116290 -0.030705 -0.152034
v -0.097239 -0.015190 -0.295702
v 0.000000 0.010086 -0.299398
v 0.097239 -0.015190 -0.295702
v 0.116290 -0.030705 -0.152034
v 0.124168 -0.035017 -0.018150
v 0.130923 -0.025522 0.160711
v 0.119695 0.051358 0.277879
v 0.000000 0.064945 0.275893
v -0.119695 0.051358 0.277879
v -0.119695 0.045336 0.145497
v -0.113519 0.035798 -0.011830
v -0.106317 0.029177 -0.130729
v -0.088899 0.030170 -0.258685
v 0.000000 0.082383 -0.266321
v 0.088899 0.030170 -0.258685
v 0.106317 0.029177 -0.130729
v 0.113519 0.035798 -0.011830
v 0.119695 0.045336 0.145497
vt 0.400416 0.173213
vt 0.401815 0.114386
vt 0.518144 0.200816
vt 0.475120 0.178726
vt 0.523298 0.338208
vt 0.476183 0.326606
vt 0.467569 0.797600
vt 0.525434 0.775007
vt 0.366438 0.831727
vt 0.370047 0.768897
vt 0.306333 0.317496
vt 0.257870 0.323328
vt 0.315587 0.130027
vt 0.326423 0.172511
vt 0.404138 0.009343
vt 0.717199 0.343311
vt 0.626937 0.358886
vt 0.615532 0.239769
vt 0.390745 0.331431
vt 0.363958 0.629003
vt 0.453571 0.628388
vt 0.271446 0.786339
vt 0.217734 0.759893
vt 0.220500 0.609315
vt 0.273378 0.619699
vt 0.643759 0.607967
vt 0.742010 0.592190
vt 0.354055 0.991365
vt 0.452453 0.970465
vt 0.531616 0.623428
vt 0.371138 0.459619
vt 0.451348 0.457789
vt 0.290762 0.447406
vt 0.238154 0.445787
vt 0.732056 0.451006
vt 0.638792 0.466831
vt 0.526438 0.461044
vt 0.329229 0.035816
vt 0.150355 0.327713
vt 0.121024 0.439502
vt 0.843461 0.596907
vt 0.112230 0.707228
vt 0.594579 0.739794
vt 0.358127 0.936686
vt 0.154579 0.721813
vt 0.154470 0.594220
vt 0.171834 0.443620
vt 0.197995 0.331358
vt 0.314619 0.075283
vt 0.403410 0.039000
vt 0.570929 0.230652
vt 0.580430 0.354403
vt 0.590210 0.465775
vt 0.596832 0.612442
vt 0.490479 0.080050
vt 0.477623 0.039821
vt 0.228802 0.210546
vt 0.778668 0.218997
vt 0.185591 0.211352
vt 0.245195 0.914602
vt 0.845904 0.714495
vt 0.259908 0.956395
vt 0.473449 0.931208
vt 0.639704 0.725125
vt 0.487476 0.135457
vt 0.282564 0.188431
vt 0.250050 0.842847
vt 0.479996 0.858338
vt 0.744830 0.708163
vt 0.698097 0.227736
vt 0.105985 0.588449
vt 0.829870 0.447194
vt 0.810008 0.334502
vn -0.000000 -0.769668 -0.638445
vn 0.000000 0.408553 -0.912735
vn 0.817202 -0.046448 -0.574476
vn 0.550455 -0.623908 -0.554742
vn 0.964616 -0.238956 -0.111427
vn 0.597321 -0.788826 -0.144779
vn 0.608068 -0.612820 0.504683
vn 0.796380 -0.026293 0.604225
vn 0.000000 0.489187 0.872179
vn -0.000001 -0.890289 0.455397
vn -0.597321 -0.788826 -0.144779
vn -0.964616 -0.238956 -0.111427
vn -0.817202 -0.046448 -0.574476
vn -0.550455 -0.623908 -0.554742
vn 0.000000 0.981827 -0.189779
vn 0.000000 0.996899 -0.078694
vn 0.618147 0.781781 -0.081933
vn 0.613773 0.761724 -0.207507
vn 0.000000 -0.988442 -0.151600
vn -0.000001 -0.997596 0.069301
vn 0.627378 -0.777144 0.049433
vn -0.608068 -0.612820 0.504683
vn -0.796380 -0.026293 0.604225
vn -0.961545 -0.274576 0.006234
vn -0.627378 -0.777144 0.049433
vn 0.554469 0.832027 -0.017161
vn 0.000000 0.999981 -0.006215
vn -0.000000 0.957502 0.288426
vn 0.447779 0.830268 0.331887
vn 0.961545 -0.274576 0.006234
vn -0.000000 -0.999632 -0.027139
vn 0.611294 -0.790791 -0.031142
vn -0.611293 -0.790791 -0.031142
vn -0.962716 -0.267585 -0.039713
vn 0.000000 0.997525 -0.070313
vn 0.589330 0.805175 -0.066198
vn 0.962716 -0.267585 -0.039713
vn -0.613773 0.761724 -0.207507
vn -0.618147 0.781781 -0.081933
vn -0.589330 0.805175 -0.066198
vn -0.554469 0.832027 -0.017161
vn -0.447779 0.830268 0.331887
vn 0.668935 0.533153 0.517951
vn 0.000000 0.465177 0.885218
vn -0.668935 0.533153 0.517951
vn -0.919812 0.390677 -0.036292
vn -0.922722 0.380399 -0.062290
vn -0.912329 0.399804 -0.088385
vn -0.773022 0.484859 -0.409083
vn 0.000000 0.543348 -0.839507
vn 0.773022 0.484859 -0.409083
vn 0.912329 0.399804 -0.088385
vn 0.922722 0.380400 -0.062290
vn 0.919812 0.390677 -0.036292
s 1
g pCube2
usemtl lambert13SG
f 25/1/1 38/2/2 39/65/3 3/4/4
f 3/4/4 39/3/3 40/5/5 13/6/6
f 5/7/7 31/68/8 32/9/9 21/10/10
f 14/11/11 36/12/12 37/66/13 1/14/14
f 26/70/15 27/16/16 16/17/17 4/18/18
f 24/19/19 25/1/1 3/4/4 13/6/6
f 21/10/10 22/20/20 18/21/21 5/7/7
f 7/22/22 33/23/23 34/24/24 17/25/25
f 19/26/26 29/27/27 30/69/28 6/64/29
f 18/21/21 42/30/30 31/8/8 5/7/7
f 23/31/31 24/19/19 13/6/6 9/32/32
f 10/33/33 35/34/34 36/12/12 14/11/11
f 16/17/17 27/16/16 28/35/35 12/36/36
f 13/6/6 40/5/5 41/37/37 9/32/32
f 22/20/20 23/31/31 9/32/32 18/21/21
f 9/32/32 41/37/37 42/30/30 18/21/21
f 12/36/36 28/35/35 29/27/27 19/26/26
f 17/25/25 34/24/24 35/34/34 10/33/33
f 7/22/22 17/25/25 22/20/20 21/10/10
f 17/25/25 10/33/33 23/31/31 22/20/20
f 10/33/33 14/11/11 24/19/19 23/31/31
f 14/11/11 1/14/14 25/1/1 24/19/19
f 1/14/14 37/13/13 38/2/2 25/1/1
f 2/58/38 15/73/39 27/16/16 26/70/15
f 28/35/35 27/16/16 15/73/39 11/72/40
f 29/27/27 28/35/35 11/72/40 20/41/41
f 30/69/28 29/27/27 20/41/41 8/61/42
f 21/10/10 32/9/9 33/67/23 7/22/22
f 31/68/8 43/63/43 44/44/44 32/9/9
f 33/67/23 32/9/9 44/44/44 45/60/45
f 34/24/24 33/23/23 45/45/45 46/46/46
f 35/34/34 34/24/24 46/46/46 47/47/47
f 36/12/12 35/34/34 47/47/47 48/48/48
f 37/66/13 36/12/12 48/48/48 49/57/49
f 38/2/2 37/13/13 49/49/49 50/50/50
f 39/65/3 38/2/2 50/50/50 51/55/51
f 40/5/5 39/3/3 51/51/51 52/52/52
f 41/37/37 40/5/5 52/52/52 53/53/53
f 42/30/30 41/37/37 53/53/53 54/54/54
f 31/8/8 42/30/30 54/54/54 43/43/43
f 43/63/43 6/29/29 30/28/28 44/44/44
f 45/60/45 44/44/44 30/28/28 8/62/42
f 46/46/46 45/45/45 8/42/42 20/71/41
f 47/47/47 46/46/46 20/71/41 11/40/40
f 48/48/48 47/47/47 11/40/40 15/39/39
f 49/57/49 48/48/48 15/39/39 2/59/38
f 50/50/50 49/49/49 2/38/38 26/15/15
f 51/55/51 50/50/50 26/15/15 4/56/18
f 52/52/52 51/51/51 4/18/18 16/17/17
f 53/53/53 52/52/52 16/17/17 12/36/36
f 54/54/54 53/53/53 12/36/36 19/26/26
f 43/43/43 54/54/54 19/26/26 6/64/29
