# Blender v2.69 (sub 0) OBJ File: 'shrak1.blend'
# www.blender.org
mtllib l_foot.mtl
o Cube.002
v 0.114318 0.286778 -0.081260
v 0.114318 -0.286778 -0.081260
v 0.114318 0.286778 0.001174
v 0.114318 -0.286778 0.001174
v -0.105196 0.169177 -0.065222
v -0.105196 0.270933 -0.065222
v -0.105196 0.169177 -0.147656
v -0.105196 0.270933 -0.147656
v 0.105212 0.019160 0.045201
v 0.009264 -0.243456 -0.024727
v 0.013102 -0.234397 -0.026665
v 0.009264 -0.225337 -0.028604
v 0.009264 -0.226750 0.020152
v 0.013102 -0.217691 0.018214
v 0.009264 -0.208632 0.016276
v 0.009264 -0.243456 -0.087710
v 0.013102 -0.234397 -0.087710
v 0.009264 -0.225337 -0.087710
v 0.015859 -0.249905 -0.087710
v 0.022428 -0.234397 -0.087710
v 0.015859 -0.218888 -0.087710
v 0.013102 -0.197559 0.050035
v 0.009264 -0.206524 0.052371
v 0.000064 -0.204110 0.061381
v 0.009264 -0.188594 0.047699
v 0.029877 -0.192377 0.057954
v 0.027601 -0.197741 0.060504
v 0.021646 -0.198185 0.062981
v 0.015500 -0.193450 0.063935
v 0.012764 -0.186308 0.062806
v 0.015041 -0.180944 0.060256
v 0.020996 -0.180500 0.057779
v 0.027141 -0.185236 0.056825
v 0.097711 0.018964 0.046014
v 0.072202 -0.144095 0.070299
v 0.072268 -0.144124 0.073740
v 0.067425 -0.142037 0.076531
v 0.060509 -0.139056 0.077037
v 0.055571 -0.136929 0.074962
v 0.055505 -0.136900 0.071521
v 0.060349 -0.138988 0.068730
v 0.067265 -0.141968 0.068224
v 0.093308 -0.041831 0.067141
v 0.085807 -0.042497 0.067648
v 0.080553 -0.042963 0.070439
v 0.080625 -0.042957 0.073880
v 0.085980 -0.042481 0.075955
v 0.093481 -0.041816 0.075449
v 0.098735 -0.041350 0.072658
v 0.098663 -0.041356 0.069217
v 0.092457 0.020366 0.048472
v 0.092529 0.022545 0.051136
v 0.097884 0.024224 0.052444
v 0.105385 0.024420 0.051631
v 0.110639 0.023018 0.049173
v 0.110567 0.020839 0.046510
v 0.105212 0.074437 0.015866
v 0.097711 0.074241 0.016679
v 0.092457 0.075643 0.019137
v 0.092529 0.077822 0.021801
v 0.097884 0.079501 0.023109
v 0.105385 0.079697 0.022296
v 0.110639 0.078295 0.019838
v 0.110567 0.076116 0.017175
v -0.114318 0.286778 -0.081260
v -0.114318 -0.286778 -0.081260
v -0.114318 0.286778 0.001174
v -0.114318 -0.286778 0.001174
v 0.105196 0.169177 -0.065222
v 0.105196 0.270933 -0.065222
v 0.105196 0.169177 -0.147656
v 0.105196 0.270933 -0.147656
v -0.000000 -0.221585 -0.029406
v -0.105212 0.019160 0.045201
v -0.000000 -0.247208 -0.023925
v -0.009264 -0.243456 -0.024727
v -0.013102 -0.234397 -0.026665
v -0.009264 -0.225337 -0.028604
v 0.000000 -0.204879 0.015473
v -0.000000 -0.230503 0.020955
v -0.009264 -0.226750 0.020152
v -0.013102 -0.217691 0.018214
v -0.009264 -0.208632 0.016276
v -0.000000 -0.221585 -0.087710
v -0.000000 -0.247208 -0.087710
v -0.009264 -0.243456 -0.087710
v -0.013102 -0.234397 -0.087710
v -0.009264 -0.225337 -0.087710
v -0.000000 -0.212464 -0.087710
v 0.000000 -0.186213 0.056586
v 0.000000 -0.184893 0.046688
v 0.000000 -0.210226 0.053382
v -0.000000 -0.256329 -0.087710
v -0.015859 -0.249905 -0.087710
v -0.022428 -0.234397 -0.087710
v -0.015859 -0.218888 -0.087710
v 0.000000 -0.234397 -0.111089
v -0.013102 -0.197559 0.050035
v -0.009264 -0.206524 0.052371
v -0.000064 -0.204110 0.061381
v 0.000000 -0.194168 0.062690
v -0.009264 -0.188594 0.047699
v -0.029877 -0.192377 0.057954
v -0.027601 -0.197741 0.060504
v -0.021646 -0.198185 0.062981
v -0.015500 -0.193450 0.063935
v -0.012764 -0.186308 0.062806
v -0.015041 -0.180944 0.060256
v -0.020996 -0.180500 0.057779
v -0.027141 -0.185236 0.056825
v -0.097711 0.018964 0.046014
v -0.072202 -0.144095 0.070299
v -0.072268 -0.144124 0.073740
v -0.067425 -0.142037 0.076531
v -0.060509 -0.139056 0.077037
v -0.055571 -0.136929 0.074962
v -0.055505 -0.136900 0.071521
v -0.060349 -0.138988 0.068730
v -0.067265 -0.141968 0.068224
v -0.093308 -0.041831 0.067141
v -0.085807 -0.042497 0.067648
v -0.080553 -0.042963 0.070439
v -0.080625 -0.042957 0.073880
v -0.085980 -0.042481 0.075955
v -0.093481 -0.041816 0.075449
v -0.098735 -0.041350 0.072658
v -0.098663 -0.041356 0.069217
v -0.092457 0.020366 0.048472
v -0.092529 0.022545 0.051136
v -0.097884 0.024224 0.052444
v -0.105385 0.024420 0.051631
v -0.110639 0.023018 0.049173
v -0.110567 0.020839 0.046510
v -0.105212 0.074437 0.015866
v -0.097711 0.074241 0.016679
v -0.092457 0.075643 0.019137
v -0.092529 0.077822 0.021801
v -0.097884 0.079501 0.023109
v -0.105385 0.079697 0.022296
v -0.110639 0.078295 0.019838
v -0.110567 0.076116 0.017175
v 0.105212 0.120537 -0.027455
v 0.097711 0.120341 -0.026642
v 0.092457 0.121743 -0.024184
v 0.092529 0.123922 -0.021521
v 0.097884 0.125601 -0.020212
v 0.105385 0.125797 -0.021025
v 0.110639 0.124395 -0.023483
v 0.110567 0.122216 -0.026147
v -0.105212 0.120537 -0.027455
v -0.097711 0.120341 -0.026642
v -0.092457 0.121743 -0.024184
v -0.092529 0.123922 -0.021521
v -0.097884 0.125601 -0.020212
v -0.105385 0.125797 -0.021025
v -0.110639 0.124395 -0.023483
v -0.110567 0.122216 -0.026147
v 0.105196 0.038231 -0.147656
v 0.105196 -0.063525 -0.147656
v 0.105196 0.038231 -0.065222
v 0.105196 -0.063525 -0.065222
v -0.105196 0.038231 -0.147656
v -0.105196 -0.063525 -0.147656
v -0.105196 0.038231 -0.065222
v -0.105196 -0.063525 -0.065222
vt 0.813490 0.110950
vt 0.808150 0.115065
vt 0.842345 0.151137
vt 0.848355 0.148547
vt 0.499007 0.121391
vt 0.499007 0.415161
vt 0.294379 0.415161
vt 0.294379 0.121391
vt 0.815867 0.104745
vt 0.852645 0.146699
vt 0.792777 0.415161
vt 0.792777 0.708931
vt 0.499007 0.708931
vt 0.813889 0.100084
vt 0.852703 0.146674
vt 0.797956 0.076105
vt 0.789906 0.079365
vt 0.789906 0.093881
vt 0.797956 0.090621
vt 0.801290 0.068233
vt 0.801290 0.082749
vt 0.797956 0.060361
vt 0.797956 0.074877
vt 0.789906 0.057100
vt 0.789906 0.071616
vt 0.808715 0.099698
vt 0.848494 0.148488
vt 0.803375 0.103813
vt 0.842484 0.151077
vt 0.800997 0.110018
vt 0.838194 0.152926
vt 0.802975 0.114679
vt 0.838137 0.152951
vt 0.803687 0.081708
vt 0.789906 0.087290
vt 0.809395 0.068233
vt 0.803687 0.054757
vt 0.789906 0.049175
vt 0.789906 0.111248
vt 0.797956 0.108032
vt 0.789906 0.110101
vt 0.789906 0.103188
vt 0.789961 0.094550
vt 0.801290 0.100242
vt 0.797956 0.092452
vt 0.789906 0.068233
vt 0.789906 0.089236
vt 0.864467 0.234982
vt 0.859902 0.234577
vt 0.870245 0.289605
vt 0.874810 0.288387
vt 0.859964 0.234582
vt 0.870308 0.291499
vt 0.864617 0.234995
vt 0.874961 0.292958
vt 0.871135 0.235573
vt 0.881479 0.293128
vt 0.875700 0.235978
vt 0.886044 0.291910
vt 0.875638 0.235973
vt 0.885982 0.290017
vt 0.870985 0.235560
vt 0.881329 0.288558
vt 0.870245 0.337638
vt 0.874810 0.336419
vt 0.870308 0.339531
vt 0.874961 0.340990
vt 0.881479 0.341161
vt 0.886044 0.339942
vt 0.885982 0.338049
vt 0.881329 0.336590
vt 0.766322 0.110950
vt 0.731457 0.148547
vt 0.737466 0.151137
vt 0.771662 0.115065
vt 0.294379 0.708931
vt 0.499007 1.002701
vt 0.294379 1.002701
vt 0.000609 0.708931
vt 0.000609 0.415161
vt 0.997406 0.415161
vt 0.997406 0.708931
vt 0.763944 0.104745
vt 0.727167 0.146699
vt 0.765922 0.100084
vt 0.727109 0.146674
vt 0.781856 0.076105
vt 0.781856 0.090621
vt 0.778522 0.068233
vt 0.778522 0.082749
vt 0.781856 0.060361
vt 0.781856 0.074877
vt 0.771097 0.099698
vt 0.731318 0.148488
vt 0.776437 0.103813
vt 0.737328 0.151077
vt 0.778814 0.110018
vt 0.741618 0.152926
vt 0.776836 0.114679
vt 0.741675 0.152951
vt 0.776125 0.081708
vt 0.770417 0.068233
vt 0.776125 0.054757
vt 0.781856 0.108032
vt 0.789850 0.094550
vt 0.781856 0.092452
vt 0.778522 0.100242
vt 0.715345 0.234982
vt 0.705001 0.288387
vt 0.709566 0.289605
vt 0.719910 0.234577
vt 0.709504 0.291499
vt 0.719848 0.234582
vt 0.704851 0.292958
vt 0.715195 0.234995
vt 0.698333 0.293128
vt 0.708677 0.235573
vt 0.693768 0.291910
vt 0.704112 0.235978
vt 0.693830 0.290017
vt 0.704174 0.235973
vt 0.698483 0.288558
vt 0.708827 0.235560
vt 0.705001 0.336419
vt 0.709566 0.337638
vt 0.709504 0.339531
vt 0.704851 0.340990
vt 0.698333 0.341161
vt 0.693768 0.339942
vt 0.693830 0.338049
vt 0.698483 0.336590
vt 0.870245 0.377696
vt 0.874810 0.376477
vt 0.874961 0.381048
vt 0.870308 0.379589
vt 0.705001 0.376477
vt 0.709566 0.377696
vt 0.886044 0.380000
vt 0.881479 0.381218
vt 0.709504 0.379589
vt 0.704851 0.381048
vt 0.881329 0.376648
vt 0.885982 0.378107
vt 0.698333 0.381218
vt 0.693768 0.380000
vt 0.693830 0.378107
vt 0.698483 0.376648
vn 0.027508 0.230620 -0.972655
vn 1.000000 0.000000 0.000000
vn 0.329924 -0.052678 -0.942536
vn 0.000000 0.000000 1.000000
vn 0.766511 -0.591674 -0.249763
vn 0.379219 0.867178 -0.322791
vn 0.922429 0.361908 -0.134713
vn 0.922429 -0.361908 0.134713
vn 0.379219 -0.867179 0.322791
vn 0.328143 -0.470303 0.819229
vn -0.020135 -0.218685 0.975588
vn 0.375419 0.926855 0.000000
vn 0.920799 0.390037 0.000000
vn 0.920799 -0.390037 0.000000
vn 0.375420 -0.926855 0.000000
vn -0.331487 0.051216 0.942069
vn -0.751786 0.603461 0.265806
vn 0.000001 0.000000 1.000000
vn 0.122210 0.821625 -0.556774
vn -0.387062 0.839982 0.380281
vn -0.243795 0.382747 0.891105
vn -0.044912 -0.170744 0.984291
vn 0.364740 0.784613 -0.501346
vn 0.916033 -0.339339 0.213850
vn 0.915854 0.338927 -0.215267
vn 0.412620 0.211269 -0.886064
vn 0.283302 0.699431 -0.656152
vn 0.690102 0.292317 -0.662050
vn 0.690101 -0.292318 -0.662050
vn 0.283303 -0.699430 -0.656153
vn 0.204498 -0.808065 0.552459
vn 0.521354 -0.790213 -0.322109
vn 0.470579 -0.216195 -0.855462
vn 0.365687 -0.788722 0.494157
vn -0.315792 0.503443 -0.804252
vn -0.451691 -0.216247 -0.865571
vn -0.984901 0.169035 -0.037388
vn -0.346441 0.364763 0.864249
vn 0.064339 0.324451 0.943712
vn 0.451253 0.230028 0.862240
vn 0.984487 -0.171253 0.038188
vn 0.347214 -0.378137 -0.858170
vn -0.064433 -0.323413 -0.944062
vn -0.068921 0.007071 -0.997597
vn 0.357843 -0.102511 -0.928138
vn 0.968152 -0.249547 -0.020177
vn 0.467051 -0.111492 0.877173
vn 0.068918 -0.007073 0.997597
vn -0.357344 0.105292 0.928019
vn -0.965991 0.257787 0.020157
vn -0.466640 0.113793 -0.877097
vn -0.474053 -0.412748 -0.777762
vn -0.999775 0.009952 0.018752
vn -0.341099 0.440654 0.830347
vn 0.083175 0.467144 0.880261
vn 0.474053 0.412748 0.777761
vn 0.999774 -0.009954 -0.018756
vn 0.341100 -0.440654 -0.830346
vn -0.083177 -0.467144 -0.880260
vn -0.027507 0.230620 -0.972655
vn 0.000000 -1.000000 0.000000
vn -1.000000 0.000000 0.000000
vn 0.000000 0.000000 -1.000000
vn 0.000000 1.000000 0.000000
vn -0.329924 -0.052678 -0.942536
vn -0.766511 -0.591674 -0.249764
vn -0.379219 0.867178 -0.322791
vn -0.922429 0.361908 -0.134713
vn -0.922429 -0.361908 0.134713
vn -0.379219 -0.867179 0.322791
vn -0.328143 -0.470303 0.819230
vn 0.020135 -0.218685 0.975588
vn -0.375419 0.926855 0.000000
vn -0.920799 0.390037 0.000000
vn -0.920799 -0.390037 0.000000
vn -0.375420 -0.926855 0.000000
vn 0.331487 0.051216 0.942069
vn 0.751786 0.603461 0.265806
vn -0.000001 0.000000 1.000000
vn -0.122210 0.821626 -0.556773
vn 0.387062 0.839982 0.380281
vn 0.243795 0.382747 0.891105
vn 0.044912 -0.170744 0.984291
vn -0.364740 0.784613 -0.501346
vn -0.916033 -0.339339 0.213850
vn -0.915854 0.338927 -0.215267
vn -0.412621 0.211269 -0.886064
vn -0.283302 0.699431 -0.656152
vn -0.690102 0.292317 -0.662050
vn -0.690101 -0.292318 -0.662050
vn -0.283303 -0.699430 -0.656153
vn -0.204498 -0.808065 0.552459
vn -0.521354 -0.790213 -0.322107
vn -0.470580 -0.216195 -0.855462
vn -0.365687 -0.788722 0.494157
vn 0.315792 0.503443 -0.804252
vn 0.451691 -0.216247 -0.865571
vn 0.984901 0.169035 -0.037388
vn 0.346441 0.364763 0.864249
vn -0.064339 0.324451 0.943712
vn -0.451253 0.230028 0.862240
vn -0.984487 -0.171253 0.038188
vn -0.347214 -0.378137 -0.858170
vn 0.064433 -0.323413 -0.944062
vn 0.068921 0.007071 -0.997597
vn -0.357843 -0.102511 -0.928138
vn -0.968152 -0.249547 -0.020178
vn -0.467051 -0.111492 0.877173
vn -0.068918 -0.007073 0.997597
vn 0.357345 0.105292 0.928019
vn 0.965991 0.257788 0.020158
vn 0.466640 0.113793 -0.877097
vn 0.474052 -0.412748 -0.777762
vn 0.999775 0.009952 0.018752
vn 0.341099 0.440654 0.830347
vn -0.083175 0.467143 0.880261
vn -0.474054 0.412748 0.777761
vn -0.999775 -0.009953 -0.018756
vn -0.341100 -0.440654 -0.830346
vn 0.083177 -0.467144 -0.880260
vn -0.463936 -0.606647 -0.645556
vn -0.365633 0.637388 0.678269
vn 0.463936 -0.606647 -0.645556
vn 0.463938 0.606647 0.645555
vn 0.365633 0.637388 0.678269
vn 0.365634 -0.637387 -0.678269
vn -0.463938 0.606647 0.645555
vn -0.365634 -0.637387 -0.678269
vn -0.999782 0.014288 0.015205
vn 0.060949 0.683531 0.727372
vn 0.999782 0.014288 0.015205
vn 0.999782 -0.014293 -0.015208
vn -0.060949 0.683531 0.727372
vn -0.060952 -0.683531 -0.727372
vn -0.999782 -0.014293 -0.015208
vn 0.060952 -0.683531 -0.727372
usemtl Material.011
s off
f 33/1/1 32/2/1 41/3/1 42/4/1
usemtl Material.010
f 3/5/2 4/6/2 2/7/2 1/8/2
usemtl Material.011
f 26/9/3 33/1/3 42/4/3 35/10/3
usemtl Material.010
f 70/11/4 6/12/4 5/13/4 69/6/4
usemtl Material.011
f 27/14/5 26/9/5 35/10/5 36/15/5
f 12/16/6 73/17/6 79/18/6 15/19/6
f 11/20/7 12/16/7 15/19/7 14/21/7
f 10/22/8 11/20/8 14/21/8 13/23/8
f 75/24/9 10/22/9 13/23/9 80/25/9
f 28/26/10 27/14/10 36/15/10 37/27/10
f 29/28/11 28/26/11 37/27/11 38/29/11
f 73/17/12 12/16/12 18/16/12 84/17/12
f 12/16/13 11/20/13 17/20/13 18/16/13
f 11/20/14 10/22/14 16/22/14 17/20/14
f 10/22/15 75/24/15 85/24/15 16/22/15
f 30/30/16 29/28/16 38/29/16 39/31/16
f 31/32/17 30/30/17 39/31/17 40/33/17
f 84/17/18 18/16/18 21/34/18 89/35/18
f 18/16/4 17/20/4 20/36/4 21/34/4
f 17/20/18 16/22/18 19/37/18 20/36/18
f 16/22/4 85/24/4 93/38/4 19/37/4
f 91/39/19 31/32/19 32/2/19 25/40/19
f 90/41/20 30/30/20 31/32/20 91/39/20
f 101/42/21 29/28/21 30/30/21 90/41/21
f 24/43/22 28/26/22 29/28/22 101/42/22
f 15/19/23 79/18/23 91/39/23 25/40/23
f 13/23/24 14/21/24 22/44/24 23/45/24
f 14/21/25 15/19/25 25/40/25 22/44/25
f 25/40/26 32/2/26 33/1/26 22/44/26
f 89/35/27 21/34/27 97/46/27
f 21/34/28 20/36/28 97/46/28
f 20/36/29 19/37/29 97/46/29
f 19/37/30 93/38/30 97/46/30
f 92/47/31 27/14/31 28/26/31 24/43/31
f 23/45/32 26/9/32 27/14/32 92/47/32
f 22/44/33 33/1/33 26/9/33 23/45/33
f 80/25/34 13/23/34 23/45/34 92/47/34
f 32/2/35 31/32/35 40/33/35 41/3/35
f 44/48/36 45/49/36 51/50/36 34/51/36
f 45/49/37 46/52/37 52/53/37 51/50/37
f 46/52/38 47/54/38 53/55/38 52/53/38
f 47/54/39 48/56/39 54/57/39 53/55/39
f 48/56/40 49/58/40 55/59/40 54/57/40
f 49/58/41 50/60/41 56/61/41 55/59/41
f 50/60/42 43/62/42 9/63/42 56/61/42
f 43/62/43 44/48/43 34/51/43 9/63/43
f 42/4/44 41/3/44 44/48/44 43/62/44
f 35/10/45 42/4/45 43/62/45 50/60/45
f 36/15/46 35/10/46 50/60/46 49/58/46
f 37/27/47 36/15/47 49/58/47 48/56/47
f 38/29/48 37/27/48 48/56/48 47/54/48
f 39/31/49 38/29/49 47/54/49 46/52/49
f 40/33/50 39/31/50 46/52/50 45/49/50
f 41/3/51 40/33/51 45/49/51 44/48/51
f 34/51/52 51/50/52 59/64/52 58/65/52
f 51/50/53 52/53/53 60/66/53 59/64/53
f 52/53/54 53/55/54 61/67/54 60/66/54
f 53/55/55 54/57/55 62/68/55 61/67/55
f 54/57/56 55/59/56 63/69/56 62/68/56
f 55/59/57 56/61/57 64/70/57 63/69/57
f 56/61/58 9/63/58 57/71/58 64/70/58
f 9/63/59 34/51/59 58/65/59 57/71/59
f 110/72/60 119/73/60 118/74/60 109/75/60
usemtl Material.010
f 69/6/61 5/13/61 7/76/61 71/7/61
f 67/77/62 65/78/62 66/76/62 68/13/62
f 71/7/63 7/76/63 8/79/63 72/80/63
f 72/81/64 8/82/64 6/12/64 70/11/64
f 6/77/62 8/78/62 7/76/62 5/13/62
usemtl Material.011
f 103/83/65 112/84/65 119/73/65 110/72/65
usemtl Material.010
f 70/5/2 69/6/2 71/7/2 72/8/2
usemtl Material.011
f 104/85/66 113/86/66 112/84/66 103/83/66
usemtl Material.010
f 1/81/64 65/82/64 67/12/64 3/11/64
f 2/7/63 66/76/63 65/79/63 1/80/63
f 4/6/61 68/13/61 66/76/61 2/7/61
f 3/11/4 67/12/4 68/13/4 4/6/4
usemtl Material.011
f 78/87/67 83/88/67 79/18/67 73/17/67
f 77/89/68 82/90/68 83/88/68 78/87/68
f 76/91/69 81/92/69 82/90/69 77/89/69
f 75/24/70 80/25/70 81/92/70 76/91/70
f 105/93/71 114/94/71 113/86/71 104/85/71
f 106/95/72 115/96/72 114/94/72 105/93/72
f 73/17/73 84/17/73 88/87/73 78/87/73
f 78/87/74 88/87/74 87/89/74 77/89/74
f 77/89/75 87/89/75 86/91/75 76/91/75
f 76/91/76 86/91/76 85/24/76 75/24/76
f 107/97/77 116/98/77 115/96/77 106/95/77
f 108/99/78 117/100/78 116/98/78 107/97/78
f 84/17/79 89/35/79 96/101/79 88/87/79
f 88/87/4 96/101/4 95/102/4 87/89/4
f 87/89/79 95/102/79 94/103/79 86/91/79
f 86/91/79 94/103/79 93/38/79 85/24/79
f 91/39/80 102/104/80 109/75/80 108/99/80
f 90/41/81 91/39/81 108/99/81 107/97/81
f 101/42/82 90/41/82 107/97/82 106/95/82
f 100/105/83 101/42/83 106/95/83 105/93/83
f 83/88/84 102/104/84 91/39/84 79/18/84
f 81/92/85 99/106/85 98/107/85 82/90/85
f 82/90/86 98/107/86 102/104/86 83/88/86
f 102/104/87 98/107/87 110/72/87 109/75/87
f 89/35/88 97/46/88 96/101/88
f 96/101/89 97/46/89 95/102/89
f 95/102/90 97/46/90 94/103/90
f 94/103/91 97/46/91 93/38/91
f 92/47/92 100/105/92 105/93/92 104/85/92
f 99/106/93 92/47/93 104/85/93 103/83/93
f 98/107/94 99/106/94 103/83/94 110/72/94
f 80/25/95 92/47/95 99/106/95 81/92/95
f 109/75/96 118/74/96 117/100/96 108/99/96
f 121/108/97 111/109/97 128/110/97 122/111/97
f 122/111/98 128/110/98 129/112/98 123/113/98
f 123/113/99 129/112/99 130/114/99 124/115/99
f 124/115/100 130/114/100 131/116/100 125/117/100
f 125/117/101 131/116/101 132/118/101 126/119/101
f 126/119/102 132/118/102 133/120/102 127/121/102
f 127/121/103 133/120/103 74/122/103 120/123/103
f 120/123/104 74/122/104 111/109/104 121/108/104
f 119/73/105 120/123/105 121/108/105 118/74/105
f 112/84/106 127/121/106 120/123/106 119/73/106
f 113/86/107 126/119/107 127/121/107 112/84/107
f 114/94/108 125/117/108 126/119/108 113/86/108
f 115/96/109 124/115/109 125/117/109 114/94/109
f 116/98/110 123/113/110 124/115/110 115/96/110
f 117/100/111 122/111/111 123/113/111 116/98/111
f 118/74/112 121/108/112 122/111/112 117/100/112
f 111/109/113 135/124/113 136/125/113 128/110/113
f 128/110/114 136/125/114 137/126/114 129/112/114
f 129/112/115 137/126/115 138/127/115 130/114/115
f 130/114/116 138/127/116 139/128/116 131/116/116
f 131/116/117 139/128/117 140/129/117 132/118/117
f 132/118/118 140/129/118 141/130/118 133/120/118
f 133/120/119 141/130/119 134/131/119 74/122/119
f 74/122/120 134/131/120 135/124/120 111/109/120
f 58/65/121 59/64/121 144/132/121 143/133/121
f 60/66/122 61/67/122 146/134/122 145/135/122
f 136/125/123 135/124/123 151/136/123 152/137/123
f 62/68/124 63/69/124 148/138/124 147/139/124
f 138/127/125 137/126/125 153/140/125 154/141/125
f 64/70/126 57/71/126 142/142/126 149/143/126
f 140/129/127 139/128/127 155/144/127 156/145/127
f 134/131/128 141/130/128 157/146/128 150/147/128
f 59/64/129 60/66/129 145/135/129 144/132/129
f 61/67/130 62/68/130 147/139/130 146/134/130
f 137/126/131 136/125/131 152/137/131 153/140/131
f 63/69/132 64/70/132 149/143/132 148/138/132
f 139/128/133 138/127/133 154/141/133 155/144/133
f 57/71/134 58/65/134 143/133/134 142/142/134
f 141/130/135 140/129/135 156/145/135 157/146/135
f 135/124/136 134/131/136 150/147/136 151/136/136
usemtl Material.010
f 160/5/2 161/6/2 159/7/2 158/8/2
f 164/77/62 162/78/62 163/76/62 165/13/62
f 158/81/64 162/82/64 164/12/64 160/11/64
f 159/7/63 163/76/63 162/79/63 158/80/63
f 161/6/61 165/13/61 163/76/61 159/7/61
f 160/11/4 164/12/4 165/13/4 161/6/4
