# Blender v2.70 (sub 0) OBJ File: 'randoms1.blend'
# www.blender.org
mtllib l_triceps.mtl
o tyunri_v7:hand
v 0.201921 0.094637 -0.000000
v 0.201921 0.065959 -0.000000
v 0.201921 0.081958 0.047319
v 0.201921 0.057122 0.032980
v 0.201921 0.047319 0.081958
v 0.201921 0.032980 0.057122
v 0.201921 0.000000 0.094637
v 0.201921 0.000000 0.065959
v 0.201921 -0.047319 0.081958
v 0.201921 -0.032980 0.057123
v 0.201921 -0.081958 0.047319
v 0.201921 -0.057122 0.032980
v 0.201921 -0.094637 0.000000
v 0.201921 -0.065959 0.000000
v 0.201921 -0.081958 -0.047319
v 0.201921 -0.057123 -0.032980
v 0.201921 -0.047319 -0.081958
v 0.201921 -0.032980 -0.057123
v 0.201921 0.000000 -0.094637
v 0.201921 0.000000 -0.065959
v 0.201921 0.047319 -0.081958
v 0.201921 0.032980 -0.057122
v 0.201921 0.081958 -0.047319
v 0.201921 0.057122 -0.032980
v 0.199815 0.070379 0.040650
v 0.198845 -0.070385 0.040650
v 0.200313 -0.000002 -0.081250
v 0.197959 -0.000002 0.081210
v 0.198709 -0.070377 -0.040650
v 0.195747 0.070395 -0.040670
v 0.167302 0.108976 0.000000
v 0.132684 0.094637 -0.000000
v 0.132684 0.065959 -0.000000
v 0.167302 0.051620 -0.000000
v 0.167302 0.094376 0.054488
v 0.132684 0.081958 0.047319
v 0.132684 0.057122 0.032980
v 0.167302 0.044705 0.025810
v 0.167302 0.054488 0.094376
v 0.132684 0.047319 0.081958
v 0.132684 0.032980 0.057122
v 0.167302 0.025810 0.044705
v 0.167302 0.000000 0.108976
v 0.132684 0.000000 0.094637
v 0.132684 0.000000 0.065959
v 0.167302 0.000000 0.051620
v 0.167302 -0.054488 0.094376
v 0.132684 -0.047319 0.081958
v 0.132684 -0.032980 0.057123
v 0.167302 -0.025810 0.044705
v 0.167302 -0.094376 0.054488
v 0.132684 -0.081958 0.047319
v 0.132684 -0.057122 0.032980
v 0.167302 -0.044705 0.025810
v 0.167302 -0.108976 0.000000
v 0.132684 -0.094637 0.000000
v 0.132684 -0.065959 0.000000
v 0.167302 -0.051620 0.000000
v 0.167302 -0.094376 -0.054488
v 0.132684 -0.081958 -0.047319
v 0.132684 -0.057123 -0.032980
v 0.167302 -0.044705 -0.025810
v 0.167302 -0.054488 -0.094376
v 0.132684 -0.047319 -0.081958
v 0.132684 -0.032980 -0.057123
v 0.167302 -0.025810 -0.044705
v 0.167302 0.000000 -0.108976
v 0.132684 0.000000 -0.094637
v 0.132684 0.000000 -0.065959
v 0.167302 0.000000 -0.051620
v 0.167302 0.054488 -0.094376
v 0.132684 0.047319 -0.081958
v 0.132684 0.032980 -0.057122
v 0.167302 0.025810 -0.044705
v 0.167302 0.094376 -0.054488
v 0.132684 0.081958 -0.047319
v 0.132684 0.057122 -0.032980
v 0.167302 0.044705 -0.025810
v 0.167302 0.055212 0.067150
v 0.134789 0.070379 0.040650
v 0.167302 0.164840 0.095210
v 0.167302 0.085740 0.014270
v 0.135759 -0.070385 0.040650
v 0.167302 -0.164849 0.095230
v 0.167302 -0.085453 0.014770
v 0.167302 -0.055507 0.066650
v 0.134291 -0.000002 -0.081250
v 0.167302 0.031940 -0.081370
v 0.167302 -0.000004 -0.190290
v 0.167302 -0.031943 -0.081370
v 0.136645 -0.000002 0.081210
v 0.167302 -0.028853 0.081350
v 0.167302 -0.000004 0.190290
v 0.167302 0.028850 0.081350
v 0.167302 -0.054595 -0.068210
v 0.167302 -0.164844 -0.095210
v 0.135895 -0.070377 -0.040650
v 0.167302 -0.086360 -0.013190
v 0.138857 0.070395 -0.040670
v 0.167302 0.164849 -0.095230
v 0.167302 0.083919 -0.017450
v 0.167302 0.057041 -0.063990
vt 0.702264 0.346875
vt 0.658419 0.510507
vt 0.635425 0.497231
vt 0.675712 0.346875
vt 0.535605 0.439601
vt 0.560451 0.346875
vt 0.509251 0.424385
vt 0.530020 0.346875
vt 0.538632 0.630294
vt 0.525356 0.607300
vt 0.467725 0.507480
vt 0.452510 0.481126
vt 0.375000 0.674139
vt 0.375000 0.647587
vt 0.375000 0.532326
vt 0.375000 0.501895
vt 0.211368 0.630294
vt 0.224644 0.607300
vt 0.282275 0.507480
vt 0.297490 0.481126
vt 0.091581 0.510507
vt 0.114575 0.497231
vt 0.214395 0.439601
vt 0.240749 0.424385
vt 0.047736 0.346875
vt 0.074288 0.346875
vt 0.189549 0.346875
vt 0.219980 0.346875
vt 0.091581 0.183243
vt 0.114575 0.196519
vt 0.214395 0.254150
vt 0.240749 0.269365
vt 0.211368 0.063456
vt 0.224644 0.086450
vt 0.282275 0.186270
vt 0.297490 0.212624
vt 0.375000 0.019611
vt 0.375000 0.046163
vt 0.375000 0.161424
vt 0.375000 0.191855
vt 0.538632 0.063456
vt 0.525356 0.086450
vt 0.467725 0.186270
vt 0.452510 0.212624
vt 0.658419 0.183243
vt 0.635425 0.196519
vt 0.535605 0.254150
vt 0.509251 0.269365
vt 0.189085 0.704190
vt 0.189085 0.990033
vt 0.108687 0.704190
vt 0.536390 0.990033
vt 0.536422 0.704190
vt 0.460173 0.990033
vt 0.424934 0.704190
vt 0.424934 0.990033
vt 0.343182 0.704190
vt 0.506893 0.704190
vt 0.269279 0.704191
vt 0.657296 0.704190
vt 0.657290 0.990033
vt 0.754178 0.704190
vt 0.560414 0.704190
vt 0.307232 0.990033
vt 0.307226 0.704190
vt 0.219722 0.990033
vt 0.394742 0.990033
vt 0.082082 0.990033
vt 0.082082 0.704190
vt 0.009650 0.990033
vt 0.154208 0.990033
vt 0.612930 0.990033
vn 0.371462 0.896812 0.240300
vn 1.000000 0.000000 -0.000000
vn 0.371462 -0.896812 -0.240300
vn 0.371462 0.656512 0.656512
vn 0.371462 -0.656512 -0.656512
vn 0.371462 0.240300 0.896812
vn 0.371462 -0.240300 -0.896812
vn 0.371463 -0.240300 0.896812
vn 0.371462 0.240300 -0.896812
vn 0.371462 -0.656512 0.656512
vn 0.371462 0.656512 -0.656512
vn 0.371462 -0.896812 0.240300
vn 0.371462 0.896812 -0.240300
vn 0.371463 -0.240300 -0.896812
vn 1.000000 0.000001 -0.000000
vn 0.371462 -0.240300 0.896812
vn -0.371462 0.896812 0.240300
vn -1.000000 0.000000 -0.000000
vn -0.371462 -0.896812 -0.240300
vn -0.371462 0.656512 0.656512
vn -0.371462 -0.656512 -0.656512
vn -0.371462 0.240300 0.896812
vn -0.371462 -0.240300 -0.896812
vn -0.371463 -0.240300 0.896812
vn -0.371462 0.240300 -0.896812
vn -0.371462 -0.656512 0.656512
vn -0.371462 0.656512 -0.656512
vn -0.371462 -0.896812 0.240300
vn -1.000000 0.000001 0.000000
vn -0.371462 0.896812 -0.240300
vn -0.371463 -0.240300 -0.896812
vn -0.371462 -0.240300 0.896812
vn 0.960654 -0.240662 0.138659
vn 0.000000 -0.865871 0.500229
vn 0.000000 -0.711796 -0.702386
vn 0.967640 0.218535 -0.126153
vn 0.000000 0.865902 -0.500168
vn 0.000000 0.692933 0.721002
vn 0.958339 0.247435 0.142697
vn 0.000000 0.865932 0.500107
vn 0.000000 -0.247964 0.968769
vn 0.000000 0.715187 -0.698933
vn 0.000000 0.252883 0.967497
vn 0.957101 0.000006 -0.289755
vn 0.000000 0.000000 -0.999969
vn 0.000000 0.959583 -0.281425
vn 0.000000 -0.959593 -0.281391
vn 0.962701 0.000005 0.270568
vn 0.000000 0.000000 1.000000
vn -0.000000 -0.966677 0.255999
vn -0.000000 0.966668 0.256033
vn 0.960968 -0.239578 -0.138357
vn 0.000000 -0.865932 -0.500137
vn 0.000000 0.237871 -0.971297
vn 0.000000 -0.722509 0.691361
vn 0.000000 -0.278326 -0.960487
vn -0.960654 -0.240662 0.138659
vn -0.967640 0.218536 -0.126153
vn -0.958339 0.247435 0.142697
vn -0.957101 0.000006 -0.289755
vn -0.962701 0.000005 0.270568
vn -0.960968 -0.239578 -0.138357
usemtl None
s off
f 31/1/1 35/2/1 3/3/1 1/4/1
f 1/4/2 3/3/2 4/5/2 2/6/2
f 2/6/3 4/5/3 38/7/3 34/8/3
f 35/2/4 39/9/4 5/10/4 3/3/4
f 3/3/2 5/10/2 6/11/2 4/5/2
f 4/5/5 6/11/5 42/12/5 38/7/5
f 39/9/6 43/13/6 7/14/6 5/10/6
f 5/10/2 7/14/2 8/15/2 6/11/2
f 6/11/7 8/15/7 46/16/7 42/12/7
f 43/13/8 47/17/8 9/18/8 7/14/8
f 7/14/2 9/18/2 10/19/2 8/15/2
f 8/15/9 10/19/9 50/20/9 46/16/9
f 47/17/10 51/21/10 11/22/10 9/18/10
f 9/18/2 11/22/2 12/23/2 10/19/2
f 10/19/11 12/23/11 54/24/11 50/20/11
f 51/21/12 55/25/12 13/26/12 11/22/12
f 11/22/2 13/26/2 14/27/2 12/23/2
f 12/23/13 14/27/13 58/28/13 54/24/13
f 55/25/3 59/29/3 15/30/3 13/26/3
f 13/26/2 15/30/2 16/31/2 14/27/2
f 14/27/1 16/31/1 62/32/1 58/28/1
f 59/29/5 63/33/5 17/34/5 15/30/5
f 15/30/2 17/34/2 18/35/2 16/31/2
f 16/31/4 18/35/4 66/36/4 62/32/4
f 63/33/14 67/37/14 19/38/14 17/34/14
f 17/34/15 19/38/15 20/39/15 18/35/15
f 18/35/6 20/39/6 70/40/6 66/36/6
f 67/37/9 71/41/9 21/42/9 19/38/9
f 19/38/2 21/42/2 22/43/2 20/39/2
f 20/39/16 22/43/16 74/44/16 70/40/16
f 71/41/11 75/45/11 23/46/11 21/42/11
f 21/42/2 23/46/2 24/47/2 22/43/2
f 22/43/10 24/47/10 78/48/10 74/44/10
f 75/45/13 31/1/13 1/4/13 23/46/13
f 23/46/2 1/4/2 2/6/2 24/47/2
f 24/47/12 2/6/12 34/8/12 78/48/12
f 31/1/17 32/4/17 36/3/17 35/2/17
f 32/4/18 33/6/18 37/5/18 36/3/18
f 33/6/19 34/8/19 38/7/19 37/5/19
f 35/2/20 36/3/20 40/10/20 39/9/20
f 36/3/18 37/5/18 41/11/18 40/10/18
f 37/5/21 38/7/21 42/12/21 41/11/21
f 39/9/22 40/10/22 44/14/22 43/13/22
f 40/10/18 41/11/18 45/15/18 44/14/18
f 41/11/23 42/12/23 46/16/23 45/15/23
f 43/13/24 44/14/24 48/18/24 47/17/24
f 44/14/18 45/15/18 49/19/18 48/18/18
f 45/15/25 46/16/25 50/20/25 49/19/25
f 47/17/26 48/18/26 52/22/26 51/21/26
f 48/18/18 49/19/18 53/23/18 52/22/18
f 49/19/27 50/20/27 54/24/27 53/23/27
f 51/21/28 52/22/28 56/26/28 55/25/28
f 52/22/29 53/23/29 57/27/29 56/26/29
f 53/23/30 54/24/30 58/28/30 57/27/30
f 55/25/19 56/26/19 60/30/19 59/29/19
f 56/26/18 57/27/18 61/31/18 60/30/18
f 57/27/17 58/28/17 62/32/17 61/31/17
f 59/29/21 60/30/21 64/34/21 63/33/21
f 60/30/18 61/31/18 65/35/18 64/34/18
f 61/31/20 62/32/20 66/36/20 65/35/20
f 63/33/31 64/34/31 68/38/31 67/37/31
f 64/34/18 65/35/18 69/39/18 68/38/18
f 65/35/22 66/36/22 70/40/22 69/39/22
f 67/37/25 68/38/25 72/42/25 71/41/25
f 68/38/18 69/39/18 73/43/18 72/42/18
f 69/39/32 70/40/32 74/44/32 73/43/32
f 71/41/27 72/42/27 76/46/27 75/45/27
f 72/42/18 73/43/18 77/47/18 76/46/18
f 73/43/26 74/44/26 78/48/26 77/47/26
f 75/45/30 76/46/30 32/4/30 31/1/30
f 76/46/18 77/47/18 33/6/18 32/4/18
f 77/47/28 78/48/28 34/8/28 33/6/28
s 1
f 26/49/33 84/50/34 85/51/35
f 30/52/36 100/53/37 101/54/38
f 25/55/39 81/56/40 79/57/41
f 25/55/39 82/58/42 81/56/40
f 26/49/33 86/59/43 84/50/34
f 27/60/44 89/61/45 88/62/46
f 27/60/44 90/63/47 89/61/45
f 28/64/48 93/65/49 92/66/50
f 28/64/48 94/67/51 93/65/49
f 29/68/52 96/69/53 95/70/54
f 29/68/52 98/71/55 96/69/53
f 30/52/36 102/72/56 100/53/37
f 83/49/57 85/51/35 84/50/34
f 99/52/58 101/54/38 100/53/37
f 80/55/59 79/57/41 81/56/40
f 80/55/59 81/56/40 82/58/42
f 83/49/57 84/50/34 86/59/43
f 87/60/60 88/62/46 89/61/45
f 87/60/60 89/61/45 90/63/47
f 91/64/61 92/66/50 93/65/49
f 91/64/61 93/65/49 94/67/51
f 97/68/62 95/70/54 96/69/53
f 97/68/62 96/69/53 98/71/55
f 99/52/58 100/53/37 102/72/56
