# Blender v2.78 (sub 0) OBJ File: ''
# www.blender.org
mtllib l_hand.mtl.mtl
o polySurface4.001
v -0.153727 0.213290 -0.370314
v -0.239944 0.027637 -0.347434
v -0.185768 0.027637 -0.143262
v -0.099552 0.213290 -0.166137
v -0.052413 0.185880 -0.178164
v -0.149283 0.000107 -0.161809
v -0.114117 0.000107 0.046487
v -0.017248 0.185880 0.030136
v 0.020153 0.156463 -0.001593
v -0.093732 -0.034303 -0.001593
v -0.093732 -0.034304 0.209648
v 0.020153 0.156463 0.209648
v 0.045255 0.119214 0.158810
v -0.083044 -0.079996 0.142647
v -0.109440 -0.079996 0.352232
v 0.018855 0.119214 0.368390
v 0.184095 0.594524 0.209149
v 0.165847 0.594524 -0.000776
v -0.111413 0.594492 -0.001593
v -0.111413 0.581858 0.192927
v 0.184095 0.209911 0.209148
v 0.604551 0.160019 0.234813
v 0.254814 0.169971 0.213468
v 0.165847 0.209911 -0.000776
v 0.525537 0.163410 -0.001593
v 0.213236 0.164263 -0.001593
v 0.525537 0.163410 0.209648
v 0.213236 0.164263 0.209648
v 0.183011 0.160274 -0.003669
v 0.486265 0.162692 -0.054862
v 0.050097 0.209911 -0.227355
v 0.147849 0.160274 -0.211963
v 0.045848 0.209911 -0.423268
v 0.044362 0.161135 -0.422870
v 0.098534 0.161135 -0.218689
v 0.316924 -0.248347 0.193029
v 0.228310 0.083669 0.181868
v 0.591680 0.160019 0.445661
v 0.290528 -0.248347 0.402619
v 0.241943 0.169971 0.424311
v 0.201914 0.083669 0.391449
v 0.247928 -0.183189 -0.001593
v 0.199116 0.111587 -0.001593
v 0.247928 -0.183189 0.209648
v 0.199116 0.111587 0.209648
v 0.451105 0.162692 -0.263154
v 0.181573 -0.158819 -0.217653
v 0.134154 0.129553 -0.209657
v 0.216735 -0.158819 -0.009367
v 0.169315 0.129553 -0.001357
v 0.333864 0.156681 -0.499680
v 0.079028 -0.142191 -0.432068
v 0.041274 0.138858 -0.422044
v 0.388039 0.156681 -0.295499
v 0.133204 -0.142191 -0.227891
v 0.095450 0.138858 -0.217872
v -0.535421 0.496985 -0.001593
v -0.535421 0.484346 0.168463
v 0.126037 -0.109909 -0.069880
v 0.034660 -0.311618 -0.127104
v -0.054291 -0.244835 -0.122980
v 0.030957 -0.081509 -0.047116
v 0.195813 -0.178057 0.290702
v 0.052230 -0.432447 0.223821
v -0.085432 -0.322627 0.078822
v 0.058081 -0.121868 0.152803
v 0.050097 0.563249 -0.227355
v -0.111413 0.581859 -0.196113
v -0.153682 0.095410 -0.390633
v -0.153682 0.095410 -0.196113
v -0.153682 0.095410 -0.061325
v -0.003240 0.526045 -0.404314
v -0.535421 0.484347 -0.171653
v -0.419817 -0.339803 0.374209
v -0.352710 -0.314014 0.116233
v -0.676863 0.517423 0.003477
v -0.676863 0.496208 0.153138
v -0.535421 -0.123970 -0.061325
v -0.705388 -0.149176 0.049079
v -0.676863 -0.145775 0.033357
v -0.676863 -0.123867 -0.056452
v -0.676863 0.491803 -0.147738
v -0.111413 0.553347 -0.390632
v -0.111413 0.553347 0.387446
v 0.171225 0.594524 0.420001
v 0.171225 0.209911 0.420001
v -0.535421 0.455835 0.338523
v -0.535421 -0.098096 -0.171653
v -0.255286 -0.017502 -0.183881
v -0.255286 -0.017502 -0.061325
v -0.676863 -0.098931 -0.147738
v -0.535421 -0.064485 -0.341709
v -0.255286 -0.017502 -0.366169
v -0.535421 0.455835 -0.341709
v -0.676863 0.456647 -0.335132
v -0.535421 0.195676 -0.356654
v -0.003280 -0.122810 0.376883
v -0.056889 0.052101 0.073539
v -0.008568 -0.134543 0.176183
v -0.056889 0.052101 0.408344
v -0.535421 0.153335 0.379574
v -0.705388 -0.149176 0.359421
v -0.676863 -0.143222 0.354632
v -0.817354 0.524662 -0.001628
v -0.817354 0.496347 0.168846
v -0.817354 0.496360 -0.172001
v -0.817354 -0.124265 -0.061445
v -0.817354 -0.098457 -0.172002
v -0.817354 -0.149634 0.049289
v -0.676863 -0.065395 -0.340741
v -0.817354 -0.064846 -0.342601
v -0.676863 0.463796 0.343111
v -0.817354 0.456076 0.339558
v -0.676863 0.195627 -0.350911
v -0.817354 0.456242 -0.342601
v -0.817354 0.195698 -0.347462
v -0.676863 0.160287 0.372283
v -0.817354 0.153129 0.368957
v -0.817354 -0.149818 0.339558
v -0.817354 0.183649 -0.172002
v -0.817354 0.176553 -0.033724
v -0.817354 0.169266 0.108312
v -0.099881 0.633754 0.183154
v -0.198518 0.617167 -0.001593
v -0.485466 0.550727 -0.001593
v -0.437119 0.565855 0.168463
v -0.326425 0.560148 -0.192854
v -0.536112 0.508221 -0.171653
v -0.020947 0.605081 0.406029
v -0.381605 0.533234 0.370091
v -0.584215 0.461115 -0.344806
v -0.450806 0.501965 -0.360492
v -0.480139 0.433692 -0.368168
v -0.583558 0.403574 -0.356431
v -0.474520 0.495744 -0.001593
v -0.426011 0.489524 0.163719
v -0.525005 0.469370 -0.166909
v -0.371496 0.488635 0.313983
v -0.368051 0.479187 0.372470
v -0.368217 0.467746 0.320892
v 0.028449 0.502509 0.366905
v 0.029886 0.516196 0.405149
v -0.426034 0.419202 -0.331298
v -0.573179 0.389409 -0.318490
v -0.573268 0.444920 -0.310823
v -0.072990 0.605747 0.177164
v -0.170462 0.601432 -0.005364
v -0.295798 0.557333 -0.196162
v -0.403030 0.479487 -0.344797
v 0.006293 0.589476 0.384542
v 0.184095 0.626185 0.209149
v 0.165847 0.628185 -0.000776
v -0.111413 0.626163 -0.001593
v -0.111413 0.613525 0.192927
v -0.535421 0.508842 -0.001593
v -0.535421 0.496204 0.168463
v 0.095352 0.580498 -0.243175
v -0.111413 0.613526 -0.196113
v -0.535421 0.496204 -0.171653
v 0.017944 0.553499 -0.423254
v -0.114024 0.548323 -0.412905
v -0.111413 0.585014 0.387446
v 0.171225 0.615904 0.420001
v -0.535421 0.467692 0.338523
v -0.535421 0.467692 -0.337335
v 0.186531 0.585553 0.209220
v 0.166012 0.587682 0.002138
v -0.526237 0.469272 -0.001593
v -0.526063 0.456893 0.163719
v 0.092559 0.540727 -0.235352
v -0.006734 0.512144 -0.384813
v -0.526063 0.456893 -0.166909
v 0.001937 0.503544 -0.414377
v -0.026900 0.502755 -0.394157
v -0.118977 0.506227 -0.383804
v -0.112431 0.507186 -0.408550
v -0.103496 0.545377 0.383158
v 0.176210 0.575540 0.418881
v -0.525808 0.428627 0.332195
v -0.517517 0.434049 -0.326572
v -0.529914 0.446201 -0.349005
v -0.525808 0.442809 -0.312608
vt 0.0839 0.0279
vt 0.0984 0.0344
vt 0.0552 0.0523
vt 0.0578 0.0371
vt 0.0325 0.1002
vt 0.0611 0.0825
vt 0.0883 0.0734
vt 0.1113 0.0800
vt 0.1595 0.0616
vt 0.1726 0.0555
vt 0.1877 0.0555
vt 0.2008 0.0616
vt 0.0176 0.0493
vt 0.0157 0.0539
vt 0.0150 0.0573
vt 0.0121 0.0578
vt 0.5260 0.3661
vt 0.4761 0.3590
vt 0.4759 0.2512
vt 0.5222 0.2509
vt 0.9451 0.7117
vt 0.8952 0.7117
vt 0.8952 0.6401
vt 0.9451 0.6401
vt 0.4362 0.6930
vt 0.3947 0.6930
vt 0.3947 0.6348
vt 0.4362 0.6348
vt 0.3448 0.6930
vt 0.3448 0.6348
vt 0.2866 0.6930
vt 0.2866 0.6348
vt 0.2367 0.6930
vt 0.2367 0.6348
vt 0.5070 0.9702
vt 0.4404 0.9702
vt 0.4404 0.9120
vt 0.5070 0.9120
vt 0.3823 0.9702
vt 0.3823 0.9120
vt 0.5060 0.7217
vt 0.4524 0.7217
vt 0.4524 0.6681
vt 0.5060 0.6681
vt 0.8952 0.6119
vt 0.9451 0.6119
vt 0.8454 0.6401
vt 0.8454 0.6119
vt 0.7872 0.6912
vt 0.7872 0.6119
vt 0.7373 0.6618
vt 0.7373 0.6119
vt 0.8952 0.5537
vt 0.9451 0.5537
vt 0.8454 0.5537
vt 0.7872 0.5537
vt 0.7373 0.5537
vt 0.3947 0.5849
vt 0.4362 0.5849
vt 0.3448 0.5849
vt 0.2866 0.5849
vt 0.2367 0.5849
vt 0.3947 0.5350
vt 0.4362 0.5350
vt 0.3448 0.5350
vt 0.2866 0.5350
vt 0.2367 0.5350
vt 0.6566 0.9120
vt 0.5901 0.9120
vt 0.5901 0.8455
vt 0.6566 0.8455
vt 0.5070 0.8455
vt 0.4404 0.8455
vt 0.3823 0.8455
vt 0.5901 0.7790
vt 0.6566 0.7790
vt 0.5070 0.7790
vt 0.4404 0.7790
vt 0.3823 0.7790
vt 0.6668 0.6681
vt 0.6132 0.6681
vt 0.6132 0.6279
vt 0.6668 0.6279
vt 0.5596 0.6681
vt 0.5596 0.6279
vt 0.5060 0.6279
vt 0.4524 0.6279
vt 0.6132 0.5743
vt 0.6668 0.5743
vt 0.5596 0.5743
vt 0.5060 0.5743
vt 0.4524 0.5743
vt 0.4759 0.0840
vt 0.5259 0.0837
vt 0.8955 0.7853
vt 0.8456 0.7853
vt 0.8454 0.7545
vt 0.8952 0.7545
vt 0.8955 0.8632
vt 0.8456 0.8517
vt 0.7874 0.8517
vt 0.7874 0.7853
vt 0.7375 0.8517
vt 0.7375 0.7853
vt 0.9453 0.8517
vt 0.9453 0.7853
vt 0.4201 0.3133
vt 0.4297 0.2509
vt 0.8812 0.2230
vt 0.9049 0.3033
vt 0.8999 0.3050
vt 0.8568 0.2230
vt 0.7633 0.3500
vt 0.8059 0.2230
vt 0.6668 0.7217
vt 0.6132 0.7217
vt 0.5596 0.7217
vt 0.6566 0.9702
vt 0.5901 0.9702
vt 0.4260 0.0837
vt 0.8456 0.9182
vt 0.8245 0.9182
vt 0.5843 0.4157
vt 0.6580 0.4157
vt 0.6558 0.4665
vt 0.5916 0.4665
vt 0.1336 0.4157
vt 0.1919 0.4157
vt 0.1839 0.4665
vt 0.1365 0.4665
vt 0.7302 0.4157
vt 0.7209 0.4665
vt 0.9750 0.2502
vt 0.9685 0.2916
vt 0.3890 0.2916
vt 0.3954 0.2502
vt 0.5565 0.2502
vt 0.5569 0.3611
vt 0.8454 0.7117
vt 0.7872 0.6980
vt 0.7373 0.7117
vt 0.5616 0.0830
vt 0.8135 0.0700
vt 0.8266 0.1809
vt 0.7887 0.1809
vt 0.7825 0.0694
vt 0.0874 0.4665
vt 0.0761 0.4157
vt 0.8495 0.0708
vt 0.8578 0.1809
vt 0.3903 0.0830
vt 0.7856 0.4157
vt 0.7788 0.4665
vt 0.9092 0.0769
vt 0.9698 0.0830
vt 0.8955 0.8980
vt 0.6357 0.3571
vt 0.7287 0.2597
vt 0.7524 0.0688
vt 0.7874 0.9764
vt 0.7375 0.9764
vt 0.7375 0.9182
vt 0.9453 0.9182
vt 0.6282 0.3521
vt 0.6585 0.2597
vt 0.6323 0.0759
vt 0.6918 0.0688
vt 0.9616 0.9764
vt 0.8456 0.9764
vt 0.9453 0.9764
vt 0.2925 0.4665
vt 0.3032 0.4157
vt 0.6577 0.5133
vt 0.5863 0.5133
vt 0.7280 0.5133
vt 0.1336 0.5133
vt 0.0760 0.5133
vt 0.1920 0.5133
vt 0.0243 0.4665
vt 0.0156 0.5133
vt 0.5336 0.4665
vt 0.5262 0.4157
vt 0.5260 0.5133
vt 0.0157 0.4157
vt 0.8795 0.4665
vt 0.8774 0.4157
vt 0.9807 0.4157
vt 0.9893 0.4665
vt 0.7857 0.5133
vt 0.9806 0.5133
vt 0.8795 0.5133
vt 0.4123 0.4157
vt 0.4134 0.4665
vt 0.4122 0.5133
vt 0.2986 0.5133
vt 0.1677 0.8986
vt 0.1346 0.8965
vt 0.1269 0.9989
vt 0.1677 0.9906
vt 0.1006 0.8943
vt 0.0861 0.9906
vt 0.0254 0.8896
vt 0.0453 0.9787
vt 0.2238 0.9021
vt 0.2085 0.9788
vt 0.2085 0.8254
vt 0.1677 0.8156
vt 0.1412 0.8080
vt 0.1147 0.8005
vt 0.0453 0.8004
vt 0.1984 0.7055
vt 0.1655 0.6486
vt 0.0699 0.6487
vt 0.0860 0.7010
vt 0.1229 0.5898
vt 0.0531 0.5963
vt 0.2215 0.7467
vt 0.1045 0.7631
vt 0.0435 0.5650
vt 0.0898 0.5545
vt 0.0807 0.5440
vt 0.0394 0.5549
vt 0.0603 0.6501
vt 0.0764 0.7009
vt 0.0435 0.5992
vt 0.0973 0.7804
vt 0.1091 0.7751
vt 0.0984 0.7825
vt 0.2507 0.7829
vt 0.2416 0.7738
vt 0.0866 0.5294
vt 0.0298 0.5472
vt 0.0328 0.5560
vt 0.2074 0.7037
vt 0.1749 0.6475
vt 0.1331 0.5888
vt 0.0974 0.5430
vt 0.2306 0.7360
vt 0.3351 0.3097
vt 0.3282 0.2414
vt 0.2228 0.2411
vt 0.2228 0.3044
vt 0.0617 0.2411
vt 0.0617 0.2965
vt 0.2934 0.1677
vt 0.2228 0.1779
vt 0.0617 0.1858
vt 0.2650 0.1196
vt 0.2155 0.1230
vt 0.2228 0.3677
vt 0.3302 0.3783
vt 0.0617 0.3518
vt 0.0617 0.1319
vt 0.3390 0.3097
vt 0.3357 0.2424
vt 0.0564 0.2411
vt 0.0565 0.2949
vt 0.3048 0.1635
vt 0.2730 0.1112
vt 0.0565 0.1874
vt 0.2529 0.1068
vt 0.2549 0.1009
vt 0.2264 0.1045
vt 0.2224 0.1087
vt 0.2239 0.3745
vt 0.3336 0.3853
vt 0.0570 0.3585
vt 0.0599 0.1212
vt 0.0638 0.1281
vt 0.0568 0.1257
vn -0.8712 0.4331 0.2312
vn -0.8717 0.4675 0.1472
vn -0.8586 0.5126 0.0000
vn -0.8322 0.5445 -0.1048
vn -0.0231 0.9992 0.0323
vn 0.0609 -0.0000 -0.9981
vn -0.0021 0.0017 -1.0000
vn -0.0010 0.0008 -1.0000
vn -0.0001 0.0001 -1.0000
vn 0.7754 0.6306 -0.0336
vn -0.0013 0.0011 1.0000
vn -0.0007 0.0006 1.0000
vn -0.0007 0.0005 1.0000
vn -0.7659 -0.6421 0.0332
vn 0.1664 0.0000 0.9861
vn 0.1665 -0.0000 0.9860
vn -0.6508 -0.7249 0.2258
vn -0.8980 -0.4200 0.1311
vn 0.1257 0.0670 -0.9898
vn 0.8052 -0.5883 0.0752
vn -0.1248 -0.0658 0.9900
vn -0.9185 0.3861 -0.0858
vn 0.1250 0.0000 -0.9922
vn -0.3823 -0.9228 -0.0482
vn -0.1250 0.0000 0.9922
vn 0.1877 0.9819 0.0236
vn 0.0000 0.0000 -1.0000
vn 0.7805 -0.6251 -0.0000
vn -0.0000 -0.0000 1.0000
vn -0.9659 0.2589 0.0000
vn -0.3995 -0.9167 -0.0000
vn 0.2432 0.9700 0.0000
vn -0.1664 -0.0000 -0.9861
vn 0.7512 -0.6477 -0.1268
vn -0.8985 0.4120 0.1517
vn -0.4221 -0.9037 0.0713
vn 0.2813 0.9584 -0.0475
vn -0.2565 -0.0000 -0.9666
vn 0.7248 -0.6615 -0.1923
vn 0.2564 -0.0000 0.9666
vn -0.9568 0.1419 0.2539
vn -0.2564 0.0000 -0.9666
vn -0.4423 -0.8892 0.1174
vn 0.3346 0.9382 -0.0888
vn -0.2255 0.9719 0.0674
vn 0.0321 0.3286 -0.9439
vn 0.8907 -0.4002 -0.2156
vn -0.4565 -0.8337 -0.3108
vn -0.8630 0.4869 0.1346
vn 0.2782 0.9508 0.1360
vn 0.0342 0.9930 -0.1129
vn 0.4931 -0.8699 -0.0054
vn 0.4036 -0.9058 -0.1293
vn -0.2536 0.0161 -0.9672
vn 0.7000 0.6642 -0.2623
vn 0.2044 0.0457 0.9778
vn -0.0959 -0.0612 -0.9935
vn 0.7070 0.6443 -0.2917
vn -0.2255 0.9719 -0.0674
vn -0.3448 -0.9062 -0.2446
vn -0.3448 -0.9063 -0.2446
vn 0.7325 0.6768 0.0733
vn 0.7325 0.6769 0.0732
vn 0.7325 0.6768 0.0732
vn 0.6155 -0.7671 -0.1809
vn 0.6155 -0.7671 -0.1810
vn 0.7133 0.6957 -0.0851
vn -0.1551 0.0228 -0.9876
vn 0.1337 0.9724 -0.1912
vn -0.0981 0.9929 0.0667
vn 0.7166 0.6961 0.0437
vn -0.0609 -0.0000 0.9981
vn -0.4902 -0.8711 -0.0299
vn -0.2339 0.9606 0.1502
vn 0.3129 -0.9440 -0.1049
vn 0.7434 -0.6689 -0.0000
vn 0.5903 -0.7825 -0.1982
vn 0.5902 -0.7825 -0.1982
vn 0.2153 -0.9721 -0.0927
vn -0.2339 0.9606 -0.1502
vn -0.2591 0.0239 -0.9656
vn 0.6214 0.7691 -0.1494
vn 0.6214 0.7691 -0.1495
vn -0.0773 -0.0572 -0.9954
vn -0.0822 0.0028 -0.9966
vn 0.3014 -0.3786 0.8751
vn 0.4954 -0.8259 -0.2690
vn 0.3761 -0.9162 -0.1384
vn 0.2352 -0.1919 -0.9528
vn 0.2352 -0.1920 -0.9528
vn -0.3057 0.5332 -0.7888
vn 0.1793 0.9823 0.0532
vn 0.5952 -0.5356 -0.5991
vn -0.0931 0.0178 0.9955
vn -0.0738 -0.0663 0.9951
vn -0.0291 -0.0725 0.9969
vn 0.5553 -0.8315 0.0131
vn 0.9632 0.2685 -0.0154
vn -0.4749 -0.8748 -0.0958
vn 0.5956 -0.8033 0.0037
vn 0.5957 -0.8032 0.0037
vn -0.0853 0.0708 0.9938
vn -0.6326 0.7654 0.1178
vn -0.5983 0.7902 -0.1326
vn -0.6252 -0.7567 -0.1913
vn -0.6251 -0.7567 -0.1913
vn -0.6504 -0.7393 -0.1746
vn -0.6009 -0.7833 -0.1592
vn -0.6010 -0.7833 -0.1592
vn 0.6776 0.7230 0.1347
vn 0.6776 0.7230 0.1348
vn 0.6776 0.7229 0.1348
vn -0.6704 0.7248 0.1590
vn -0.6704 0.7248 0.1591
vn 0.5671 -0.8071 -0.1642
vn 0.5671 -0.8071 -0.1643
vn 0.5613 -0.1160 -0.8195
vn 0.5613 -0.1159 -0.8195
vn -0.6041 0.7772 -0.1763
vn -0.6040 0.7772 -0.1763
vn -0.2859 -0.2143 -0.9340
vn -0.2959 0.2136 -0.9310
vn -0.2960 0.2136 -0.9310
vn 0.5650 0.1156 -0.8170
vn 0.5650 0.1156 -0.8169
vn 0.4670 -0.1388 0.8733
vn 0.4669 -0.1389 0.8733
vn -0.3647 -0.2308 0.9020
vn -0.3648 -0.2308 0.9020
vn -0.3647 -0.2308 0.9021
vn -0.6293 -0.7771 0.0035
vn 0.5901 0.1516 0.7930
vn -0.3901 0.2283 0.8920
vn -1.0000 -0.0000 0.0000
vn -0.2688 0.9608 0.0674
vn -0.2688 0.9608 -0.0674
vn -0.2038 0.7372 0.6443
vn -0.2767 0.9491 0.1502
vn -0.2114 0.8611 0.4624
vn -0.2825 0.8777 -0.3872
vn -0.2783 0.9312 -0.2353
vn -0.2767 0.9491 -0.1503
vn -0.2768 0.9491 -0.1502
vn -0.9382 -0.1817 0.2945
vn -0.9376 -0.1827 0.2959
vn -0.9346 -0.2327 0.2691
vn -0.9348 -0.2317 0.2692
vn -0.9297 -0.1826 0.3198
vn -0.9312 -0.2834 0.2295
vn -0.9330 -0.2817 0.2240
vn 0.0603 -0.9615 0.2679
vn 0.1612 -0.8672 -0.4711
vn -0.9632 -0.0514 0.2639
vn -0.9434 -0.1277 0.3061
vn -0.9497 -0.1064 0.2945
vn 0.5683 0.7884 -0.2357
vn 0.5714 0.7921 -0.2148
vn 0.4313 0.8259 -0.3631
vn 0.3751 0.8486 -0.3730
vn 0.2732 0.8445 -0.4607
vn 0.3011 0.8052 -0.5109
vn 0.3910 -0.1999 -0.8984
vn 0.6513 0.7548 -0.0775
vn 0.7078 0.7057 -0.0306
vn 0.9091 0.3543 0.2190
vn -0.2768 0.9491 0.1502
vn -0.9760 -0.2164 0.0225
vn 0.3326 0.7532 -0.5675
vn -0.2767 0.9491 -0.1502
vn -0.2254 0.9719 0.0674
vn 0.0342 0.9930 -0.1130
vn -0.2254 0.9719 -0.0674
vn 0.9981 0.0590 -0.0181
vn 0.9981 0.0602 -0.0150
vn 0.9807 -0.0251 -0.1940
vn 0.9811 -0.0240 -0.1920
vn -0.9737 -0.2279 -0.0000
vn -0.9731 -0.2290 -0.0272
vn 0.9088 -0.2685 -0.3195
vn 0.9102 -0.2646 -0.3187
vn 0.8279 -0.4891 -0.2746
vn 0.8163 -0.4809 -0.3199
vn -0.9690 -0.2458 0.0252
vn -0.9691 -0.2454 0.0250
vn -0.0398 -0.9967 -0.0701
vn 0.0981 -0.9616 -0.2562
vn 0.0765 -0.9708 -0.2275
vn -0.0892 -0.1242 0.9882
vn -0.0891 -0.1244 0.9882
vn -0.1110 -0.0848 0.9902
vn 0.9942 0.0903 0.0592
vn -0.9724 -0.2300 -0.0379
vn -0.0750 -0.1497 0.9859
vn 0.1156 -0.9532 -0.2792
vn -0.9552 -0.2933 0.0389
vn -0.9586 -0.2824 0.0376
vn -0.0641 -0.1335 -0.9890
vn 0.7909 -0.4850 0.3731
vn -0.1739 0.0948 -0.9802
vn -0.8889 -0.4545 0.0579
usemtl initialShadingGroup1.002
s 1
f 1/1/1 2/2/1 3/3/1 4/4/1
f 5/5/2 6/6/2 7/7/2 8/8/2
f 9/9/3 10/10/3 11/11/3 12/12/3
f 13/13/4 14/14/4 15/15/4 16/16/4
f 17/17/5 18/18/5 19/19/5 20/20/5
f 21/21/6 17/22/6 22/23/6 23/24/6
f 24/25/7 18/26/7 25/27/8 26/28/9
f 18/26/10 17/29/10 27/30/10 25/27/10
f 17/29/11 21/31/11 28/32/12 27/30/13
f 21/31/14 24/33/14 26/34/14 28/32/14
f 18/35/15 24/36/15 29/37/16 30/38/16
f 24/36/17 31/39/17 32/40/17 29/37/17
f 31/41/18 33/42/18 34/43/18 35/44/18
f 23/24/19 22/23/19 36/45/19 37/46/19
f 22/23/20 38/47/20 39/48/20 36/45/20
f 38/47/21 40/49/21 41/50/21 39/48/21
f 40/49/22 23/51/22 37/52/22 41/50/22
f 37/46/23 36/45/23 14/53/23 13/54/23
f 36/45/24 39/48/24 15/55/24 14/53/24
f 39/48/25 41/50/25 16/56/25 15/55/25
f 41/50/26 37/52/26 13/57/26 16/56/26
f 26/28/9 25/27/8 42/58/27 43/59/27
f 25/27/28 27/30/28 44/60/28 42/58/28
f 27/30/13 28/32/12 45/61/29 44/60/29
f 28/32/30 26/34/30 43/62/30 45/61/30
f 43/59/27 42/58/27 10/63/27 9/64/27
f 42/58/31 44/60/31 11/65/31 10/63/31
f 44/60/29 45/61/29 12/66/29 11/65/29
f 45/61/32 43/62/32 9/67/32 12/66/32
f 32/68/33 46/69/33 47/70/33 48/71/33
f 46/69/34 30/38/34 49/72/34 47/70/34
f 30/38/16 29/37/16 50/73/16 49/72/16
f 29/37/35 32/40/35 48/74/35 50/73/35
f 48/71/33 47/70/33 6/75/33 5/76/33
f 47/70/36 49/72/36 7/77/36 6/75/36
f 49/72/16 50/73/16 8/78/16 7/77/16
f 50/73/37 48/74/37 5/79/37 8/78/37
f 34/80/38 51/81/38 52/82/38 53/83/38
f 51/81/39 54/84/39 55/85/39 52/82/39
f 54/84/40 35/44/40 56/86/40 55/85/40
f 35/44/41 34/43/41 53/87/41 56/86/41
f 53/83/38 52/82/38 2/88/42 1/89/42
f 52/82/43 55/85/43 3/90/43 2/88/43
f 55/85/40 56/86/40 4/91/40 3/90/40
f 56/86/44 53/87/44 1/92/44 4/91/44
f 20/20/45 19/19/45 57/93/45 58/94/45
f 59/95/46 60/96/46 61/97/46 62/98/46
f 63/99/47 64/100/47 60/96/47 59/95/47
f 64/100/48 65/101/48 61/102/48 60/96/48
f 65/101/49 66/103/49 62/104/49 61/102/49
f 66/105/50 63/99/50 59/95/50 62/106/50
f 18/18/51 67/107/51 68/108/51 19/19/51
f 69/109/52 33/110/52 31/111/52 70/112/52
f 31/111/53 24/113/53 71/114/53 70/112/53
f 51/81/54 34/80/54 33/115/54 72/116/54
f 51/81/55 72/116/55 67/117/55 54/84/55
f 31/41/56 35/44/56 54/84/56 67/117/56
f 31/118/57 67/119/57 46/69/57 32/68/57
f 67/119/58 18/35/58 30/38/58 46/69/58
f 19/19/59 68/108/59 73/120/59 57/93/59
f 74/121/60 75/122/61 65/101/60 64/100/61
f 58/123/62 57/124/63 76/125/64 77/126/63
f 78/127/65 79/128/66 80/129/65 81/130/65
f 57/124/67 73/131/67 82/132/67 76/125/67
f 33/110/68 69/109/68 83/133/68 72/134/68
f 67/107/69 72/135/69 83/136/69 68/108/69
f 84/137/70 85/138/70 17/17/70 20/20/70
f 22/23/71 17/22/71 85/139/71 38/47/71
f 38/47/72 85/139/72 86/140/72 40/49/72
f 40/49/73 86/140/73 21/141/73 23/51/73
f 84/137/74 20/20/74 58/94/74 87/142/74
f 88/143/75 89/144/75 90/145/75 78/146/75
f 71/114/76 90/145/76 89/144/76 70/112/76
f 91/147/77 88/148/77 78/127/78 81/130/78
f 92/149/79 93/150/79 89/144/79 88/143/79
f 73/120/80 68/108/80 83/136/80 94/151/80
f 93/150/81 83/133/81 69/109/81
f 70/112/76 89/144/76 93/150/76 69/109/76
f 73/131/82 94/152/83 95/153/83 82/132/83
f 96/154/84 93/150/84 92/149/84
f 83/133/85 93/150/85 96/154/85 94/155/85
f 63/99/86 97/156/86 74/121/86 64/100/86
f 24/113/87 21/157/87 98/158/87 71/114/87
f 90/145/88 98/158/88 79/159/88 78/146/88
f 79/160/89 98/161/90 99/162/90 75/122/90
f 65/101/91 75/122/91 99/162/91 66/103/91
f 66/105/92 99/163/92 97/156/92 63/99/92
f 98/158/93 90/145/93 71/114/93
f 86/164/94 85/138/94 84/137/94 100/165/94
f 100/165/95 101/166/95 102/167/95
f 97/156/96 100/168/96 102/169/96 74/121/96
f 21/157/97 86/164/97 100/165/97 98/158/97
f 99/163/98 98/170/98 100/168/98 97/156/98
f 102/169/99 79/160/99 75/122/99 74/121/99
f 103/171/100 80/129/101 79/128/100 102/172/100
f 100/165/102 84/137/102 87/142/102 101/166/102
f 77/126/103 76/125/103 104/173/103 105/174/103
f 104/173/104 76/125/104 82/132/104 106/175/104
f 91/147/105 81/130/105 107/176/106 108/177/105
f 81/130/107 80/129/107 109/178/107 107/176/107
f 110/179/108 91/147/109 108/177/108 111/180/109
f 77/126/110 112/181/111 87/182/110 58/123/112
f 113/183/113 112/181/114 77/126/113 105/174/113
f 110/179/115 92/184/115 88/148/115 91/147/116
f 114/185/117 96/186/118 92/187/117 110/188/118
f 106/175/119 82/132/119 95/153/119 115/189/120
f 111/190/121 116/191/121 114/185/121 110/188/121
f 114/185/122 116/191/123 115/189/122 95/153/122
f 94/152/124 96/186/125 114/185/124 95/153/125
f 102/172/126 101/192/127 117/193/127 103/171/127
f 117/193/128 118/194/128 119/195/129 103/171/130
f 80/129/131 103/171/131 119/195/131 109/178/131
f 117/193/132 101/192/132 87/182/132 112/181/132
f 113/183/133 118/194/133 117/193/133 112/181/133
f 120/196/134 121/197/134 104/198/134 106/199/134
f 121/197/134 122/200/134 105/201/134 104/198/134
f 122/200/134 118/202/134 113/203/134 105/201/134
f 116/204/134 120/196/134 106/199/134 115/205/134
f 120/196/134 116/204/134 111/206/134 108/207/134
f 121/197/134 120/196/134 108/207/134 107/208/134
f 122/200/134 121/197/134 107/208/134 109/209/134
f 118/202/134 122/200/134 109/209/134 119/210/134
f 123/211/135 124/212/135 125/213/135 126/214/135
f 124/212/136 127/215/136 128/216/136 125/213/136
f 129/217/137 123/211/138 126/214/138 130/218/139
f 131/219/140 132/220/141 133/221/142 134/222/143
f 125/213/144 135/223/145 136/224/146 126/214/147
f 128/216/148 137/225/148 135/223/145 125/213/144
f 126/214/147 136/224/146 138/226/149 130/218/150
f 139/227/151 140/228/151 141/229/151 142/230/151
f 133/221/152 143/231/152 144/232/152 134/222/152
f 134/222/153 144/232/153 145/233/154 131/219/155
f 123/211/156 146/234/157 147/235/158 124/212/159
f 124/212/159 147/235/158 148/236/160 127/215/161
f 132/220/162 149/237/162 143/231/162 133/221/162
f 129/217/163 150/238/164 146/234/157 123/211/156
f 142/230/165 141/229/165 150/238/164 129/217/163
f 142/230/138 129/217/137 130/218/139 139/227/166
f 138/226/149 140/228/167 139/227/167 130/218/150
f 127/215/161 148/236/160 149/237/168 132/220/168
f 128/216/169 127/215/169 132/220/141 131/219/140
f 145/233/154 137/225/148 128/216/148 131/219/155
f 151/239/5 152/240/5 153/241/5 154/242/5
f 154/242/45 153/241/170 155/243/45 156/244/45
f 152/240/171 157/245/171 158/246/51 153/241/171
f 153/241/172 158/246/59 159/247/59 155/243/59
f 157/245/69 160/248/69 161/249/69 158/246/69
f 162/250/70 163/251/70 151/239/70 154/242/70
f 162/250/74 154/242/74 156/244/74 164/252/74
f 159/247/80 158/246/80 161/249/80 165/253/80
f 151/239/173 166/254/174 167/255/175 152/240/176
f 155/243/177 168/256/177 169/257/178 156/244/178
f 152/240/176 167/255/175 170/258/179 157/245/180
f 157/245/180 170/258/179 171/259/181 160/248/182
f 159/247/183 172/260/184 168/256/177 155/243/177
f 173/261/185 174/262/185 175/263/186 176/264/187
f 162/250/188 177/265/189 178/266/190 163/251/190
f 163/251/191 178/266/191 166/254/174 151/239/173
f 156/244/178 169/257/178 179/267/192 164/252/192
f 164/252/193 179/267/193 177/265/189 162/250/188
f 176/264/187 175/263/186 180/268/194 181/269/194
f 165/253/195 182/270/196 172/260/184 159/247/183
f 160/248/69 173/261/197 176/264/197 161/249/69
f 171/259/181 174/262/198 173/261/198 160/248/182
f 161/249/80 176/264/199 181/269/199 165/253/80
f 165/253/195 181/269/200 180/268/200 182/270/196
