# This file uses centimeters as units for non-parametric coordinates.

mtllib Peg foot.mtl
g default
v -0.112318 0.181057 0.100511
v -0.112318 0.202448 0.121902
v -0.112318 0.210278 0.151124
v -0.112318 0.202448 0.180345
v -0.112318 0.181057 0.201736
v -0.112318 0.151835 0.209566
v -0.112318 0.122614 0.201736
v -0.112318 0.101223 0.180345
v -0.112318 0.093393 0.151124
v -0.112318 0.101223 0.121902
v -0.112318 0.122614 0.100511
v -0.112318 0.151835 0.092681
v 0.112318 0.178566 0.104825
v 0.112318 0.198134 0.124393
v 0.112318 0.205297 0.151124
v 0.112318 0.198134 0.177854
v 0.112318 0.178566 0.197422
v 0.112318 0.151835 0.204585
v 0.112318 0.125105 0.197422
v 0.112318 0.105537 0.177854
v 0.112318 0.098374 0.151124
v 0.112318 0.105537 0.124393
v 0.112318 0.125105 0.104825
v 0.112318 0.151835 0.097663
v -0.031396 0.207970 0.096375
v -0.066805 -0.249603 -0.042142
v -0.045259 -0.107060 -0.042142
v -0.031396 0.118281 -0.038122
v -0.031396 0.195687 -0.038122
v -0.031396 0.255829 -0.027373
v -0.031396 0.281167 0.015733
v -0.031396 0.275726 0.056090
v -0.031396 0.250219 0.083541
v 0.032068 0.207970 0.096375
v 0.067477 -0.249603 -0.042142
v 0.045931 -0.107060 -0.042142
v 0.032068 0.118281 -0.038122
v 0.032068 0.195687 -0.038122
v 0.032068 0.255829 -0.027373
v 0.032068 0.281167 0.015733
v 0.032068 0.275726 0.056090
v 0.032068 0.250219 0.083541
v -0.031396 0.194531 0.073046
v -0.066805 -0.249603 -0.006654
v -0.045259 -0.107060 -0.006654
v -0.031396 0.118281 -0.010674
v -0.031396 0.195687 -0.010674
v -0.037773 0.239703 -0.006311
v -0.037773 0.252979 0.019016
v -0.037773 0.250773 0.042688
v -0.031396 0.235189 0.058448
v 0.032068 0.194531 0.073046
v 0.067477 -0.249603 -0.006654
v 0.045931 -0.107060 -0.006654
v 0.032068 0.118281 -0.010674
v 0.032068 0.195687 -0.010674
v 0.038445 0.239703 -0.006311
v 0.038445 0.252979 0.019016
v 0.038445 0.250773 0.042688
v 0.032068 0.235189 0.058448
v 0.035553 -0.104605 -0.010674
v -0.034881 -0.104605 -0.010674
v -0.034881 -0.104605 -0.038122
v 0.035553 -0.104605 -0.038122
v -0.112318 0.170827 0.118228
v -0.112318 0.184731 0.132132
v -0.112318 0.189819 0.151124
v -0.112318 0.184731 0.170116
v -0.112318 0.170827 0.184019
v -0.112318 0.151835 0.189108
v -0.112318 0.132843 0.184019
v -0.112318 0.118940 0.170116
v -0.112318 0.113851 0.151124
v -0.112318 0.118940 0.132132
v -0.112318 0.132843 0.118228
v -0.112318 0.151835 0.113140
v 0.112318 0.170827 0.118228
v 0.112318 0.184731 0.132132
v 0.112318 0.189819 0.151124
v 0.112318 0.184731 0.170116
v 0.112318 0.170827 0.184019
v 0.112318 0.151835 0.189108
v 0.112318 0.132843 0.184019
v 0.112318 0.118940 0.170116
v 0.112318 0.113851 0.151124
v 0.112318 0.118940 0.132132
v 0.112318 0.132843 0.118228
v 0.112318 0.151835 0.113140
v -0.115633 0.166118 0.126385
v -0.115633 0.176574 0.136841
v -0.120418 0.151835 0.151124
v -0.115633 0.180401 0.151124
v -0.115633 0.176574 0.165406
v -0.115633 0.166118 0.175862
v -0.115633 0.151835 0.179689
v -0.115633 0.137553 0.175862
v -0.115633 0.127097 0.165406
v -0.115633 0.123270 0.151124
v -0.115633 0.127097 0.136841
v -0.115633 0.137553 0.126385
v -0.115633 0.151835 0.122558
v 0.115633 0.166118 0.126385
v 0.115633 0.176574 0.136841
v 0.120418 0.151835 0.151124
v 0.115633 0.180401 0.151124
v 0.115633 0.176574 0.165406
v 0.115633 0.166118 0.175862
v 0.115633 0.151835 0.179689
v 0.115633 0.137553 0.175862
v 0.115633 0.127097 0.165406
v 0.115633 0.123270 0.151124
v 0.115633 0.127097 0.136841
v 0.115633 0.137553 0.126385
v 0.115633 0.151835 0.122558
v 0.108542 0.101223 0.180345
v 0.108542 0.122614 0.201736
v 0.108542 0.151835 0.209566
v 0.108542 0.181057 0.201736
v 0.108542 0.202448 0.180345
v 0.108542 0.210278 0.151124
v 0.108542 0.202448 0.121902
v 0.108542 0.181057 0.100511
v 0.108542 0.151835 0.092681
v 0.108542 0.122614 0.100511
v 0.108542 0.101223 0.121902
v 0.108542 0.093393 0.151124
vt 0.885658 0.705250
vt 0.928148 0.747739
vt 0.943700 0.805781
vt 0.928148 0.863823
vt 0.885658 0.906312
vt 0.827617 0.921864
vt 0.769575 0.906312
vt 0.727086 0.863822
vt 0.711534 0.805781
vt 0.727086 0.747739
vt 0.769575 0.705250
vt 0.827617 0.689698
vt 0.507057 0.378677
vt 0.545901 0.378675
vt 0.584786 0.378675
vt 0.623670 0.378675
vt 0.662555 0.378676
vt 0.701439 0.378676
vt 0.740324 0.378677
vt 0.779209 0.378677
vt 0.817863 0.378678
vt 0.856518 0.378678
vt 0.895403 0.378678
vt 0.934287 0.378678
vt 0.507062 0.667414
vt 0.545906 0.667412
vt 0.584790 0.667412
vt 0.623675 0.667412
vt 0.662560 0.667413
vt 0.701444 0.667413
vt 0.740329 0.667414
vt 0.779213 0.667414
vt 0.856523 0.667415
vt 0.895407 0.667415
vt 0.934292 0.667415
vt 0.527927 0.707511
vt 0.486429 0.749010
vt 0.471240 0.805697
vt 0.486429 0.862385
vt 0.527927 0.903883
vt 0.584615 0.919073
vt 0.641303 0.903884
vt 0.682801 0.862385
vt 0.697990 0.805698
vt 0.682801 0.749010
vt 0.641303 0.707512
vt 0.584615 0.692322
vt 0.827617 0.805781
vt 0.584615 0.805697
vt 0.697334 0.346000
vt 0.485334 0.072252
vt 0.484605 0.313187
vt 0.184469 0.054449
vt 0.408282 0.053820
vt 0.193099 0.453278
vt 0.195939 0.589811
vt 0.395199 0.580029
vt 0.400834 0.450342
vt 0.188914 0.681897
vt 0.419240 0.661192
vt 0.190426 0.752915
vt 0.434894 0.725056
vt 0.200406 0.810522
vt 0.441359 0.780206
vt 0.219596 0.862933
vt 0.437779 0.833782
vt 0.248821 0.927211
vt 0.146641 0.978329
vt 0.493096 0.124667
vt 0.233407 0.053832
vt 0.241031 0.455054
vt 0.242907 0.602657
vt 0.236534 0.690708
vt 0.243696 0.746556
vt 0.251012 0.792120
vt 0.266557 0.832489
vt 0.290110 0.908839
vt 0.705407 0.293633
vt 0.492681 0.260819
vt 0.476030 0.264324
vt 0.364852 0.595809
vt 0.365600 0.451433
vt 0.387897 0.679570
vt 0.395152 0.733365
vt 0.401124 0.777697
vt 0.397588 0.820072
vt 0.398332 0.903369
vt 0.058366 0.058406
vt 0.079682 0.450793
vt 0.758392 0.293799
vt 0.759014 0.093308
vt 0.112315 0.907125
vt 0.428471 0.901908
vt 0.089204 0.844371
vt 0.074175 0.773354
vt 0.069413 0.685758
vt 0.076527 0.581758
vt 0.971312 0.262321
vt 0.706027 0.093140
vt 0.978394 0.246848
vt 0.469783 0.304828
vt 0.373559 0.053159
vt 0.470462 0.080522
vt 0.486017 0.140140
vt 0.971746 0.126166
vt 0.978729 0.141684
vt 0.698262 0.040725
vt 0.485696 0.245303
vt 0.476466 0.121063
vt 0.898838 0.764661
vt 0.868737 0.734560
vt 0.909856 0.805781
vt 0.898839 0.846901
vt 0.868737 0.877002
vt 0.827617 0.888020
vt 0.786497 0.877002
vt 0.756395 0.846901
vt 0.745378 0.805781
vt 0.756395 0.764661
vt 0.786497 0.734559
vt 0.827617 0.723541
vt 0.626412 0.733304
vt 0.657009 0.763901
vt 0.668208 0.805698
vt 0.657009 0.847494
vt 0.626412 0.878091
vt 0.584615 0.889291
vt 0.542819 0.878091
vt 0.512221 0.847494
vt 0.501022 0.805697
vt 0.512221 0.763901
vt 0.542819 0.733304
vt 0.584615 0.722104
vt 0.879359 0.775908
vt 0.857490 0.754039
vt 0.887364 0.805781
vt 0.879359 0.835654
vt 0.857490 0.857523
vt 0.827617 0.865528
vt 0.797744 0.857523
vt 0.775875 0.835654
vt 0.767870 0.805781
vt 0.775875 0.775908
vt 0.797744 0.754039
vt 0.827617 0.746034
vt 0.614048 0.754718
vt 0.635594 0.776265
vt 0.643481 0.805698
vt 0.635594 0.835130
vt 0.614048 0.856677
vt 0.584615 0.864563
vt 0.555182 0.856677
vt 0.533636 0.835130
vt 0.525749 0.805697
vt 0.533636 0.776265
vt 0.555182 0.754718
vt 0.584615 0.746832
vt 0.779213 0.662561
vt 0.740329 0.662560
vt 0.701444 0.662559
vt 0.662559 0.662559
vt 0.623675 0.662559
vt 0.584790 0.662559
vt 0.545906 0.662559
vt 0.507075 0.662560
vt 0.934292 0.662562
vt 0.895407 0.662562
vt 0.856523 0.662562
vt 0.817791 0.662561
vt 0.817868 0.667415
vt 0.468218 0.662562
vt 0.468218 0.667415
vt 0.468213 0.378678
vn -0.063553 0.498989 -0.864275
vn -0.063553 0.864275 -0.498989
vn 0.018472 0.865878 -0.499915
vn 0.018472 0.499915 -0.865878
vn -0.063553 0.997979 0.000000
vn 0.018472 0.999829 -0.000000
vn -0.063553 0.864275 0.498989
vn 0.018472 0.865878 0.499915
vn -0.063553 0.498989 0.864275
vn 0.018472 0.499915 0.865878
vn -0.063553 0.000000 0.997979
vn 0.018472 0.000000 0.999829
vn -0.063553 -0.498989 0.864275
vn 0.018472 -0.499915 0.865878
vn -0.063553 -0.864275 0.498989
vn 0.018472 -0.865878 0.499915
vn -0.063553 -0.997979 0.000000
vn 0.018472 -0.999829 0.000000
vn -0.063553 -0.864275 -0.498989
vn 0.018472 -0.865878 -0.499915
vn -0.063553 -0.498989 -0.864275
vn 0.018472 -0.499915 -0.865878
vn -0.063553 0.000000 -0.997979
vn 0.018472 0.000000 -0.999829
vn -0.967215 0.219936 -0.126980
vn -0.967215 0.126980 -0.219936
vn -1.000000 0.000000 0.000000
vn -0.967215 0.253960 0.000000
vn -0.967215 0.219936 0.126980
vn -0.967215 0.126981 0.219935
vn -0.967215 -0.000000 0.253960
vn -0.967215 -0.126980 0.219936
vn -0.967215 -0.219936 0.126980
vn -0.967215 -0.253960 -0.000000
vn -0.967215 -0.219936 -0.126980
vn -0.967215 -0.126979 -0.219936
vn -0.967215 0.000000 -0.253960
vn 0.967215 0.126979 -0.219934
vn 0.967215 0.219935 -0.126979
vn 1.000000 0.000001 -0.000001
vn 0.967215 0.253960 0.000000
vn 0.967215 0.219937 0.126979
vn 0.967215 0.126982 0.219935
vn 0.967215 -0.000001 0.253960
vn 0.967215 -0.126981 0.219936
vn 0.967215 -0.219936 0.126980
vn 0.967215 -0.253960 0.000000
vn 0.967215 -0.219936 -0.126980
vn 0.967215 -0.126978 -0.219936
vn 0.967215 0.000001 -0.253958
vn 0.318117 -0.251596 -0.914057
vn -0.318117 -0.251596 -0.914058
vn -0.277885 0.059960 -0.958741
vn 0.277885 0.059960 -0.958741
vn -0.379354 0.064648 -0.922991
vn 0.379354 0.064648 -0.922991
vn -0.381313 0.004426 -0.924435
vn -0.346874 0.066748 -0.935534
vn 0.346874 0.066748 -0.935534
vn 0.381313 0.004426 -0.924435
vn -0.245553 0.515100 -0.821204
vn 0.245553 0.515100 -0.821204
vn -0.246550 0.943049 -0.223319
vn 0.246550 0.943049 -0.223319
vn -0.267970 0.872555 0.408461
vn 0.267970 0.872555 0.408461
vn -0.314821 0.477218 0.820458
vn 0.314821 0.477218 0.820458
vn -0.439894 0.261023 0.859279
vn 0.439894 0.261023 0.859279
vn -0.277884 0.059958 0.958742
vn -0.318118 -0.251597 0.914057
vn -0.379354 0.064649 0.922990
vn -0.381313 0.004426 0.924435
vn -0.400773 -0.044147 0.915113
vn -0.605488 -0.403797 0.685808
vn -0.553277 -0.813110 0.180934
vn -0.613728 -0.742315 -0.268898
vn -0.469962 -0.452113 -0.758109
vn -0.361542 -0.315069 -0.877507
vn 0.318118 -0.251597 0.914057
vn 0.277884 0.059958 0.958742
vn 0.379354 0.064649 0.922990
vn 0.400773 -0.044147 0.915113
vn 0.381313 0.004426 0.924435
vn 0.605488 -0.403797 0.685808
vn 0.553277 -0.813110 0.180934
vn 0.613728 -0.742315 -0.268898
vn 0.469962 -0.452113 -0.758109
vn 0.361542 -0.315069 -0.877507
vn -0.997847 0.032788 -0.056791
vn -0.997847 0.056791 -0.032788
vn -0.997848 0.065577 0.000000
vn -0.997848 0.056791 0.032788
vn -0.997848 0.032789 0.056791
vn -0.997848 -0.000000 0.065577
vn -0.997848 -0.032788 0.056791
vn -0.997848 -0.056791 0.032789
vn -0.997847 -0.065577 -0.000000
vn -0.997848 -0.056791 -0.032789
vn -0.997848 -0.032788 -0.056791
vn -0.997848 0.000000 -0.065577
vn 0.966815 0.127739 -0.221250
vn 0.966815 0.221250 -0.127739
vn 0.996379 0.073628 -0.042508
vn 0.996379 0.042509 -0.073627
vn 0.966815 0.255477 0.000000
vn 0.996379 0.085017 0.000000
vn 0.966815 0.221249 0.127738
vn 0.996379 0.073628 0.042508
vn 0.966815 0.127739 0.221250
vn 0.996379 0.042510 0.073628
vn 0.966815 -0.000000 0.255478
vn 0.996379 -0.000000 0.085019
vn 0.966815 -0.127739 0.221250
vn 0.996379 -0.042510 0.073629
vn 0.966815 -0.221250 0.127739
vn 0.996379 -0.073629 0.042510
vn 0.966815 -0.255478 0.000000
vn 0.996379 -0.085019 -0.000000
vn 0.966815 -0.221250 -0.127739
vn 0.996379 -0.073629 -0.042510
vn 0.966815 -0.127739 -0.221250
vn 0.996379 -0.042509 -0.073628
vn 0.966815 0.000000 -0.255478
vn 0.996379 0.000000 -0.085018
s 1
g polySurface5
usemtl lambert7SG
f 1/13/1 2/14/2 121/164/3 122/165/4
f 2/14/2 3/15/5 120/163/6 121/164/3
f 3/15/5 4/16/7 119/162/8 120/163/6
f 4/16/7 5/17/9 118/161/10 119/162/8
f 5/17/9 6/18/11 117/160/12 118/161/10
f 6/18/11 7/19/13 116/159/14 117/160/12
f 7/19/13 8/20/15 115/158/16 116/159/14
f 8/20/15 9/21/17 126/169/18 115/158/16
f 9/21/17 10/22/19 125/168/20 126/169/18
f 10/22/19 11/23/21 124/167/22 125/168/20
f 11/23/21 12/24/23 123/166/24 124/167/22
f 12/173/23 1/13/1 122/165/4 123/171/24
f 90/134/25 89/135/26 91/48/27
f 92/136/28 90/134/25 91/48/27
f 93/137/29 92/136/28 91/48/27
f 94/138/30 93/137/29 91/48/27
f 95/139/31 94/138/30 91/48/27
f 96/140/32 95/139/31 91/48/27
f 97/141/33 96/140/32 91/48/27
f 98/142/34 97/141/33 91/48/27
f 99/143/35 98/142/34 91/48/27
f 100/144/36 99/143/35 91/48/27
f 101/145/37 100/144/36 91/48/27
f 89/135/26 101/145/37 91/48/27
f 102/146/38 103/147/39 104/49/40
f 103/147/39 105/148/41 104/49/40
f 105/148/41 106/149/42 104/49/40
f 106/149/42 107/150/43 104/49/40
f 107/150/43 108/151/44 104/49/40
f 108/151/44 109/152/45 104/49/40
f 109/152/45 110/153/46 104/49/40
f 110/153/46 111/154/47 104/49/40
f 111/154/47 112/155/48 104/49/40
f 112/155/48 113/156/49 104/49/40
f 113/156/49 114/157/50 104/49/40
f 114/157/50 102/146/38 104/49/40
s 4
f 35/90/51 26/91/52 27/105/53 36/98/54
f 27/105/53 63/106/55 64/100/56 36/98/54
f 28/55/57 29/56/58 38/97/59 37/89/60
f 29/56/58 30/59/61 39/96/62 38/97/59
f 30/59/61 31/61/63 40/95/64 39/96/62
f 31/61/63 32/63/65 41/94/66 40/95/64
f 32/63/65 33/65/67 42/92/68 41/94/66
f 33/65/67 25/67/69 34/68/70 42/92/68
f 45/69/71 27/51/53 26/107/52 44/99/72
f 63/103/55 27/51/53 45/69/71 62/109/73
f 29/56/58 28/55/57 46/71/74 47/72/75
f 30/59/61 29/56/58 47/72/75 48/73/76
f 31/61/63 30/59/61 48/73/76 49/74/77
f 32/63/65 31/61/63 49/74/77 50/75/78
f 33/65/67 32/63/65 50/75/78 51/76/79
f 25/67/69 33/65/67 51/76/79 43/77/80
f 53/78/81 35/50/51 36/52/54 54/79/82
f 36/52/54 64/101/56 61/80/83 54/79/82
f 37/58/60 38/57/59 56/81/84 55/82/85
f 38/57/59 39/60/62 57/83/86 56/81/84
f 39/60/62 40/62/64 58/84/87 57/83/86
f 40/62/64 41/64/66 59/85/88 58/84/87
f 41/64/66 42/66/68 60/86/89 59/85/88
f 42/66/68 34/93/70 52/87/90 60/86/89
f 45/69/71 44/99/72 53/78/81 54/79/82
f 62/104/73 45/69/71 54/79/82 61/108/83
f 47/72/75 46/71/74 55/82/85 56/81/84
f 48/73/76 47/72/75 56/81/84 57/83/86
f 49/74/77 48/73/76 57/83/86 58/84/87
f 50/75/78 49/74/77 58/84/87 59/85/88
f 51/76/79 50/75/78 59/85/88 60/86/89
f 52/87/90 43/77/80 51/76/79 60/86/89
f 53/78/81 44/99/72 26/91/52 35/90/51
f 46/71/74 62/70/73 61/102/83 55/82/85
f 28/55/57 63/53/55 62/70/73 46/71/74
f 64/88/56 63/53/55 28/55/57 37/89/60
f 61/102/83 64/54/56 37/58/60 55/82/85
s 1
f 2/2/2 1/1/1 65/111/91 66/110/92
f 3/3/5 2/2/2 66/110/92 67/112/93
f 4/4/7 3/3/5 67/112/93 68/113/94
f 5/5/9 4/4/7 68/113/94 69/114/95
f 6/6/11 5/5/9 69/114/95 70/115/96
f 7/7/13 6/6/11 70/115/96 71/116/97
f 8/8/15 7/7/13 71/116/97 72/117/98
f 9/9/17 8/8/15 72/117/98 73/118/99
f 10/10/19 9/9/17 73/118/99 74/119/100
f 11/11/21 10/10/19 74/119/100 75/120/101
f 12/12/23 11/11/21 75/120/101 76/121/102
f 1/1/1 12/12/23 76/121/102 65/111/91
f 13/46/103 14/45/104 78/123/105 77/122/106
f 14/45/104 15/44/107 79/124/108 78/123/105
f 15/44/107 16/43/109 80/125/110 79/124/108
f 16/43/109 17/42/111 81/126/112 80/125/110
f 17/42/111 18/41/113 82/127/114 81/126/112
f 18/41/113 19/40/115 83/128/116 82/127/114
f 19/40/115 20/39/117 84/129/118 83/128/116
f 20/39/117 21/38/119 85/130/120 84/129/118
f 21/38/119 22/37/121 86/131/122 85/130/120
f 22/37/121 23/36/123 87/132/124 86/131/122
f 23/36/123 24/47/125 88/133/126 87/132/124
f 24/47/125 13/46/103 77/122/106 88/133/126
f 66/110/92 65/111/91 89/135/26 90/134/25
f 67/112/93 66/110/92 90/134/25 92/136/28
f 68/113/94 67/112/93 92/136/28 93/137/29
f 69/114/95 68/113/94 93/137/29 94/138/30
f 70/115/96 69/114/95 94/138/30 95/139/31
f 71/116/97 70/115/96 95/139/31 96/140/32
f 72/117/98 71/116/97 96/140/32 97/141/33
f 73/118/99 72/117/98 97/141/33 98/142/34
f 74/119/100 73/118/99 98/142/34 99/143/35
f 75/120/101 74/119/100 99/143/35 100/144/36
f 76/121/102 75/120/101 100/144/36 101/145/37
f 65/111/91 76/121/102 101/145/37 89/135/26
f 77/122/106 78/123/105 103/147/39 102/146/38
f 78/123/105 79/124/108 105/148/41 103/147/39
f 79/124/108 80/125/110 106/149/42 105/148/41
f 80/125/110 81/126/112 107/150/43 106/149/42
f 81/126/112 82/127/114 108/151/44 107/150/43
f 82/127/114 83/128/116 109/152/45 108/151/44
f 83/128/116 84/129/118 110/153/46 109/152/45
f 84/129/118 85/130/120 111/154/47 110/153/46
f 85/130/120 86/131/122 112/155/48 111/154/47
f 86/131/122 87/132/124 113/156/49 112/155/48
f 87/132/124 88/133/126 114/157/50 113/156/49
f 88/133/126 77/122/106 102/146/38 114/157/50
f 116/159/14 115/158/16 20/32/117 19/31/115
f 117/160/12 116/159/14 19/31/115 18/30/113
f 118/161/10 117/160/12 18/30/113 17/29/111
f 119/162/8 118/161/10 17/29/111 16/28/109
f 120/163/6 119/162/8 16/28/109 15/27/107
f 121/164/3 120/163/6 15/27/107 14/26/104
f 122/165/4 121/164/3 14/26/104 13/25/103
f 123/171/24 122/165/4 13/25/103 24/172/125
f 124/167/22 123/166/24 24/35/125 23/34/123
f 125/168/20 124/167/22 23/34/123 22/33/121
f 126/169/18 125/168/20 22/33/121 21/170/119
f 115/158/16 126/169/18 21/170/119 20/32/117
