# Blender v2.70 (sub 0) OBJ File: 'randoms1.blend'
# www.blender.org
mtllib r_triceps.mtl
o tyunri_v7:hand.001
v -0.201921 0.094637 0.000000
v -0.201921 0.065959 0.000000
v -0.201921 0.081958 -0.047318
v -0.201921 0.057122 -0.032979
v -0.201921 0.047319 -0.081958
v -0.201921 0.032980 -0.057122
v -0.201921 0.000000 -0.094637
v -0.201921 0.000000 -0.065959
v -0.201921 -0.047319 -0.081958
v -0.201921 -0.032980 -0.057122
v -0.201921 -0.081958 -0.047318
v -0.201921 -0.057122 -0.032979
v -0.201921 -0.094637 0.000000
v -0.201921 -0.065959 0.000000
v -0.201921 -0.081958 0.047319
v -0.201921 -0.057123 0.032980
v -0.201921 -0.047319 0.081959
v -0.201921 -0.032980 0.057123
v -0.201921 -0.000000 0.094638
v -0.201921 -0.000000 0.065960
v -0.201921 0.047319 0.081959
v -0.201921 0.032980 0.057123
v -0.201921 0.081958 0.047319
v -0.201921 0.057122 0.032980
v -0.199815 0.070379 -0.040650
v -0.198845 -0.070385 -0.040650
v -0.200313 -0.000002 0.081250
v -0.197959 -0.000002 -0.081210
v -0.198709 -0.070377 0.040650
v -0.195747 0.070395 0.040670
v -0.167302 0.108976 0.000000
v -0.132684 0.094637 0.000000
v -0.132684 0.065959 0.000000
v -0.167302 0.051620 0.000000
v -0.167303 0.094376 -0.054488
v -0.132684 0.081958 -0.047318
v -0.132684 0.057122 -0.032980
v -0.167302 0.044705 -0.025810
v -0.167303 0.054488 -0.094376
v -0.132684 0.047319 -0.081958
v -0.132684 0.032980 -0.057122
v -0.167302 0.025810 -0.044704
v -0.167303 0.000000 -0.108976
v -0.132684 0.000000 -0.094637
v -0.132684 0.000000 -0.065959
v -0.167302 0.000000 -0.051620
v -0.167303 -0.054488 -0.094376
v -0.132684 -0.047319 -0.081958
v -0.132684 -0.032980 -0.057122
v -0.167302 -0.025810 -0.044704
v -0.167303 -0.094376 -0.054488
v -0.132684 -0.081958 -0.047319
v -0.132684 -0.057122 -0.032980
v -0.167302 -0.044705 -0.025810
v -0.167302 -0.108976 0.000000
v -0.132684 -0.094637 0.000000
v -0.132684 -0.065959 0.000000
v -0.167302 -0.051620 0.000000
v -0.167302 -0.094376 0.054488
v -0.132684 -0.081958 0.047319
v -0.132684 -0.057123 0.032980
v -0.167302 -0.044705 0.025810
v -0.167302 -0.054488 0.094377
v -0.132684 -0.047319 0.081959
v -0.132684 -0.032980 0.057123
v -0.167302 -0.025810 0.044705
v -0.167302 -0.000000 0.108977
v -0.132684 -0.000000 0.094638
v -0.132684 -0.000000 0.065960
v -0.167302 -0.000000 0.051621
v -0.167302 0.054488 0.094377
v -0.132684 0.047319 0.081959
v -0.132684 0.032980 0.057123
v -0.167302 0.025810 0.044705
v -0.167302 0.094376 0.054488
v -0.132684 0.081958 0.047319
v -0.132684 0.057122 0.032980
v -0.167302 0.044705 0.025810
v -0.167303 0.055212 -0.067150
v -0.134789 0.070379 -0.040650
v -0.167303 0.164840 -0.095210
v -0.167302 0.085740 -0.014270
v -0.135759 -0.070385 -0.040650
v -0.167303 -0.164849 -0.095230
v -0.167302 -0.085453 -0.014770
v -0.167303 -0.055507 -0.066650
v -0.134291 -0.000002 0.081250
v -0.167302 0.031940 0.081370
v -0.167302 -0.000004 0.190290
v -0.167302 -0.031943 0.081370
v -0.136646 -0.000002 -0.081210
v -0.167303 -0.028853 -0.081350
v -0.167303 -0.000004 -0.190290
v -0.167303 0.028850 -0.081350
v -0.167302 -0.054595 0.068210
v -0.167302 -0.164844 0.095210
v -0.135895 -0.070377 0.040650
v -0.167302 -0.086360 0.013190
v -0.138857 0.070395 0.040670
v -0.167302 0.164849 0.095230
v -0.167302 0.083919 0.017450
v -0.167302 0.057041 0.063990
vt 0.702264 0.346875
vt 0.658419 0.510507
vt 0.635425 0.497231
vt 0.675712 0.346875
vt 0.535605 0.439601
vt 0.560451 0.346875
vt 0.509251 0.424385
vt 0.530020 0.346875
vt 0.538632 0.630294
vt 0.525356 0.607300
vt 0.467725 0.507480
vt 0.452510 0.481126
vt 0.375000 0.674139
vt 0.375000 0.647587
vt 0.375000 0.532326
vt 0.375000 0.501895
vt 0.211368 0.630294
vt 0.224644 0.607300
vt 0.282275 0.507480
vt 0.297490 0.481126
vt 0.091581 0.510507
vt 0.114575 0.497231
vt 0.214395 0.439601
vt 0.240749 0.424385
vt 0.047736 0.346875
vt 0.074288 0.346875
vt 0.189549 0.346875
vt 0.219980 0.346875
vt 0.091581 0.183243
vt 0.114575 0.196519
vt 0.214395 0.254150
vt 0.240749 0.269365
vt 0.211368 0.063456
vt 0.224644 0.086450
vt 0.282275 0.186270
vt 0.297490 0.212624
vt 0.375000 0.019611
vt 0.375000 0.046163
vt 0.375000 0.161424
vt 0.375000 0.191855
vt 0.538632 0.063456
vt 0.525356 0.086450
vt 0.467725 0.186270
vt 0.452510 0.212624
vt 0.658419 0.183243
vt 0.635425 0.196519
vt 0.535605 0.254150
vt 0.509251 0.269365
vt 0.189085 0.704190
vt 0.189085 0.990033
vt 0.108687 0.704190
vt 0.536390 0.990033
vt 0.536422 0.704190
vt 0.460173 0.990033
vt 0.424934 0.704190
vt 0.424934 0.990033
vt 0.343182 0.704190
vt 0.506893 0.704190
vt 0.269279 0.704191
vt 0.657296 0.704190
vt 0.657290 0.990033
vt 0.754178 0.704190
vt 0.560414 0.704190
vt 0.307232 0.990033
vt 0.307226 0.704190
vt 0.219722 0.990033
vt 0.394742 0.990033
vt 0.082082 0.990033
vt 0.082082 0.704190
vt 0.009650 0.990033
vt 0.154208 0.990033
vt 0.612930 0.990033
vn -0.371462 0.896812 -0.240299
vn -1.000000 -0.000001 0.000002
vn -0.371462 -0.896812 0.240301
vn -0.371463 0.656512 -0.656511
vn -1.000000 -0.000000 0.000002
vn -0.371461 -0.656512 0.656512
vn -0.371464 0.240300 -0.896811
vn -1.000000 0.000001 0.000002
vn -0.371461 -0.240301 0.896812
vn -0.371464 -0.240300 -0.896812
vn -1.000000 -0.000000 0.000001
vn -0.371461 0.240300 0.896813
vn -0.371463 -0.656512 -0.656512
vn -0.371461 0.656512 0.656513
vn -0.371463 -0.896812 -0.240300
vn -0.371462 0.896812 0.240301
vn -0.371462 -0.896812 0.240300
vn -0.371461 -0.240300 0.896812
vn -0.371461 0.240300 0.896812
vn -0.371464 -0.240300 -0.896811
vn 0.371462 0.896812 -0.240300
vn 1.000000 0.000000 -0.000001
vn 0.371463 -0.896812 0.240299
vn 0.371461 0.656512 -0.656512
vn 1.000000 0.000000 -0.000002
vn 0.371463 -0.656512 0.656511
vn 0.371461 0.240300 -0.896812
vn 1.000000 -0.000001 -0.000002
vn 0.371464 -0.240300 0.896811
vn 0.371461 -0.240300 -0.896813
vn 1.000000 0.000001 -0.000001
vn 0.371464 0.240300 0.896811
vn 0.371461 -0.656512 -0.656513
vn 0.371463 0.656512 0.656512
vn 0.371462 -0.896812 -0.240301
vn 0.371463 0.896812 0.240300
vn 1.000000 0.000001 -0.000002
vn 0.371461 -0.240300 -0.896812
vn -0.960654 -0.240662 -0.138658
vn 0.000000 -0.865871 -0.500229
vn 0.000001 -0.711797 0.702385
vn -0.967640 0.218536 0.126155
vn 0.000000 0.865902 0.500168
vn -0.000001 0.692933 -0.721002
vn -0.958339 0.247435 -0.142695
vn 0.000000 0.865932 -0.500107
vn -0.000001 -0.247964 -0.968769
vn 0.000001 0.715187 0.698933
vn -0.000002 0.252884 -0.967497
vn -0.957101 0.000006 0.289756
vn 0.000000 0.000000 0.999969
vn 0.000000 0.959583 0.281425
vn 0.000000 -0.959593 0.281391
vn -0.962701 0.000005 -0.270567
vn 0.000000 0.000000 -1.000000
vn 0.000000 -0.966677 -0.255999
vn 0.000000 0.966668 -0.256033
vn -0.960968 -0.239578 0.138359
vn 0.000000 -0.865932 0.500137
vn 0.000001 0.237871 0.971297
vn -0.000001 -0.722509 -0.691361
vn 0.000002 -0.278326 0.960487
vn 0.960653 -0.240662 -0.138661
vn 0.967640 0.218535 0.126152
vn 0.958339 0.247434 -0.142698
vn 0.957101 0.000006 0.289753
vn 0.962700 0.000005 -0.270569
vn 0.960968 -0.239578 0.138355
usemtl None
s off
f 31/1/1 35/2/1 3/3/1 1/4/1
f 1/4/2 3/3/2 4/5/2 2/6/2
f 2/6/3 4/5/3 38/7/3 34/8/3
f 35/2/4 39/9/4 5/10/4 3/3/4
f 3/3/5 5/10/5 6/11/5 4/5/5
f 4/5/6 6/11/6 42/12/6 38/7/6
f 39/9/7 43/13/7 7/14/7 5/10/7
f 5/10/8 7/14/8 8/15/8 6/11/8
f 6/11/9 8/15/9 46/16/9 42/12/9
f 43/13/10 47/17/10 9/18/10 7/14/10
f 7/14/11 9/18/11 10/19/11 8/15/11
f 8/15/12 10/19/12 50/20/12 46/16/12
f 47/17/13 51/21/13 11/22/13 9/18/13
f 9/18/5 11/22/5 12/23/5 10/19/5
f 10/19/14 12/23/14 54/24/14 50/20/14
f 51/21/15 55/25/15 13/26/15 11/22/15
f 11/22/8 13/26/8 14/27/8 12/23/8
f 12/23/16 14/27/16 58/28/16 54/24/16
f 55/25/17 59/29/17 15/30/17 13/26/17
f 13/26/2 15/30/2 16/31/2 14/27/2
f 14/27/1 16/31/1 62/32/1 58/28/1
f 59/29/6 63/33/6 17/34/6 15/30/6
f 15/30/5 17/34/5 18/35/5 16/31/5
f 16/31/4 18/35/4 66/36/4 62/32/4
f 63/33/18 67/37/18 19/38/18 17/34/18
f 17/34/5 19/38/5 20/39/5 18/35/5
f 18/35/7 20/39/7 70/40/7 66/36/7
f 67/37/19 71/41/19 21/42/19 19/38/19
f 19/38/11 21/42/11 22/43/11 20/39/11
f 20/39/20 22/43/20 74/44/20 70/40/20
f 71/41/14 75/45/14 23/46/14 21/42/14
f 21/42/11 23/46/11 24/47/11 22/43/11
f 22/43/13 24/47/13 78/48/13 74/44/13
f 75/45/16 31/1/16 1/4/16 23/46/16
f 23/46/11 1/4/11 2/6/11 24/47/11
f 24/47/15 2/6/15 34/8/15 78/48/15
f 31/1/21 32/4/21 36/3/21 35/2/21
f 32/4/22 33/6/22 37/5/22 36/3/22
f 33/6/23 34/8/23 38/7/23 37/5/23
f 35/2/24 36/3/24 40/10/24 39/9/24
f 36/3/25 37/5/25 41/11/25 40/10/25
f 37/5/26 38/7/26 42/12/26 41/11/26
f 39/9/27 40/10/27 44/14/27 43/13/27
f 40/10/28 41/11/28 45/15/28 44/14/28
f 41/11/29 42/12/29 46/16/29 45/15/29
f 43/13/30 44/14/30 48/18/30 47/17/30
f 44/14/31 45/15/31 49/19/31 48/18/31
f 45/15/32 46/16/32 50/20/32 49/19/32
f 47/17/33 48/18/33 52/22/33 51/21/33
f 48/18/25 49/19/25 53/23/25 52/22/25
f 49/19/34 50/20/34 54/24/34 53/23/34
f 51/21/35 52/22/35 56/26/35 55/25/35
f 52/22/25 53/23/25 57/27/25 56/26/25
f 53/23/36 54/24/36 58/28/36 57/27/36
f 55/25/23 56/26/23 60/30/23 59/29/23
f 56/26/37 57/27/37 61/31/37 60/30/37
f 57/27/21 58/28/21 62/32/21 61/31/21
f 59/29/26 60/30/26 64/34/26 63/33/26
f 60/30/25 61/31/25 65/35/25 64/34/25
f 61/31/24 62/32/24 66/36/24 65/35/24
f 63/33/29 64/34/29 68/38/29 67/37/29
f 64/34/37 65/35/37 69/39/37 68/38/37
f 65/35/27 66/36/27 70/40/27 69/39/27
f 67/37/32 68/38/32 72/42/32 71/41/32
f 68/38/22 69/39/22 73/43/22 72/42/22
f 69/39/38 70/40/38 74/44/38 73/43/38
f 71/41/34 72/42/34 76/46/34 75/45/34
f 72/42/22 73/43/22 77/47/22 76/46/22
f 73/43/33 74/44/33 78/48/33 77/47/33
f 75/45/36 76/46/36 32/4/36 31/1/36
f 76/46/25 77/47/25 33/6/25 32/4/25
f 77/47/35 78/48/35 34/8/35 33/6/35
s 1
f 26/49/39 84/50/40 85/51/41
f 30/52/42 100/53/43 101/54/44
f 25/55/45 81/56/46 79/57/47
f 25/55/45 82/58/48 81/56/46
f 26/49/39 86/59/49 84/50/40
f 27/60/50 89/61/51 88/62/52
f 27/60/50 90/63/53 89/61/51
f 28/64/54 93/65/55 92/66/56
f 28/64/54 94/67/57 93/65/55
f 29/68/58 96/69/59 95/70/60
f 29/68/58 98/71/61 96/69/59
f 30/52/42 102/72/62 100/53/43
f 83/49/63 85/51/41 84/50/40
f 99/52/64 101/54/44 100/53/43
f 80/55/65 79/57/47 81/56/46
f 80/55/65 81/56/46 82/58/48
f 83/49/63 84/50/40 86/59/49
f 87/60/66 88/62/52 89/61/51
f 87/60/66 89/61/51 90/63/53
f 91/64/67 92/66/56 93/65/55
f 91/64/67 93/65/55 94/67/57
f 97/68/68 95/70/60 96/69/59
f 97/68/68 96/69/59 98/71/61
f 99/52/64 100/53/43 102/72/62
