# Blender v2.74 (sub 0) OBJ File: ''
# www.blender.org
mtllib boxhandR.mtl
o Cube
v -0.120000 0.120000 0.120000
v 0.120000 0.120000 0.120000
v 0.120000 0.120000 -0.120000
v -0.120000 0.120000 -0.120000
v -0.120000 -0.120000 0.120000
v 0.120000 -0.120000 0.120000
v 0.120000 -0.120000 -0.120000
v -0.120000 -0.120000 -0.120000
v 0.143919 -0.144805 0.120000
v 0.143919 -0.144805 -0.120000
v 0.144805 0.120000 0.143919
v 0.144805 -0.120000 0.143919
v 0.143033 0.120000 -0.143919
v 0.143033 -0.120000 -0.143919
v 0.143033 0.143033 0.120000
v 0.143033 0.143033 -0.120000
v 0.147456 -0.140672 0.116564
v 0.147456 -0.140672 -0.116564
v 0.148317 0.116552 0.139798
v 0.148317 -0.116577 0.139798
v 0.146596 0.116552 -0.139798
v 0.146596 -0.116577 -0.139798
v 0.146596 0.138925 0.116564
v 0.146596 0.138925 -0.116564
v 0.123384 -0.118878 0.116045
v 0.123383 -0.118878 -0.116045
v 0.124110 0.117273 0.118072
v 0.124110 -0.117432 0.118072
v 0.122657 0.117273 -0.118072
v 0.122657 -0.117432 -0.118072
v 0.122657 0.117266 0.116045
v 0.122657 0.117266 -0.116045
v 0.122435 -0.115611 0.112844
v 0.122435 -0.115611 -0.112844
v 0.123142 0.114025 0.114815
v 0.123142 -0.114205 0.114815
v 0.121728 0.114025 -0.114815
v 0.121728 -0.114205 -0.114815
v 0.121728 0.114019 0.112844
v 0.121728 0.114019 -0.112844
v -0.115471 -0.115611 0.112844
v -0.115471 -0.115611 -0.112844
v -0.114764 0.114025 0.114815
v -0.114764 -0.114205 0.114815
v -0.116178 0.114025 -0.114815
v -0.116178 -0.114205 -0.114815
v -0.116178 0.114019 0.112844
v -0.116178 0.114019 -0.112844
v -0.120000 0.120000 0.000000
v 0.120000 0.159080 -0.000000
v 0.132888 0.184959 -0.000000
v 0.136451 0.183008 -0.000000
v 0.122657 0.156345 -0.000000
v 0.121728 0.153098 -0.000000
v -0.116178 0.114019 -0.000000
v -0.120000 0.120000 -0.060000
v 0.120000 0.139706 -0.060000
v 0.143033 0.162739 -0.060000
v 0.146596 0.158631 -0.058282
v 0.122657 0.136972 -0.058023
v 0.121728 0.133725 -0.056422
v -0.116178 0.114019 -0.056422
v -0.120000 0.120000 0.060000
v 0.120000 0.139706 0.060000
v 0.143033 0.162739 0.060000
v 0.146596 0.158631 0.058282
v 0.122657 0.136972 0.058023
v 0.121728 0.133725 0.056422
v -0.116178 0.114019 0.056422
v -0.120000 0.120000 0.030000
v 0.120000 0.155902 0.030000
v 0.137961 0.180358 0.030000
v 0.141523 0.177329 0.029141
v 0.122657 0.153168 0.029011
v 0.121728 0.149921 0.028211
v -0.116178 0.114019 0.028211
v -0.120000 0.120000 -0.030000
v 0.120000 0.155902 -0.030000
v 0.137961 0.180358 -0.030000
v 0.141523 0.177329 -0.029141
v 0.122657 0.153168 -0.029011
v 0.121728 0.149921 -0.028211
v -0.116178 0.114019 -0.028211
v 0.148231 0.187652 -0.060000
v 0.148231 0.167946 -0.120000
v 0.151793 0.183545 -0.058282
v 0.151793 0.163838 -0.116564
v 0.148231 0.167946 0.120000
v 0.151793 0.163838 0.116564
v 0.143158 0.205272 0.030000
v 0.138086 0.209873 -0.000000
v 0.146721 0.202242 0.029141
v 0.141649 0.207921 -0.000000
v 0.143158 0.205272 -0.030000
v 0.146721 0.202242 -0.029141
v 0.148231 0.187652 0.060000
v 0.151793 0.183545 0.058282
v 0.159983 0.120000 0.163237
v 0.159983 -0.120000 0.163237
v 0.163495 0.116552 0.159116
v 0.163495 -0.116577 0.159116
v 0.161157 0.120000 -0.159590
v 0.161157 -0.120000 -0.159590
v 0.164720 0.116552 -0.155469
v 0.164720 -0.116577 -0.155469
v 0.160515 -0.159009 0.120000
v 0.160515 -0.159009 -0.120000
v 0.164053 -0.154876 0.116564
v 0.164053 -0.154876 -0.116564
vt 0.930243 0.060703
vt 0.930243 0.030947
vt 0.936874 0.031239
vt 0.936874 0.060994
vt 0.882968 0.027460
vt 0.909873 0.027282
vt 0.909873 0.057612
vt 0.882968 0.057790
vt 0.936874 0.057698
vt 0.936874 0.027282
vt 0.956300 0.027282
vt 0.956300 0.057698
vt 0.954334 0.090739
vt 0.954334 0.121156
vt 0.935615 0.121156
vt 0.935615 0.090739
vt 0.035271 0.964729
vt 0.035271 0.152458
vt 0.238339 0.152458
vt 0.339872 0.152458
vt 0.441406 0.152458
vt 0.542940 0.152458
vt 0.644474 0.152458
vt 0.847541 0.152458
vt 0.847542 0.964729
vt 0.909656 0.060399
vt 0.882751 0.060577
vt 0.960175 0.027282
vt 0.960175 0.057698
vt 0.958068 0.090739
vt 0.958068 0.121156
vt 0.916982 0.030365
vt 0.910351 0.030074
vt 0.909873 0.027813
vt 0.916504 0.028104
vt 0.902008 0.095910
vt 0.902626 0.095981
vt 0.908699 0.095874
vt 0.909345 0.095841
vt 0.934795 0.091409
vt 0.934083 0.091533
vt 0.930990 0.098902
vt 0.930990 0.091538
vt 0.933858 0.091409
vt 0.933858 0.098740
vt 0.960779 0.061102
vt 0.960780 0.090648
vt 0.957237 0.090739
vt 0.957237 0.060994
vt 0.964411 0.027367
vt 0.964411 0.056911
vt 0.960800 0.057026
vt 0.960800 0.027282
vt 0.960780 0.090053
vt 0.960780 0.060994
vt 0.963942 0.061431
vt 0.963942 0.090360
vt 0.934795 0.095065
vt 0.934230 0.094843
vt 0.903236 0.096030
vt 0.902870 0.091938
vt 0.903236 0.091846
vt 0.908750 0.091507
vt 0.909253 0.091720
vt 0.935486 0.091426
vt 0.935430 0.095548
vt 0.934892 0.095773
vt 0.905345 0.095207
vt 0.904727 0.095207
vt 0.904649 0.091991
vt 0.905353 0.091846
vt 0.904649 0.095312
vt 0.903937 0.095200
vt 0.904034 0.091870
vt 0.904649 0.091846
vt 0.902094 0.091863
vt 0.902464 0.092021
vt 0.902626 0.091846
vt 0.935486 0.095858
vt 0.903937 0.095434
vt 0.903236 0.095270
vt 0.903366 0.092038
vt 0.903937 0.091846
vt 0.909345 0.091477
vt 0.934340 0.095135
vt 0.933965 0.095352
vt 0.933858 0.095069
vt 0.960572 0.057208
vt 0.960225 0.056793
vt 0.960447 0.056615
vt 0.960520 0.027283
vt 0.960447 0.027692
vt 0.960175 0.027693
vt 0.957050 0.090738
vt 0.956695 0.090327
vt 0.956877 0.090328
vt 0.940974 0.090739
vt 0.935851 0.090328
vt 0.941062 0.090328
vt 0.956876 0.061403
vt 0.909713 0.061061
vt 0.909713 0.085219
vt 0.909345 0.084818
vt 0.909345 0.061325
vt 0.882939 0.090690
vt 0.882751 0.090557
vt 0.882751 0.061061
vt 0.882939 0.061194
vt 0.908127 0.091846
vt 0.907880 0.091785
vt 0.907880 0.062289
vt 0.908127 0.062350
vt 0.910094 0.091228
vt 0.909873 0.091409
vt 0.909873 0.061343
vt 0.910094 0.061163
vt 0.935615 0.091059
vt 0.935394 0.091061
vt 0.935394 0.060996
vt 0.935615 0.060994
vt 0.916419 0.091187
vt 0.916419 0.061121
vt 0.902008 0.091846
vt 0.902008 0.120771
vt 0.882751 0.120771
vt 0.882751 0.091846
vt 0.976624 0.090739
vt 0.976624 0.119664
vt 0.958068 0.119664
vt 0.930853 0.091409
vt 0.930990 0.091587
vt 0.930990 0.120511
vt 0.930808 0.120511
vt 0.925597 0.120511
vt 0.922992 0.120511
vt 0.920386 0.120511
vt 0.917781 0.120511
vt 0.915175 0.120511
vt 0.909964 0.120511
vt 0.909873 0.120511
vt 0.909873 0.091587
vt 0.910010 0.091409
vt 0.925907 0.091124
vt 0.922744 0.091145
vt 0.922744 0.061079
vt 0.925907 0.061058
vt 0.949012 0.090739
vt 0.946333 0.090739
vt 0.946273 0.090327
vt 0.948879 0.090327
vt 0.930990 0.109948
vt 0.930990 0.106266
vt 0.933858 0.106071
vt 0.933858 0.109737
vt 0.926928 0.030802
vt 0.923612 0.030656
vt 0.923134 0.028395
vt 0.926449 0.028541
vt 0.920297 0.060266
vt 0.920297 0.030511
vt 0.923612 0.060412
vt 0.910351 0.059830
vt 0.916982 0.060121
vt 0.929765 0.028686
vt 0.936395 0.028977
vt 0.919819 0.028250
vt 0.930990 0.120994
vt 0.930990 0.113630
vt 0.933858 0.113402
vt 0.933858 0.120734
vt 0.951692 0.090739
vt 0.951484 0.090327
vt 0.929069 0.091103
vt 0.929069 0.061037
vt 0.919581 0.091166
vt 0.919581 0.061100
vt 0.943653 0.090739
vt 0.943668 0.090327
vt 0.930990 0.102584
vt 0.933858 0.102405
vt 0.926928 0.060558
vt 0.910338 0.027282
vt 0.916779 0.027565
vt 0.923219 0.027848
vt 0.926440 0.027989
vt 0.929660 0.028130
vt 0.936101 0.028413
vt 0.919999 0.027706
vt 0.909345 0.061061
vt 0.908740 0.091043
vt 0.908740 0.061498
vt 0.908127 0.091475
vt 0.908127 0.061061
vt 0.909307 0.060887
vt 0.883172 0.061061
vn -0.040500 0.986000 -0.161900
vn 0.000000 -1.000000 0.000000
vn 0.000000 0.000000 1.000000
vn -0.000000 0.000000 -1.000000
vn -1.000000 -0.000000 0.000000
vn -0.719800 -0.694100 0.000000
vn -0.694100 -0.000000 0.719800
vn -0.720300 0.000000 -0.693600
vn -0.688800 0.688800 0.226200
vn -0.976700 0.203800 0.066900
vn 0.349800 0.844900 0.404600
vn 0.426200 -0.840400 -0.334900
vn 0.347200 0.405700 -0.845500
vn 0.653000 -0.717300 -0.243100
vn 0.672100 -0.000000 0.740500
vn 0.668000 0.000000 -0.744200
vn 0.671100 0.741300 -0.000000
vn 0.450400 0.472300 -0.757700
vn 0.403700 -0.822800 0.400000
vn 0.367400 -0.849600 -0.378500
vn 0.374100 0.842100 -0.388400
vn 0.425800 -0.456600 0.781100
vn 0.425800 -0.456600 -0.781100
vn 0.410600 0.814700 0.409600
vn 0.715500 0.698700 0.002500
vn 0.422500 0.853100 -0.306100
vn 0.450400 0.472300 0.757700
vn 0.603900 -0.735100 0.308100
vn 0.754100 -0.375700 -0.538600
vn 0.932300 0.352000 -0.083100
vn 0.948200 -0.034100 -0.315700
vn 0.768000 0.324700 -0.552000
vn 0.961200 -0.275700 -0.001000
vn 0.972200 -0.221500 -0.076300
vn 0.961700 -0.000000 0.274100
vn 0.958500 0.000000 -0.285000
vn 0.960400 0.278700 -0.000000
vn 0.000000 0.813900 0.581000
vn -0.000000 0.813900 -0.581000
vn 0.000000 -1.000000 0.003500
vn -0.000000 -1.000000 -0.003500
vn 0.040800 -0.984300 -0.171900
vn -0.000000 1.000000 -0.000000
vn 1.000000 0.003100 -0.006100
vn 0.155400 -0.986300 0.055500
vn 0.962000 -0.271300 0.030100
vn 0.831400 -0.533900 0.153800
vn 0.976600 -0.203800 -0.068900
vn -0.844400 0.517500 -0.138500
vn -0.154100 0.986700 0.052300
vn -0.040500 0.986000 0.161900
vn -0.688800 0.688800 -0.226200
vn -0.941300 0.196400 0.274500
vn 0.653000 -0.717300 0.243100
vn 0.972200 -0.221500 0.076300
vn 0.040800 -0.984300 0.171900
vn 0.111600 -0.955200 -0.274200
vn 0.965000 -0.228100 -0.129100
vn 0.662600 -0.615300 -0.427000
vn 0.937300 -0.195500 -0.288600
vn -0.694800 0.599800 0.396800
vn -0.111200 0.959500 -0.259000
vn -0.154100 0.986700 -0.052300
vn -0.844400 0.517500 0.138500
vn -0.960500 0.200400 -0.193100
vn 0.831400 -0.533900 -0.153800
vn 0.962000 -0.271300 -0.030100
vn 0.155400 -0.986300 -0.055500
vn -0.111200 0.959500 0.259000
vn -0.694800 0.599800 -0.396800
vn 0.958000 -0.199900 0.205700
vn 0.662600 -0.615300 0.427000
vn 0.965000 -0.228100 0.129100
vn 0.111600 -0.955200 0.274200
vn 0.797600 0.572200 0.190700
vn 0.575900 0.816400 -0.043100
vn 0.797600 0.572200 -0.190700
vn 0.728600 0.632300 0.263300
vn 0.575900 0.816400 0.043100
vn 0.728600 0.632300 -0.263300
vn 0.937300 -0.195500 0.288600
vn -0.941300 0.196400 -0.274500
vn 0.958000 -0.199900 -0.205700
vn -0.960500 0.200400 0.193100
vn 0.608800 -0.127000 0.783100
vn 0.608800 -0.127000 -0.783100
vn 0.976600 -0.203800 0.068900
vn -0.976700 0.203800 -0.066900
vn 0.761100 0.000000 0.648700
vn 0.428400 0.838500 -0.336600
vn 0.786300 0.000000 -0.617800
vn -0.786300 -0.000000 0.617800
vn 0.756400 -0.000000 -0.654100
vn 0.348000 -0.846700 0.402500
vn 0.654100 -0.000000 0.756400
vn -0.654100 0.000000 -0.756400
vn 0.759700 -0.650200 -0.000000
vn 0.347200 0.405700 0.845500
vn 0.650200 0.759700 -0.000000
vn -0.650200 -0.759700 0.000000
usemtl Material.001
s off
f 56/1/1 57/2/1 3/3/1 4/4/1
f 5/5/2 8/6/2 7/7/2 6/8/2
f 1/9/3 5/10/3 6/11/3 2/12/3
f 3/13/4 7/14/4 8/15/4 4/16/4
f 5/17/5 1/18/5 63/19/5 70/20/5 49/21/5 77/22/5 56/23/5 4/24/5 8/25/5
f 6/8/6 7/7/6 10/26/6 9/27/6
f 2/12/7 6/11/7 12/28/7 11/29/7
f 7/14/8 3/13/8 13/30/8 14/31/8
f 64/32/9 2/33/9 15/34/9 65/35/9
f 65/35/10 15/34/10 88/34/10 96/35/10
f 13/36/11 21/37/11 104/37/11 102/36/11
f 12/38/12 20/39/12 101/39/12 99/38/12
f 10/40/13 18/41/13 109/41/13 107/40/13
f 66/42/14 23/43/14 31/44/14 67/45/14
f 22/46/15 21/47/15 29/48/15 30/49/15
f 19/50/16 20/51/16 28/52/16 27/53/16
f 17/54/17 18/55/17 26/56/17 25/57/17
f 7/58/18 26/59/18 18/41/18 10/40/18
f 14/60/19 22/37/19 30/61/19 7/62/19
f 6/63/20 28/64/20 20/39/20 12/38/20
f 11/40/21 19/65/21 27/66/21 2/67/21
f 2/68/22 31/69/22 23/70/22 15/71/22
f 16/72/23 24/73/23 32/74/23 3/75/23
f 3/76/24 29/77/24 21/37/24 13/36/24
f 32/78/25 29/77/25 3/76/25
f 27/66/26 31/79/26 2/67/26
f 9/80/27 17/81/27 25/82/27 6/83/27
f 28/64/28 6/63/28 25/84/28
f 26/59/29 7/58/29 30/85/29
f 26/59/30 30/85/30 38/86/30 34/87/30
f 28/52/31 25/88/31 33/89/31 36/90/31
f 31/91/32 27/53/32 35/92/32 39/93/32
f 29/48/33 32/94/33 40/95/33 37/96/33
f 67/97/34 31/16/34 39/98/34 68/99/34
f 30/49/35 29/48/35 37/96/35 38/100/35
f 27/53/36 28/52/36 36/90/36 35/92/36
f 25/101/37 26/102/37 34/103/37 33/104/37
f 34/105/38 38/106/38 46/107/38 42/108/38
f 36/109/39 33/110/39 41/111/39 44/112/39
f 39/113/40 35/114/40 43/115/40 47/116/40
f 37/117/41 40/118/41 48/119/41 45/120/41
f 68/121/42 39/113/42 47/116/42 69/122/42
f 38/123/3 37/124/3 45/125/3 46/126/3
f 35/127/4 36/128/4 44/129/4 43/30/4
f 33/110/43 34/105/43 42/108/43 41/111/43
f 42/130/44 46/131/44 45/132/44 48/133/44 62/134/44 83/135/44 55/136/44 76/137/44 69/138/44 47/139/44 43/140/44 44/141/44 41/142/44
f 82/143/45 54/144/45 55/145/45 83/146/45
f 81/147/46 53/148/46 54/149/46 82/150/46
f 80/151/47 52/152/47 53/153/47 81/154/47
f 23/43/48 66/42/48 97/42/48 89/43/48
f 78/155/49 50/156/49 51/157/49 79/158/49
f 70/159/50 71/160/50 50/156/50 49/161/50
f 1/162/51 2/33/51 64/32/51 63/163/51
f 3/3/52 57/2/52 58/164/52 16/165/52
f 72/166/53 65/35/53 96/35/53 90/166/53
f 24/167/54 59/168/54 60/169/54 32/170/54
f 32/94/55 60/171/55 61/172/55 40/95/55
f 40/118/56 61/173/56 62/174/56 48/119/56
f 75/175/57 68/121/57 69/122/57 76/176/57
f 74/177/58 67/97/58 68/99/58 75/178/58
f 73/179/59 66/42/59 67/45/59 74/180/59
f 66/42/60 73/179/60 92/179/60 97/42/60
f 71/160/61 64/32/61 65/35/61 72/166/61
f 77/181/62 78/155/62 57/2/62 56/1/62
f 49/161/63 50/156/63 78/155/63 77/181/63
f 50/156/64 71/160/64 72/166/64 51/157/64
f 79/158/65 51/157/65 91/157/65 94/158/65
f 52/152/66 73/179/66 74/180/66 53/153/66
f 53/148/67 74/177/67 75/178/67 54/149/67
f 54/144/68 75/175/68 76/176/68 55/145/68
f 63/163/69 64/32/69 71/160/69 70/159/69
f 57/2/70 78/155/70 79/158/70 58/164/70
f 52/152/71 80/151/71 95/151/71 93/152/71
f 59/168/72 80/151/72 81/154/72 60/169/72
f 60/171/73 81/147/73 82/150/73 61/172/73
f 61/173/74 82/143/74 83/146/74 62/174/74
f 96/35/75 88/34/75 89/182/75 97/183/75
f 94/158/76 91/157/76 93/184/76 95/185/76
f 85/165/77 84/164/77 86/186/77 87/187/77
f 90/166/78 96/35/78 97/183/78 92/188/78
f 91/157/79 90/166/79 92/188/79 93/184/79
f 84/164/80 94/158/80 95/185/80 86/186/80
f 80/151/81 59/168/81 86/168/81 95/151/81
f 58/164/82 79/158/82 94/158/82 84/164/82
f 73/179/83 52/152/83 93/152/83 92/179/83
f 51/157/84 72/166/84 90/166/84 91/157/84
f 15/71/85 23/70/85 89/70/85 88/71/85
f 24/73/86 16/72/86 85/72/86 87/73/86
f 59/168/87 24/167/87 87/167/87 86/168/87
f 16/165/88 58/164/88 84/164/88 85/165/88
f 98/189/89 99/84/89 101/190/89 100/191/89
f 19/65/90 11/40/90 98/40/90 100/65/90
f 20/51/91 19/50/91 100/50/91 101/51/91
f 11/29/92 12/28/92 99/28/92 98/29/92
f 103/192/93 102/193/93 104/191/93 105/190/93
f 22/37/94 14/60/94 103/60/94 105/37/94
f 21/47/95 22/46/95 105/46/95 104/47/95
f 14/31/96 13/30/96 102/30/96 103/31/96
f 106/27/97 107/26/97 109/194/97 108/195/97
f 17/81/98 9/80/98 106/80/98 108/81/98
f 18/55/99 17/54/99 108/54/99 109/55/99
f 9/27/100 10/26/100 107/26/100 106/27/100
