# This file uses centimeters as units for non-parametric coordinates.

mtllib r_triceps.mtl
g default
v -0.250890 0.023240 -0.029926
v -0.250890 0.023240 0.019350
v -0.250890 -0.017319 -0.029926
v -0.250890 -0.017319 0.019350
v 0.257442 -0.024309 -0.075350
v 0.257442 -0.024309 0.002045
v 0.257442 0.029666 -0.075350
v 0.257442 0.029666 0.002045
v 0.234484 -0.031352 0.014483
v 0.241173 -0.031352 -0.093207
v 0.241173 0.022624 -0.093207
v 0.234484 0.022624 0.014483
v 0.204639 -0.029004 0.000234
v 0.207147 -0.029004 -0.071983
v 0.207147 0.024971 -0.071983
v 0.204639 0.024971 0.000234
v -0.003118 -0.020565 0.012478
v -0.003118 -0.020565 -0.046689
v -0.003118 0.026224 -0.046689
v -0.003118 0.026224 0.012478
v -0.224684 -0.017319 0.031196
v -0.224684 -0.017319 -0.044511
v -0.224684 0.023240 -0.044511
v -0.224684 0.023240 0.031196
v -0.200253 0.023240 0.015390
v -0.200253 0.023240 -0.042014
v -0.200253 -0.017319 -0.042014
v -0.200253 -0.017319 0.015390
v 0.237553 -0.041182 -0.034926
v 0.205789 -0.038078 -0.032900
v -0.003118 -0.027119 -0.014669
v -0.200253 -0.023001 -0.010948
v -0.224684 -0.023001 -0.003539
v -0.250890 -0.023001 -0.003258
v -0.250890 0.030627 -0.003258
v -0.224684 0.030627 -0.003539
v -0.200253 0.030627 -0.010948
v -0.003118 0.034746 -0.014669
v 0.205789 0.033289 -0.032900
v 0.237553 0.030185 -0.034926
v 0.257442 0.039497 -0.033465
v 0.257442 -0.031871 -0.033465
v -0.003118 0.003847 -0.057115
v -0.200253 0.003843 -0.053143
v -0.224684 0.003843 -0.056430
v -0.259215 0.003843 -0.037227
v -0.259215 0.004979 0.005528
v -0.259215 0.003843 0.035295
v -0.224684 0.003843 0.050892
v -0.200253 0.003843 0.030081
v -0.003118 0.003847 0.026248
v 0.204639 -0.000843 0.010126
v 0.234484 -0.003190 0.028887
v 0.264409 0.003852 0.012511
v 0.264409 0.005365 -0.034243
v 0.264409 0.003852 -0.089393
v 0.241173 -0.003190 -0.112903
v 0.207147 -0.000843 -0.084959
v -0.253683 0.027834 0.023528
v -0.247048 0.026935 -0.008129
v -0.264408 -0.051363 0.023528
v -0.257773 -0.052261 -0.008129
v 0.255638 0.002702 0.071672
v 0.255638 0.002702 0.019768
v 0.262486 0.053272 0.071672
v 0.262486 0.053272 0.019768
v -0.195794 -0.050339 -0.002537
v -0.202429 -0.049441 0.034709
v -0.194527 0.008905 0.034709
v -0.187892 0.008006 -0.002537
v -0.245198 -0.063254 -0.028609
v -0.257521 -0.061585 0.045017
v -0.244325 0.035856 0.045017
v -0.232002 0.034188 -0.028609
v 0.232661 0.057192 0.019828
v 0.232235 0.057167 0.078405
v 0.228914 0.006464 0.078405
v 0.229339 0.006489 0.019828
v 0.251222 0.063996 0.014599
v 0.251032 0.064021 0.101378
v 0.241737 -0.004614 0.101378
v 0.241927 -0.004640 0.014599
v 0.036254 -0.037843 0.021842
v 0.032968 -0.038096 0.060115
v 0.035299 0.001741 0.060114
v 0.038585 0.001994 0.021842
v 0.142682 0.024307 0.023748
v 0.140944 0.024175 0.068781
v 0.138745 -0.019831 0.068781
v 0.140483 -0.019699 0.023748
v -0.076012 -0.045393 0.014176
v -0.080906 -0.044987 0.050912
v -0.076276 -0.005294 0.050912
v -0.071382 -0.005699 0.014176
v 0.240665 -0.013358 0.050870
v 0.254456 -0.006027 0.041463
v 0.264141 0.065492 0.041463
v 0.252798 0.076227 0.050870
v 0.233286 0.069434 0.044312
v 0.142534 0.035837 0.042571
v 0.037929 0.014135 0.037839
v -0.071999 0.006715 0.029531
v -0.188756 0.022481 0.013031
v -0.234561 0.054023 0.002165
v -0.247230 0.046449 0.005103
v -0.262398 -0.065556 0.005103
v -0.252200 -0.076227 0.002165
v -0.199931 -0.060035 0.013031
v -0.079078 -0.053970 0.029531
v 0.034369 -0.046697 0.037839
v 0.139344 -0.028029 0.042571
v 0.228589 -0.002273 0.044312
v -0.078598 -0.025199 0.062438
v -0.198490 -0.020355 0.046235
v -0.250942 -0.013009 0.056543
v -0.263425 -0.011291 0.024441
v -0.259199 -0.009129 0.003719
v -0.256517 -0.012227 -0.018327
v -0.238620 -0.014678 -0.037423
v -0.191855 -0.021253 -0.011351
v -0.073704 -0.025605 0.005362
v 0.037416 -0.017984 0.013029
v 0.141580 0.002239 0.014935
v 0.230995 0.031765 0.011014
v 0.246561 0.029576 0.005785
v 0.263859 0.027261 0.010954
v 0.264091 0.028975 0.041463
v 0.263859 0.027261 0.083197
v 0.246371 0.029602 0.112903
v 0.230570 0.031740 0.089930
v 0.139841 0.002107 0.080307
v 0.034130 -0.018237 0.071640
vt 0.261986 0.122491
vt 0.327692 0.138171
vt 0.287181 0.152850
vt 0.254960 0.162734
vt 0.298848 0.191746
vt 0.258639 0.199055
vt 0.268804 0.879563
vt 0.316510 0.882790
vt 0.332901 0.922397
vt 0.272858 0.930454
vt 0.402514 0.190557
vt 0.360544 0.188508
vt 0.276886 0.091689
vt 0.243913 0.087135
vt 0.329958 0.186286
vt 0.174786 0.206145
vt 0.205672 0.133277
vt 0.215800 0.163969
vt 0.207082 0.205525
vt 0.264341 0.849249
vt 0.322757 0.842633
vt 0.155675 0.902131
vt 0.160107 0.860703
vt 0.200305 0.863007
vt 0.209977 0.895421
vt 0.279251 0.979037
vt 0.327223 0.960857
vt 0.395829 0.839572
vt 0.459744 0.835392
vt 0.359679 0.843384
vt 0.265768 0.803651
vt 0.315531 0.796989
vt 0.161656 0.807401
vt 0.207507 0.807262
vt 0.400716 0.793211
vt 0.449842 0.791185
vt 0.360153 0.794131
vt 0.260934 0.510291
vt 0.300128 0.506875
vt 0.177414 0.513630
vt 0.214914 0.513439
vt 0.376109 0.502057
vt 0.415894 0.501215
vt 0.339299 0.503107
vt 0.255347 0.235474
vt 0.293990 0.231260
vt 0.174894 0.239942
vt 0.209613 0.239145
vt 0.369602 0.226771
vt 0.408923 0.225893
vt 0.332897 0.228228
vt 0.144167 0.201845
vt 0.151133 0.158680
vt 0.454116 0.226362
vt 0.142734 0.511460
vt 0.125696 0.805581
vt 0.126529 0.864208
vt 0.112972 0.899015
vt 0.722587 0.104913
vt 0.724984 0.155502
vt 0.695453 0.166901
vt 0.694904 0.102955
vt 0.732496 0.187809
vt 0.691878 0.184600
vt 0.730048 0.882002
vt 0.772324 0.900514
vt 0.679763 0.903039
vt 0.694390 0.861134
vt 0.830770 0.198581
vt 0.840662 0.167531
vt 0.701359 0.028653
vt 0.877468 0.202186
vt 0.611122 0.166548
vt 0.671574 0.157298
vt 0.661888 0.192516
vt 0.612369 0.198929
vt 0.780413 0.195261
vt 0.749433 0.851924
vt 0.707402 0.841907
vt 0.779407 0.857493
vt 0.705636 0.945146
vt 0.809131 0.865566
vt 0.855432 0.869886
vt 0.663692 0.946934
vt 0.666590 0.839763
vt 0.669924 0.860577
vt 0.649064 0.888141
vt 0.626831 0.842688
vt 0.730233 0.260304
vt 0.698211 0.258962
vt 0.772656 0.264845
vt 0.815351 0.268762
vt 0.850183 0.274018
vt 0.673351 0.262199
vt 0.632976 0.267119
vt 0.791789 0.423026
vt 0.823412 0.427370
vt 0.732914 0.415276
vt 0.762083 0.420704
vt 0.702723 0.414645
vt 0.679856 0.417607
vt 0.652150 0.421594
vt 0.821050 0.831627
vt 0.864474 0.841920
vt 0.746628 0.817327
vt 0.784775 0.821402
vt 0.698964 0.819083
vt 0.662642 0.818148
vt 0.626212 0.821884
vt 0.741713 0.699275
vt 0.706612 0.696713
vt 0.773214 0.705980
vt 0.805776 0.710806
vt 0.843619 0.712771
vt 0.680490 0.699204
vt 0.650823 0.704171
vt 0.792561 0.569888
vt 0.825304 0.572277
vt 0.734048 0.561649
vt 0.763120 0.566866
vt 0.703453 0.560379
vt 0.680097 0.563036
vt 0.652671 0.566975
vt 0.581907 0.847267
vt 0.592923 0.865157
vt 0.590846 0.822545
vt 0.620734 0.708586
vt 0.850596 0.568301
vt 0.848868 0.428700
vt 0.876402 0.282226
vt 0.915912 0.217583
vt 0.906606 0.182350
vt 0.731021 0.918608
vt 0.819257 0.899533
vt 0.628232 0.866089
vt 0.900657 0.885237
vt 0.642645 0.922926
vt 0.867570 0.888108
vt 0.624770 0.428034
vt 0.594846 0.278537
vt 0.870543 0.705625
vt 0.625213 0.572134
vt 0.901148 0.864077
vt 0.897775 0.836339
vt 0.554408 0.212431
vt 0.197753 0.938337
vt 0.520925 0.855021
vt 0.219687 0.972787
vt 0.370659 0.886549
vt 0.411442 0.873543
vt 0.462968 0.866311
vt 0.143376 0.237339
vt 0.459221 0.192397
vt 0.462304 0.500013
vt 0.502401 0.788184
vt 0.539346 0.828268
vt 0.297075 0.114561
vt 0.401538 0.153337
vt 0.367270 0.148802
vt 0.440483 0.154242
vt 0.666275 0.103087
vt 0.783669 0.153213
vt 0.874301 0.184514
vt 0.555573 0.177091
vt 0.682486 0.052579
vt 0.723142 0.055001
vt 0.182605 0.154005
vt 0.208421 0.102577
vn -0.999945 0.006840 0.007936
vn -0.553670 -0.832733 -0.002180
vn -0.523443 -0.773610 0.357121
vn -0.707824 -0.008819 0.706333
vn -0.002584 -0.999880 0.015257
vn 0.056351 -0.814658 0.577198
vn 0.815103 -0.579048 0.017640
vn 0.999991 0.004212 -0.000293
vn 0.881969 0.023582 0.470718
vn 0.785098 -0.537554 0.307663
vn -0.003411 0.999801 0.019678
vn -0.513602 0.858012 -0.005229
vn -0.488921 0.788131 0.373907
vn 0.055190 0.824178 0.563636
vn 0.039739 -0.006565 0.999189
vn -0.227836 -0.002244 -0.973697
vn -0.148029 -0.808114 -0.570122
vn -0.590625 -0.728430 -0.347206
vn -0.858326 -0.007008 -0.513056
vn 0.031277 -0.769449 0.637942
vn 0.093880 -0.995563 -0.006423
vn 0.937629 0.022489 -0.346910
vn 0.837581 -0.514851 -0.182719
vn 0.020222 -0.795349 -0.605814
vn -0.073742 -0.065984 -0.995092
vn 0.589654 0.807639 0.005155
vn -0.112913 0.993565 -0.008894
vn -0.073593 0.754516 0.652142
vn 0.582580 0.736499 0.343760
vn -0.023359 -0.048242 0.998563
vn -0.067621 -0.997584 -0.015930
vn -0.042437 -0.802480 0.595169
vn -0.151871 -0.808320 -0.568818
vn -0.227414 -0.002071 -0.973796
vn 0.006949 0.999864 -0.014935
vn 0.021619 0.815802 0.577927
vn -0.024779 -0.002435 0.999690
vn -0.035461 -0.999358 0.005048
vn 0.005472 -0.790974 0.611825
vn -0.069313 -0.820173 -0.567902
vn -0.084080 0.003506 -0.996453
vn -0.006537 0.999963 0.005620
vn 0.025276 0.801094 0.598005
vn 0.040244 0.003069 0.999185
vn -0.013864 -0.999902 -0.001678
vn 0.033159 -0.828348 0.559232
vn -0.018640 -0.833974 -0.551489
vn -0.010487 0.000164 -0.999945
vn -0.012525 0.999919 -0.002138
vn 0.033292 0.828386 0.559167
vn 0.104611 0.000513 0.994513
vn -0.143765 0.814666 -0.561828
vn -0.569461 0.738927 -0.360142
vn -0.018949 0.834325 -0.550946
vn -0.043662 0.830826 -0.554817
vn -0.082315 0.829526 -0.552368
vn -0.080583 0.785518 -0.613569
vn 0.622171 0.745331 -0.239550
vn -0.981719 0.129674 0.139333
vn -0.972776 0.139761 -0.184861
vn -0.951701 -0.275369 -0.135782
vn -0.989113 -0.076131 0.125932
vn 0.063543 -0.997905 0.012180
vn -0.169757 -0.607451 0.776007
vn 0.861395 -0.477023 0.174494
vn 0.817993 -0.574478 -0.029368
vn 0.991599 -0.129351 -0.000044
vn 0.952707 -0.131268 0.274078
vn 0.001856 0.604758 0.796407
vn 0.343514 0.939091 0.010279
vn -0.843310 0.522397 -0.126209
vn -0.935838 0.322338 0.142499
vn -0.872891 0.114542 -0.474280
vn 0.082887 -0.010744 -0.996501
vn 0.100719 -0.546190 -0.831584
vn -0.905967 -0.085052 -0.414716
vn -0.220548 0.030567 0.974897
vn 0.055961 -0.688023 0.723528
vn -0.119013 -0.990131 0.074007
vn 0.203286 -0.038199 0.978374
vn 0.957648 0.213818 0.192853
vn 0.934688 0.353147 -0.040570
vn 0.156249 0.983059 0.095816
vn 0.206044 0.650702 0.730844
vn -0.127453 -0.725417 -0.676406
vn -0.000802 0.002989 -0.999995
vn 0.869210 -0.122417 -0.479050
vn 0.781650 -0.497442 -0.376264
vn 0.165342 -0.984574 0.057241
vn 0.062936 -0.682427 0.728239
vn 0.034375 -0.020759 0.999193
vn 0.150131 0.609623 0.778345
vn 0.350466 0.935313 0.048623
vn 0.318802 -0.055179 -0.946214
vn 0.278675 -0.593186 -0.755295
vn -0.062946 0.682188 0.728463
vn 0.028879 0.999561 0.006587
vn -0.047007 -0.718121 0.694329
vn -0.098574 -0.003957 0.995122
vn 0.050183 -0.998383 0.026696
vn 0.119997 -0.026317 -0.992425
vn 0.114093 -0.629264 -0.768771
vn -0.372940 0.927803 -0.009914
vn -0.424300 0.743445 0.516971
vn -0.415334 0.122776 0.901345
vn -0.144923 -0.751678 0.643411
vn 0.068106 -0.997659 -0.006222
vn 0.010658 -0.638185 -0.769809
vn -0.143905 0.087207 -0.985741
vn 0.134703 -0.784497 0.605326
vn 0.216452 -0.976248 0.009350
vn -0.093654 -0.005382 0.995590
vn -0.297639 0.954675 -0.002542
vn -0.259787 0.723980 0.639034
vn 0.162229 -0.687003 -0.708314
vn -0.010923 -0.008137 -0.999907
vn -0.148898 0.988847 -0.003326
vn -0.150420 0.719437 0.678074
vn -0.079064 -0.013869 0.996773
vn 0.041820 -0.771008 0.635451
vn 0.112569 -0.993560 0.012907
vn 0.117436 -0.671287 -0.731835
vn 0.047024 -0.018795 -0.998717
vn 0.878186 0.259046 -0.402100
vn 0.062248 0.709936 -0.701510
vn -0.284650 0.673564 -0.682119
vn -0.183306 0.623381 -0.760128
vn -0.048730 0.608136 -0.792336
vn 0.101504 0.557587 -0.823889
vn 0.356926 0.461674 -0.812072
vn 0.244879 0.473922 -0.845832
vn -0.844214 0.310492 -0.436918
s 1
g polySurface41
usemtl lambert8SG
f 47/1/1 34/4/2 4/3/3 48/157/4
f 34/4/2 33/6/5 21/5/6 4/3/3
f 42/7/7 55/10/8 54/9/9 6/8/10
f 36/11/11 35/158/12 2/159/13 24/12/14
f 48/2/4 4/3/3 21/5/6 49/15/15
f 45/16/16 22/19/17 3/18/18 46/167/19
f 42/7/7 6/8/10 9/21/20 29/20/21
f 56/22/22 5/25/23 10/24/24 57/23/25
f 41/151/26 40/29/27 12/28/28 8/150/29
f 9/21/20 6/8/10 54/149/9 53/30/30
f 30/31/31 29/20/21 9/21/20 13/32/32
f 57/23/25 10/24/24 14/34/33 58/33/34
f 40/29/27 39/36/35 16/35/36 12/28/28
f 13/32/32 9/21/20 53/30/30 52/37/37
f 31/38/38 30/31/31 13/32/32 17/39/39
f 58/33/34 14/34/33 18/41/40 43/40/41
f 39/36/35 38/43/42 20/42/43 16/35/36
f 17/39/39 13/32/32 52/37/37 51/44/44
f 32/45/45 31/38/38 17/39/39 28/46/46
f 43/40/41 18/41/40 27/48/47 44/47/48
f 38/43/42 37/50/49 25/49/50 20/42/43
f 28/46/46 17/39/39 51/44/44 50/51/51
f 37/50/49 36/11/11 24/12/14 25/49/50
f 27/48/47 22/19/17 45/16/16 44/47/48
f 33/6/5 32/45/45 28/46/46 21/5/6
f 21/5/6 28/46/46 50/51/51 49/15/15
f 14/34/33 10/24/24 29/20/21 30/31/31
f 18/41/40 14/34/33 30/31/31 31/38/38
f 27/48/47 18/41/40 31/38/38 32/45/45
f 22/19/17 27/48/47 32/45/45 33/6/5
f 3/18/18 22/19/17 33/6/5 34/4/2
f 46/17/19 3/18/18 34/4/2 47/1/1
f 23/153/52 1/160/53 35/158/12 36/11/11
f 26/54/54 23/153/52 36/11/11 37/50/49
f 19/154/55 26/54/54 37/50/49 38/43/42
f 15/155/56 19/154/55 38/43/42 39/36/35
f 11/156/57 15/155/56 39/36/35 40/29/27
f 7/147/58 11/156/57 40/29/27 41/151/26
f 5/25/23 56/146/22 55/10/8 42/7/7
f 10/24/24 5/25/23 42/7/7 29/20/21
f 19/55/55 43/40/41 44/47/48 26/152/54
f 45/16/16 23/52/52 26/152/54 44/47/48
f 23/52/52 45/16/16 46/167/19 1/53/53
f 1/168/53 46/17/19 47/1/1 35/14/12
f 35/14/12 47/1/1 48/157/4 2/13/13
f 2/159/13 48/2/4 49/15/15 24/12/14
f 50/51/51 25/49/50 24/12/14 49/15/15
f 51/44/44 20/42/43 25/49/50 50/51/51
f 52/37/37 16/35/36 20/42/43 51/44/44
f 53/30/30 12/28/28 16/35/36 52/37/37
f 54/149/9 8/150/29 12/28/28 53/30/30
f 55/10/8 41/26/26 8/27/29 54/9/9
f 56/146/22 7/148/58 41/26/26 55/10/8
f 7/58/58 56/22/22 57/23/25 11/57/57
f 11/57/57 57/23/25 58/33/34 15/56/56
f 15/56/56 58/33/34 43/40/41 19/55/55
s 6
f 116/59/59 117/62/60 106/61/61 61/60/62
f 61/60/62 106/61/61 107/64/63 72/63/64
f 63/65/65 96/68/66 127/67/67 128/133/68
f 73/69/69 104/72/70 105/163/71 59/70/72
f 118/73/73 119/76/74 71/75/75 62/74/76
f 115/77/77 116/162/59 61/60/62 72/63/64
f 81/78/78 95/79/79 96/68/66 63/65/65
f 128/66/68 129/80/80 81/78/78 63/65/65
f 65/134/81 97/138/82 98/83/83 80/82/84
f 82/85/85 125/88/86 126/135/87 64/86/88
f 72/63/64 107/64/63 108/90/89 68/89/90
f 114/91/91 115/77/77 72/63/64 68/89/90
f 69/92/92 103/93/93 104/72/70 73/69/69
f 71/75/75 119/76/74 120/95/94 67/94/95
f 93/96/96 102/97/97 103/93/93 69/92/92
f 92/98/98 113/99/99 114/91/91 68/89/90
f 68/89/90 108/90/89 109/100/100 92/98/98
f 67/94/95 120/95/94 121/102/101 91/101/102
f 80/82/84 98/83/83 99/104/103 76/103/104
f 81/78/78 129/80/80 130/106/105 77/105/106
f 77/105/106 112/107/107 95/79/79 81/78/78
f 78/108/108 124/109/109 125/88/86 82/85/85
f 89/110/110 111/111/111 112/107/107 77/105/106
f 77/105/106 130/106/105 131/112/112 89/110/110
f 76/103/104 99/104/103 100/114/113 88/113/114
f 90/115/115 123/116/116 124/109/109 78/108/108
f 88/113/114 100/114/113 101/118/117 85/117/118
f 89/110/110 131/112/112 132/120/119 84/119/120
f 84/119/120 110/121/121 111/111/111 89/110/110
f 83/122/122 122/123/123 123/116/116 90/115/115
f 92/98/98 109/100/100 110/121/121 84/119/120
f 84/119/120 132/120/119 113/99/99 92/98/98
f 85/117/118 101/118/117 102/97/97 93/96/96
f 91/101/102 121/102/101 122/123/123 83/122/122
f 95/79/79 82/85/85 64/86/88 96/68/66
f 127/67/67 96/68/66 64/86/88 126/87/87
f 98/83/83 97/138/82 66/136/124 79/143/125
f 99/104/103 98/83/83 79/143/125 75/144/126
f 100/114/113 99/104/103 75/144/126 87/141/127
f 101/118/117 100/114/113 87/141/127 86/128/128
f 102/97/97 101/118/117 86/128/128 94/129/129
f 103/93/93 102/97/97 94/129/129 70/130/130
f 104/72/70 103/93/93 70/130/130 74/131/131
f 105/163/71 104/72/70 74/131/131 60/132/132
f 106/61/61 117/62/60 118/161/73 62/74/76
f 107/64/63 106/61/61 62/74/76 71/75/75
f 108/90/89 107/64/63 71/75/75 67/94/95
f 109/100/100 108/90/89 67/94/95 91/101/102
f 110/121/121 109/100/100 91/101/102 83/122/122
f 111/111/111 110/121/121 83/122/122 90/115/115
f 112/107/107 111/111/111 90/115/115 78/108/108
f 95/79/79 112/107/107 78/108/108 82/85/85
f 113/99/99 93/96/96 69/92/92 114/91/91
f 69/92/92 73/69/69 115/77/77 114/91/91
f 73/69/69 59/70/72 116/162/59 115/77/77
f 59/166/72 105/71/71 117/62/60 116/59/59
f 118/161/73 117/62/60 105/71/71 60/165/132
f 60/164/132 74/145/131 119/76/74 118/73/73
f 120/95/94 119/76/74 74/145/131 70/140/130
f 121/102/101 120/95/94 70/140/130 94/139/129
f 122/123/123 121/102/101 94/139/129 86/142/128
f 123/116/116 122/123/123 86/142/128 87/127/127
f 124/109/109 123/116/116 87/127/127 75/126/126
f 125/88/86 124/109/109 75/126/126 79/124/125
f 126/135/87 125/88/86 79/124/125 66/125/124
f 97/84/82 127/67/67 126/87/87 66/137/124
f 128/133/68 127/67/67 97/84/82 65/81/81
f 65/134/81 80/82/84 129/80/80 128/66/68
f 130/106/105 129/80/80 80/82/84 76/103/104
f 131/112/112 130/106/105 76/103/104 88/113/114
f 132/120/119 131/112/112 88/113/114 85/117/118
f 113/99/99 132/120/119 85/117/118 93/96/96
