# Blender v2.77 (sub 0) OBJ File: 'Toriman2.blend'
# www.blender.org
mtllib r_foot.mtl
o Cube
v 0.101881 0.162805 0.027045
v 0.101881 0.162805 0.082852
v 0.088239 -0.113849 0.015719
v 0.088239 -0.017509 0.046928
v 0.060412 0.074489 -0.005464
v 0.060412 0.074489 0.115360
v 0.060412 0.195313 -0.005464
v 0.060412 0.195313 0.115360
v 0.088239 0.031292 0.015719
v 0.088239 0.031292 0.079616
v 0.060412 -0.017790 0.053549
v 0.060412 -0.199961 -0.005464
v 0.090736 -0.127075 0.072650
v 0.090736 -0.098173 0.072650
v 0.060412 -0.083899 0.089680
v 0.060412 -0.143975 0.089680
v 0.090736 -0.154009 0.026878
v 0.090736 -0.066369 0.055268
v 0.021961 -0.095208 0.167558
v 0.021961 -0.132667 0.167558
v 0.101881 0.106998 0.082852
v 0.101881 0.106998 0.027045
v 0.091701 0.122382 0.042429
v 0.091701 0.147421 0.042429
v 0.091701 0.122382 0.067468
v 0.091701 0.147421 0.067468
v 0.029359 -0.003178 0.091188
v 0.029359 0.034122 0.116172
v 0.050949 -0.284228 0.008039
v 0.050949 -0.284228 0.045082
v 0.060412 0.074489 -0.054850
v 0.060412 0.195313 -0.054850
v 0.060412 -0.199961 -0.054850
v 0.117707 0.074489 -0.005464
v 0.117707 0.195313 -0.005464
v 0.117707 0.074489 -0.054850
v 0.117707 -0.199961 -0.005464
v 0.117707 -0.199961 -0.054850
v 0.117707 0.195313 -0.054850
v 0.060412 0.074489 0.032243
v 0.060412 0.195313 0.032243
v 0.060412 -0.199961 0.032243
v 0.117707 0.074489 0.032243
v 0.117707 0.195313 0.032243
v 0.117707 -0.199961 0.032243
v 0.140743 -0.135864 0.003343
v 0.140743 0.010392 0.003343
v 0.140743 0.010392 0.023436
v 0.140743 -0.135864 0.023436
v 0.140743 0.102708 0.003343
v 0.140743 0.167095 0.003343
v 0.140743 0.102708 0.023436
v 0.140743 0.167095 0.023436
v 0.060412 0.227010 0.012501
v 0.060412 0.227010 -0.036885
v 0.060412 0.279776 0.012501
v 0.060412 0.279776 -0.036885
v 0.049420 0.302065 0.003515
v 0.049420 0.302065 -0.027900
v 0.043109 0.242124 0.057700
v 0.043109 0.264663 0.057700
v 0.043109 0.211686 0.100059
v 0.043109 0.222225 0.119982
v 0.069386 -0.156974 -0.068963
v 0.069386 0.031502 -0.068963
v 0.108732 -0.156974 -0.068963
v 0.108732 0.031502 -0.068963
v 0.069386 0.176389 -0.068963
v 0.108732 0.176389 -0.068963
v 0.069386 0.093414 -0.068963
v 0.108732 0.093414 -0.068963
v 0.037374 -0.185001 0.102273
v 0.033995 -0.258011 0.079057
v 0.015407 -0.106386 0.162392
v 0.015407 -0.121488 0.162392
v 0.045324 0.301409 0.030713
v 0.035581 0.292899 0.056163
v 0.041001 -0.231053 -0.038775
v 0.037177 -0.265102 -0.033319
v 0.100983 -0.243082 0.015787
v 0.100983 -0.215381 0.062863
v 0.096301 -0.284776 0.022468
v 0.096301 -0.284776 0.040796
v 0.127425 0.230528 0.024846
v 0.127425 0.230528 -0.017956
v 0.127425 0.276258 0.024846
v 0.127425 0.276258 -0.017956
v 0.112429 0.263160 0.064018
v 0.112429 0.243626 0.064018
v 0.136351 0.237389 0.026410
v 0.136351 0.237389 -0.003548
v 0.136351 0.269397 0.026410
v 0.136351 0.269397 -0.003548
v 0.125855 0.260229 0.053828
v 0.125855 0.246557 0.053828
v -0.101881 0.162805 0.027045
v -0.101881 0.162805 0.082852
v -0.088239 -0.113849 0.015719
v -0.088239 -0.017509 0.046928
v -0.060412 0.074489 -0.005464
v -0.060412 0.074489 0.115360
v -0.060412 0.195313 -0.005464
v -0.060412 0.195313 0.115360
v -0.088239 0.031292 0.015719
v -0.088239 0.031292 0.079616
v -0.060412 -0.017790 0.053549
v -0.060412 -0.199961 -0.005464
v -0.090736 -0.127075 0.072650
v -0.090736 -0.098173 0.072650
v -0.060412 -0.083899 0.089680
v -0.060412 -0.143975 0.089680
v -0.090736 -0.154009 0.026878
v -0.090736 -0.066369 0.055268
v -0.021961 -0.095208 0.167558
v -0.021961 -0.132667 0.167558
v 0.000000 0.195313 0.115360
v 0.000000 0.195313 -0.005464
v 0.000000 0.074489 0.115360
v 0.000000 -0.017790 0.053549
v 0.000000 -0.199961 -0.005464
v 0.000000 -0.083899 0.089680
v 0.000000 -0.143975 0.089680
v 0.000000 -0.095208 0.167558
v 0.000000 -0.132667 0.167558
v -0.101881 0.106998 0.082852
v -0.101881 0.106998 0.027045
v -0.091701 0.122382 0.042429
v -0.091701 0.147421 0.042429
v -0.091701 0.122382 0.067468
v -0.091701 0.147421 0.067468
v -0.029359 -0.003178 0.091188
v -0.029359 0.034122 0.116172
v 0.000000 0.034122 0.116172
v 0.000000 -0.003178 0.091188
v 0.000000 -0.284228 0.008039
v -0.050949 -0.284228 0.008039
v 0.000000 -0.284228 0.045082
v -0.050949 -0.284228 0.045082
v -0.060412 0.074489 -0.054850
v -0.060412 0.195313 -0.054850
v 0.000000 0.074489 -0.054850
v 0.000000 -0.199961 -0.054850
v -0.060412 -0.199961 -0.054850
v 0.000000 0.195313 -0.054850
v -0.117707 0.074489 -0.005464
v -0.117707 0.195313 -0.005464
v -0.117707 0.074489 -0.054850
v -0.117707 -0.199961 -0.005464
v -0.117707 -0.199961 -0.054850
v -0.117707 0.195313 -0.054850
v -0.060412 0.074489 0.032243
v -0.060412 0.195313 0.032243
v -0.060412 -0.199961 0.032243
v -0.117707 0.074489 0.032243
v -0.117707 0.195313 0.032243
v -0.117707 -0.199961 0.032243
v -0.140743 -0.135864 0.003343
v -0.140743 0.010392 0.003343
v -0.140743 0.010392 0.023436
v -0.140743 -0.135864 0.023436
v -0.140743 0.102708 0.003343
v -0.140743 0.167095 0.003343
v -0.140743 0.102708 0.023436
v -0.140743 0.167095 0.023436
v -0.060412 0.227010 0.012501
v 0.000000 0.227010 0.012501
v -0.060412 0.227010 -0.036885
v 0.000000 0.227010 -0.036885
v -0.060412 0.279776 0.012501
v 0.000000 0.279776 0.012501
v -0.060412 0.279776 -0.036885
v 0.000000 0.279776 -0.036885
v -0.049420 0.302065 0.003515
v 0.000000 0.302065 0.003515
v -0.049420 0.302065 -0.027900
v 0.000000 0.302065 -0.027900
v -0.043109 0.242124 0.057700
v 0.000000 0.242124 0.057700
v -0.043109 0.264663 0.057700
v 0.000000 0.264663 0.057700
v -0.043109 0.211686 0.100059
v 0.000000 0.211686 0.100059
v -0.043109 0.222225 0.119982
v 0.000000 0.222225 0.119982
v -0.069386 -0.156974 -0.068963
v -0.069386 0.031502 -0.068963
v -0.108732 -0.156974 -0.068963
v -0.108732 0.031502 -0.068963
v -0.069386 0.176389 -0.068963
v -0.108732 0.176389 -0.068963
v -0.069386 0.093414 -0.068963
v -0.108732 0.093414 -0.068963
v 0.000000 -0.185001 0.102273
v -0.037374 -0.185001 0.102273
v 0.000000 -0.258011 0.079057
v -0.033995 -0.258011 0.079057
v -0.015407 -0.106386 0.162392
v -0.015407 -0.121488 0.162392
v 0.000000 -0.121488 0.162392
v 0.000000 -0.106386 0.162392
v -0.045324 0.301409 0.030713
v 0.000000 0.301409 0.030713
v -0.035581 0.292899 0.056163
v 0.000000 0.292899 0.056163
v 0.000000 -0.231053 -0.038775
v -0.041001 -0.231053 -0.038775
v 0.000000 -0.265102 -0.033319
v -0.037177 -0.265102 -0.033319
v -0.100983 -0.243082 0.015787
v -0.100983 -0.215381 0.062863
v -0.096301 -0.284776 0.022468
v -0.096301 -0.284776 0.040796
v -0.127425 0.230528 0.024846
v -0.127425 0.230528 -0.017956
v -0.127425 0.276258 0.024846
v -0.127425 0.276258 -0.017956
v -0.112429 0.263160 0.064018
v -0.112429 0.243626 0.064018
v -0.136351 0.237389 0.026410
v -0.136351 0.237389 -0.003548
v -0.136351 0.269397 0.026410
v -0.136351 0.269397 -0.003548
v -0.125855 0.260229 0.053828
v -0.125855 0.246557 0.053828
vn 0.8340 -0.5518 0.0000
vn 0.0000 1.0000 0.0000
vn 0.6170 -0.0000 -0.7870
vn 1.0000 -0.0000 0.0000
vn 0.0000 -1.0000 0.0000
vn 0.6170 -0.7870 0.0000
vn 0.6170 0.7870 0.0000
vn 0.6057 0.0000 -0.7957
vn 0.6170 -0.0000 0.7870
vn 0.0000 -0.3119 -0.9501
vn 0.0000 -0.9896 0.1437
vn 0.0000 -0.7917 0.6109
vn 0.5835 0.3895 0.7126
vn 0.8340 -0.0000 0.5518
vn 0.2237 -0.3004 0.9272
vn 0.8967 -0.0000 0.4427
vn 0.1992 -0.5454 0.8142
vn 0.8407 0.5416 0.0000
vn 0.0000 0.9896 0.1437
vn 0.0000 -0.4195 0.9078
vn 0.0000 0.4796 0.8775
vn 0.4803 0.2703 -0.8344
vn 0.6077 -0.6845 0.4028
vn 0.0000 -0.0000 1.0000
vn 0.4897 -0.0000 0.8719
vn 0.0000 -0.9322 0.3619
vn 0.8340 0.0000 -0.5518
vn 0.8340 0.5518 0.0000
vn 0.0000 -0.5565 0.8308
vn 0.0000 0.0201 0.9998
vn 0.5975 -0.4462 0.6662
vn 0.0000 -0.9076 -0.4198
vn 0.0859 -0.3072 0.9478
vn 0.0000 0.0000 -1.0000
vn 0.0000 -0.4931 0.8700
vn -0.8439 0.0000 -0.5366
vn 0.9411 0.3382 0.0000
vn 0.7746 -0.6324 0.0000
vn -1.0000 0.0000 0.0000
vn 0.9411 -0.3382 0.0000
vn 0.3571 -0.0000 0.9341
vn 0.3571 0.0000 -0.9341
vn 0.7746 0.6324 0.0000
vn 0.0000 0.4931 -0.8700
vn 0.0000 0.3739 -0.9275
vn 0.0524 -0.9986 0.0000
vn -0.0081 -0.9493 0.3143
vn 0.8969 0.4423 0.0000
vn 0.0000 0.3739 0.9275
vn 0.0000 -0.9484 0.3171
vn 0.8715 0.2551 0.4189
vn 0.0000 -0.8839 0.4676
vn 0.0000 -0.8121 -0.5835
vn 0.0000 0.8264 0.5631
vn 0.0000 0.3119 -0.9501
vn 0.8439 0.0000 -0.5366
vn 0.0000 0.5978 -0.8016
vn 0.0000 -0.5978 -0.8016
vn 0.0000 -0.3030 0.9530
vn 0.7731 -0.2340 0.5895
vn 0.0000 0.2934 0.9560
vn 0.0000 0.4195 0.9078
vn -0.6190 0.0000 0.7854
vn 0.0000 0.9484 0.3171
vn 0.0000 0.0543 0.9985
vn 0.0000 0.6440 -0.7650
vn 0.0000 -0.1582 -0.9874
vn 0.9110 -0.1630 -0.3787
vn 0.0000 0.7310 -0.6823
vn 0.9953 -0.0891 0.0378
vn -0.0121 -0.9999 0.0000
vn 0.2960 -0.1835 -0.9374
vn 0.7633 0.5568 -0.3276
vn 0.6094 0.7928 0.0000
vn 0.4974 0.7475 0.4403
vn 0.2718 0.0000 -0.9623
vn 0.0524 0.9986 0.0000
vn -0.0081 0.9493 0.3143
vn -0.0908 -0.0000 0.9959
vn 0.9339 0.0000 0.3575
vn 0.4974 -0.7475 0.4403
vn 0.6046 0.0000 0.7965
vn 0.8501 0.0000 -0.5266
vn 0.6094 -0.7928 0.0000
vn -0.8340 -0.5518 0.0000
vn -0.6170 0.0000 -0.7870
vn -0.6170 -0.7870 0.0000
vn -0.6170 0.7870 0.0000
vn -0.6057 0.0000 -0.7957
vn -0.6170 -0.0000 0.7870
vn -0.5835 0.3895 0.7126
vn -0.8340 -0.0000 0.5518
vn -0.2237 -0.3004 0.9272
vn -0.8967 -0.0000 0.4427
vn -0.1992 -0.5454 0.8142
vn -0.8407 0.5416 0.0000
vn -0.4803 0.2703 -0.8344
vn -0.6077 -0.6845 0.4028
vn -0.4897 -0.0000 0.8719
vn -0.8340 0.0000 -0.5518
vn -0.8340 0.5518 0.0000
vn -0.5975 -0.4462 0.6662
vn -0.0859 -0.3072 0.9478
vn -0.9411 0.3382 0.0000
vn -0.7746 -0.6324 0.0000
vn -0.9411 -0.3382 0.0000
vn -0.3571 -0.0000 0.9341
vn -0.3571 0.0000 -0.9341
vn -0.7746 0.6324 0.0000
vn -0.0524 -0.9986 0.0000
vn 0.0081 -0.9493 0.3143
vn -0.8969 0.4423 0.0000
vn -0.8715 0.2551 0.4189
vn -0.7731 -0.2340 0.5895
vn 0.6190 0.0000 0.7854
vn -0.9110 -0.1630 -0.3787
vn -0.9953 -0.0891 0.0378
vn 0.0121 -0.9999 0.0000
vn -0.2960 -0.1835 -0.9374
vn -0.7633 0.5568 -0.3276
vn -0.6094 0.7928 0.0000
vn -0.4974 0.7475 0.4403
vn -0.2718 0.0000 -0.9623
vn -0.0524 0.9986 0.0000
vn 0.0081 0.9493 0.3143
vn 0.0908 -0.0000 0.9959
vn -0.9339 0.0000 0.3575
vn -0.4974 -0.7475 0.4403
vn -0.6046 0.0000 0.7965
vn -0.8501 0.0000 -0.5266
vn -0.6094 -0.7928 0.0000
usemtl None
s off
f 1//1 2//1 26//1 24//1
f 116//2 8//2 7//2 117//2
f 5//3 7//3 1//3 22//3
f 26//4 25//4 23//4 24//4
f 12//5 120//5 142//5 33//5
f 6//6 5//6 22//6 21//6
f 7//7 8//7 2//7 1//7
f 12//8 5//8 9//8 3//8
f 8//9 6//9 21//9 2//9
f 38//10 33//10 64//10 66//10
f 122//11 16//11 20//11 124//11
f 137//12 30//12 73//12 195//12
f 11//13 15//13 14//13 18//13
f 22//14 1//14 24//14 23//14
f 11//15 12//15 3//15 4//15
f 16//16 15//16 19//16 20//16
f 6//17 11//17 4//17 10//17
f 5//18 6//18 10//18 9//18
f 15//19 121//19 123//19 19//19
f 19//20 123//20 200//20 74//20
f 11//21 119//21 121//21 15//21
f 9//4 10//4 4//4 3//4
f 12//22 11//22 18//22 17//22
f 16//23 12//23 17//23 13//23
f 6//24 8//24 116//24 118//24
f 15//25 16//25 13//25 14//25
f 119//26 11//26 27//26 134//26
f 17//4 18//4 14//4 13//4
f 2//27 21//27 25//27 26//27
f 21//28 22//28 23//28 25//28
f 28//29 133//29 134//29 27//29
f 6//30 118//30 133//30 28//30
f 11//31 6//31 28//31 27//31
f 135//5 29//5 30//5 137//5
f 29//32 135//32 207//32 79//32
f 16//33 30//33 83//33 81//33
f 141//34 144//34 32//34 31//34
f 141//34 31//34 33//34 142//34
f 117//35 7//35 54//35 166//35
f 31//36 32//36 68//36 70//36
f 34//4 37//4 38//4 36//4
f 35//4 34//4 36//4 39//4
f 32//2 7//2 35//2 39//2
f 12//5 37//5 45//5 42//5
f 34//37 43//37 48//37 47//37
f 12//5 33//5 38//5 37//5
f 41//24 40//24 43//24 44//24
f 40//24 42//24 45//24 43//24
f 43//38 34//38 50//38 52//38
f 35//2 7//2 41//2 44//2
f 7//39 5//39 40//39 41//39
f 5//39 12//39 42//39 40//39
f 46//4 47//4 48//4 49//4
f 45//40 37//40 46//40 49//40
f 43//41 45//41 49//41 48//41
f 37//42 34//42 47//42 46//42
f 50//4 51//4 53//4 52//4
f 35//43 44//43 53//43 51//43
f 34//42 35//42 51//42 50//42
f 44//41 43//41 52//41 53//41
f 55//34 168//34 172//34 57//34
f 7//4 32//4 55//4 54//4
f 32//44 144//44 168//44 55//44
f 57//45 172//45 176//45 59//45
f 54//46 55//46 85//46 84//46
f 60//47 54//47 84//47 89//47
f 174//2 58//2 59//2 176//2
f 56//48 57//48 59//48 58//48
f 170//49 56//49 58//49 174//49
f 60//4 61//4 63//4 62//4
f 166//50 54//50 60//50 178//50
f 61//51 56//51 76//51 77//51
f 182//52 62//52 63//52 184//52
f 178//53 60//53 62//53 182//53
f 61//54 180//54 184//54 63//54
f 64//34 65//34 67//34 66//34
f 33//36 31//36 65//36 64//36
f 31//55 36//55 67//55 65//55
f 36//56 38//56 66//56 67//56
f 70//34 68//34 69//34 71//34
f 39//56 36//56 71//56 69//56
f 32//57 39//57 69//57 68//57
f 36//58 31//58 70//58 71//58
f 72//59 193//59 195//59 73//59
f 30//60 16//60 72//60 73//60
f 16//61 122//61 193//61 72//61
f 74//24 200//24 199//24 75//24
f 124//62 20//62 75//62 199//62
f 20//63 19//63 74//63 75//63
f 76//64 202//64 204//64 77//64
f 180//65 61//65 77//65 204//65
f 56//66 170//66 202//66 76//66
f 205//67 78//67 79//67 207//67
f 12//68 29//68 79//68 78//68
f 120//69 12//69 78//69 205//69
f 80//70 81//70 83//70 82//70
f 30//71 29//71 82//71 83//71
f 29//72 12//72 80//72 82//72
f 12//73 16//73 81//73 80//73
f 87//74 86//74 92//74 93//74
f 86//75 88//75 94//75 92//75
f 55//76 57//76 87//76 85//76
f 57//77 56//77 86//77 87//77
f 56//78 61//78 88//78 86//78
f 61//79 60//79 89//79 88//79
f 90//4 91//4 93//4 92//4
f 90//80 92//80 94//80 95//80
f 89//81 84//81 90//81 95//81
f 88//82 89//82 95//82 94//82
f 85//83 87//83 93//83 91//83
f 84//84 85//84 91//84 90//84
f 96//85 128//85 130//85 97//85
f 116//2 117//2 102//2 103//2
f 100//86 126//86 96//86 102//86
f 130//39 128//39 127//39 129//39
f 107//5 143//5 142//5 120//5
f 101//87 125//87 126//87 100//87
f 102//88 96//88 97//88 103//88
f 107//89 98//89 104//89 100//89
f 103//90 97//90 125//90 101//90
f 149//10 187//10 185//10 143//10
f 122//11 124//11 115//11 111//11
f 137//12 195//12 196//12 138//12
f 106//91 113//91 109//91 110//91
f 126//92 127//92 128//92 96//92
f 106//93 99//93 98//93 107//93
f 111//94 115//94 114//94 110//94
f 101//95 105//95 99//95 106//95
f 100//96 104//96 105//96 101//96
f 110//19 114//19 123//19 121//19
f 114//20 197//20 200//20 123//20
f 106//21 110//21 121//21 119//21
f 104//39 98//39 99//39 105//39
f 107//97 112//97 113//97 106//97
f 111//98 108//98 112//98 107//98
f 101//24 118//24 116//24 103//24
f 110//99 109//99 108//99 111//99
f 119//26 134//26 131//26 106//26
f 112//39 108//39 109//39 113//39
f 97//100 130//100 129//100 125//100
f 125//101 129//101 127//101 126//101
f 132//29 131//29 134//29 133//29
f 101//30 132//30 133//30 118//30
f 106//102 131//102 132//102 101//102
f 135//5 137//5 138//5 136//5
f 136//32 208//32 207//32 135//32
f 111//103 210//103 212//103 138//103
f 141//34 139//34 140//34 144//34
f 141//34 142//34 143//34 139//34
f 117//35 166//35 165//35 102//35
f 139//56 191//56 189//56 140//56
f 145//39 147//39 149//39 148//39
f 146//39 150//39 147//39 145//39
f 140//2 150//2 146//2 102//2
f 107//5 153//5 156//5 148//5
f 145//104 158//104 159//104 154//104
f 107//5 148//5 149//5 143//5
f 152//24 155//24 154//24 151//24
f 151//24 154//24 156//24 153//24
f 154//105 163//105 161//105 145//105
f 146//2 155//2 152//2 102//2
f 102//4 152//4 151//4 100//4
f 100//4 151//4 153//4 107//4
f 157//39 160//39 159//39 158//39
f 156//106 160//106 157//106 148//106
f 154//107 159//107 160//107 156//107
f 148//108 157//108 158//108 145//108
f 161//39 163//39 164//39 162//39
f 146//109 162//109 164//109 155//109
f 145//108 161//108 162//108 146//108
f 155//107 164//107 163//107 154//107
f 167//34 171//34 172//34 168//34
f 102//39 165//39 167//39 140//39
f 140//44 167//44 168//44 144//44
f 171//45 175//45 176//45 172//45
f 165//110 213//110 214//110 167//110
f 177//111 218//111 213//111 165//111
f 174//2 176//2 175//2 173//2
f 169//112 173//112 175//112 171//112
f 170//49 174//49 173//49 169//49
f 177//39 181//39 183//39 179//39
f 166//50 178//50 177//50 165//50
f 179//113 203//113 201//113 169//113
f 182//52 184//52 183//52 181//52
f 178//53 182//53 181//53 177//53
f 179//54 183//54 184//54 180//54
f 185//34 187//34 188//34 186//34
f 143//56 185//56 186//56 139//56
f 139//55 186//55 188//55 147//55
f 147//36 188//36 187//36 149//36
f 191//34 192//34 190//34 189//34
f 150//36 190//36 192//36 147//36
f 140//57 189//57 190//57 150//57
f 147//58 192//58 191//58 139//58
f 194//59 196//59 195//59 193//59
f 138//114 196//114 194//114 111//114
f 111//61 194//61 193//61 122//61
f 197//24 198//24 199//24 200//24
f 124//62 199//62 198//62 115//62
f 115//115 198//115 197//115 114//115
f 201//64 203//64 204//64 202//64
f 180//65 204//65 203//65 179//65
f 169//66 201//66 202//66 170//66
f 205//67 207//67 208//67 206//67
f 107//116 206//116 208//116 136//116
f 120//69 205//69 206//69 107//69
f 209//117 211//117 212//117 210//117
f 138//118 212//118 211//118 136//118
f 136//119 211//119 209//119 107//119
f 107//120 209//120 210//120 111//120
f 216//121 222//121 221//121 215//121
f 215//122 221//122 223//122 217//122
f 167//123 214//123 216//123 171//123
f 171//124 216//124 215//124 169//124
f 169//125 215//125 217//125 179//125
f 179//126 217//126 218//126 177//126
f 219//39 221//39 222//39 220//39
f 219//127 224//127 223//127 221//127
f 218//128 224//128 219//128 213//128
f 217//129 223//129 224//129 218//129
f 214//130 220//130 222//130 216//130
f 213//131 219//131 220//131 214//131
