# Blender v2.77 (sub 0) OBJ File: 'Toriman2.blend'
# www.blender.org
mtllib r_leg.mtl
o Cube_Cube.001
v 0.051849 -0.051849 0.004795
v 0.051849 -0.051849 0.108492
v 0.051849 0.051849 0.004795
v 0.051849 0.051849 0.108492
v 0.023608 -0.162848 0.108492
v 0.023608 -0.162848 0.004795
v 0.106365 -0.101423 0.108492
v 0.106365 -0.101423 0.004795
v 0.078124 -0.141014 0.108492
v 0.078124 -0.141014 0.004795
v 0.119859 -0.001846 0.108492
v 0.119859 -0.001846 0.004795
v 0.174375 -0.001846 0.108492
v 0.174375 -0.001846 0.004795
v 0.103430 0.082277 0.108492
v 0.103430 0.082277 0.004795
v 0.122992 0.108713 0.108492
v 0.122992 0.108713 0.004795
v 0.069334 0.101805 0.108492
v 0.069334 0.101805 0.004795
v 0.069334 0.134318 0.108492
v 0.069334 0.134318 0.004795
v 0.129324 -0.112249 0.083259
v 0.129324 -0.112249 0.030028
v 0.164235 -0.061134 0.083259
v 0.164235 -0.061134 0.030028
v 0.169903 0.036298 0.081890
v 0.169903 0.036298 0.031397
v 0.144883 0.090132 0.081890
v 0.144883 0.090132 0.031397
v 0.119582 0.123198 0.092852
v 0.119582 0.123198 0.020434
v 0.082109 0.141080 0.092852
v 0.082109 0.141080 0.020434
v 0.071094 0.142543 0.108492
v 0.071094 0.142543 0.004795
v 0.060058 0.162555 0.088206
v 0.060058 0.162555 0.025081
v 0.044380 0.145455 0.074073
v 0.044380 0.145455 0.039214
v 0.051849 -0.051849 -0.101087
v 0.106365 -0.101423 -0.101087
v 0.119859 -0.001846 -0.101087
v 0.174375 -0.001846 -0.101087
v 0.078346 -0.046396 -0.136380
v 0.109283 -0.074529 -0.136380
v 0.116941 -0.018019 -0.136380
v 0.147878 -0.018019 -0.136380
v 0.050480 -0.052487 -0.151976
v 0.080325 -0.074625 -0.171154
v 0.077131 -0.017689 -0.171305
v 0.102286 -0.012162 -0.188446
v 0.180101 -0.031532 -0.013894
v 0.136100 -0.095957 -0.013894
v 0.180101 -0.031532 -0.082398
v 0.136100 -0.095957 -0.082398
v 0.158177 -0.040486 -0.031244
v 0.136464 -0.072277 -0.031244
v 0.158177 -0.040486 -0.065047
v 0.136464 -0.072277 -0.065047
v 0.051849 -0.051849 -0.148149
v 0.023608 -0.162848 -0.148149
v 0.078124 -0.141014 -0.148149
v 0.106365 -0.101423 -0.148149
v 0.033285 -0.019945 -0.229480
v 0.016002 -0.130944 -0.229480
v 0.049365 -0.109110 -0.229480
v 0.066648 -0.069519 -0.229480
v 0.037371 -0.173620 -0.018048
v 0.037371 -0.173620 -0.125306
v 0.075602 -0.158308 -0.018048
v 0.075602 -0.158308 -0.125306
v 0.037371 -0.173620 0.093004
v 0.037371 -0.173620 0.020283
v 0.075602 -0.158308 0.093004
v 0.075602 -0.158308 0.020283
v 0.040707 -0.159252 0.078102
v 0.040707 -0.159252 0.035185
v 0.063270 -0.150216 0.078102
v 0.063270 -0.150216 0.035185
v 0.040707 -0.159252 -0.040027
v 0.040707 -0.159252 -0.103326
v 0.063270 -0.150216 -0.040027
v 0.063270 -0.150216 -0.103326
v 0.029708 -0.025083 -0.234988
v 0.023204 -0.041829 -0.273257
v 0.035759 -0.038535 -0.265729
v 0.042263 -0.032562 -0.252080
v 0.103430 0.082277 -0.153174
v 0.122992 0.108713 -0.153174
v 0.069334 0.101805 -0.153174
v 0.069334 0.134318 -0.153174
v 0.099050 0.068171 -0.175699
v 0.111565 0.082934 -0.183950
v 0.077237 0.079076 -0.181794
v 0.077237 0.097233 -0.191942
v 0.100605 0.041402 -0.225595
v 0.110878 0.056165 -0.236511
v 0.077974 0.052307 -0.226493
v 0.075633 0.070464 -0.236367
v 0.095030 0.027899 -0.249104
v 0.105304 0.042662 -0.260020
v 0.072400 0.038804 -0.250002
v 0.070058 0.056961 -0.259876
v 0.018886 -0.135957 0.168935
v 0.028958 -0.024958 0.168935
v 0.038330 -0.114123 0.168935
v 0.048401 -0.074532 0.168935
v -0.051849 -0.051849 0.004795
v -0.051849 -0.051849 0.108492
v -0.051849 0.051849 0.004795
v -0.051849 0.051849 0.108492
v -0.023608 -0.162848 0.108492
v -0.023608 -0.162848 0.004795
v 0.000000 0.051849 0.108492
v 0.000000 0.051849 0.004795
v 0.000000 -0.051849 0.108492
v 0.000000 -0.051849 0.004795
v 0.000000 -0.162848 0.108492
v 0.000000 -0.162848 0.004795
v -0.106365 -0.101423 0.108492
v -0.106365 -0.101423 0.004795
v -0.078124 -0.141014 0.108492
v -0.078124 -0.141014 0.004795
v -0.119859 -0.001846 0.108492
v -0.119859 -0.001846 0.004795
v -0.174375 -0.001846 0.108492
v -0.174375 -0.001846 0.004795
v -0.103430 0.082277 0.108492
v -0.103430 0.082277 0.004795
v -0.122992 0.108713 0.108492
v -0.122992 0.108713 0.004795
v -0.069334 0.101805 0.108492
v -0.069334 0.101805 0.004795
v -0.069334 0.134318 0.108492
v -0.069334 0.134318 0.004795
v 0.000000 0.116640 0.108492
v 0.000000 0.116640 0.004795
v 0.000000 0.149154 0.108492
v 0.000000 0.149154 0.004795
v -0.129324 -0.112249 0.083259
v -0.129324 -0.112249 0.030028
v -0.164235 -0.061134 0.083259
v -0.164235 -0.061134 0.030028
v -0.169903 0.036298 0.081890
v -0.169903 0.036298 0.031397
v -0.144883 0.090132 0.081890
v -0.144883 0.090132 0.031397
v -0.119582 0.123198 0.092852
v -0.119582 0.123198 0.020434
v -0.082109 0.141080 0.092852
v -0.082109 0.141080 0.020434
v -0.071094 0.142543 0.108492
v -0.071094 0.142543 0.004795
v 0.000000 0.157378 0.108492
v 0.000000 0.157378 0.004795
v -0.060058 0.162555 0.088206
v -0.060058 0.162555 0.025081
v 0.000000 0.171586 0.088206
v 0.000000 0.171586 0.025081
v -0.044380 0.145455 0.074073
v -0.044380 0.145455 0.039214
v 0.000000 0.150442 0.074073
v 0.000000 0.150442 0.039214
v -0.051849 -0.051849 -0.101087
v -0.106365 -0.101423 -0.101087
v -0.119859 -0.001846 -0.101087
v -0.174375 -0.001846 -0.101087
v -0.078346 -0.046396 -0.136380
v -0.109283 -0.074529 -0.136380
v -0.116941 -0.018019 -0.136380
v -0.147878 -0.018019 -0.136380
v -0.050480 -0.052487 -0.151976
v -0.080325 -0.074625 -0.171154
v -0.077131 -0.017689 -0.171305
v -0.102286 -0.012162 -0.188446
v -0.180101 -0.031532 -0.013894
v -0.136100 -0.095957 -0.013894
v -0.180101 -0.031532 -0.082398
v -0.136100 -0.095957 -0.082398
v -0.158177 -0.040486 -0.031244
v -0.136464 -0.072277 -0.031244
v -0.158177 -0.040486 -0.065047
v -0.136464 -0.072277 -0.065047
v 0.000000 -0.051849 -0.148149
v -0.051849 -0.051849 -0.148149
v 0.000000 -0.162848 -0.148149
v -0.023608 -0.162848 -0.148149
v -0.078124 -0.141014 -0.148149
v -0.106365 -0.101423 -0.148149
v 0.000000 -0.019945 -0.229480
v -0.033285 -0.019945 -0.229480
v 0.000000 -0.130944 -0.229480
v -0.016002 -0.130944 -0.229480
v -0.049365 -0.109110 -0.229480
v -0.066648 -0.069519 -0.229480
v -0.037371 -0.173620 -0.018048
v -0.037371 -0.173620 -0.125306
v -0.075602 -0.158308 -0.018048
v -0.075602 -0.158308 -0.125306
v -0.037371 -0.173620 0.093004
v -0.037371 -0.173620 0.020283
v -0.075602 -0.158308 0.093004
v -0.075602 -0.158308 0.020283
v -0.040707 -0.159252 0.078102
v -0.040707 -0.159252 0.035185
v -0.063270 -0.150216 0.078102
v -0.063270 -0.150216 0.035185
v -0.040707 -0.159252 -0.040027
v -0.040707 -0.159252 -0.103326
v -0.063270 -0.150216 -0.040027
v -0.063270 -0.150216 -0.103326
v 0.000000 -0.025083 -0.234988
v -0.029708 -0.025083 -0.234988
v 0.000000 -0.041829 -0.273257
v -0.023204 -0.041829 -0.273257
v -0.035759 -0.038535 -0.265729
v -0.042263 -0.032562 -0.252080
v -0.103430 0.082277 -0.153174
v -0.122992 0.108713 -0.153174
v -0.069334 0.101805 -0.153174
v -0.069334 0.134318 -0.153174
v -0.099050 0.068171 -0.175699
v -0.111565 0.082934 -0.183950
v -0.077237 0.079076 -0.181794
v -0.077237 0.097233 -0.191942
v -0.100605 0.041402 -0.225595
v -0.110878 0.056165 -0.236511
v -0.077974 0.052307 -0.226493
v -0.075633 0.070464 -0.236367
v -0.095030 0.027899 -0.249104
v -0.105304 0.042662 -0.260020
v -0.072400 0.038804 -0.250002
v -0.070058 0.056961 -0.259876
v -0.018886 -0.135957 0.168935
v -0.028958 -0.024958 0.168935
v 0.000000 -0.024958 0.168935
v 0.000000 -0.135957 0.168935
v -0.038330 -0.114123 0.168935
v -0.048401 -0.074532 0.168935
vn 0.0000 1.0000 0.0000
vn 1.0000 0.0000 0.0000
vn 0.0000 0.0000 -1.0000
vn 0.8141 -0.5807 0.0000
vn 0.3100 -0.7742 0.5519
vn 0.0000 -1.0000 0.0000
vn 0.0000 0.0000 1.0000
vn 0.0000 0.9137 -0.4065
vn -0.5924 0.8057 0.0000
vn 0.4416 -0.7480 0.4954
vn 0.2661 -0.6643 0.6985
vn 0.5859 -0.4001 0.7047
vn -0.9815 -0.1917 -0.0000
vn 0.8264 0.3841 0.4118
vn 0.9779 -0.2092 0.0000
vn -0.4678 0.8839 0.0000
vn -0.4970 -0.8678 -0.0000
vn -0.2092 -0.9779 -0.0000
vn 0.8258 -0.5640 -0.0000
vn 0.5859 -0.4001 -0.7047
vn -0.4265 -0.9045 0.0000
vn 0.9857 -0.1686 -0.0000
vn 0.9068 0.4215 0.0000
vn 0.8264 0.3841 -0.4118
vn 0.6471 0.7624 0.0000
vn 0.9932 0.1165 0.0000
vn 0.4307 0.9025 0.0000
vn 0.3459 0.7248 -0.5959
vn 0.9734 0.2291 0.0000
vn 0.3459 0.7248 0.5959
vn 0.1411 0.7753 0.6156
vn 0.0768 0.5721 0.8166
vn 0.1411 0.7753 -0.6156
vn 0.8757 0.4829 0.0000
vn 0.1117 0.9937 0.0000
vn -0.7371 0.6758 0.0000
vn 0.0768 0.5721 -0.8166
vn 0.7766 -0.5304 -0.3400
vn -0.6728 -0.7398 0.0000
vn 0.1808 -0.9835 0.0000
vn -0.4802 0.6694 0.5669
vn 0.0000 0.9091 -0.4166
vn -0.5641 0.7673 -0.3050
vn -0.5719 -0.6290 -0.5266
vn -0.5578 -0.0335 -0.8293
vn -0.4169 -0.7172 0.5584
vn 0.6710 -0.4294 -0.6045
vn -0.0585 0.9901 0.1278
vn 0.9999 -0.0154 0.0000
vn 0.5422 -0.3703 -0.7543
vn 0.5422 -0.3703 0.7543
vn 0.9819 0.1894 0.0000
vn 0.6599 -0.4507 0.6012
vn 0.3781 -0.9258 0.0000
vn 0.6599 -0.4507 -0.6012
vn 0.7483 0.6633 -0.0079
vn 0.0000 0.9309 0.3652
vn 0.6728 0.7398 0.0000
vn 0.7710 0.6350 -0.0482
vn 0.0000 0.7313 -0.6821
vn 0.0000 -0.9309 -0.3652
vn 0.4057 -0.8164 -0.4110
vn 0.7563 -0.4348 -0.4889
vn 0.9741 -0.2262 0.0000
vn 0.9895 -0.1443 0.0000
vn -0.6164 -0.7875 0.0000
vn 0.3100 -0.7741 -0.5519
vn 0.2887 -0.7207 -0.6302
vn 0.2661 -0.6643 -0.6985
vn 0.3718 -0.9283 0.0000
vn -0.5486 -0.8361 0.0000
vn 0.2887 -0.7207 0.6302
vn 0.3257 -0.8133 -0.4822
vn 0.3257 -0.8133 0.4822
vn -0.0000 0.9161 -0.4009
vn 0.0000 -0.4409 -0.8975
vn 0.3601 -0.4064 -0.8398
vn 0.6878 -0.1461 -0.7110
vn -0.4556 -0.7369 0.4994
vn 0.8038 -0.5948 -0.0000
vn -1.0000 0.0000 0.0000
vn 0.3821 0.8052 -0.4535
vn -0.9800 -0.0391 -0.1952
vn 0.3664 0.6809 -0.6341
vn 0.7923 -0.5774 0.1971
vn -0.3859 -0.7575 0.5266
vn 0.8386 -0.4799 0.2578
vn -0.4513 -0.7813 0.4312
vn -0.9984 -0.0443 0.0363
vn -0.2014 -0.4879 -0.8494
vn -0.9730 -0.0000 0.2307
vn 0.3175 0.7878 -0.5278
vn 0.8491 -0.5192 0.0969
vn 0.7738 0.5772 0.2608
vn 0.0000 -0.9137 0.4065
vn 0.6619 -0.3203 0.6777
vn -0.8141 -0.5807 0.0000
vn -0.3100 -0.7742 0.5519
vn 0.5924 0.8057 0.0000
vn -0.4416 -0.7480 0.4954
vn -0.2661 -0.6643 0.6985
vn -0.5859 -0.4001 0.7047
vn 0.9815 -0.1917 -0.0000
vn -0.8264 0.3841 0.4118
vn -0.9779 -0.2092 0.0000
vn 0.4678 0.8839 0.0000
vn 0.4970 -0.8678 -0.0000
vn 0.2092 -0.9779 -0.0000
vn -0.8258 -0.5640 -0.0000
vn -0.5859 -0.4001 -0.7047
vn 0.4265 -0.9045 0.0000
vn -0.9857 -0.1686 -0.0000
vn -0.9068 0.4215 0.0000
vn -0.8264 0.3841 -0.4118
vn -0.6471 0.7624 0.0000
vn -0.9932 0.1165 0.0000
vn -0.4307 0.9025 0.0000
vn -0.3459 0.7248 -0.5959
vn -0.9734 0.2291 0.0000
vn -0.3459 0.7248 0.5959
vn -0.1411 0.7753 0.6156
vn -0.0768 0.5721 0.8166
vn -0.1411 0.7753 -0.6156
vn -0.8757 0.4829 0.0000
vn -0.1117 0.9937 0.0000
vn 0.7371 0.6758 0.0000
vn -0.0768 0.5721 -0.8166
vn -0.7766 -0.5304 -0.3400
vn 0.6728 -0.7398 0.0000
vn -0.1808 -0.9835 0.0000
vn 0.4802 0.6694 0.5669
vn 0.5641 0.7673 -0.3050
vn 0.5719 -0.6290 -0.5266
vn 0.5578 -0.0335 -0.8293
vn 0.4169 -0.7172 0.5584
vn -0.6710 -0.4294 -0.6045
vn 0.0585 0.9901 0.1278
vn -0.9999 -0.0154 0.0000
vn -0.5422 -0.3703 -0.7543
vn -0.5422 -0.3703 0.7543
vn -0.9819 0.1894 0.0000
vn -0.6599 -0.4507 0.6012
vn -0.3781 -0.9258 0.0000
vn -0.6599 -0.4507 -0.6012
vn -0.7483 0.6633 -0.0079
vn -0.6728 0.7398 0.0000
vn -0.7710 0.6350 -0.0482
vn -0.4057 -0.8164 -0.4110
vn -0.7563 -0.4348 -0.4889
vn -0.9741 -0.2262 0.0000
vn -0.9895 -0.1443 0.0000
vn 0.6164 -0.7875 0.0000
vn -0.3100 -0.7741 -0.5519
vn -0.2887 -0.7207 -0.6302
vn -0.2661 -0.6643 -0.6985
vn -0.3718 -0.9283 0.0000
vn 0.5486 -0.8361 0.0000
vn -0.2887 -0.7207 0.6302
vn -0.3257 -0.8133 -0.4822
vn -0.3257 -0.8133 0.4822
vn -0.3601 -0.4064 -0.8398
vn -0.6878 -0.1461 -0.7110
vn 0.4556 -0.7369 0.4994
vn -0.8038 -0.5948 -0.0000
vn -0.3821 0.8052 -0.4535
vn 0.9800 -0.0391 -0.1952
vn -0.3664 0.6809 -0.6341
vn -0.7923 -0.5774 0.1971
vn 0.3859 -0.7575 0.5266
vn -0.8386 -0.4799 0.2578
vn 0.4513 -0.7813 0.4312
vn 0.9984 -0.0443 0.0363
vn 0.2014 -0.4879 -0.8494
vn 0.9730 -0.0000 0.2307
vn -0.3175 0.7878 -0.5278
vn -0.8491 -0.5192 0.0969
vn -0.7738 0.5772 0.2608
vn -0.6619 -0.3203 0.6777
usemtl None
s off
f 115//1 4//1 3//1 116//1
f 4//2 2//2 1//2 3//2
f 118//3 116//3 3//3 1//3
f 8//4 10//4 63//4 64//4
f 10//5 6//5 69//5 71//5
f 5//6 119//6 120//6 6//6
f 2//7 4//7 115//7 117//7
f 2//8 117//8 237//8 106//8
f 8//4 7//4 9//4 10//4
f 1//9 2//9 11//9 12//9
f 5//10 9//10 107//10 105//10
f 9//11 5//11 73//11 75//11
f 14//3 12//3 16//3 18//3
f 2//7 7//7 13//7 11//7
f 12//1 14//1 44//1 43//1
f 13//12 7//12 23//12 25//12
f 15//7 17//7 21//7 19//7
f 12//13 11//13 15//13 16//13
f 11//7 13//7 17//7 15//7
f 17//14 13//14 27//14 29//14
f 21//15 22//15 36//15 35//15
f 22//16 21//16 33//16 34//16
f 16//17 20//17 91//17 89//17
f 16//17 15//17 19//17 20//17
f 22//3 20//3 138//3 140//3
f 20//18 19//18 137//18 138//18
f 19//7 21//7 139//7 137//7
f 23//19 24//19 26//19 25//19
f 8//20 14//20 26//20 24//20
f 7//21 8//21 24//21 23//21
f 14//22 13//22 25//22 26//22
f 27//23 28//23 30//23 29//23
f 14//24 18//24 30//24 28//24
f 18//25 17//25 29//25 30//25
f 13//26 14//26 28//26 27//26
f 31//27 32//27 34//27 33//27
f 18//28 22//28 34//28 32//28
f 17//29 18//29 32//29 31//29
f 21//30 17//30 31//30 33//30
f 155//31 35//31 37//31 159//31
f 22//3 140//3 156//3 36//3
f 139//7 21//7 35//7 155//7
f 38//32 160//32 164//32 40//32
f 36//33 156//33 160//33 38//33
f 35//34 36//34 38//34 37//34
f 39//35 40//35 164//35 163//35
f 37//36 38//36 40//36 39//36
f 159//37 37//37 39//37 163//37
f 44//38 42//38 46//38 48//38
f 8//39 1//39 41//39 42//39
f 8//40 42//40 56//40 54//40
f 1//9 12//9 43//9 41//9
f 45//41 47//41 51//41 49//41
f 43//42 44//42 48//42 47//42
f 41//43 43//43 47//43 45//43
f 42//44 41//44 45//44 46//44
f 50//45 49//45 51//45 52//45
f 46//46 45//46 49//46 50//46
f 48//47 46//47 50//47 52//47
f 47//48 48//48 52//48 51//48
f 54//49 56//49 60//49 58//49
f 42//50 44//50 55//50 56//50
f 14//51 8//51 54//51 53//51
f 44//52 14//52 53//52 55//52
f 57//19 58//19 60//19 59//19
f 56//53 55//53 59//53 60//53
f 55//54 53//54 57//54 59//54
f 53//55 54//55 58//55 57//55
f 61//56 64//56 68//56 65//56
f 185//57 61//57 65//57 191//57
f 6//6 120//6 187//6 62//6
f 118//1 1//1 61//1 185//1
f 1//58 8//58 64//58 61//58
f 65//59 68//59 88//59 85//59
f 191//60 65//60 85//60 213//60
f 62//61 187//61 193//61 66//61
f 63//62 62//62 66//62 67//62
f 64//63 63//63 67//63 68//63
f 69//64 70//64 82//64 81//64
f 63//65 10//65 71//65 72//65
f 6//66 62//66 70//66 69//66
f 62//67 63//67 72//67 70//67
f 75//68 73//68 77//68 79//68
f 6//69 10//69 76//69 74//69
f 10//65 9//65 75//65 76//65
f 5//66 6//66 74//66 73//66
f 77//70 78//70 80//70 79//70
f 76//71 75//71 79//71 80//71
f 74//72 76//72 80//72 78//72
f 73//64 74//64 78//64 77//64
f 83//70 81//70 82//70 84//70
f 72//71 71//71 83//71 84//71
f 71//73 69//73 81//73 83//73
f 70//74 72//74 84//74 82//74
f 86//75 85//75 88//75 87//75
f 213//75 85//75 86//75 215//75
f 66//76 193//76 215//76 86//76
f 67//77 66//77 86//77 87//77
f 68//78 67//78 87//78 88//78
f 89//79 91//79 95//79 93//79
f 18//80 16//80 89//80 90//80
f 22//27 18//27 90//27 92//27
f 20//81 22//81 92//81 91//81
f 96//82 94//82 98//82 100//82
f 91//83 92//83 96//83 95//83
f 92//84 90//84 94//84 96//84
f 90//85 89//85 93//85 94//85
f 97//86 99//86 103//86 101//86
f 94//87 93//87 97//87 98//87
f 93//88 95//88 99//88 97//88
f 95//89 96//89 100//89 99//89
f 102//90 101//90 103//90 104//90
f 99//91 100//91 104//91 103//91
f 100//92 98//92 102//92 104//92
f 98//93 97//93 101//93 102//93
f 106//7 237//7 238//7 105//7
f 106//7 105//7 107//7 108//7
f 7//94 2//94 106//94 108//94
f 119//95 5//95 105//95 238//95
f 9//96 7//96 108//96 107//96
f 115//1 116//1 111//1 112//1
f 112//81 111//81 109//81 110//81
f 118//3 109//3 111//3 116//3
f 122//97 190//97 189//97 124//97
f 124//98 199//98 197//98 114//98
f 113//6 114//6 120//6 119//6
f 110//7 117//7 115//7 112//7
f 110//8 236//8 237//8 117//8
f 122//97 124//97 123//97 121//97
f 109//99 126//99 125//99 110//99
f 113//100 235//100 239//100 123//100
f 123//101 203//101 201//101 113//101
f 128//3 132//3 130//3 126//3
f 110//7 125//7 127//7 121//7
f 126//1 167//1 168//1 128//1
f 127//102 143//102 141//102 121//102
f 129//7 133//7 135//7 131//7
f 126//103 130//103 129//103 125//103
f 125//7 129//7 131//7 127//7
f 131//104 147//104 145//104 127//104
f 135//105 153//105 154//105 136//105
f 136//106 152//106 151//106 135//106
f 130//107 219//107 221//107 134//107
f 130//107 134//107 133//107 129//107
f 138//2 140//2 139//2 137//2
f 136//3 140//3 138//3 134//3
f 134//108 138//108 137//108 133//108
f 133//7 137//7 139//7 135//7
f 141//109 143//109 144//109 142//109
f 122//110 142//110 144//110 128//110
f 121//111 141//111 142//111 122//111
f 128//112 144//112 143//112 127//112
f 145//113 147//113 148//113 146//113
f 128//114 146//114 148//114 132//114
f 132//115 148//115 147//115 131//115
f 127//116 145//116 146//116 128//116
f 149//117 151//117 152//117 150//117
f 132//118 150//118 152//118 136//118
f 131//119 149//119 150//119 132//119
f 135//120 151//120 149//120 131//120
f 155//121 159//121 157//121 153//121
f 136//3 154//3 156//3 140//3
f 139//7 155//7 153//7 135//7
f 158//122 162//122 164//122 160//122
f 154//123 158//123 160//123 156//123
f 153//124 157//124 158//124 154//124
f 161//125 163//125 164//125 162//125
f 157//126 161//126 162//126 158//126
f 159//127 163//127 161//127 157//127
f 168//128 172//128 170//128 166//128
f 122//129 166//129 165//129 109//129
f 122//130 178//130 180//130 166//130
f 109//99 165//99 167//99 126//99
f 169//131 173//131 175//131 171//131
f 167//42 171//42 172//42 168//42
f 165//132 169//132 171//132 167//132
f 166//133 170//133 169//133 165//133
f 174//134 176//134 175//134 173//134
f 170//135 174//135 173//135 169//135
f 172//136 176//136 174//136 170//136
f 171//137 175//137 176//137 172//137
f 178//138 182//138 184//138 180//138
f 166//139 180//139 179//139 168//139
f 128//140 177//140 178//140 122//140
f 168//141 179//141 177//141 128//141
f 181//109 183//109 184//109 182//109
f 180//142 184//142 183//142 179//142
f 179//143 183//143 181//143 177//143
f 177//144 181//144 182//144 178//144
f 186//145 192//145 196//145 190//145
f 185//57 191//57 192//57 186//57
f 114//6 188//6 187//6 120//6
f 118//1 185//1 186//1 109//1
f 109//146 186//146 190//146 122//146
f 192//147 214//147 218//147 196//147
f 191//60 213//60 214//60 192//60
f 188//61 194//61 193//61 187//61
f 189//148 195//148 194//148 188//148
f 190//149 196//149 195//149 189//149
f 197//150 209//150 210//150 198//150
f 189//151 200//151 199//151 124//151
f 114//152 197//152 198//152 188//152
f 188//153 198//153 200//153 189//153
f 203//154 207//154 205//154 201//154
f 114//155 202//155 204//155 124//155
f 124//151 204//151 203//151 123//151
f 113//152 201//152 202//152 114//152
f 205//156 207//156 208//156 206//156
f 204//157 208//157 207//157 203//157
f 202//158 206//158 208//158 204//158
f 201//150 205//150 206//150 202//150
f 211//156 212//156 210//156 209//156
f 200//157 212//157 211//157 199//157
f 199//159 211//159 209//159 197//159
f 198//160 210//160 212//160 200//160
f 216//75 217//75 218//75 214//75
f 213//75 215//75 216//75 214//75
f 194//76 216//76 215//76 193//76
f 195//161 217//161 216//161 194//161
f 196//162 218//162 217//162 195//162
f 219//163 223//163 225//163 221//163
f 132//164 220//164 219//164 130//164
f 136//117 222//117 220//117 132//117
f 134//2 221//2 222//2 136//2
f 226//165 230//165 228//165 224//165
f 221//166 225//166 226//166 222//166
f 222//167 226//167 224//167 220//167
f 220//168 224//168 223//168 219//168
f 227//169 231//169 233//169 229//169
f 224//170 228//170 227//170 223//170
f 223//171 227//171 229//171 225//171
f 225//172 229//172 230//172 226//172
f 232//173 234//173 233//173 231//173
f 229//174 233//174 234//174 230//174
f 230//175 234//175 232//175 228//175
f 228//176 232//176 231//176 227//176
f 236//7 235//7 238//7 237//7
f 236//7 240//7 239//7 235//7
f 121//177 240//177 236//177 110//177
f 119//95 238//95 235//95 113//95
f 123//178 239//178 240//178 121//178
