# Blender v2.70 (sub 0) OBJ File: 'randoms2.blend'
# www.blender.org
mtllib head.mtl
o imo_head37_00
v 0.100222 -0.023582 0.184993
v -0.000169 0.134593 0.206065
v -0.000169 -0.033824 0.285853
v -0.000169 0.267442 0.289542
v 0.079660 0.008280 0.267877
v 0.045921 0.123312 0.211975
v 0.057792 0.134552 0.148693
v 0.100222 0.092181 0.158304
v 0.033351 0.183468 0.267361
v 0.034049 0.063069 0.360394
v 0.034049 0.128238 0.227114
v 0.059098 0.076841 0.333569
v -0.000169 0.058028 0.370037
v -0.000169 0.023744 0.354955
v 0.045921 -0.022542 0.281177
v 0.064180 0.052054 0.320841
v 0.037077 0.031333 0.346006
v 0.079660 0.092489 0.227798
v 0.092010 0.050385 0.248476
v 0.068267 0.095654 0.295733
v 0.073672 0.080310 0.284821
v 0.059098 0.114467 0.256584
v -0.046258 -0.022542 0.281177
v -0.033688 0.183468 0.267361
v -0.000169 0.178022 0.309078
v -0.100559 -0.023582 0.184993
v -0.116090 0.034299 0.171783
v -0.092347 0.050385 0.248476
v -0.058129 0.134552 0.148693
v -0.079997 0.092489 0.227798
v -0.046258 0.123312 0.211975
v -0.034386 0.128238 0.227114
v -0.059435 0.114467 0.256584
v -0.000169 0.188915 0.225331
v -0.059435 0.076841 0.333569
v -0.068604 0.095654 0.295733
v -0.037414 0.031333 0.346006
v -0.064517 0.052054 0.320841
v -0.034386 0.063069 0.360394
v -0.079997 0.008280 0.267877
v -0.074009 0.080310 0.284821
v 0.057792 -0.065954 0.194110
v 0.069664 -0.090348 0.169372
v 0.115753 0.034299 0.171783
v 0.069664 0.151557 0.118673
v 0.175880 -0.071038 0.119458
v 0.120784 0.100436 0.128284
v 0.139496 0.030604 0.143198
v -0.000169 0.233888 0.067795
v 0.055612 -0.296849 0.135259
v 0.160446 -0.258691 0.121017
v 0.206313 -0.226575 0.111642
v 0.301686 -0.090367 0.076127
v 0.316179 -0.036281 0.061167
v 0.175880 0.132246 0.069275
v 0.301686 0.129365 0.014920
v 0.278022 0.180114 0.004614
v 0.245906 0.225981 -0.000073
v 0.160446 0.297690 0.008584
v 0.206313 0.265573 0.001542
v 0.109698 0.321354 0.018475
v 0.055612 0.335846 0.027401
v 0.101474 0.206653 0.064520
v 0.203115 0.030604 0.091053
v 0.316179 0.075280 0.029117
v 0.321059 0.019500 0.045120
v 0.101474 -0.145446 0.142380
v 0.109698 -0.282356 0.129158
v 0.278022 -0.141114 0.089471
v 0.245906 -0.186982 0.101224
v -0.176217 -0.071038 0.119458
v -0.121121 -0.039228 0.158606
v -0.203452 0.030604 0.091053
v -0.176217 0.132246 0.069275
v -0.121121 0.100436 0.128284
v -0.000169 -0.172680 0.151968
v -0.000169 -0.109059 0.173118
v -0.000169 -0.301728 0.137703
v -0.206650 -0.226575 0.111642
v -0.160783 -0.258691 0.121017
v -0.316516 -0.036281 0.061167
v -0.302024 -0.090367 0.076127
v -0.110035 -0.282356 0.129158
v -0.055949 -0.296849 0.135259
v -0.246243 -0.186982 0.101224
v -0.101811 -0.145446 0.142380
v -0.278360 0.180114 0.004614
v -0.302024 0.129365 0.014920
v -0.206650 0.265573 0.001542
v -0.246243 0.225981 -0.000073
v -0.101811 0.206653 0.064520
v -0.110035 0.321354 0.018475
v -0.160783 0.297690 0.008584
v -0.055949 0.335846 0.027401
v -0.000169 0.340727 0.031248
v -0.321396 0.019500 0.045120
v -0.316516 0.075280 0.029117
v -0.278360 -0.141114 0.089471
v -0.000169 0.150062 0.145307
v -0.000169 -0.081463 0.197250
v -0.058129 -0.065954 0.194110
v -0.139833 0.030604 0.143198
v -0.100559 0.092181 0.158304
v -0.070001 0.151557 0.118673
v -0.070001 -0.090348 0.169372
v 0.120784 -0.039228 0.158606
v -0.000169 0.170269 0.115656
v 0.040761 -0.212622 0.114914
v 0.117683 -0.184624 0.104464
v 0.151338 -0.161059 0.097585
v 0.221319 -0.061115 0.071526
v 0.231952 -0.021430 0.060549
v 0.221319 0.100114 0.026615
v 0.203955 0.137351 0.019053
v 0.180390 0.171006 0.015614
v 0.117683 0.223623 0.021966
v 0.151338 0.200057 0.016799
v 0.080446 0.240986 0.029224
v 0.040761 0.251620 0.035774
v 0.231952 0.060429 0.037032
v 0.235533 0.019500 0.048774
v 0.080446 -0.201988 0.110438
v 0.203955 -0.098351 0.081318
v 0.180390 -0.132007 0.089941
v -0.000169 -0.216202 0.116708
v -0.151675 -0.161059 0.097585
v -0.118020 -0.184624 0.104464
v -0.232289 -0.021430 0.060549
v -0.221656 -0.061115 0.071526
v -0.080783 -0.201988 0.110438
v -0.041098 -0.212622 0.114914
v -0.180727 -0.132007 0.089941
v -0.204292 0.137351 0.019053
v -0.221656 0.100114 0.026615
v -0.151675 0.200057 0.016799
v -0.180727 0.171006 0.015614
v -0.080783 0.240986 0.029224
v -0.118020 0.223623 0.021966
v -0.041098 0.251620 0.035774
v -0.000169 0.255201 0.038596
v -0.235870 0.019500 0.048774
v -0.232289 0.060429 0.037032
v -0.204292 -0.098351 0.081318
v 0.023526 -0.114420 0.113558
v 0.070068 -0.097480 0.107235
v 0.090431 -0.083222 0.103073
v 0.132773 -0.022751 0.087305
v 0.139207 0.001261 0.080664
v 0.132773 0.074801 0.060132
v 0.122267 0.097331 0.055557
v 0.108009 0.117694 0.053476
v 0.070068 0.149531 0.057319
v 0.090431 0.135272 0.054193
v 0.047538 0.160036 0.061710
v 0.023526 0.166470 0.065673
v 0.139207 0.050790 0.066435
v 0.141374 0.026025 0.073540
v 0.047538 -0.107986 0.110849
v 0.122267 -0.045280 0.093230
v 0.108009 -0.065644 0.098448
v -0.001238 -0.116586 0.114643
v -0.092907 -0.083222 0.103073
v -0.072544 -0.097480 0.107235
v -0.141683 0.001261 0.080664
v -0.135249 -0.022751 0.087305
v -0.050014 -0.107986 0.110849
v -0.026002 -0.114420 0.113558
v -0.110485 -0.065644 0.098448
v -0.124743 0.097331 0.055557
v -0.135249 0.074801 0.060132
v -0.092907 0.135272 0.054193
v -0.110485 0.117694 0.053476
v -0.050014 0.160036 0.061710
v -0.072544 0.149531 0.057319
v -0.026002 0.166470 0.065673
v -0.001238 0.168637 0.067381
v -0.143849 0.026025 0.073540
v -0.141683 0.050790 0.066435
v -0.124743 -0.045280 0.093230
v 0.057194 0.133986 0.151881
v -0.000169 0.149283 0.148367
v -0.099523 -0.021977 0.189168
v 0.099186 0.092196 0.161804
v -0.000169 -0.079063 0.201714
v -0.057531 0.133986 0.151881
v 0.114557 0.035110 0.175646
v 0.057194 -0.063767 0.198496
v -0.099523 0.092196 0.161804
v -0.057531 -0.063767 0.198496
v -0.114894 0.035110 0.175646
v 0.099186 -0.021977 0.189168
v -0.000169 -0.113688 0.171579
v -0.125129 -0.041542 0.155758
v -0.125129 0.102751 0.123990
v -0.072315 -0.094357 0.167408
v -0.072315 0.155566 0.114733
v 0.144125 0.030604 0.139404
v 0.124792 -0.041542 0.155758
v -0.144462 0.030604 0.139404
v 0.124792 0.102751 0.123990
v 0.071978 -0.094357 0.167408
v 0.071978 0.155566 0.114733
v -0.000169 0.174898 0.112174
vt 0.794205 0.068455
vt 0.846735 0.062560
vt 0.869530 0.021450
vt 0.813810 0.021450
vt 0.489770 0.095700
vt 0.553805 0.090955
vt 0.541060 0.021450
vt 0.468180 0.021450
vt 0.641615 0.083530
vt 0.729675 0.075125
vt 0.740770 0.021450
vt 0.640870 0.021450
vt 0.426930 0.104120
vt 0.404190 0.021450
vt 0.382320 0.806530
vt 0.323060 0.865790
vt 0.430390 0.737880
vt 0.465810 0.661920
vt 0.097500 0.024000
vt 0.014020 0.016690
vt 0.014020 0.978270
vt 0.097500 0.970970
vt 0.494800 0.497480
vt 0.487500 0.413990
vt 0.465810 0.333040
vt 0.323060 0.129180
vt 0.254410 0.081110
vt 0.382320 0.188440
vt 0.430390 0.257090
vt 0.178460 0.045690
vt 0.487500 0.580970
vt 0.254410 0.913860
vt 0.178460 0.949280
vt 0.118530 0.315190
vt 0.142340 0.273960
vt 0.236280 0.367905
vt 0.195050 0.391710
vt 0.195050 0.600750
vt 0.236280 0.624555
vt 0.142340 0.718495
vt 0.118530 0.677260
vt 0.223050 0.496230
vt 0.270665 0.496230
vt 0.014020 0.705270
vt 0.014020 0.752880
vt 0.014020 0.287190
vt 0.014020 0.239580
vt 0.608920 0.978860
vt 0.608920 0.890100
vt 0.543380 0.890800
vt 0.543380 0.978860
vt 0.166150 0.232730
vt 0.277510 0.344100
vt 0.679850 0.211760
vt 0.745430 0.180590
vt 0.718580 0.128800
vt 0.642360 0.145610
vt 0.608920 0.609300
vt 0.543380 0.611230
vt 0.543380 0.541940
vt 0.608920 0.543580
vt 0.855750 0.221400
vt 0.987040 0.284910
vt 0.833130 0.283290
vt 0.318280 0.496230
vt 0.277510 0.648360
vt 0.701600 0.233850
vt 0.658200 0.285120
vt 0.608920 0.795200
vt 0.608920 0.696880
vt 0.543380 0.696970
vt 0.543380 0.795550
vt 0.878460 0.159010
vt 0.823940 0.103670
vt 0.777780 0.140360
vt 0.774600 0.115460
vt 0.626720 0.321310
vt 0.591740 0.361460
vt 0.822430 0.122720
vt 0.166150 0.759730
vt 0.529990 0.320920
vt 0.449670 0.186790
vt 0.511360 0.169950
vt 0.579060 0.288120
vt 0.014020 0.800490
vt 0.621460 0.256920
vt 0.566550 0.160460
vt 0.014020 0.191970
vt 0.543380 0.459760
vt 0.608920 0.459770
vn -0.238746 0.944370 0.226199
vn -0.689587 -0.604227 0.399222
vn -0.920236 0.305479 0.244639
vn 0.920236 0.305478 0.244639
vn 0.689588 -0.604227 0.399222
vn 0.238745 0.944370 0.226199
vn -0.933047 -0.178111 0.312569
vn -0.252842 -0.851898 0.458630
vn 0.933048 -0.178111 0.312568
vn 0.662498 0.715793 0.220763
vn 0.252842 -0.851898 0.458630
vn -0.662499 0.715793 0.220761
vn 0.146348 -0.106236 -0.983512
vn -0.059534 -0.225248 -0.972481
vn -0.021704 -0.238351 -0.970937
vn -0.075972 -0.085354 -0.993450
vn -0.041073 -0.272920 -0.961159
vn -0.038208 -0.256864 -0.965692
vn -0.033136 -0.236164 -0.971148
vn 0.026212 -0.230858 -0.972634
vn -0.044489 -0.241965 -0.969264
vn -0.042940 -0.241449 -0.969463
vn 0.075972 -0.085354 -0.993450
vn -0.025692 -0.230269 -0.972788
vn -0.026212 -0.230858 -0.972634
vn 0.025692 -0.230269 -0.972788
vn -0.043872 -0.264630 -0.963351
vn 0.059534 -0.225248 -0.972481
vn 0.038208 -0.256864 -0.965692
vn 0.021704 -0.238351 -0.970936
vn 0.195176 -0.064137 -0.978669
vn 0.095005 -0.166822 -0.981399
vn 0.043872 -0.264631 -0.963351
vn 0.033136 -0.236164 -0.971148
vn -0.095005 -0.166822 -0.981399
vn 0.041000 -0.278842 -0.959461
vn 0.044489 -0.241965 -0.969264
vn -0.214511 -0.052368 -0.975317
vn -0.179648 -0.065887 -0.981522
vn -0.031903 -0.240249 -0.970187
vn 0.179648 -0.065887 -0.981522
vn 0.042940 -0.241448 -0.969463
vn -0.146348 -0.106236 -0.983512
vn 0.041073 -0.272920 -0.961159
vn 0.031903 -0.240249 -0.970187
vn 0.214511 -0.052368 -0.975317
vn -0.041000 -0.278842 -0.959461
vn -0.195176 -0.064137 -0.978669
vn 0.426220 -0.237992 0.872752
vn 0.410363 0.543312 0.732403
vn 0.601300 0.317730 0.733134
vn -0.137057 0.624214 0.769137
vn -0.426221 -0.237992 0.872752
vn -0.410363 0.543312 0.732403
vn -0.611740 0.013025 0.790951
vn 0.142651 -0.338888 0.929949
vn -0.142651 -0.338888 0.929949
vn 0.137057 0.624214 0.769137
vn 0.611740 0.013025 0.790952
vn -0.601300 0.317731 0.733134
vn 0.000000 -0.658180 0.752861
vn -0.400302 -0.548556 0.734060
vn -0.404794 -0.545871 0.733599
vn 0.305948 -0.277659 0.910660
vn 0.256752 -0.143529 0.955748
vn 0.420545 0.019807 0.907041
vn 0.533732 -0.095507 0.840243
vn -0.952269 0.208380 0.222938
vn -0.861538 0.502426 -0.072481
vn -0.814173 0.552934 0.177068
vn -0.949553 0.118137 0.290445
vn 0.650648 0.488038 0.581787
vn 0.641913 0.500908 0.580550
vn 0.363062 0.743906 0.561061
vn 0.370090 0.740295 0.561246
vn 0.895260 0.442244 -0.053835
vn 0.000000 0.970794 0.239784
vn 0.000000 0.497818 0.867275
vn -0.375632 0.323016 0.868655
vn -0.372723 0.295989 0.879470
vn -0.474075 0.223334 0.851650
vn -0.429731 0.377728 0.820124
vn -0.895260 0.442244 -0.053835
vn -0.901822 0.342784 0.262978
vn -0.780389 0.204382 0.590899
vn -0.682676 -0.255007 0.684781
vn -0.769287 0.127473 0.626058
vn -0.768133 0.145149 0.623622
vn -0.688516 -0.243900 0.682978
vn 0.000000 0.540819 -0.841121
vn 0.000000 0.969573 -0.244667
vn 0.630177 0.692740 -0.350597
vn 0.483200 0.870083 0.097079
vn 0.479965 0.059786 0.875240
vn 0.000000 -0.005127 0.999969
vn 0.901822 0.342784 0.262978
vn 0.861538 0.502426 -0.072481
vn 0.814173 0.552934 0.177068
vn 0.780389 0.204382 0.590899
vn 0.529025 0.415487 0.739934
vn 0.429731 0.377728 0.820124
vn 0.288766 0.442854 0.848811
vn 0.310109 0.571961 0.759403
vn 0.615175 0.168980 0.770069
vn 0.474746 0.225166 0.850826
vn 0.000000 -0.595874 0.803064
vn 0.000000 -0.826868 0.562365
vn 0.494247 -0.694876 0.522324
vn 0.518448 -0.478744 0.708487
vn 0.952269 0.208380 0.222938
vn -0.154444 0.326761 0.932402
vn -0.285836 0.443098 0.849666
vn 0.010346 0.459670 0.887997
vn -0.006926 0.320282 0.947297
vn -0.650648 0.488038 0.581787
vn -0.641913 0.500908 0.580550
vn 0.355911 0.358159 0.863163
vn 0.375632 0.323016 0.868655
vn 0.377819 0.351084 0.856734
vn -0.518448 -0.478744 0.708487
vn -0.494247 -0.694876 0.522324
vn -0.479965 0.059786 0.875240
vn -0.858791 -0.176397 0.480941
vn -0.483200 0.870083 0.097079
vn -0.630177 0.692740 -0.350597
vn 0.769287 0.127473 0.626058
vn 0.768133 0.145149 0.623622
vn -0.310109 0.571961 0.759404
vn 0.000000 0.625044 0.780590
vn 0.682676 -0.255007 0.684781
vn 0.688516 -0.243900 0.682978
vn -0.345085 0.344077 0.873228
vn -0.355911 0.358159 0.863163
vn -0.842738 -0.339946 0.417341
vn 0.858791 -0.176397 0.480941
vn 0.842738 -0.339946 0.417341
vn 0.949553 0.118137 0.290445
vn -0.305948 -0.277659 0.910660
vn -0.533732 -0.095507 0.840243
vn -0.417524 0.013459 0.908536
vn -0.255196 -0.144963 0.955931
vn 0.345085 0.344077 0.873228
vn 0.311477 0.055527 0.948630
vn 0.280680 0.008898 0.959760
vn -0.191014 -0.072732 0.978889
vn -0.139334 -0.082200 0.986828
vn 0.000000 -0.196814 0.980407
vn -0.529025 0.415487 0.739934
vn -0.370090 0.740295 0.561246
vn -0.363062 0.743906 0.561061
vn 0.000000 0.830685 0.556742
vn -0.000000 -0.109867 0.993946
vn 0.099004 -0.088895 0.991108
vn 0.191014 -0.072732 0.978889
vn 0.256946 -0.033893 0.965831
vn 0.340984 0.133198 0.930585
vn 0.349788 0.179039 0.919561
vn 0.139334 -0.082200 0.986828
vn 0.233855 0.328965 0.914928
vn 0.134322 0.323894 0.936510
vn -0.615175 0.168980 0.770069
vn 0.341672 0.321325 0.883182
vn -0.286245 0.016458 0.958015
vn -0.260451 -0.021123 0.965256
vn 0.372723 0.295989 0.879470
vn 0.362557 0.237267 0.901253
vn -0.355104 0.190508 0.915209
vn -0.340695 0.134279 0.930535
vn -0.099004 -0.088895 0.991108
vn -0.319276 0.060689 0.945717
vn 0.404794 -0.545871 0.733599
vn 0.400302 -0.548556 0.734060
vn -0.000000 -0.337519 0.941319
vn -0.341672 0.321325 0.883182
vn -0.279661 0.340338 0.897753
vn -0.371631 0.256623 0.892208
vn -0.377819 0.351084 0.856734
vn -0.000653 -0.315534 -0.948914
vn -0.164001 -0.297111 -0.940653
vn -0.158687 -0.298367 -0.941167
vn 0.000732 -0.315549 -0.948909
vn -0.282220 -0.270517 -0.920420
vn -0.265288 -0.295602 -0.917737
vn -0.265398 -0.295406 -0.917768
vn -0.282884 -0.269651 -0.920470
vn 0.268061 -0.266088 -0.925927
vn 0.265626 -0.298957 -0.916552
vn 0.265674 -0.298707 -0.916620
vn 0.268062 -0.265927 -0.925973
vn -0.195922 -0.088504 -0.976617
vn -0.172329 -0.065555 -0.982856
vn -0.172662 -0.065821 -0.982780
vn -0.196341 -0.088977 -0.976490
vn 0.072644 -0.024941 -0.997046
vn 0.121452 -0.035415 -0.991965
vn 0.122167 -0.035650 -0.991869
vn 0.073547 -0.025079 -0.996976
vn -0.258502 -0.308065 -0.915572
vn -0.260110 -0.298430 -0.918304
vn -0.260145 -0.298247 -0.918354
vn -0.258497 -0.308079 -0.915569
vn -0.000264 -0.020730 -0.999785
vn 0.000311 -0.020723 -0.999785
vn 0.263322 -0.218512 -0.939635
vn 0.263385 -0.218847 -0.939539
vn -0.149719 -0.050411 -0.987443
vn -0.149999 -0.050565 -0.987392
vn 0.270198 -0.298002 -0.915526
vn 0.286791 -0.274065 -0.917954
vn 0.287256 -0.273473 -0.917985
vn 0.270220 -0.297964 -0.915532
vn -0.300994 -0.248449 -0.920693
vn -0.301830 -0.247632 -0.920639
vn 0.263714 -0.309503 -0.913599
vn 0.263707 -0.309520 -0.913595
vn -0.257846 -0.219885 -0.940833
vn -0.243380 -0.168878 -0.955116
vn -0.243593 -0.169432 -0.954964
vn -0.257883 -0.220088 -0.940775
vn 0.174604 -0.062552 -0.982650
vn 0.199053 -0.085551 -0.976247
vn 0.199725 -0.086289 -0.976045
vn 0.175193 -0.063007 -0.982516
vn 0.304955 -0.253279 -0.918070
vn 0.305594 -0.252673 -0.918024
vn 0.306073 -0.250395 -0.918489
vn 0.266096 -0.270196 -0.925304
vn 0.262972 -0.271580 -0.925792
vn 0.305324 -0.250907 -0.918598
vn 0.163572 -0.300908 -0.939520
vn 0.160207 -0.301627 -0.939870
vn -0.120772 -0.037940 -0.991955
vn -0.072756 -0.026542 -0.996997
vn -0.072820 -0.026554 -0.996992
vn -0.121026 -0.038029 -0.991921
vn -0.264847 -0.264480 -0.927311
vn -0.303225 -0.244587 -0.920995
vn -0.302378 -0.245187 -0.921114
vn -0.260894 -0.266325 -0.927904
vn 0.151197 -0.047511 -0.987361
vn 0.151774 -0.047815 -0.987258
vn -0.221095 -0.123162 -0.967444
vn -0.221477 -0.123788 -0.967277
vn 0.225149 -0.120463 -0.966849
vn 0.225731 -0.121391 -0.966597
vn -0.262396 -0.266515 -0.927425
vn -0.262397 -0.266361 -0.927469
vn 0.248280 -0.166708 -0.954236
vn 0.248599 -0.167522 -0.954010
vn 0.000000 0.972861 0.231389
vn -0.435914 0.870821 0.227266
vn -0.843369 -0.393813 0.365569
vn -0.487547 -0.752129 0.443395
vn -0.792820 0.562750 0.233986
vn -0.954659 0.096323 0.281690
vn 0.954658 0.096323 0.281690
vn 0.792820 0.562750 0.233986
vn 0.487547 -0.752129 0.443395
vn 0.843369 -0.393813 0.365570
vn 0.435914 0.870821 0.227266
vn 0.000000 -0.880479 0.474086
g Jhead
usemtl imo_head37_00A.bmp
s off
f 185/1/1 181/2/1 99/3/1 29/4/1
f 189/5/2 182/6/2 26/7/2 101/8/2
f 190/9/3 188/10/3 103/11/3 27/12/3
f 186/9/4 44/12/4 8/11/4 183/10/4
f 187/5/5 42/8/5 1/7/5 191/6/5
f 180/1/6 7/4/6 99/3/6 181/2/6
f 182/6/7 190/9/7 27/12/7 26/7/7
f 184/13/8 189/5/8 101/8/8 100/14/8
f 191/6/9 1/7/9 44/12/9 186/9/9
f 183/10/10 8/11/10 7/4/10 180/1/10
f 184/13/11 100/14/11 42/8/11 187/5/11
f 188/10/12 185/1/12 29/4/12 103/11/12
f 90/15/13 89/16/13 135/16/13 136/15/13
f 57/17/14 56/18/14 113/18/14 114/17/14
f 50/19/15 78/20/15 125/20/15 108/19/15
f 95/21/16 62/22/16 119/22/16 140/21/16
f 66/23/17 54/24/17 112/24/17 121/23/17
f 54/24/18 53/25/18 111/25/18 112/24/18
f 52/26/19 51/27/19 109/27/19 110/26/19
f 85/28/20 98/29/20 143/29/20 132/28/20
f 68/30/21 50/19/21 108/19/21 122/30/21
f 51/27/22 68/30/22 122/30/22 109/27/22
f 94/22/23 95/21/23 140/21/23 139/22/23
f 70/28/24 52/26/24 110/26/24 124/28/24
f 69/29/25 70/28/25 124/28/25 123/29/25
f 79/26/26 85/28/26 132/28/26 126/26/26
f 56/18/27 65/31/27 120/31/27 113/18/27
f 88/18/28 87/17/28 133/17/28 134/18/28
f 82/25/29 81/24/29 128/24/29 129/25/29
f 78/20/30 84/19/30 131/19/30 125/20/30
f 89/16/31 93/32/31 138/32/31 135/16/31
f 87/17/32 90/15/32 136/15/32 133/17/32
f 97/31/33 88/18/33 134/18/33 142/31/33
f 80/27/34 79/26/34 126/26/34 127/27/34
f 58/15/35 57/17/35 114/17/35 115/15/35
f 96/23/36 97/31/36 142/31/36 141/23/36
f 84/19/37 83/30/37 130/30/37 131/19/37
f 61/33/38 59/32/38 116/32/38 118/33/38
f 62/22/39 61/33/39 118/33/39 119/22/39
f 53/25/40 69/29/40 123/29/40 111/25/40
f 92/33/41 94/22/41 139/22/41 137/33/41
f 83/30/42 80/27/42 127/27/42 130/30/42
f 60/16/43 58/15/43 115/15/43 117/16/43
f 81/24/44 96/23/44 141/23/44 128/24/44
f 98/29/45 82/25/45 129/25/45 143/29/45
f 93/32/46 92/33/46 137/33/46 138/32/46
f 65/31/47 66/23/47 121/23/47 120/31/47
f 59/32/48 60/16/48 117/16/48 116/32/48
f 43/34/49 201/35/49 198/36/49 106/37/49
f 47/38/50 200/39/50 202/40/50 45/41/50
f 48/42/51 197/43/51 200/39/51 47/38/51
f 104/41/52 107/44/52 203/45/52 196/40/52
f 105/34/53 72/37/53 193/36/53 195/35/53
f 75/38/54 104/41/54 196/40/54 194/39/54
f 72/37/55 102/42/55 199/43/55 193/36/55
f 77/46/56 192/47/56 201/35/56 43/34/56
f 77/46/57 105/34/57 195/35/57 192/47/57
f 45/41/58 202/40/58 203/45/58 107/44/58
f 106/37/59 198/36/59 197/43/59 48/42/59
f 102/42/60 75/38/60 194/39/60 199/43/60
s 1
f 100/48/61 101/49/62 105/50/63 77/51/61
f 201/35/64 67/52/65 46/53/66 198/36/67
f 41/54/68 33/55/69 30/56/70 28/57/71
f 8/58/72 47/59/73 45/60/74 7/61/75
f 9/62/76 4/63/77 25/64/78
f 88/18/79 97/31/80 73/65/81 74/66/82
f 24/62/83 36/67/84 35/68/85 25/64/78
f 26/69/86 27/70/87 102/71/88 72/72/89
f 34/73/90 4/63/77 9/62/76
f 2/74/91 11/75/92 6/76/93
f 10/77/94 25/64/78 13/78/95
f 9/62/76 20/67/96 22/55/97
f 9/62/76 22/55/97 11/75/92
f 18/56/98 6/76/93 11/75/92 22/55/97
f 10/77/94 12/68/99 25/64/78
f 101/49/62 26/69/86 72/72/89 105/50/63
f 2/79/91 34/73/90 9/62/76 11/75/92
f 200/39/100 55/66/101 63/80/102 202/40/103
f 197/43/104 64/65/105 55/66/101 200/39/100
f 14/81/106 3/82/107 15/83/108 17/84/109
f 13/78/95 14/81/106 17/84/109 10/77/94
f 20/67/96 21/54/110 22/55/97
f 94/22/111 91/80/112 49/85/113 95/21/114
f 27/70/87 103/58/115 75/59/116 102/71/88
f 58/15/117 55/66/101 56/18/118 57/17/119
f 24/62/83 25/64/78 4/63/77
f 14/81/106 37/84/120 23/83/121 3/82/107
f 39/77/122 35/68/85 38/86/123 37/84/120
f 34/73/90 24/62/83 4/63/77
f 2/74/91 31/76/124 32/75/125
f 39/77/122 13/78/95 25/64/78
f 24/62/83 33/55/69 36/67/84
f 24/62/83 32/75/125 33/55/69
f 44/70/126 48/71/127 47/59/73 8/58/72
f 39/77/122 25/64/78 35/68/85
f 196/40/128 203/45/129 49/85/113 91/80/112
f 48/71/127 44/70/126 1/69/130 106/72/131
f 35/68/85 36/67/84 41/54/68 38/86/123
f 91/80/112 89/16/132 90/15/133 74/66/82
f 37/84/120 38/86/123 40/87/134 23/83/121
f 32/75/125 31/76/124 30/56/70 33/55/69
f 16/86/135 5/87/136 19/57/137 21/54/110
f 36/67/84 33/55/69 41/54/68
f 18/56/98 22/55/97 21/54/110 19/57/137
f 12/68/99 16/86/135 21/54/110 20/67/96
f 12/68/99 20/67/96 9/62/76 25/64/78
f 195/35/138 193/36/139 71/53/140 86/52/141
f 63/80/102 55/66/101 58/15/117 60/16/142
f 69/29/143 46/53/66 67/52/65 70/28/144
f 80/27/145 83/30/146 76/88/147 86/52/141
f 38/86/123 41/54/68 28/57/71 40/87/134
f 194/39/148 196/40/128 91/80/112 74/66/82
f 103/58/115 29/61/149 104/60/150 75/59/116
f 7/61/75 45/60/74 107/89/151 99/90/151
f 76/88/147 78/20/152 50/19/153
f 67/52/65 51/27/154 52/26/155
f 67/52/65 52/26/155 70/28/144
f 46/53/66 69/29/143 53/25/156
f 46/53/66 53/25/156 54/24/157
f 68/30/158 76/88/147 50/19/153
f 49/85/113 63/80/102 61/33/159 62/22/160
f 13/78/95 39/77/122 37/84/120 14/81/106
f 193/36/139 199/43/161 73/65/81 71/53/140
f 59/32/162 63/80/102 60/16/142
f 61/33/159 63/80/102 59/32/162
f 71/53/140 85/28/163 79/26/164 86/52/141
f 95/21/114 49/85/113 62/22/160
f 10/77/94 17/84/109 16/86/135 12/68/99
f 65/31/165 64/65/105 66/23/166
f 73/65/81 81/24/167 82/25/168 71/53/140
f 64/65/105 65/31/165 56/18/118 55/66/101
f 66/23/166 64/65/105 46/53/66 54/24/157
f 76/88/147 84/19/169 78/20/152
f 86/52/141 79/26/164 80/27/145
f 71/53/140 82/25/168 98/29/170
f 100/48/61 77/51/61 43/50/171 42/49/172
f 83/30/146 84/19/169 76/88/147
f 29/61/149 99/90/151 107/89/151 104/60/150
f 192/47/173 76/88/147 67/52/65 201/35/64
f 192/47/173 195/35/138 86/52/141 76/88/147
f 93/32/174 89/16/132 91/80/112
f 92/33/175 93/32/174 91/80/112
f 94/22/111 92/33/175 91/80/112
f 202/40/103 63/80/102 49/85/113 203/45/129
f 96/23/176 81/24/167 73/65/81
f 97/31/80 96/23/176 73/65/81
f 98/29/170 85/28/163 71/53/140
f 2/79/91 32/75/125 24/62/83 34/73/90
f 198/36/67 46/53/66 64/65/105 197/43/104
f 17/84/109 15/83/108 5/87/136 16/86/135
f 199/43/161 194/39/148 74/66/82 73/65/81
f 42/49/172 43/50/171 106/72/131 1/69/130
f 90/15/133 87/17/177 88/18/79 74/66/82
f 51/27/154 67/52/65 76/88/147 68/30/158
f 140/21/178 119/22/179 155/22/180 176/21/181
f 115/15/182 114/17/183 150/17/184 151/15/185
f 141/23/186 142/31/187 178/31/188 177/23/189
f 124/28/190 110/26/191 146/26/192 160/28/193
f 131/19/194 130/30/195 166/30/196 167/19/197
f 113/18/198 120/31/199 156/31/200 149/18/201
f 125/20/202 131/19/194 167/19/197 161/20/203
f 128/24/204 141/23/186 177/23/189 164/24/205
f 110/26/191 109/27/206 145/27/207 146/26/192
f 133/17/208 136/15/209 172/15/210 169/17/211
f 117/16/212 115/15/182 151/15/185 153/16/213
f 134/18/214 133/17/208 169/17/211 170/18/215
f 112/24/216 111/25/217 147/25/218 148/24/219
f 126/26/220 132/28/221 168/28/222 162/26/223
f 136/15/209 135/16/224 171/16/225 172/15/210
f 138/32/226 137/33/227 173/33/228 174/32/229
f 137/33/227 139/22/230 175/22/231 173/33/228
f 122/30/232 108/19/233 144/19/234 158/30/235
f 118/33/236 116/32/237 152/32/238 154/33/239
f 127/27/240 126/26/220 162/26/223 163/27/241
f 114/17/183 113/18/198 149/18/201 150/17/184
f 135/16/224 138/32/226 174/32/229 171/16/225
f 130/30/195 127/27/240 163/27/241 166/30/196
f 142/31/187 134/18/214 170/18/215 178/31/188
f 123/29/242 124/28/190 160/28/193 159/29/243
f 111/25/217 123/29/242 159/29/243 147/25/218
f 132/28/221 143/29/244 179/29/245 168/28/222
f 109/27/206 122/30/232 158/30/235 145/27/207
f 108/19/233 125/20/202 161/20/203 144/19/234
f 121/23/246 112/24/216 148/24/219 157/23/247
f 129/25/248 128/24/204 164/24/205 165/25/249
f 143/29/244 129/25/248 165/25/249 179/29/245
f 139/22/230 140/21/178 176/21/181 175/22/231
f 116/32/237 117/16/212 153/16/213 152/32/238
f 119/22/179 118/33/236 154/33/239 155/22/180
f 120/31/199 121/23/246 157/23/247 156/31/200
f 31/76/124 2/74/91 181/2/250 185/1/251
f 23/83/121 40/87/134 182/6/252 189/5/253
f 28/57/71 30/56/70 188/10/254 190/9/255
f 19/57/137 186/9/256 183/10/257 18/56/98
f 15/83/108 187/5/258 191/6/259 5/87/136
f 6/76/93 180/1/260 181/2/250 2/74/91
f 40/87/134 28/57/71 190/9/255 182/6/252
f 3/82/107 23/83/121 189/5/253 184/13/261
f 5/87/136 191/6/259 186/9/256 19/57/137
f 18/56/98 183/10/257 180/1/260 6/76/93
f 3/82/107 184/13/261 187/5/258 15/83/108
f 30/56/70 31/76/124 185/1/251 188/10/254
