# Blender v2.76 (sub 0) OBJ File: ''
# www.blender.org
mtllib orcahat.mtl
o Cube
v -0.002127 0.020805 0.191754
v -0.002127 0.020139 0.283122
v 0.042012 -0.026707 0.230628
v 0.024507 0.214883 0.279095
v -0.046265 -0.026707 0.230628
v -0.000776 0.216103 0.276413
v 0.038327 -0.035714 0.207096
v -0.002127 0.122136 0.196003
v 0.035392 0.122136 0.233503
v -0.002127 -0.075479 0.208498
v 0.032972 -0.073622 0.225597
v -0.042581 -0.035714 0.207096
v -0.037226 -0.073622 0.225597
v -0.039646 0.122136 0.233503
v 0.002843 0.017041 0.282578
v -0.002127 0.122136 0.260508
v -0.002127 -0.046878 0.279274
v -0.007096 0.017041 0.282578
v 0.025665 0.112414 0.205725
v 0.031137 -0.072233 0.212989
v -0.035391 -0.072233 0.212989
v -0.029919 0.112414 0.205725
v 0.022581 0.112414 0.250785
v 0.001598 -0.000443 0.283747
v -0.005851 -0.000443 0.283747
v -0.026834 0.112414 0.250785
v -0.002127 -0.162398 0.261873
v -0.000777 0.168270 0.226660
v 0.020393 0.162264 0.246815
v -0.021946 0.162264 0.246815
v -0.000777 0.156259 0.258544
v 0.014904 0.164676 0.227013
v -0.016457 0.164676 0.227013
v 0.012637 0.155779 0.252983
v -0.014190 0.155779 0.252983
v -0.000776 0.199861 0.267185
v 0.009297 0.198641 0.269867
v -0.010850 0.198641 0.269867
v -0.000776 0.197421 0.272550
v 0.006685 0.199538 0.267021
v -0.008238 0.199538 0.267021
v 0.006685 0.197730 0.270995
v -0.008238 0.197730 0.270995
v 0.026604 -0.118948 0.252913
v -0.002127 -0.107925 0.279840
v -0.030858 -0.118948 0.252913
v -0.002127 -0.117420 0.225617
v 0.019156 -0.117479 0.230424
v -0.023409 -0.117479 0.230424
v 0.019156 -0.111239 0.273993
v -0.023409 -0.111239 0.273993
v 0.018874 -0.143565 0.255214
v -0.002127 -0.136460 0.270758
v -0.023128 -0.143565 0.255214
v -0.002127 -0.142550 0.244665
v 0.013430 -0.142492 0.247539
v -0.017683 -0.142492 0.247539
v 0.013430 -0.138583 0.267379
v -0.017683 -0.138583 0.267379
v 0.007580 -0.159283 0.261468
v -0.002127 -0.156681 0.272919
v -0.011834 -0.159283 0.261468
v -0.002127 -0.161884 0.257104
v 0.005064 -0.158787 0.257921
v -0.009317 -0.158787 0.257921
v 0.005064 -0.154932 0.269821
v -0.009317 -0.154932 0.269821
v -0.026060 0.214883 0.279095
v -0.000776 0.213662 0.281778
v 0.017952 0.215779 0.276249
v -0.019505 0.215779 0.276249
v 0.017952 0.213971 0.280223
v -0.019505 0.213971 0.280223
v 0.051544 0.224428 0.292304
v -0.000776 0.219875 0.278174
v -0.053097 0.224428 0.292304
v -0.000776 0.217435 0.283540
v 0.037980 0.225325 0.289457
v -0.039533 0.225325 0.289457
v 0.037980 0.223517 0.293432
v -0.039533 0.223517 0.293432
v 0.047898 0.020805 0.233503
v 0.035392 -0.077235 0.241302
v 0.035392 0.020805 0.196003
v -0.052152 0.020805 0.233503
v -0.039646 -0.077235 0.241302
v -0.039646 0.020805 0.196003
v 0.025665 -0.075318 0.211935
v -0.029919 -0.075318 0.211935
v 0.042012 -0.040165 0.224315
v 0.032972 -0.072226 0.221127
v 0.038327 -0.041853 0.211180
v -0.046265 -0.040165 0.224315
v -0.037226 -0.072226 0.221127
v -0.042581 -0.041853 0.211180
v 0.031137 -0.070837 0.216089
v -0.035391 -0.070837 0.216089
v 0.047495 -0.031012 0.219834
v 0.038455 -0.073955 0.218797
v 0.036621 -0.072565 0.213759
v 0.047897 -0.033854 0.208850
v -0.051749 -0.031012 0.219834
v -0.052150 -0.033854 0.208850
v -0.040874 -0.072565 0.213759
v -0.042709 -0.073955 0.218797
v 0.083476 -0.044100 0.233259
v 0.074436 -0.072867 0.232223
v 0.072601 -0.072434 0.227184
v 0.079791 -0.043253 0.222276
v -0.087730 -0.044100 0.233260
v -0.084045 -0.043253 0.222276
v -0.076855 -0.072434 0.227184
v -0.078690 -0.072867 0.232223
v 0.091054 -0.050914 0.239473
v 0.092000 -0.071891 0.243658
v 0.096905 -0.071458 0.241488
v 0.097431 -0.050525 0.231467
v -0.092248 -0.050914 0.239586
v -0.098531 -0.050525 0.231351
v -0.098019 -0.071458 0.241473
v -0.093163 -0.071891 0.243751
v 0.093990 -0.059972 0.247987
v 0.094624 -0.069962 0.246637
v 0.098013 -0.069660 0.244585
v 0.101415 -0.059381 0.244078
v -0.095248 -0.059972 0.248035
v -0.102585 -0.059381 0.243964
v -0.099195 -0.069660 0.244546
v -0.095852 -0.069962 0.246671
v -0.002127 0.029464 0.281859
v -0.039646 0.020805 0.271003
v 0.035392 0.020805 0.271003
v 0.025665 -0.057467 0.272100
v -0.002127 -0.003728 0.283666
v -0.029919 -0.057467 0.272100
v -0.002127 0.018038 0.297645
v -0.002127 0.001506 0.303996
v -0.007096 0.016010 0.298001
v 0.002843 0.016010 0.298001
v 0.001598 0.003616 0.303133
v -0.005851 0.003616 0.303133
v -0.002127 0.023779 0.315206
v -0.002127 0.016494 0.320190
v -0.004819 0.022911 0.315651
v 0.000565 0.022911 0.315651
v -0.000109 0.017373 0.319467
v -0.004144 0.017373 0.319467
v -0.002127 0.033008 0.325740
v -0.002127 0.030347 0.328225
v -0.003469 0.032575 0.325962
v -0.000785 0.032575 0.325962
v -0.001121 0.030785 0.327865
v -0.003133 0.030785 0.327865
v -0.002127 -0.027337 0.200126
v 0.041645 -0.028215 0.237402
v -0.045899 -0.028215 0.237402
v 0.030528 -0.027256 0.203969
v -0.034782 -0.027256 0.203969
v 0.030528 -0.018331 0.271551
v -0.034782 -0.018331 0.271551
v 0.037492 -0.050164 0.228113
v -0.041745 -0.050164 0.228113
v 0.034732 -0.053973 0.210042
v -0.038986 -0.053973 0.210042
v 0.037492 -0.056195 0.222721
v -0.041745 -0.056195 0.222721
v 0.034732 -0.056345 0.213635
v -0.038986 -0.056345 0.213635
v 0.042975 -0.052484 0.219315
v 0.042259 -0.053210 0.211304
v -0.046512 -0.053210 0.211304
v -0.047229 -0.052484 0.219315
v 0.078956 -0.058484 0.232741
v 0.076196 -0.057844 0.224730
v -0.080450 -0.057844 0.224730
v -0.083210 -0.058484 0.232741
v 0.091527 -0.061403 0.241565
v 0.097168 -0.060992 0.236477
v -0.098275 -0.060992 0.236412
v -0.092705 -0.061403 0.241669
v 0.094307 -0.064967 0.247312
v 0.099714 -0.064520 0.244332
v -0.100890 -0.064520 0.244255
v -0.095550 -0.064967 0.247353
v 0.002220 0.010104 0.283163
v -0.006474 0.010104 0.283163
v 0.002220 0.011617 0.300567
v -0.006474 0.011617 0.300567
v 0.000228 0.019168 0.317559
v -0.004481 0.021117 0.317559
v -0.002127 0.038470 0.331793
v -0.000953 0.031680 0.326913
v -0.003301 0.031680 0.326913
vt 0.444712 0.175399
vt 0.651077 0.174441
vt 0.637818 0.237353
vt 0.443640 0.253535
vt 0.342530 0.175749
vt 0.341714 0.244929
vt 0.239789 0.236323
vt 0.240348 0.176098
vt 0.239347 0.115872
vt 0.341213 0.106531
vt 0.443080 0.097189
vt 0.637140 0.111839
vt 0.450931 0.558071
vt 0.450663 0.475358
vt 0.653267 0.489886
vt 0.675444 0.558355
vt 0.652654 0.626294
vt 0.450798 0.640909
vt 0.428913 0.558248
vt 0.428713 0.616874
vt 0.369762 0.506236
vt 0.428620 0.499395
vt 0.441183 0.350542
vt 0.683627 0.294341
vt 0.453893 0.386511
vt 0.683836 0.425986
vt 0.341180 0.404940
vt 0.365398 0.484511
vt 0.280132 0.493663
vt 0.228466 0.423369
vt 0.287478 0.254999
vt 0.326059 0.261267
vt 0.311642 0.265914
vt 0.280715 0.260802
vt 0.211017 0.045419
vt 0.135179 0.126480
vt 0.101048 0.078721
vt 0.140239 0.176466
vt 0.164808 0.512949
vt 0.137317 0.469256
vt 0.304214 0.558227
vt 0.174101 0.558312
vt 0.286901 0.096851
vt 0.248363 0.103399
vt 0.249204 0.096433
vt 0.280095 0.091096
vt 0.341424 0.711538
vt 0.228617 0.693217
vt 0.280215 0.622838
vt 0.365506 0.631874
vt 0.454230 0.729859
vt 0.683683 0.689581
vt 0.439949 0.000157
vt 0.682529 0.054764
vt 0.759205 0.140414
vt 0.765554 0.176273
vt 0.787187 0.101144
vt 0.777298 0.477683
vt 0.762166 0.506687
vt 0.763856 0.555628
vt 0.878352 0.535454
vt 0.879039 0.555673
vt 0.901871 0.154966
vt 0.902953 0.176151
vt 0.879329 0.527477
vt 0.777245 0.633727
vt 0.761993 0.604726
vt 0.878345 0.575893
vt 0.879324 0.583874
vt 0.759482 0.212127
vt 0.787291 0.251411
vt 0.924253 0.490155
vt 0.925457 0.505924
vt 0.925456 0.605430
vt 0.924252 0.621199
vt 0.930139 0.555677
vt 0.901901 0.197334
vt 0.953724 0.176137
vt 0.954467 0.221884
vt 0.904218 0.143763
vt 0.904263 0.208532
vt 0.135549 0.226486
vt 0.061620 0.216103
vt 0.065073 0.176744
vt 0.101774 0.274495
vt 0.046777 0.235304
vt 0.061327 0.137412
vt 0.046341 0.118321
vt 0.110315 0.558346
vt 0.103836 0.522751
vt 0.164857 0.603688
vt 0.211982 0.306980
vt 0.137407 0.647413
vt 0.006325 0.202590
vt 0.014096 0.194726
vt 0.013963 0.159143
vt 0.006133 0.151337
vt 0.073289 0.558365
vt 0.073504 0.544862
vt 0.011893 0.176943
vt 0.103872 0.593948
vt 0.084403 0.619194
vt 0.084342 0.497526
vt 0.000157 0.176987
vt 0.048214 0.558377
vt 0.055557 0.533571
vt 0.073518 0.571867
vt 0.055582 0.583177
vt 0.954446 0.130372
vt 0.957305 0.112519
vt 0.957330 0.239723
vt 0.995406 0.080920
vt 0.963993 0.176138
vt 0.955014 0.463641
vt 0.941591 0.555677
vt 0.954866 0.437315
vt 0.999843 0.046751
vt 0.995405 0.271292
vt 0.955014 0.647714
vt 0.999843 0.305434
vt 0.954866 0.674041
vt 0.955525 0.555677
vt 0.963600 0.464347
vt 0.963600 0.647008
vt 0.283411 0.294298
vt 0.332102 0.314672
vt 0.326582 0.328761
vt 0.282548 0.057575
vt 0.234000 0.078309
vt 0.325483 0.022788
vt 0.325439 0.090302
vt 0.331096 0.036841
vt 0.248896 0.248730
vt 0.234720 0.273924
vt 0.220252 0.777391
vt 0.300698 0.834287
vt 0.267848 0.863780
vt 0.208145 0.829878
vt 0.322653 0.880614
vt 0.334055 0.900955
vt 0.316871 0.905060
vt 0.289919 0.879246
vt 0.307631 0.058985
vt 0.274677 0.072735
vt 0.242383 0.265692
vt 0.275433 0.279199
vt 0.241724 0.086485
vt 0.249789 0.255690
vt 0.310986 0.085759
vt 0.308482 0.292706
vt 0.206569 0.765838
vt 0.197063 0.809253
vt 0.125754 0.891907
vt 0.138775 0.897311
vt 0.139794 0.909487
vt 0.122623 0.907295
vt 0.150817 0.865559
vt 0.169437 0.870766
vt 0.200098 0.844222
vt 0.175880 0.839211
vt 0.687484 0.765820
vt 0.662645 0.762135
vt 0.657598 0.737329
vt 0.685784 0.731724
vt 0.704706 0.796038
vt 0.685664 0.795410
vt 0.721928 0.841070
vt 0.705914 0.839911
vt 0.708682 0.828684
vt 0.721928 0.826256
vt 0.720160 0.884250
vt 0.704675 0.895719
vt 0.221052 0.925667
vt 0.228986 0.936044
vt 0.233337 0.897500
vt 0.245621 0.869332
vt 0.306754 0.918725
vt 0.296637 0.932391
vt 0.291246 0.922814
vt 0.292199 0.913905
vt 0.602168 0.787021
vt 0.571819 0.782203
vt 0.614552 0.816511
vt 0.619073 0.855221
vt 0.626936 0.846001
vt 0.610485 0.893288
vt 0.284650 0.924767
vt 0.282634 0.936044
vt 0.279522 0.907911
vt 0.274395 0.891054
vt 0.573895 0.814141
vt 0.547545 0.807026
vt 0.574256 0.833013
vt 0.577926 0.860600
vt 0.574617 0.851884
vt 0.579836 0.887563
vt 0.293152 0.904996
vt 0.554300 0.854439
vt 0.564317 0.844812
vt 0.568265 0.852356
vt 0.566875 0.861862
vt 0.560368 0.837268
vt 0.541726 0.847016
vt 0.563483 0.874787
vt 0.310903 0.513078
vt 0.327503 0.559065
vt 0.310964 0.603372
vt 0.369839 0.610123
vt 0.378208 0.558657
vt 0.581746 0.914525
vt 0.560091 0.887713
vt 0.601897 0.931355
vt 0.703437 0.951528
vt 0.718392 0.927430
vt 0.216075 0.722422
vt 0.232360 0.724904
vt 0.333547 0.804793
vt 0.355388 0.881981
vt 0.351239 0.896851
vn 0.000000 -0.045700 -0.998900
vn -0.003300 0.324300 -0.945900
vn 0.649300 0.246500 -0.719400
vn 0.641300 -0.008100 -0.767200
vn 0.000000 -0.173100 -0.984900
vn 0.154500 -0.177700 -0.971900
vn 0.430400 -0.404000 -0.807200
vn 0.000000 -0.286300 -0.958100
vn -0.430400 -0.404000 -0.807200
vn -0.154500 -0.177700 -0.971900
vn -0.641300 -0.008100 -0.767200
vn -0.649800 0.256700 -0.715400
vn 0.000000 0.217400 0.976100
vn 0.699800 0.071600 0.710700
vn 0.644700 0.155800 0.748400
vn -0.006600 0.135600 0.990700
vn -0.643200 0.169000 0.746800
vn -0.699800 0.071600 0.710700
vn 0.000000 0.640700 0.767800
vn -0.618200 0.281400 0.733900
vn -0.904100 0.427100 -0.012100
vn 0.000000 0.994000 -0.108800
vn 0.824000 -0.064600 0.562900
vn 0.618200 0.281400 0.733900
vn 0.903300 0.428800 -0.013700
vn 0.995400 -0.058800 0.076000
vn 0.998300 0.034900 0.045700
vn 0.968400 0.232300 0.090900
vn 0.977700 -0.126000 0.168200
vn 0.717500 -0.066600 0.693300
vn 0.672500 -0.071500 0.736600
vn 0.979600 -0.197700 0.036700
vn 0.688600 -0.250400 -0.680500
vn 0.711900 -0.132300 -0.689700
vn 0.610700 0.028900 -0.791300
vn 0.522100 -0.223100 -0.823200
vn -0.979600 -0.197700 0.036700
vn -0.577600 -0.454400 -0.678200
vn -0.959900 -0.277000 0.043300
vn 0.000000 -0.494800 -0.869000
vn 0.622500 -0.167900 0.764300
vn 0.959900 -0.277000 0.043300
vn 0.000000 -0.066700 0.997700
vn 0.000000 -0.126100 0.992000
vn -0.688600 -0.250400 -0.680500
vn -0.706800 -0.442000 -0.552300
vn -0.695400 -0.497700 -0.518400
vn -0.522100 -0.223100 -0.823200
vn -0.977700 -0.126000 0.168200
vn -0.672500 -0.071500 0.736600
vn -0.717500 -0.066600 0.693300
vn -0.998300 0.034900 0.045700
vn -0.960800 0.260800 0.093300
vn -0.573500 0.565500 -0.592700
vn 0.002200 0.667000 -0.745000
vn -0.942700 0.243500 0.228000
vn 0.950000 0.219700 0.221900
vn 0.548000 -0.078000 0.832800
vn 0.003100 -0.157400 0.987500
vn 0.344500 -0.430000 0.834500
vn 0.000000 -0.438400 0.898800
vn -0.411000 0.554900 -0.723200
vn 0.000000 0.642300 -0.766400
vn 0.962200 -0.234000 0.139000
vn -0.542500 -0.058100 0.838000
vn -0.344500 -0.430000 0.834500
vn -0.962200 -0.234000 0.139000
vn 0.585100 0.549400 -0.596500
vn 0.668100 -0.555800 -0.494600
vn 0.132000 -0.704100 0.697700
vn -0.132000 -0.704100 0.697700
vn -0.668100 -0.555800 -0.494600
vn 0.000000 -0.637800 0.770100
vn 0.411000 0.554900 -0.723200
vn 0.000000 0.599200 -0.800500
vn 0.258400 0.444600 -0.857600
vn 0.577600 -0.454400 -0.678200
vn 0.515400 -0.561500 -0.647300
vn 0.000000 -0.586700 -0.809800
vn 0.880800 -0.472500 -0.028400
vn -0.515400 -0.561500 -0.647300
vn -0.880800 -0.472500 -0.028400
vn 0.000000 -0.134400 0.990900
vn 0.626900 -0.253100 0.736800
vn -0.622600 -0.167900 0.764300
vn 0.634500 -0.767800 0.088400
vn 0.389000 -0.745700 -0.540900
vn -0.389000 -0.745700 -0.540900
vn -0.634500 -0.767800 0.088400
vn 0.000000 -0.473300 0.880900
vn 0.511800 -0.413100 0.753200
vn 0.000000 -0.840400 -0.541900
vn -0.626900 -0.253100 0.736800
vn 0.000000 -0.990100 0.140400
vn -0.511800 -0.413100 0.753200
vn -0.258400 0.444600 -0.857600
vn -0.063600 0.963700 -0.259200
vn 0.000000 0.956700 -0.291000
vn -0.030100 0.046100 0.998500
vn 0.000000 0.101100 0.994900
vn 0.993900 -0.109600 0.012900
vn -0.993900 -0.109600 0.012900
vn 0.063600 0.963700 -0.259200
vn 0.030100 0.046100 0.998500
vn 0.973200 -0.202000 0.109900
vn 0.992200 -0.101100 -0.072100
vn -0.973200 -0.202000 0.109900
vn -0.855300 -0.498200 -0.142100
vn -0.711900 -0.132300 -0.689700
vn -0.992200 -0.101100 -0.072100
vn 0.706800 -0.442000 -0.552300
vn 0.855300 -0.498200 -0.142100
vn 0.184900 -0.082300 0.979300
vn -0.446900 0.100700 0.888900
vn 0.033600 0.771000 0.635900
vn -0.246900 0.861200 0.444200
vn -0.761600 0.069000 0.644400
vn -0.281400 -0.075400 0.956600
vn -0.261900 0.285300 0.921900
vn -0.082100 0.690400 0.718800
vn -0.912200 -0.039000 0.407800
vn -0.815600 -0.224900 0.533100
vn 0.874700 -0.461700 0.147100
vn 0.815600 -0.224900 0.533100
vn -0.874700 -0.461700 0.147100
vn 0.695400 -0.497700 -0.518400
vn -0.610700 0.028900 -0.791300
vn 0.912200 -0.039000 0.407800
vn -0.130400 -0.650500 -0.748200
vn -0.019500 -0.898000 0.439400
vn 0.045700 -0.155200 -0.986800
vn -0.107900 0.635600 -0.764400
vn 0.107900 0.635600 -0.764400
vn 0.246900 0.861200 0.444200
vn -0.045700 -0.155200 -0.986800
vn 0.019500 -0.898000 0.439400
vn 0.130400 -0.650500 -0.748200
vn -0.184900 -0.082300 0.979300
vn 0.291600 -0.717900 -0.632100
vn -0.254300 -0.753700 0.605900
vn 0.378600 -0.271100 -0.884900
vn 0.531300 0.479100 -0.698700
vn -0.132000 -0.475100 0.870000
vn 0.776800 -0.509400 0.370200
vn 0.917300 -0.227100 0.327100
vn -0.558800 0.468000 -0.684600
vn -0.084900 0.785500 0.612900
vn -0.405300 -0.272200 -0.872700
vn 0.270800 -0.765800 0.583200
vn -0.309900 -0.712900 -0.629000
vn 0.507000 0.108000 0.855100
vn 0.604800 -0.745800 -0.279300
vn -0.341100 -0.760400 0.552600
vn 0.689400 -0.298300 -0.660100
vn 0.784100 0.428600 -0.448900
vn -0.824900 0.382700 -0.416000
vn 0.160000 0.678200 0.717200
vn -0.707100 -0.297300 -0.641500
vn 0.373400 -0.747300 0.549600
vn -0.610500 -0.746600 -0.264200
vn 0.798200 0.075300 0.597600
vn 0.924300 0.207900 0.320000
vn 0.263100 -0.073600 0.961900
vn -0.922100 -0.228700 0.312100
vn -0.783200 -0.509800 0.356000
vn 0.114500 -0.474600 0.872700
vn -0.929400 0.205500 0.306500
vn 0.245900 0.285700 0.926200
vn 0.648300 -0.289900 0.704000
vn 0.000000 -0.475000 0.880000
vn -0.648300 -0.289900 0.704000
vn -0.824000 -0.064600 0.562900
vn -0.995200 -0.059400 0.077000
vn -0.837800 -0.471700 0.274700
vn -0.806600 -0.341100 0.482800
vn -0.989200 -0.028700 0.143700
vn -0.880000 0.447100 -0.160100
vn 0.000000 0.866100 -0.499700
vn 0.837200 -0.472600 0.274900
vn 0.000000 -0.883600 0.468200
vn 0.989300 -0.030000 0.142500
vn 0.877000 0.452000 -0.162700
vn 0.830000 0.465000 -0.307900
vn 0.983900 0.058700 0.168600
vn 0.000000 -0.631900 0.775000
vn 0.000000 -0.437200 0.899300
vn -0.832500 -0.210900 0.512300
vn 0.804600 -0.342100 0.485300
vn 0.000000 0.768100 0.640300
vn -0.984000 0.057900 0.168100
vn 0.830900 -0.212100 0.514300
vn -0.831400 0.463400 -0.306600
vn 0.000000 0.795300 -0.606200
usemtl Material
s 1
f 1/1/1 8/2/2 19/3/3 84/4/4
f 154/5/5 157/6/6 88/7/7 10/8/8
f 154/5/5 10/8/8 89/9/9 158/10/10
f 1/1/1 87/11/11 22/12/12 8/2/2
f 130/13/13 132/14/14 23/15/15 16/16/16
f 130/13/13 16/16/16 26/17/17 131/18/18
f 2/19/19 18/20/20 138/20/21 136/19/22
f 185/21/23 15/22/24 139/22/25 187/21/26
f 82/23/27 84/4/4 19/3/3 9/24/28
f 82/25/27 9/26/28 23/15/15 132/14/14
f 155/27/29 159/28/30 133/29/31 83/30/32
f 163/31/33 7/32/34 92/33/35 167/34/36
f 86/35/37 89/9/9 49/36/38 46/37/39
f 89/9/9 10/8/8 47/38/40 49/36/38
f 83/30/32 133/29/31 50/39/41 44/40/42
f 133/29/31 17/41/43 45/42/44 50/39/41
f 164/43/45 21/44/46 97/45/47 168/46/48
f 156/47/49 86/48/37 135/49/50 160/50/51
f 85/51/52 131/18/18 26/17/17 14/52/53
f 85/53/52 14/54/53 22/12/12 87/11/11
f 8/2/2 22/12/12 33/55/54 28/56/55
f 22/12/12 14/54/53 30/57/56 33/55/54
f 23/15/15 9/26/28 29/58/57 34/59/58
f 16/16/16 23/15/15 34/59/58 31/60/59
f 31/60/59 34/59/58 42/61/60 39/62/61
f 28/56/55 33/55/54 41/63/62 36/64/63
f 34/59/58 29/58/57 37/65/64 42/61/60
f 30/66/56 35/67/65 43/68/66 38/69/67
f 26/17/17 16/16/16 31/60/59 35/67/65
f 14/52/53 26/17/17 35/67/65 30/66/56
f 9/24/28 19/3/3 32/70/68 29/71/57
f 19/3/3 8/2/2 28/56/55 32/70/68
f 42/61/60 37/65/64 4/72/69 72/73/70
f 38/69/67 43/68/66 73/74/71 68/75/72
f 43/68/66 39/62/61 69/76/73 73/74/71
f 40/77/74 36/64/63 6/78/75 70/79/76
f 33/55/54 30/57/56 38/80/67 41/63/62
f 29/71/57 32/70/68 40/77/74 37/81/64
f 32/70/68 28/56/55 36/64/63 40/77/74
f 35/67/65 31/60/59 39/62/61 43/68/66
f 47/38/40 48/82/77 56/83/78 55/84/79
f 48/82/77 44/85/42 52/86/80 56/83/78
f 46/37/39 49/36/38 57/87/81 54/88/82
f 50/39/41 45/42/44 53/89/83 58/90/84
f 17/41/43 135/49/50 51/91/85 45/42/44
f 88/7/7 83/92/32 44/85/42 48/82/77
f 10/8/8 88/7/7 48/82/77 47/38/40
f 135/49/50 86/48/37 46/93/39 51/91/85
f 56/83/78 52/86/80 60/94/86 64/95/87
f 54/88/82 57/87/81 65/96/88 62/97/89
f 58/90/84 53/89/83 61/98/90 66/99/91
f 57/87/81 55/84/79 63/100/92 65/96/88
f 45/42/44 51/91/85 59/101/93 53/89/83
f 51/91/85 46/93/39 54/102/82 59/101/93
f 44/40/42 50/39/41 58/90/84 52/103/80
f 49/36/38 47/38/40 55/84/79 57/87/81
f 27/104/94 63/100/92 64/95/87 60/94/86
f 27/105/94 60/106/86 66/99/91 61/98/90
f 27/105/94 61/98/90 67/107/95 62/108/89
f 27/104/94 62/97/89 65/96/88 63/100/92
f 55/84/79 56/83/78 64/95/87 63/100/92
f 53/89/83 59/101/93 67/107/95 61/98/90
f 59/101/93 54/102/82 62/108/89 67/107/95
f 52/103/80 58/90/84 66/99/91 60/106/86
f 36/64/63 41/63/62 71/109/96 6/78/75
f 39/62/61 42/61/60 72/73/70 69/76/73
f 41/63/62 38/80/67 68/110/72 71/109/96
f 37/81/64 40/77/74 70/79/76 4/111/69
f 6/78/75 71/109/96 79/112/97 75/113/98
f 69/76/73 72/73/70 80/114/99 77/115/100
f 72/73/70 4/72/69 74/116/101 80/114/99
f 71/109/96 68/110/72 76/117/102 79/112/97
f 70/79/76 6/78/75 75/113/98 78/118/103
f 73/74/71 69/76/73 77/115/100 81/119/104
f 4/111/69 70/79/76 78/118/103 74/120/101
f 68/75/72 73/74/71 81/119/104 76/121/102
f 75/122/98 77/115/100 80/114/99 78/123/103
f 79/124/97 81/119/104 77/115/100 75/122/98
f 76/121/102 81/119/104 79/124/97
f 74/116/101 78/123/103 80/114/99
f 161/125/105 3/126/106 82/23/27 155/127/29
f 3/126/106 7/32/34 84/4/4 82/23/27
f 162/128/107 13/129/108 86/35/37 156/130/49
f 12/131/109 5/132/110 85/53/52 87/11/11
f 163/31/33 20/133/111 88/7/7 157/6/6
f 20/133/111 11/134/112 83/92/32 88/7/7
f 164/43/45 12/131/109 87/11/11 158/10/10
f 13/129/108 21/44/46 89/9/9 86/35/37
f 169/135/113 173/136/114 106/137/115 98/138/116
f 177/139/117 181/140/118 122/141/119 114/142/120
f 162/128/107 5/132/110 93/143/121 166/144/122
f 161/125/105 11/134/112 91/145/123 165/146/124
f 21/44/46 13/129/108 94/147/125 97/45/47
f 11/134/112 20/133/111 96/148/126 91/145/123
f 5/132/110 12/131/109 95/149/127 93/143/121
f 7/32/34 3/126/106 90/150/128 92/33/35
f 173/136/114 177/139/117 114/142/120 106/137/115
f 165/151/124 169/135/113 98/138/116 90/152/128
f 96/153/126 100/154/129 99/155/130 91/156/123
f 167/157/36 170/158/131 100/154/129 96/153/126
f 90/152/128 98/138/116 101/159/132 92/160/35
f 95/161/127 103/162/133 102/163/134 93/164/121
f 168/165/48 171/166/135 103/162/133 95/161/127
f 94/167/125 105/168/136 104/169/137 97/170/47
f 166/171/122 172/172/138 105/168/136 94/167/125
f 100/154/129 108/173/139 107/174/140 99/155/130
f 170/158/131 174/175/141 108/173/139 100/154/129
f 98/138/116 106/137/115 109/176/142 101/159/132
f 181/177/118 123/178/143 124/179/144 182/180/145
f 103/162/133 111/181/146 110/182/147 102/163/134
f 171/166/135 175/183/148 111/181/146 103/162/133
f 105/168/136 113/184/149 112/185/150 104/169/137
f 172/172/138 176/186/151 113/184/149 105/168/136
f 108/173/139 116/187/152 115/188/153 107/174/140
f 174/175/141 178/189/154 116/187/152 108/173/139
f 106/137/115 114/142/120 117/190/155 109/176/142
f 111/181/146 119/191/156 118/192/157 110/182/147
f 175/183/148 179/193/158 119/191/156 111/181/146
f 113/184/149 121/194/159 120/195/160 112/185/150
f 176/186/151 180/196/161 121/194/159 113/184/149
f 116/187/152 124/179/144 123/178/143 115/188/153
f 178/189/154 182/180/145 124/179/144 116/187/152
f 114/142/120 122/141/119 125/197/162 117/190/155
f 184/198/163 183/199/164 128/200/165 129/201/166
f 119/191/156 127/202/167 126/203/168 118/192/157
f 179/193/158 183/199/164 127/202/167 119/191/156
f 121/194/159 129/201/166 128/200/165 120/195/160
f 180/196/161 184/204/163 129/201/166 121/194/159
f 18/20/20 2/19/19 130/13/13 131/18/18
f 2/19/19 15/22/24 132/14/14 130/13/13
f 185/21/23 24/205/169 133/29/31 159/28/30
f 24/205/169 134/206/170 17/41/43 133/29/31
f 134/206/170 25/207/171 135/49/50 17/41/43
f 186/208/172 18/20/20 131/18/18 160/50/51
f 188/208/173 141/207/174 147/207/175 190/208/176
f 136/19/22 138/20/21 144/20/177 142/19/178
f 186/208/172 25/207/171 141/207/174 188/208/173
f 134/206/170 24/205/169 140/205/179 137/206/180
f 15/22/24 2/19/19 136/19/22 139/22/25
f 25/207/171 134/206/170 137/206/180 141/207/174
f 189/21/181 145/22/182 151/22/183 192/21/184
f 147/207/175 143/206/185 149/206/186 153/207/187
f 137/206/180 140/205/179 146/205/188 143/206/185
f 139/22/25 136/19/22 142/19/178 145/22/182
f 141/207/174 137/206/180 143/206/185 147/207/175
f 187/21/26 139/22/25 145/22/182 189/21/181
f 191/209/189 193/208/190 153/207/187 149/206/186
f 191/209/189 149/206/186 152/205/191 192/21/184
f 142/19/178 144/20/177 150/20/192 148/19/193
f 190/208/176 147/207/175 153/207/187 193/208/190
f 143/206/185 146/205/188 152/205/191 149/206/186
f 145/22/182 142/19/178 148/19/193 151/22/183
f 144/20/177 190/208/176 193/208/190 150/20/192
f 148/19/193 191/209/189 192/21/184 151/22/183
f 148/19/193 150/20/192 193/208/190 191/209/189
f 140/205/179 187/21/26 189/21/181 146/205/188
f 146/205/188 189/21/181 192/21/184 152/205/191
f 18/20/20 186/208/172 188/208/173 138/20/21
f 138/20/21 188/208/173 190/208/176 144/20/177
f 25/207/171 186/208/172 160/50/51 135/49/50
f 15/22/24 185/21/23 159/28/30 132/14/14
f 118/210/157 126/211/168 184/204/163 180/196/161
f 120/195/160 128/200/165 183/199/164 179/193/158
f 126/203/168 127/202/167 183/199/164 184/198/163
f 117/190/155 125/197/162 182/180/145 178/189/154
f 110/212/147 118/210/157 180/196/161 176/186/151
f 112/185/150 120/195/160 179/193/158 175/183/148
f 109/176/142 117/190/155 178/189/154 174/175/141
f 102/213/134 110/212/147 176/186/151 172/172/138
f 104/169/137 112/185/150 175/183/148 171/166/135
f 122/141/119 181/177/118 182/180/145 125/197/162
f 101/159/132 109/176/142 174/175/141 170/158/131
f 93/214/121 102/213/134 172/172/138 166/171/122
f 97/170/47 104/169/137 171/166/135 168/165/48
f 92/160/35 101/159/132 170/158/131 167/157/36
f 91/215/123 99/216/130 169/135/113 165/151/124
f 107/217/140 115/218/153 177/139/117 173/136/114
f 3/126/106 161/125/105 165/146/124 90/150/128
f 13/129/108 162/128/107 166/144/122 94/147/125
f 115/218/153 123/219/143 181/140/118 177/139/117
f 99/216/130 107/217/140 173/136/114 169/135/113
f 21/44/46 164/43/45 158/10/10 89/9/9
f 7/32/34 163/31/33 157/6/6 84/4/4
f 5/132/110 162/128/107 156/130/49 85/53/52
f 11/134/112 161/125/105 155/127/29 83/92/32
f 85/51/52 156/47/49 160/50/51 131/18/18
f 12/131/109 164/43/45 168/46/48 95/149/127
f 20/133/111 163/31/33 167/34/36 96/148/126
f 82/25/27 132/14/14 159/28/30 155/27/29
f 24/205/169 185/21/23 187/21/26 140/205/179
f 1/1/1 154/5/5 158/10/10 87/11/11
f 1/1/1 84/4/4 157/6/6 154/5/5
